# Blender 4.5.3 LTS
# www.blender.org
mtllib glass bolts.mtl
o RenderMesh_14653989374
v 0.443215 0.195216 0.060507
v 0.441801 0.196630 0.060507
v 0.461771 0.202903 0.060507
v 0.461771 0.204903 0.060507
v 0.443215 0.195216 0.053359
v 0.441801 0.196630 0.053359
v 0.461771 0.202903 0.053359
v 0.461771 0.204903 0.053359
v 0.435529 0.176660 0.053359
v 0.433529 0.176660 0.053359
v 0.480327 0.195216 0.060507
v 0.481741 0.196630 0.060507
v 0.435529 0.176660 0.060507
v 0.433529 0.176660 0.060507
v 0.480327 0.195216 0.053359
v 0.481741 0.196630 0.053359
v 0.443215 0.158104 0.053359
v 0.441801 0.156690 0.053359
v 0.488014 0.176660 0.060507
v 0.490014 0.176660 0.060507
v 0.443215 0.158104 0.060507
v 0.441801 0.156690 0.060507
v 0.488014 0.176660 0.053359
v 0.490014 0.176660 0.053359
v 0.461771 0.150418 0.053359
v 0.461771 0.148418 0.053359
v 0.480327 0.158104 0.060507
v 0.481741 0.156690 0.060507
v 0.461771 0.150418 0.060507
v 0.461771 0.148418 0.060507
v 0.480327 0.158104 0.053359
v 0.481741 0.156690 0.053359
v 0.485642 -0.083980 0.087307
v 0.485642 -0.081980 0.087307
v 0.485642 -0.083980 -0.087307
v 0.485642 -0.081980 -0.087307
v 0.467085 -0.091666 -0.087307
v 0.465671 -0.090252 -0.087307
v 0.504198 -0.091666 0.087307
v 0.505612 -0.090252 0.087307
v 0.467085 -0.091666 0.087307
v 0.465671 -0.090252 0.087307
v 0.504198 -0.091666 -0.087307
v 0.505612 -0.090252 -0.087307
v 0.459399 -0.110222 -0.087307
v 0.457399 -0.110222 -0.087307
v 0.511885 -0.110222 0.087307
v 0.513885 -0.110222 0.087307
v 0.459399 -0.110222 0.087307
v 0.457399 -0.110222 0.087307
v 0.511885 -0.110222 -0.087307
v 0.513885 -0.110222 -0.087307
v 0.467085 -0.128778 -0.087307
v 0.465671 -0.130192 -0.087307
v 0.504198 -0.128778 0.087307
v 0.505612 -0.130192 0.087307
v 0.467085 -0.128778 0.087307
v 0.465671 -0.130192 0.087307
v 0.504198 -0.128778 -0.087307
v 0.505612 -0.130192 -0.087307
v 0.485642 -0.136465 -0.087307
v 0.485642 -0.138465 -0.087307
v 0.485642 -0.136465 0.087307
v 0.485642 -0.138465 0.087307
v -0.246341 -0.080158 -0.098568
v -0.246341 -0.080158 -0.100568
v -0.227785 -0.035360 -0.098568
v -0.227785 -0.035360 -0.100568
v -0.227785 -0.072472 -0.098568
v -0.227785 -0.072472 -0.100568
v -0.220097 -0.053916 -0.098568
v -0.220097 -0.053916 -0.100568
v -0.272583 -0.053916 -0.098568
v -0.272583 -0.053916 -0.100568
v -0.264897 -0.072472 -0.098568
v -0.264897 -0.072472 -0.100568
v -0.264897 -0.035360 -0.098568
v -0.264897 -0.035360 -0.100568
v -0.246341 -0.027673 -0.098568
v -0.246341 -0.027673 -0.100568
v -0.246341 -0.080158 0.098568
v -0.246341 -0.080158 0.100568
v -0.220097 -0.053916 0.098568
v -0.220097 -0.053916 0.100568
v -0.227784 -0.035360 0.098568
v -0.227784 -0.035360 0.100568
v -0.227784 -0.072472 0.098568
v -0.227784 -0.072472 0.100568
v -0.264897 -0.035360 0.098568
v -0.264897 -0.035360 0.100568
v -0.246341 -0.027673 0.098568
v -0.246341 -0.027673 0.100568
v -0.272583 -0.053916 0.098568
v -0.272583 -0.053916 0.100568
v -0.264897 -0.072472 0.098568
v -0.264897 -0.072472 0.100568
v 0.316723 -0.080158 -0.098568
v 0.316723 -0.080158 -0.100568
v 0.335279 -0.035360 -0.098568
v 0.335279 -0.035360 -0.100568
v 0.335279 -0.072472 -0.098568
v 0.335279 -0.072472 -0.100568
v 0.342965 -0.053916 -0.098568
v 0.342965 -0.053916 -0.100568
v 0.290480 -0.053916 -0.098568
v 0.290480 -0.053916 -0.100568
v 0.298166 -0.072472 -0.098568
v 0.298166 -0.072472 -0.100568
v 0.298166 -0.035360 -0.098568
v 0.298166 -0.035360 -0.100568
v 0.316723 -0.027673 -0.098568
v 0.316723 -0.027673 -0.100568
v 0.335279 -0.072472 0.098568
v 0.335279 -0.072472 0.100568
v 0.335279 -0.035360 0.098568
v 0.335279 -0.035360 0.100568
v 0.316723 -0.080158 0.098568
v 0.316723 -0.080158 0.100568
v 0.342965 -0.053916 0.098568
v 0.342965 -0.053916 0.100568
v 0.290480 -0.053916 0.098568
v 0.290480 -0.053916 0.100568
v 0.298166 -0.072472 0.098568
v 0.298166 -0.072472 0.100568
v 0.298166 -0.035360 0.098568
v 0.298166 -0.035360 0.100568
v 0.316723 -0.027673 0.098568
v 0.316723 -0.027673 0.100568
v 0.485642 -0.136465 -0.087307
v 0.485642 -0.136465 -0.089307
v 0.467085 -0.128778 -0.087307
v 0.467085 -0.128778 -0.089307
v 0.504198 -0.128778 -0.087307
v 0.504198 -0.128778 -0.089307
v 0.485642 -0.083980 -0.087307
v 0.485642 -0.083980 -0.089307
v 0.511885 -0.110222 -0.087307
v 0.511885 -0.110222 -0.089307
v 0.504198 -0.091666 -0.087307
v 0.504198 -0.091666 -0.089307
v 0.459399 -0.110222 -0.087307
v 0.459399 -0.110222 -0.089307
v 0.467085 -0.091666 -0.087307
v 0.467085 -0.091666 -0.089307
v 0.504198 -0.128778 0.087307
v 0.504198 -0.128778 0.089307
v 0.467085 -0.128778 0.087307
v 0.467085 -0.128778 0.089307
v 0.485642 -0.136465 0.087307
v 0.485642 -0.136465 0.089307
v 0.485642 -0.083980 0.087307
v 0.485642 -0.083980 0.089307
v 0.511885 -0.110222 0.087307
v 0.511885 -0.110222 0.089307
v 0.504198 -0.091666 0.087307
v 0.504198 -0.091666 0.089307
v 0.459399 -0.110222 0.087307
v 0.459399 -0.110222 0.089307
v 0.467085 -0.091666 0.087307
v 0.467085 -0.091666 0.089307
v -0.485642 -0.136465 -0.087307
v -0.485642 -0.136465 -0.089307
v -0.504198 -0.128778 -0.087307
v -0.504198 -0.128778 -0.089307
v -0.467086 -0.128778 -0.087307
v -0.467086 -0.128778 -0.089307
v -0.511885 -0.110222 -0.087307
v -0.511885 -0.110222 -0.089307
v -0.485642 -0.083980 -0.087307
v -0.485642 -0.083980 -0.089307
v -0.504198 -0.091666 -0.087307
v -0.504198 -0.091666 -0.089307
v -0.467086 -0.091666 -0.087307
v -0.467086 -0.091666 -0.089307
v -0.459400 -0.110222 -0.087307
v -0.459400 -0.110222 -0.089307
v -0.467085 -0.128778 0.087307
v -0.467085 -0.128778 0.089307
v -0.504198 -0.128778 0.087307
v -0.504198 -0.128778 0.089307
v -0.485642 -0.136465 0.087307
v -0.485642 -0.136465 0.089307
v -0.485642 -0.083980 0.087307
v -0.485642 -0.083980 0.089307
v -0.459400 -0.110222 0.087307
v -0.459400 -0.110222 0.089307
v -0.467085 -0.091666 0.087307
v -0.467085 -0.091666 0.089307
v -0.511885 -0.110222 0.087307
v -0.511885 -0.110222 0.089307
v -0.504198 -0.091666 0.087307
v -0.504198 -0.091666 0.089307
v 0.488014 0.176660 0.060507
v 0.488014 0.176660 0.062507
v 0.443215 0.195216 0.060507
v 0.443215 0.195216 0.062507
v 0.461771 0.150418 0.060507
v 0.461771 0.150418 0.062507
v 0.480327 0.158104 0.060507
v 0.480327 0.158104 0.062507
v 0.443215 0.158104 0.060507
v 0.443215 0.158104 0.062507
v 0.435529 0.176660 0.060507
v 0.435529 0.176660 0.062507
v 0.480327 0.195216 0.060507
v 0.480327 0.195216 0.062507
v 0.461771 0.202903 0.060507
v 0.461771 0.202903 0.062507
v 0.443215 0.195216 -0.060508
v 0.443215 0.195216 -0.062508
v 0.488014 0.176660 -0.060508
v 0.488014 0.176660 -0.062508
v 0.461771 0.150418 -0.060508
v 0.461771 0.150418 -0.062508
v 0.480327 0.158104 -0.060508
v 0.480327 0.158104 -0.062508
v 0.480327 0.195216 -0.060508
v 0.480327 0.195216 -0.062508
v 0.461771 0.202903 -0.060508
v 0.461771 0.202903 -0.062508
v 0.443215 0.158104 -0.060508
v 0.443215 0.158104 -0.062508
v 0.435529 0.176660 -0.060508
v 0.435529 0.176660 -0.062508
v 0.316723 -0.027673 0.098568
v 0.316723 -0.025673 0.098568
v 0.316723 -0.027673 -0.098568
v 0.316723 -0.025673 -0.098568
v 0.298166 -0.035360 -0.098568
v 0.296752 -0.033946 -0.098568
v 0.335279 -0.035360 -0.098568
v 0.336693 -0.033946 -0.098568
v 0.298166 -0.035360 0.098568
v 0.296752 -0.033946 0.098568
v 0.335279 -0.035360 0.098568
v 0.336693 -0.033946 0.098568
v 0.290480 -0.053916 -0.098568
v 0.288480 -0.053916 -0.098568
v 0.342965 -0.053916 -0.098568
v 0.344965 -0.053916 -0.098568
v 0.290480 -0.053916 0.098568
v 0.288480 -0.053916 0.098568
v 0.342965 -0.053916 0.098568
v 0.344965 -0.053916 0.098568
v 0.298166 -0.072472 -0.098568
v 0.296752 -0.073886 -0.098568
v 0.335279 -0.072472 0.098568
v 0.336693 -0.073886 0.098568
v 0.298166 -0.072472 0.098568
v 0.296752 -0.073886 0.098568
v 0.335279 -0.072472 -0.098568
v 0.336693 -0.073886 -0.098568
v 0.316723 -0.080158 -0.098568
v 0.316723 -0.082158 -0.098568
v 0.316723 -0.080158 0.098568
v 0.316723 -0.082158 0.098568
v -0.504198 -0.091666 0.087307
v -0.505612 -0.090252 0.087307
v -0.504198 -0.091666 -0.087307
v -0.505612 -0.090252 -0.087307
v -0.511885 -0.110222 -0.087307
v -0.513885 -0.110222 -0.087307
v -0.485642 -0.083980 -0.087307
v -0.485642 -0.081980 -0.087307
v -0.511885 -0.110222 0.087307
v -0.513885 -0.110222 0.087307
v -0.485642 -0.083980 0.087307
v -0.485642 -0.081980 0.087307
v -0.504198 -0.128778 -0.087307
v -0.505612 -0.130192 -0.087307
v -0.467086 -0.091666 -0.087307
v -0.465672 -0.090252 -0.087307
v -0.504198 -0.128778 0.087307
v -0.505612 -0.130192 0.087307
v -0.467085 -0.091666 0.087307
v -0.465671 -0.090252 0.087307
v -0.485642 -0.136465 -0.087307
v -0.485642 -0.138465 -0.087307
v -0.459400 -0.110222 0.087307
v -0.457400 -0.110222 0.087307
v -0.485642 -0.136465 0.087307
v -0.485642 -0.138465 0.087307
v -0.459400 -0.110222 -0.087307
v -0.457400 -0.110222 -0.087307
v -0.467086 -0.128778 -0.087307
v -0.465672 -0.130192 -0.087307
v -0.467085 -0.128778 0.087307
v -0.465671 -0.130192 0.087307
v -0.246341 -0.027673 0.098568
v -0.246341 -0.025673 0.098568
v -0.246341 -0.027673 -0.098568
v -0.246341 -0.025673 -0.098568
v -0.264897 -0.035360 -0.098568
v -0.266311 -0.033946 -0.098568
v -0.227785 -0.035360 -0.098568
v -0.226371 -0.033946 -0.098568
v -0.264897 -0.035360 0.098568
v -0.266311 -0.033946 0.098568
v -0.227784 -0.035360 0.098568
v -0.226370 -0.033946 0.098568
v -0.272583 -0.053916 -0.098568
v -0.274583 -0.053916 -0.098568
v -0.220097 -0.053916 0.098568
v -0.218097 -0.053916 0.098568
v -0.272583 -0.053916 0.098568
v -0.274583 -0.053916 0.098568
v -0.220097 -0.053916 -0.098568
v -0.218097 -0.053916 -0.098568
v -0.264897 -0.072472 -0.098568
v -0.266311 -0.073886 -0.098568
v -0.227784 -0.072472 0.098568
v -0.226370 -0.073886 0.098568
v -0.264897 -0.072472 0.098568
v -0.266311 -0.073886 0.098568
v -0.227785 -0.072472 -0.098568
v -0.226371 -0.073886 -0.098568
v -0.246341 -0.080158 -0.098568
v -0.246341 -0.082158 -0.098568
v -0.246341 -0.080158 0.098568
v -0.246341 -0.082158 0.098568
v 0.192667 -0.202903 -0.053609
v 0.192667 -0.200903 -0.053609
v -0.010350 -0.202903 -0.053609
v -0.010350 -0.200903 -0.053609
v -0.010350 -0.202903 0.053602
v -0.010350 -0.200903 0.053602
v 0.192667 -0.202903 0.053602
v 0.192667 -0.200903 0.053602
v 0.461771 0.202903 -0.060508
v 0.461771 0.204903 -0.060508
v 0.443215 0.195216 -0.060508
v 0.441801 0.196630 -0.060508
v 0.443215 0.195216 -0.053360
v 0.441801 0.196630 -0.053360
v 0.435529 0.176660 -0.053360
v 0.433529 0.176660 -0.053360
v 0.461771 0.202903 -0.053360
v 0.461771 0.204903 -0.053360
v 0.435529 0.176660 -0.060508
v 0.433529 0.176660 -0.060508
v 0.480327 0.195216 -0.060508
v 0.481741 0.196630 -0.060508
v 0.443215 0.158104 -0.053360
v 0.441801 0.156690 -0.053360
v 0.480327 0.195216 -0.053360
v 0.481741 0.196630 -0.053360
v 0.443215 0.158104 -0.060508
v 0.441801 0.156690 -0.060508
v 0.488014 0.176660 -0.060508
v 0.490014 0.176660 -0.060508
v 0.461771 0.150418 -0.053360
v 0.461771 0.148418 -0.053360
v 0.488014 0.176660 -0.053360
v 0.490014 0.176660 -0.053360
v 0.461771 0.150418 -0.060508
v 0.461771 0.148418 -0.060508
v 0.480327 0.158104 -0.060508
v 0.481741 0.156690 -0.060508
v 0.480327 0.158104 -0.053360
v 0.481741 0.156690 -0.053360
v 0.486932 0.176660 0.061507
v 0.479562 0.194451 0.061507
v 0.461771 0.201821 0.061507
v 0.443980 0.194451 0.061507
v 0.436611 0.176660 0.061507
v 0.443980 0.158869 0.061507
v 0.461771 0.151500 0.061507
v 0.479562 0.158869 0.061507
v -0.246341 -0.079076 -0.099568
v -0.264132 -0.071707 -0.099568
v -0.271501 -0.053916 -0.099568
v -0.264132 -0.036125 -0.099568
v -0.246341 -0.028755 -0.099568
v -0.228550 -0.036125 -0.099568
v -0.221179 -0.053916 -0.099568
v -0.228550 -0.071707 -0.099568
v -0.228002 -0.034270 -0.097568
v -0.245417 -0.027056 -0.097568
v -0.245417 -0.027056 0.097568
v -0.228001 -0.034270 0.097568
v 0.503981 -0.129868 0.086307
v 0.486566 -0.137082 0.086307
v 0.486566 -0.137082 -0.086307
v 0.503981 -0.129868 -0.086307
v 0.315799 -0.027056 -0.097568
v 0.298383 -0.034270 -0.097568
v 0.298383 -0.034270 0.097568
v 0.315799 -0.027056 0.097568
v -0.247265 -0.027056 -0.097568
v -0.264680 -0.034270 -0.097568
v -0.264680 -0.034270 0.097568
v -0.247265 -0.027056 0.097568
v -0.467303 -0.090576 -0.086307
v -0.484718 -0.083363 -0.086307
v -0.484718 -0.083363 0.086307
v -0.467302 -0.090576 0.086307
v 0.443432 0.157014 -0.054360
v 0.443432 0.157014 -0.059508
v 0.460847 0.149801 -0.059508
v 0.460847 0.149801 -0.054360
v -0.465995 -0.091883 0.086307
v -0.458783 -0.109298 0.086307
v -0.458783 -0.109298 -0.086307
v -0.465996 -0.091883 -0.086307
v 0.460847 0.149801 0.054359
v 0.460847 0.149801 0.059507
v 0.443432 0.157014 0.059507
v 0.443432 0.157014 0.054359
v 0.336369 -0.035577 -0.097568
v 0.336369 -0.035577 0.097568
v 0.343582 -0.052992 0.097568
v 0.343582 -0.052992 -0.097568
v 0.505288 -0.091883 0.086307
v 0.512502 -0.109298 0.086307
v 0.512502 -0.109298 -0.086307
v 0.505288 -0.091883 -0.086307
v -0.226694 -0.035577 0.097568
v -0.219480 -0.052992 0.097568
v -0.219480 -0.052992 -0.097568
v -0.226695 -0.035577 -0.097568
v -0.264680 -0.073562 -0.097568
v -0.247265 -0.080775 -0.097568
v -0.247265 -0.080775 0.097568
v -0.264680 -0.073562 0.097568
v 0.335062 -0.073562 0.097568
v 0.317647 -0.080775 0.097568
v 0.317647 -0.080775 -0.097568
v 0.335062 -0.073562 -0.097568
v 0.443432 0.196306 -0.059508
v 0.443432 0.196306 -0.054360
v 0.460847 0.203520 -0.054360
v 0.460847 0.203520 -0.059508
v 0.465995 -0.091883 -0.086307
v 0.458782 -0.109298 -0.086307
v 0.458782 -0.109298 0.086307
v 0.465995 -0.091883 0.086307
v 0.481417 0.194999 -0.059508
v 0.481417 0.194999 -0.054360
v 0.488631 0.177584 -0.054360
v 0.488631 0.177584 -0.059508
v -0.503981 -0.129868 -0.086307
v -0.486566 -0.137082 -0.086307
v -0.486566 -0.137082 0.086307
v -0.503981 -0.129868 0.086307
v -0.228549 -0.071707 0.099568
v -0.221179 -0.053916 0.099568
v -0.228549 -0.036125 0.099568
v -0.246341 -0.028755 0.099568
v -0.264132 -0.036125 0.099568
v -0.271501 -0.053916 0.099568
v -0.264132 -0.071707 0.099568
v -0.246341 -0.079076 0.099568
v 0.480110 0.196306 0.059507
v 0.480110 0.196306 0.054359
v 0.462695 0.203520 0.054359
v 0.462695 0.203520 0.059507
v 0.503433 -0.128013 0.088307
v 0.510803 -0.110222 0.088307
v 0.503433 -0.092431 0.088307
v 0.485642 -0.085062 0.088307
v 0.467850 -0.092431 0.088307
v 0.460481 -0.110222 0.088307
v 0.467850 -0.128013 0.088307
v 0.485642 -0.135383 0.088307
v 0.289863 -0.054840 -0.097568
v 0.297076 -0.072255 -0.097568
v 0.297076 -0.072255 0.097568
v 0.289863 -0.054840 0.097568
v 0.488631 0.177584 0.059507
v 0.488631 0.177584 0.054359
v 0.481417 0.194999 0.054359
v 0.481417 0.194999 0.059507
v 0.467302 -0.129868 -0.086307
v 0.484718 -0.137082 -0.086307
v 0.484718 -0.137082 0.086307
v 0.467302 -0.129868 0.086307
v -0.484718 -0.137082 0.086307
v -0.484718 -0.137082 -0.086307
v -0.467303 -0.129868 -0.086307
v -0.467302 -0.129868 0.086307
v 0.298383 -0.073562 -0.097568
v 0.315799 -0.080775 -0.097568
v 0.315799 -0.080775 0.097568
v 0.298383 -0.073562 0.097568
v -0.503433 -0.092431 -0.088307
v -0.485642 -0.085062 -0.088307
v -0.467851 -0.092431 -0.088307
v -0.460482 -0.110222 -0.088307
v -0.467851 -0.128013 -0.088307
v -0.485642 -0.135383 -0.088307
v -0.503433 -0.128013 -0.088307
v -0.510803 -0.110222 -0.088307
v 0.462695 0.203520 -0.059508
v 0.462695 0.203520 -0.054360
v 0.480110 0.196306 -0.054360
v 0.480110 0.196306 -0.059508
v 0.486566 -0.083363 0.086307
v 0.503981 -0.090576 0.086307
v 0.503981 -0.090576 -0.086307
v 0.486566 -0.083363 -0.086307
v -0.460482 -0.110222 0.088307
v -0.467850 -0.092431 0.088307
v -0.485642 -0.085062 0.088307
v -0.503433 -0.092431 0.088307
v -0.510803 -0.110222 0.088307
v -0.503433 -0.128013 0.088307
v -0.485642 -0.135383 0.088307
v -0.467850 -0.128013 0.088307
v -0.009350 -0.201903 -0.052609
v -0.009350 -0.201903 0.052602
v 0.191667 -0.201903 0.052602
v 0.191667 -0.201903 -0.052609
v 0.484718 -0.083363 -0.086307
v 0.467302 -0.090576 -0.086307
v 0.467302 -0.090576 0.086307
v 0.484718 -0.083363 0.086307
v 0.291562 -0.053916 -0.099568
v 0.298931 -0.036125 -0.099568
v 0.316723 -0.028755 -0.099568
v 0.334514 -0.036125 -0.099568
v 0.341883 -0.053916 -0.099568
v 0.334514 -0.071707 -0.099568
v 0.316723 -0.079076 -0.099568
v 0.298931 -0.071707 -0.099568
v 0.488631 0.175736 -0.059508
v 0.488631 0.175736 -0.054360
v 0.481417 0.158321 -0.054360
v 0.481417 0.158321 -0.059508
v 0.317647 -0.027056 -0.097568
v 0.317647 -0.027056 0.097568
v 0.335062 -0.034270 0.097568
v 0.335062 -0.034270 -0.097568
v -0.458783 -0.111146 -0.086307
v -0.458783 -0.111146 0.086307
v -0.465995 -0.128561 0.086307
v -0.465996 -0.128561 -0.086307
v 0.316723 -0.028755 0.099568
v 0.298931 -0.036125 0.099568
v 0.291562 -0.053916 0.099568
v 0.298931 -0.071707 0.099568
v 0.316723 -0.079076 0.099568
v 0.334514 -0.071707 0.099568
v 0.341883 -0.053916 0.099568
v 0.334514 -0.036125 0.099568
v 0.343582 -0.054840 0.097568
v 0.336369 -0.072255 0.097568
v 0.336369 -0.072255 -0.097568
v 0.343582 -0.054840 -0.097568
v -0.273200 -0.054840 -0.097568
v -0.265987 -0.072255 -0.097568
v -0.265987 -0.072255 0.097568
v -0.273200 -0.054840 0.097568
v 0.297076 -0.035577 -0.097568
v 0.289863 -0.052992 -0.097568
v 0.289863 -0.052992 0.097568
v 0.297076 -0.035577 0.097568
v 0.462695 0.149801 -0.054360
v 0.462695 0.149801 -0.059508
v 0.480110 0.157014 -0.059508
v 0.480110 0.157014 -0.054360
v 0.480110 0.157014 0.054359
v 0.480110 0.157014 0.059507
v 0.462695 0.149801 0.059507
v 0.462695 0.149801 0.054359
v -0.512502 -0.111146 -0.086307
v -0.505288 -0.128561 -0.086307
v -0.505288 -0.128561 0.086307
v -0.512502 -0.111146 0.086307
v -0.503981 -0.090576 -0.086307
v -0.503981 -0.090576 0.086307
v -0.486566 -0.083363 0.086307
v -0.486566 -0.083363 -0.086307
v 0.481417 0.158321 0.059507
v 0.481417 0.158321 0.054359
v 0.488631 0.175736 0.054359
v 0.488631 0.175736 0.059507
v 0.485642 -0.135383 -0.088307
v 0.467850 -0.128013 -0.088307
v 0.460481 -0.110222 -0.088307
v 0.467850 -0.092431 -0.088307
v 0.485642 -0.085062 -0.088307
v 0.503433 -0.092431 -0.088307
v 0.510803 -0.110222 -0.088307
v 0.503433 -0.128013 -0.088307
v -0.219480 -0.054840 -0.097568
v -0.219480 -0.054840 0.097568
v -0.226694 -0.072255 0.097568
v -0.226695 -0.072255 -0.097568
v 0.458782 -0.111146 -0.086307
v 0.465995 -0.128561 -0.086307
v 0.465995 -0.128561 0.086307
v 0.458782 -0.111146 0.086307
v -0.265987 -0.035577 -0.097568
v -0.273200 -0.052992 -0.097568
v -0.273200 -0.052992 0.097568
v -0.265987 -0.035577 0.097568
v 0.460847 0.203520 0.059507
v 0.460847 0.203520 0.054359
v 0.443432 0.196306 0.054359
v 0.443432 0.196306 0.059507
v -0.505288 -0.091883 -0.086307
v -0.512502 -0.109298 -0.086307
v -0.512502 -0.109298 0.086307
v -0.505288 -0.091883 0.086307
v 0.442125 0.158321 0.054359
v 0.442125 0.158321 0.059507
v 0.434912 0.175736 0.059507
v 0.434912 0.175736 0.054359
v 0.434912 0.177584 0.054359
v 0.434912 0.177584 0.059507
v 0.442125 0.194999 0.059507
v 0.442125 0.194999 0.054359
v -0.228002 -0.073562 -0.097568
v -0.228001 -0.073562 0.097568
v -0.245417 -0.080775 0.097568
v -0.245417 -0.080775 -0.097568
v 0.443980 0.194451 -0.061508
v 0.461771 0.201821 -0.061508
v 0.479562 0.194451 -0.061508
v 0.486932 0.176660 -0.061508
v 0.479562 0.158869 -0.061508
v 0.461771 0.151500 -0.061508
v 0.443980 0.158869 -0.061508
v 0.436611 0.176660 -0.061508
v 0.512502 -0.111146 0.086307
v 0.505288 -0.128561 0.086307
v 0.505288 -0.128561 -0.086307
v 0.512502 -0.111146 -0.086307
v 0.442125 0.194999 -0.054360
v 0.442125 0.194999 -0.059508
v 0.434912 0.177584 -0.059508
v 0.434912 0.177584 -0.054360
v 0.434912 0.175736 -0.054360
v 0.434912 0.175736 -0.059508
v 0.442125 0.158321 -0.059508
v 0.442125 0.158321 -0.054360
vn -1.0000 -0.0000 -0.0000
vn -0.7071 -0.7071 -0.0000
vn -0.4798 -0.4798 -0.7345
vn -0.6786 -0.0000 -0.7345
vn -0.6786 -0.0000 0.7345
vn -0.4798 -0.4798 0.7345
vn -0.0000 -1.0000 -0.0000
vn -0.0000 -0.6786 -0.7345
vn -0.0000 -0.6786 0.7345
vn 0.7071 -0.7071 -0.0000
vn 0.4799 -0.4798 -0.7345
vn 0.4799 -0.4798 0.7345
vn 1.0000 -0.0000 -0.0000
vn 0.6786 -0.0000 -0.7345
vn 0.6786 -0.0000 0.7345
vn 0.7071 0.7071 -0.0000
vn 0.4798 0.4798 -0.7345
vn 0.4798 0.4798 0.7345
vn -0.0000 1.0000 -0.0000
vn -0.0000 0.6786 -0.7345
vn -0.0000 0.6786 0.7345
vn -0.7071 0.7071 -0.0000
vn -0.4798 0.4798 -0.7345
vn -0.4798 0.4799 0.7345
vn -0.4798 -0.4799 0.7345
vn -0.4798 -0.4799 -0.7345
vn -0.4798 0.4799 -0.7345
vn -0.5914 0.4310 0.6815
vn 0.7230 -0.1135 0.6815
vn -0.0000 -0.8846 0.4664
vn -0.6255 -0.6255 0.4664
vn 0.6375 0.6375 0.4327
vn -0.0000 0.9015 0.4327
vn 0.7230 -0.1135 -0.6815
vn -0.0000 -0.8846 -0.4664
vn -0.0000 0.9015 -0.4327
vn -0.5915 0.4310 -0.6815
vn -0.6255 -0.6255 -0.4664
vn 0.6375 0.6375 -0.4327
vn -0.5914 -0.4310 -0.6815
vn 0.7230 0.1135 -0.6815
vn -0.0000 0.8846 -0.4664
vn -0.6255 0.6255 -0.4664
vn 0.6375 -0.6375 -0.4327
vn -0.0000 -0.9015 -0.4327
vn 0.7230 0.1135 0.6815
vn -0.0000 0.8846 0.4664
vn -0.0000 -0.9015 0.4327
vn -0.5914 -0.4310 0.6815
vn -0.6255 0.6255 0.4664
vn 0.6375 -0.6375 0.4327
vn -0.7230 -0.1134 0.6815
vn 0.5914 0.4310 0.6815
vn 0.6255 -0.6255 0.4664
vn -0.6375 0.6375 0.4327
vn 0.5914 0.4310 -0.6815
vn 0.6255 -0.6255 -0.4664
vn -0.6375 0.6375 -0.4327
vn -0.7230 -0.1134 -0.6815
vn -0.7230 -0.1135 0.6815
vn -0.7230 -0.1135 -0.6815
vn -0.5915 0.4310 0.6815
vn 0.7230 -0.1134 0.6815
vn 0.7230 -0.1134 -0.6815
vn 0.5915 -0.4310 -0.6815
vn 0.5915 -0.4310 0.6815
vn 0.6255 0.6255 0.4664
vn 0.6255 0.6255 -0.4664
vn -0.6375 -0.6375 -0.4327
vn -0.6375 -0.6375 0.4327
vn -0.7230 0.1134 0.6815
vn -0.7230 0.1134 -0.6815
vn 0.4310 -0.5915 -0.6815
vn -0.1134 0.7230 -0.6815
vn -0.8846 -0.0000 -0.4664
vn 0.9015 -0.0000 -0.4327
vn -0.1134 0.7230 0.6815
vn -0.8846 -0.0000 0.4664
vn 0.9015 -0.0000 0.4327
vn 0.4310 -0.5915 0.6815
vn 0.4310 -0.5914 0.6815
vn 0.4310 -0.5914 -0.6815
vn -0.1135 0.7230 -0.6815
vn -0.1135 0.7230 0.6815
vn -0.5915 -0.4310 -0.6815
vn 0.7230 0.1134 -0.6815
vn 0.7230 0.1134 0.6815
vn -0.5915 -0.4310 0.6815
vn -0.4310 -0.5914 0.6815
vn 0.1135 0.7230 0.6815
vn 0.8846 -0.0000 0.4664
vn -0.9015 -0.0000 0.4327
vn 0.1135 0.7230 -0.6815
vn 0.8846 -0.0000 -0.4664
vn -0.9015 -0.0000 -0.4327
vn -0.4310 -0.5914 -0.6815
vn 0.5914 -0.4310 0.6815
vn -0.7230 0.1135 0.6815
vn -0.7230 0.1135 -0.6815
vn 0.5914 -0.4310 -0.6815
vn -0.5914 0.4310 -0.6815
vn -0.4798 0.4798 0.7345
vn 0.4798 -0.4798 -0.7345
vn 0.4798 -0.4798 0.7345
vn 0.1134 -0.7230 0.6815
vn -0.4310 0.5914 0.6815
vn -0.9016 -0.0000 0.4327
vn -0.4310 0.5914 -0.6815
vn 0.1134 -0.7230 -0.6815
vn -0.9016 -0.0000 -0.4327
vn 0.4798 -0.4799 0.7345
vn 0.4798 -0.4799 -0.7345
vn -0.4799 0.4798 0.7345
vn -0.4799 0.4798 -0.7345
vn 0.7071 -0.0000 0.7071
vn 0.7071 -0.0000 -0.7071
vn 0.4083 -0.8165 -0.4083
vn 0.4083 -0.8165 0.4083
vn 0.4082 0.8165 0.4083
vn 0.4082 0.8165 -0.4083
vn -0.7071 -0.0000 -0.7071
vn -0.4083 -0.8165 -0.4083
vn -0.4083 0.8165 -0.4083
vn -0.7071 -0.0000 0.7071
vn -0.4083 -0.8165 0.4083
vn -0.4083 0.8165 0.4083
vn 0.5915 0.4310 0.6815
vn 0.5915 0.4310 -0.6815
vn -0.4799 -0.4798 0.7345
vn -0.4799 -0.4798 -0.7345
vn -0.1135 -0.7230 0.6815
vn -0.1135 -0.7230 -0.6815
vn 0.4310 0.5914 -0.6815
vn 0.4310 0.5914 0.6815
vn -0.1134 -0.7230 0.6815
vn -0.1134 -0.7230 -0.6815
vn 0.4310 0.5915 -0.6815
vn 0.4310 0.5915 0.6815
vn -0.4310 0.5915 0.6815
vn -0.4310 0.5915 -0.6815
vn -0.4310 -0.5915 0.6815
vn 0.1134 0.7230 0.6815
vn 0.1134 0.7230 -0.6815
vn -0.4310 -0.5915 -0.6815
vn 0.1135 -0.7230 0.6815
vn 0.1135 -0.7230 -0.6815
vn 0.4311 0.5914 -0.6815
vn 0.4311 0.5914 0.6815
vt 0.000000 0.000000
s 1
f 361/1/1 362/1/2 205/1/3 193/1/4
f 362/1/2 361/1/1 194/1/5 206/1/6
f 362/1/2 363/1/7 207/1/8 205/1/3
f 363/1/7 362/1/2 206/1/6 208/1/9
f 363/1/7 364/1/10 195/1/11 207/1/8
f 364/1/10 363/1/7 208/1/9 196/1/12
f 364/1/10 365/1/13 203/1/14 195/1/11
f 365/1/13 364/1/10 196/1/12 204/1/15
f 365/1/13 366/1/16 201/1/17 203/1/14
f 366/1/16 365/1/13 204/1/15 202/1/18
f 366/1/16 367/1/19 197/1/20 201/1/17
f 367/1/19 366/1/16 202/1/18 198/1/21
f 367/1/19 368/1/22 199/1/23 197/1/20
f 368/1/22 367/1/19 198/1/21 200/1/24
f 368/1/22 361/1/1 193/1/4 199/1/23
f 361/1/1 368/1/22 200/1/24 194/1/5
f 369/1/19 370/1/16 75/1/18 65/1/21
f 370/1/16 369/1/19 66/1/20 76/1/17
f 370/1/16 371/1/13 73/1/15 75/1/18
f 371/1/13 370/1/16 76/1/17 74/1/14
f 371/1/13 372/1/10 77/1/12 73/1/15
f 372/1/10 371/1/13 74/1/14 78/1/11
f 372/1/10 373/1/7 79/1/9 77/1/12
f 373/1/7 372/1/10 78/1/11 80/1/8
f 373/1/7 374/1/2 67/1/25 79/1/9
f 374/1/2 373/1/7 80/1/8 68/1/26
f 374/1/2 375/1/1 71/1/5 67/1/25
f 375/1/1 374/1/2 68/1/26 72/1/4
f 375/1/1 376/1/22 69/1/24 71/1/5
f 376/1/22 375/1/1 72/1/4 70/1/27
f 376/1/22 369/1/19 65/1/21 69/1/24
f 369/1/19 376/1/22 70/1/27 66/1/20
f 377/1/28 378/1/29 291/1/30 295/1/31
f 378/1/29 377/1/28 296/1/32 292/1/33
f 378/1/29 379/1/34 289/1/35 291/1/30
f 379/1/34 378/1/29 292/1/33 290/1/36
f 379/1/34 380/1/37 299/1/38 289/1/35
f 380/1/37 379/1/34 290/1/36 300/1/39
f 380/1/37 377/1/28 295/1/31 299/1/38
f 377/1/28 380/1/37 300/1/39 296/1/32
f 381/1/40 382/1/41 63/1/42 55/1/43
f 382/1/41 381/1/40 56/1/44 64/1/45
f 382/1/41 383/1/46 61/1/47 63/1/42
f 383/1/46 382/1/41 64/1/45 62/1/48
f 383/1/46 384/1/49 59/1/50 61/1/47
f 384/1/49 383/1/46 62/1/48 60/1/51
f 384/1/49 381/1/40 55/1/43 59/1/50
f 381/1/40 384/1/49 60/1/51 56/1/44
f 385/1/52 386/1/53 229/1/54 227/1/30
f 386/1/53 385/1/52 228/1/33 230/1/55
f 386/1/53 387/1/56 233/1/57 229/1/54
f 387/1/56 386/1/53 230/1/55 234/1/58
f 387/1/56 388/1/59 225/1/35 233/1/57
f 388/1/59 387/1/56 234/1/58 226/1/36
f 388/1/59 385/1/52 227/1/30 225/1/35
f 385/1/52 388/1/59 226/1/36 228/1/33
f 389/1/60 390/1/53 293/1/54 291/1/30
f 390/1/53 389/1/60 292/1/33 294/1/55
f 390/1/53 391/1/56 297/1/57 293/1/54
f 391/1/56 390/1/53 294/1/55 298/1/58
f 391/1/56 392/1/61 289/1/35 297/1/57
f 392/1/61 391/1/56 298/1/58 290/1/36
f 392/1/61 389/1/60 291/1/30 289/1/35
f 389/1/60 392/1/61 290/1/36 292/1/33
f 393/1/62 394/1/63 263/1/30 271/1/31
f 394/1/63 393/1/62 272/1/32 264/1/33
f 394/1/63 395/1/64 267/1/35 263/1/30
f 395/1/64 394/1/63 264/1/33 268/1/36
f 395/1/64 396/1/37 275/1/38 267/1/35
f 396/1/37 395/1/64 268/1/36 276/1/39
f 396/1/37 393/1/62 271/1/31 275/1/38
f 393/1/62 396/1/37 276/1/39 272/1/32
f 397/1/65 398/1/66 347/1/67 343/1/68
f 398/1/66 397/1/65 344/1/69 348/1/70
f 398/1/66 399/1/71 355/1/47 347/1/67
f 399/1/71 398/1/66 348/1/70 356/1/48
f 399/1/71 400/1/72 351/1/42 355/1/47
f 400/1/72 399/1/71 356/1/48 352/1/45
f 400/1/72 397/1/65 343/1/68 351/1/42
f 397/1/65 400/1/72 352/1/45 344/1/69
f 401/1/73 402/1/74 279/1/75 275/1/38
f 402/1/74 401/1/73 276/1/39 280/1/76
f 402/1/74 403/1/77 283/1/78 279/1/75
f 403/1/77 402/1/74 280/1/76 284/1/79
f 403/1/77 404/1/80 271/1/31 283/1/78
f 404/1/80 403/1/77 284/1/79 272/1/32
f 404/1/80 401/1/73 275/1/38 271/1/31
f 401/1/73 404/1/80 272/1/32 276/1/39
f 405/1/71 406/1/72 29/1/42 25/1/47
f 406/1/72 405/1/71 26/1/48 30/1/45
f 406/1/72 407/1/65 21/1/68 29/1/42
f 407/1/65 406/1/72 30/1/45 22/1/69
f 407/1/65 408/1/66 17/1/67 21/1/68
f 408/1/66 407/1/65 22/1/69 18/1/70
f 408/1/66 405/1/71 25/1/47 17/1/67
f 405/1/71 408/1/66 18/1/70 26/1/48
f 409/1/81 410/1/82 235/1/38 231/1/31
f 410/1/82 409/1/81 232/1/32 236/1/39
f 410/1/82 411/1/74 243/1/75 235/1/38
f 411/1/74 410/1/82 236/1/39 244/1/76
f 411/1/74 412/1/77 239/1/78 243/1/75
f 412/1/77 411/1/74 244/1/76 240/1/79
f 412/1/77 409/1/81 231/1/31 239/1/78
f 409/1/81 412/1/77 240/1/79 232/1/32
f 413/1/82 414/1/83 47/1/75 39/1/38
f 414/1/83 413/1/82 40/1/39 48/1/76
f 414/1/83 415/1/84 51/1/78 47/1/75
f 415/1/84 414/1/83 48/1/76 52/1/79
f 415/1/84 416/1/81 43/1/31 51/1/78
f 416/1/81 415/1/84 52/1/79 44/1/32
f 416/1/81 413/1/82 39/1/38 43/1/31
f 413/1/82 416/1/81 44/1/32 40/1/39
f 417/1/82 418/1/83 303/1/75 299/1/38
f 418/1/83 417/1/82 300/1/39 304/1/76
f 418/1/83 419/1/84 307/1/78 303/1/75
f 419/1/84 418/1/83 304/1/76 308/1/79
f 419/1/84 420/1/81 295/1/31 307/1/78
f 420/1/81 419/1/84 308/1/79 296/1/32
f 420/1/81 417/1/82 299/1/38 295/1/31
f 417/1/82 420/1/81 296/1/32 300/1/39
f 421/1/66 422/1/71 317/1/47 309/1/67
f 422/1/71 421/1/66 310/1/70 318/1/48
f 422/1/71 423/1/72 319/1/42 317/1/47
f 423/1/72 422/1/71 318/1/48 320/1/45
f 423/1/72 424/1/65 313/1/68 319/1/42
f 424/1/65 423/1/72 320/1/45 314/1/69
f 424/1/65 421/1/66 309/1/67 313/1/68
f 421/1/66 424/1/65 314/1/69 310/1/70
f 425/1/85 426/1/86 255/1/42 247/1/43
f 426/1/86 425/1/85 248/1/44 256/1/45
f 426/1/86 427/1/87 253/1/47 255/1/42
f 427/1/87 426/1/86 256/1/45 254/1/48
f 427/1/87 428/1/88 251/1/50 253/1/47
f 428/1/88 427/1/87 254/1/48 252/1/51
f 428/1/88 425/1/85 247/1/43 251/1/50
f 425/1/85 428/1/88 252/1/51 248/1/44
f 429/1/53 430/1/56 333/1/57 331/1/54
f 430/1/56 429/1/53 332/1/55 334/1/58
f 430/1/56 431/1/61 337/1/35 333/1/57
f 431/1/61 430/1/56 334/1/58 338/1/36
f 431/1/61 432/1/60 329/1/30 337/1/35
f 432/1/60 431/1/61 338/1/36 330/1/33
f 432/1/60 429/1/53 331/1/54 329/1/30
f 429/1/53 432/1/60 330/1/33 332/1/55
f 433/1/89 434/1/90 45/1/91 37/1/54
f 434/1/90 433/1/89 38/1/55 46/1/92
f 434/1/90 435/1/93 49/1/94 45/1/91
f 435/1/93 434/1/90 46/1/92 50/1/95
f 435/1/93 436/1/96 41/1/57 49/1/94
f 436/1/96 435/1/93 50/1/95 42/1/58
f 436/1/96 433/1/89 37/1/54 41/1/57
f 433/1/89 436/1/96 42/1/58 38/1/55
f 437/1/81 438/1/82 345/1/38 341/1/31
f 438/1/82 437/1/81 342/1/32 346/1/39
f 438/1/82 439/1/83 353/1/75 345/1/38
f 439/1/83 438/1/82 346/1/39 354/1/76
f 439/1/83 440/1/84 349/1/78 353/1/75
f 440/1/84 439/1/83 354/1/76 350/1/79
f 440/1/84 437/1/81 341/1/31 349/1/78
f 437/1/81 440/1/84 350/1/79 342/1/32
f 441/1/97 442/1/98 277/1/47 269/1/67
f 442/1/98 441/1/97 270/1/70 278/1/48
f 442/1/98 443/1/99 281/1/42 277/1/47
f 443/1/99 442/1/98 278/1/48 282/1/45
f 443/1/99 444/1/100 273/1/68 281/1/42
f 444/1/100 443/1/99 282/1/45 274/1/69
f 444/1/100 441/1/97 269/1/67 273/1/68
f 441/1/97 444/1/100 274/1/69 270/1/70
f 445/1/22 446/1/1 83/1/4 87/1/27
f 446/1/1 445/1/22 88/1/24 84/1/5
f 446/1/1 447/1/2 85/1/3 83/1/4
f 447/1/2 446/1/1 84/1/5 86/1/6
f 447/1/2 448/1/7 91/1/8 85/1/3
f 448/1/7 447/1/2 86/1/6 92/1/9
f 448/1/7 449/1/10 89/1/11 91/1/8
f 449/1/10 448/1/7 92/1/9 90/1/12
f 449/1/10 450/1/13 93/1/14 89/1/11
f 450/1/13 449/1/10 90/1/12 94/1/15
f 450/1/13 451/1/16 95/1/17 93/1/14
f 451/1/16 450/1/13 94/1/15 96/1/18
f 451/1/16 452/1/19 81/1/20 95/1/17
f 452/1/19 451/1/16 96/1/18 82/1/21
f 452/1/19 445/1/22 87/1/27 81/1/20
f 445/1/22 452/1/19 82/1/21 88/1/24
f 453/1/101 454/1/28 15/1/31 11/1/38
f 454/1/28 453/1/101 12/1/39 16/1/32
f 454/1/28 455/1/29 7/1/30 15/1/31
f 455/1/29 454/1/28 16/1/32 8/1/33
f 455/1/29 456/1/34 3/1/35 7/1/30
f 456/1/34 455/1/29 8/1/33 4/1/36
f 456/1/34 453/1/101 11/1/38 3/1/35
f 453/1/101 456/1/34 4/1/36 12/1/39
f 457/1/22 458/1/1 153/1/4 145/1/23
f 458/1/1 457/1/22 146/1/102 154/1/5
f 458/1/1 459/1/2 155/1/26 153/1/4
f 459/1/2 458/1/1 154/1/5 156/1/25
f 459/1/2 460/1/7 151/1/8 155/1/26
f 460/1/7 459/1/2 156/1/25 152/1/9
f 460/1/7 461/1/10 159/1/103 151/1/8
f 461/1/10 460/1/7 152/1/9 160/1/104
f 461/1/10 462/1/13 157/1/14 159/1/103
f 462/1/13 461/1/10 160/1/104 158/1/15
f 462/1/13 463/1/16 147/1/17 157/1/14
f 463/1/16 462/1/13 158/1/15 148/1/18
f 463/1/16 464/1/19 149/1/20 147/1/17
f 464/1/19 463/1/16 148/1/18 150/1/21
f 464/1/19 457/1/22 145/1/23 149/1/20
f 457/1/22 464/1/19 150/1/21 146/1/102
f 465/1/105 466/1/106 245/1/67 237/1/91
f 466/1/106 465/1/105 238/1/107 246/1/70
f 466/1/106 467/1/108 249/1/68 245/1/67
f 467/1/108 466/1/106 246/1/70 250/1/69
f 467/1/108 468/1/109 241/1/94 249/1/68
f 468/1/109 467/1/108 250/1/69 242/1/110
f 468/1/109 465/1/105 237/1/91 241/1/94
f 465/1/105 468/1/109 242/1/110 238/1/107
f 469/1/83 470/1/84 23/1/78 19/1/75
f 470/1/84 469/1/83 20/1/76 24/1/79
f 470/1/84 471/1/81 15/1/31 23/1/78
f 471/1/81 470/1/84 24/1/79 16/1/32
f 471/1/81 472/1/82 11/1/38 15/1/31
f 472/1/82 471/1/81 16/1/32 12/1/39
f 472/1/82 469/1/83 19/1/75 11/1/38
f 469/1/83 472/1/82 12/1/39 20/1/76
f 473/1/97 474/1/98 61/1/47 53/1/67
f 474/1/98 473/1/97 54/1/70 62/1/48
f 474/1/98 475/1/99 63/1/42 61/1/47
f 475/1/99 474/1/98 62/1/48 64/1/45
f 475/1/99 476/1/100 57/1/68 63/1/42
f 476/1/100 475/1/99 64/1/45 58/1/69
f 476/1/100 473/1/97 53/1/67 57/1/68
f 473/1/97 476/1/100 58/1/69 54/1/70
f 477/1/41 478/1/46 277/1/47 281/1/42
f 478/1/46 477/1/41 282/1/45 278/1/48
f 478/1/46 479/1/49 285/1/50 277/1/47
f 479/1/49 478/1/46 278/1/48 286/1/51
f 479/1/49 480/1/40 287/1/43 285/1/50
f 480/1/40 479/1/49 286/1/51 288/1/44
f 480/1/40 477/1/41 281/1/42 287/1/43
f 477/1/41 480/1/40 288/1/44 282/1/45
f 481/1/66 482/1/71 253/1/47 245/1/67
f 482/1/71 481/1/66 246/1/70 254/1/48
f 482/1/71 483/1/72 255/1/42 253/1/47
f 483/1/72 482/1/71 254/1/48 256/1/45
f 483/1/72 484/1/65 249/1/68 255/1/42
f 484/1/65 483/1/72 256/1/45 250/1/69
f 484/1/65 481/1/66 245/1/67 249/1/68
f 481/1/66 484/1/65 250/1/69 246/1/70
f 485/1/10 486/1/7 169/1/9 171/1/111
f 486/1/7 485/1/10 172/1/112 170/1/8
f 486/1/7 487/1/2 173/1/6 169/1/9
f 487/1/2 486/1/7 170/1/8 174/1/3
f 487/1/2 488/1/1 175/1/5 173/1/6
f 488/1/1 487/1/2 174/1/3 176/1/4
f 488/1/1 489/1/22 165/1/113 175/1/5
f 489/1/22 488/1/1 176/1/4 166/1/114
f 489/1/22 490/1/19 161/1/21 165/1/113
f 490/1/19 489/1/22 166/1/114 162/1/20
f 490/1/19 491/1/16 163/1/18 161/1/21
f 491/1/16 490/1/19 162/1/20 164/1/17
f 491/1/16 492/1/13 167/1/15 163/1/18
f 492/1/13 491/1/16 164/1/17 168/1/14
f 492/1/13 485/1/10 171/1/111 167/1/15
f 485/1/10 492/1/13 168/1/14 172/1/112
f 493/1/29 494/1/34 337/1/35 329/1/30
f 494/1/34 493/1/29 330/1/33 338/1/36
f 494/1/34 495/1/101 345/1/38 337/1/35
f 495/1/101 494/1/34 338/1/36 346/1/39
f 495/1/101 496/1/28 341/1/31 345/1/38
f 496/1/28 495/1/101 346/1/39 342/1/32
f 496/1/28 493/1/29 329/1/30 341/1/31
f 493/1/29 496/1/28 342/1/32 330/1/33
f 497/1/64 498/1/37 39/1/38 33/1/35
f 498/1/37 497/1/64 34/1/36 40/1/39
f 498/1/37 499/1/62 43/1/31 39/1/38
f 499/1/62 498/1/37 40/1/39 44/1/32
f 499/1/62 500/1/63 35/1/30 43/1/31
f 500/1/63 499/1/62 44/1/32 36/1/33
f 500/1/63 497/1/64 33/1/35 35/1/30
f 497/1/64 500/1/63 36/1/33 34/1/36
f 501/1/1 502/1/2 187/1/3 185/1/4
f 502/1/2 501/1/1 186/1/5 188/1/6
f 502/1/2 503/1/7 183/1/8 187/1/3
f 503/1/7 502/1/2 188/1/6 184/1/9
f 503/1/7 504/1/10 191/1/112 183/1/8
f 504/1/10 503/1/7 184/1/9 192/1/111
f 504/1/10 505/1/13 189/1/14 191/1/112
f 505/1/13 504/1/10 192/1/111 190/1/15
f 505/1/13 506/1/16 179/1/17 189/1/14
f 506/1/16 505/1/13 190/1/15 180/1/18
f 506/1/16 507/1/19 181/1/20 179/1/17
f 507/1/19 506/1/16 180/1/18 182/1/21
f 507/1/19 508/1/22 177/1/114 181/1/20
f 508/1/22 507/1/19 182/1/21 178/1/113
f 508/1/22 501/1/1 185/1/4 177/1/114
f 501/1/1 508/1/22 178/1/113 186/1/5
f 509/1/115 510/1/116 325/1/117 323/1/118
f 510/1/116 509/1/115 324/1/119 326/1/120
f 510/1/116 511/1/121 327/1/122 325/1/117
f 511/1/121 510/1/116 326/1/120 328/1/123
f 511/1/121 512/1/124 321/1/125 327/1/122
f 512/1/124 511/1/121 328/1/123 322/1/126
f 512/1/124 509/1/115 323/1/118 321/1/125
f 509/1/115 512/1/124 322/1/126 324/1/119
f 513/1/52 514/1/127 37/1/54 35/1/30
f 514/1/127 513/1/52 36/1/33 38/1/55
f 514/1/127 515/1/128 41/1/57 37/1/54
f 515/1/128 514/1/127 38/1/55 42/1/58
f 515/1/128 516/1/59 33/1/35 41/1/57
f 516/1/59 515/1/128 42/1/58 34/1/36
f 516/1/59 513/1/52 35/1/30 33/1/35
f 513/1/52 516/1/59 34/1/36 36/1/33
f 517/1/13 518/1/10 109/1/104 105/1/15
f 518/1/10 517/1/13 106/1/14 110/1/103
f 518/1/10 519/1/7 111/1/9 109/1/104
f 519/1/7 518/1/10 110/1/103 112/1/8
f 519/1/7 520/1/2 99/1/129 111/1/9
f 520/1/2 519/1/7 112/1/8 100/1/130
f 520/1/2 521/1/1 103/1/5 99/1/129
f 521/1/1 520/1/2 100/1/130 104/1/4
f 521/1/1 522/1/22 101/1/102 103/1/5
f 522/1/22 521/1/1 104/1/4 102/1/23
f 522/1/22 523/1/19 97/1/21 101/1/102
f 523/1/19 522/1/22 102/1/23 98/1/20
f 523/1/19 524/1/16 107/1/18 97/1/21
f 524/1/16 523/1/19 98/1/20 108/1/17
f 524/1/16 517/1/13 105/1/15 107/1/18
f 517/1/13 524/1/16 108/1/17 106/1/14
f 525/1/131 526/1/132 353/1/75 349/1/78
f 526/1/132 525/1/131 350/1/79 354/1/76
f 526/1/132 527/1/133 359/1/43 353/1/75
f 527/1/133 526/1/132 354/1/76 360/1/44
f 527/1/133 528/1/134 357/1/50 359/1/43
f 528/1/134 527/1/133 360/1/44 358/1/51
f 528/1/134 525/1/131 349/1/78 357/1/50
f 525/1/131 528/1/134 358/1/51 350/1/79
f 529/1/29 530/1/34 225/1/35 227/1/30
f 530/1/34 529/1/29 228/1/33 226/1/36
f 530/1/34 531/1/101 235/1/38 225/1/35
f 531/1/101 530/1/34 226/1/36 236/1/39
f 531/1/101 532/1/28 231/1/31 235/1/38
f 532/1/28 531/1/101 236/1/39 232/1/32
f 532/1/28 529/1/29 227/1/30 231/1/31
f 529/1/29 532/1/28 232/1/32 228/1/33
f 533/1/135 534/1/136 279/1/75 283/1/78
f 534/1/136 533/1/135 284/1/79 280/1/76
f 534/1/136 535/1/137 287/1/43 279/1/75
f 535/1/137 534/1/136 280/1/76 288/1/44
f 535/1/137 536/1/138 285/1/50 287/1/43
f 536/1/138 535/1/137 288/1/44 286/1/51
f 536/1/138 533/1/135 283/1/78 285/1/50
f 533/1/135 536/1/138 286/1/51 284/1/79
f 537/1/7 538/1/10 125/1/103 127/1/8
f 538/1/10 537/1/7 128/1/9 126/1/104
f 538/1/10 539/1/13 121/1/14 125/1/103
f 539/1/13 538/1/10 126/1/104 122/1/15
f 539/1/13 540/1/16 123/1/17 121/1/14
f 540/1/16 539/1/13 122/1/15 124/1/18
f 540/1/16 541/1/19 117/1/20 123/1/17
f 541/1/19 540/1/16 124/1/18 118/1/21
f 541/1/19 542/1/22 113/1/23 117/1/20
f 542/1/22 541/1/19 118/1/21 114/1/102
f 542/1/22 543/1/1 119/1/4 113/1/23
f 543/1/1 542/1/22 114/1/102 120/1/5
f 543/1/1 544/1/2 115/1/130 119/1/4
f 544/1/2 543/1/1 120/1/5 116/1/129
f 544/1/2 537/1/7 127/1/8 115/1/130
f 537/1/7 544/1/2 116/1/129 128/1/9
f 545/1/136 546/1/133 247/1/43 243/1/75
f 546/1/133 545/1/136 244/1/76 248/1/44
f 546/1/133 547/1/134 251/1/50 247/1/43
f 547/1/134 546/1/133 248/1/44 252/1/51
f 547/1/134 548/1/135 239/1/78 251/1/50
f 548/1/135 547/1/134 252/1/51 240/1/79
f 548/1/135 545/1/136 243/1/75 239/1/78
f 545/1/136 548/1/135 240/1/79 244/1/76
f 549/1/105 550/1/139 309/1/67 301/1/91
f 550/1/139 549/1/105 302/1/92 310/1/70
f 550/1/139 551/1/140 313/1/68 309/1/67
f 551/1/140 550/1/139 310/1/70 314/1/69
f 551/1/140 552/1/109 305/1/94 313/1/68
f 552/1/109 551/1/140 314/1/69 306/1/95
f 552/1/109 549/1/105 301/1/91 305/1/94
f 549/1/105 552/1/109 306/1/95 302/1/92
f 553/1/141 554/1/142 237/1/91 229/1/54
f 554/1/142 553/1/141 230/1/55 238/1/107
f 554/1/142 555/1/143 241/1/94 237/1/91
f 555/1/143 554/1/142 238/1/107 242/1/110
f 555/1/143 556/1/144 233/1/57 241/1/94
f 556/1/144 555/1/143 242/1/110 234/1/58
f 556/1/144 553/1/141 229/1/54 233/1/57
f 553/1/141 556/1/144 234/1/58 230/1/55
f 557/1/86 558/1/87 355/1/47 351/1/42
f 558/1/87 557/1/86 352/1/45 356/1/48
f 558/1/87 559/1/88 357/1/50 355/1/47
f 559/1/88 558/1/87 356/1/48 358/1/51
f 559/1/88 560/1/85 359/1/43 357/1/50
f 560/1/85 559/1/88 358/1/51 360/1/44
f 560/1/85 557/1/86 351/1/42 359/1/43
f 557/1/86 560/1/85 360/1/44 352/1/45
f 561/1/88 562/1/85 27/1/43 31/1/50
f 562/1/85 561/1/88 32/1/51 28/1/44
f 562/1/85 563/1/86 29/1/42 27/1/43
f 563/1/86 562/1/85 28/1/44 30/1/45
f 563/1/86 564/1/87 25/1/47 29/1/42
f 564/1/87 563/1/86 30/1/45 26/1/48
f 564/1/87 561/1/88 31/1/50 25/1/47
f 561/1/88 564/1/87 26/1/48 32/1/51
f 565/1/145 566/1/106 269/1/67 261/1/91
f 566/1/106 565/1/145 262/1/92 270/1/70
f 566/1/106 567/1/108 273/1/68 269/1/67
f 567/1/108 566/1/106 270/1/70 274/1/69
f 567/1/108 568/1/146 265/1/94 273/1/68
f 568/1/146 567/1/108 274/1/69 266/1/95
f 568/1/146 565/1/145 261/1/91 265/1/94
f 565/1/145 568/1/146 266/1/95 262/1/92
f 569/1/127 570/1/128 257/1/57 259/1/54
f 570/1/128 569/1/127 260/1/55 258/1/58
f 570/1/128 571/1/59 267/1/35 257/1/57
f 571/1/59 570/1/128 258/1/58 268/1/36
f 571/1/59 572/1/52 263/1/30 267/1/35
f 572/1/52 571/1/59 268/1/36 264/1/33
f 572/1/52 569/1/127 259/1/54 263/1/30
f 569/1/127 572/1/52 264/1/33 260/1/55
f 573/1/133 574/1/134 31/1/50 27/1/43
f 574/1/134 573/1/133 28/1/44 32/1/51
f 574/1/134 575/1/131 23/1/78 31/1/50
f 575/1/131 574/1/134 32/1/51 24/1/79
f 575/1/131 576/1/132 19/1/75 23/1/78
f 576/1/132 575/1/131 24/1/79 20/1/76
f 576/1/132 573/1/133 27/1/43 19/1/75
f 573/1/133 576/1/132 20/1/76 28/1/44
f 577/1/19 578/1/16 131/1/18 129/1/21
f 578/1/16 577/1/19 130/1/20 132/1/17
f 578/1/16 579/1/13 141/1/15 131/1/18
f 579/1/13 578/1/16 132/1/17 142/1/14
f 579/1/13 580/1/10 143/1/104 141/1/15
f 580/1/10 579/1/13 142/1/14 144/1/103
f 580/1/10 581/1/7 135/1/9 143/1/104
f 581/1/7 580/1/10 144/1/103 136/1/8
f 581/1/7 582/1/2 139/1/25 135/1/9
f 582/1/2 581/1/7 136/1/8 140/1/26
f 582/1/2 583/1/1 137/1/5 139/1/25
f 583/1/1 582/1/2 140/1/26 138/1/4
f 583/1/1 584/1/22 133/1/102 137/1/5
f 584/1/22 583/1/1 138/1/4 134/1/23
f 584/1/22 577/1/19 129/1/21 133/1/102
f 577/1/19 584/1/22 134/1/23 130/1/20
f 585/1/131 586/1/132 303/1/75 307/1/78
f 586/1/132 585/1/131 308/1/79 304/1/76
f 586/1/132 587/1/147 311/1/43 303/1/75
f 587/1/147 586/1/132 304/1/76 312/1/44
f 587/1/147 588/1/148 315/1/50 311/1/43
f 588/1/148 587/1/147 312/1/44 316/1/51
f 588/1/148 585/1/131 307/1/78 315/1/50
f 585/1/131 588/1/148 316/1/51 308/1/79
f 589/1/145 590/1/106 53/1/67 45/1/91
f 590/1/106 589/1/145 46/1/92 54/1/70
f 590/1/106 591/1/108 57/1/68 53/1/67
f 591/1/108 590/1/106 54/1/70 58/1/69
f 591/1/108 592/1/146 49/1/94 57/1/68
f 592/1/146 591/1/108 58/1/69 50/1/95
f 592/1/146 589/1/145 45/1/91 49/1/94
f 589/1/145 592/1/146 50/1/95 46/1/92
f 593/1/141 594/1/142 301/1/91 293/1/54
f 594/1/142 593/1/141 294/1/55 302/1/92
f 594/1/142 595/1/143 305/1/94 301/1/91
f 595/1/143 594/1/142 302/1/92 306/1/95
f 595/1/143 596/1/144 297/1/57 305/1/94
f 596/1/144 595/1/143 306/1/95 298/1/58
f 596/1/144 593/1/141 293/1/54 297/1/57
f 593/1/141 596/1/144 298/1/58 294/1/55
f 597/1/61 598/1/60 7/1/30 3/1/35
f 598/1/60 597/1/61 4/1/36 8/1/33
f 598/1/60 599/1/53 5/1/54 7/1/30
f 599/1/53 598/1/60 8/1/33 6/1/55
f 599/1/53 600/1/56 1/1/57 5/1/54
f 600/1/56 599/1/53 6/1/55 2/1/58
f 600/1/56 597/1/61 3/1/35 1/1/57
f 597/1/61 600/1/56 2/1/58 4/1/36
f 601/1/89 602/1/90 261/1/91 259/1/54
f 602/1/90 601/1/89 260/1/55 262/1/92
f 602/1/90 603/1/93 265/1/94 261/1/91
f 603/1/93 602/1/90 262/1/92 266/1/95
f 603/1/93 604/1/96 257/1/57 265/1/94
f 604/1/96 603/1/93 266/1/95 258/1/58
f 604/1/96 601/1/89 259/1/54 257/1/57
f 601/1/89 604/1/96 258/1/58 260/1/55
f 605/1/106 606/1/108 21/1/68 17/1/67
f 606/1/108 605/1/106 18/1/70 22/1/69
f 606/1/108 607/1/146 13/1/94 21/1/68
f 607/1/146 606/1/108 22/1/69 14/1/95
f 607/1/146 608/1/105 9/1/91 13/1/94
f 608/1/105 607/1/146 14/1/95 10/1/92
f 608/1/105 605/1/106 17/1/67 9/1/91
f 605/1/106 608/1/105 10/1/92 18/1/70
f 609/1/142 610/1/143 13/1/94 9/1/91
f 610/1/143 609/1/142 10/1/92 14/1/95
f 610/1/143 611/1/96 1/1/57 13/1/94
f 611/1/96 610/1/143 14/1/95 2/1/58
f 611/1/96 612/1/89 5/1/54 1/1/57
f 612/1/89 611/1/96 2/1/58 6/1/55
f 612/1/89 609/1/142 9/1/91 5/1/54
f 609/1/142 612/1/89 6/1/55 10/1/92
f 613/1/88 614/1/85 311/1/43 315/1/50
f 614/1/85 613/1/88 316/1/51 312/1/44
f 614/1/85 615/1/86 319/1/42 311/1/43
f 615/1/86 614/1/85 312/1/44 320/1/45
f 615/1/86 616/1/87 317/1/47 319/1/42
f 616/1/87 615/1/86 320/1/45 318/1/48
f 616/1/87 613/1/88 315/1/50 317/1/47
f 613/1/88 616/1/87 318/1/48 316/1/51
f 617/1/10 618/1/7 219/1/9 209/1/12
f 618/1/7 617/1/10 210/1/11 220/1/8
f 618/1/7 619/1/2 217/1/6 219/1/9
f 619/1/2 618/1/7 220/1/8 218/1/3
f 619/1/2 620/1/1 211/1/5 217/1/6
f 620/1/1 619/1/2 218/1/3 212/1/4
f 620/1/1 621/1/22 215/1/24 211/1/5
f 621/1/22 620/1/1 212/1/4 216/1/27
f 621/1/22 622/1/19 213/1/21 215/1/24
f 622/1/19 621/1/22 216/1/27 214/1/20
f 622/1/19 623/1/16 221/1/18 213/1/21
f 623/1/16 622/1/19 214/1/20 222/1/17
f 623/1/16 624/1/13 223/1/15 221/1/18
f 624/1/13 623/1/16 222/1/17 224/1/14
f 624/1/13 617/1/10 209/1/12 223/1/15
f 617/1/10 624/1/13 224/1/14 210/1/11
f 625/1/132 626/1/133 55/1/43 47/1/75
f 626/1/133 625/1/132 48/1/76 56/1/44
f 626/1/133 627/1/134 59/1/50 55/1/43
f 627/1/134 626/1/133 56/1/44 60/1/51
f 627/1/134 628/1/131 51/1/78 59/1/50
f 628/1/131 627/1/134 60/1/51 52/1/79
f 628/1/131 625/1/132 47/1/75 51/1/78
f 625/1/132 628/1/131 52/1/79 48/1/76
f 629/1/96 630/1/89 331/1/54 333/1/57
f 630/1/89 629/1/96 334/1/58 332/1/55
f 630/1/89 631/1/142 339/1/91 331/1/54
f 631/1/142 630/1/89 332/1/55 340/1/92
f 631/1/142 632/1/143 335/1/94 339/1/91
f 632/1/143 631/1/142 340/1/92 336/1/95
f 632/1/143 629/1/96 333/1/57 335/1/94
f 629/1/96 632/1/143 336/1/95 334/1/58
f 633/1/146 634/1/145 339/1/91 335/1/94
f 634/1/145 633/1/146 336/1/95 340/1/92
f 634/1/145 635/1/106 347/1/67 339/1/91
f 635/1/106 634/1/145 340/1/92 348/1/70
f 635/1/106 636/1/108 343/1/68 347/1/67
f 636/1/108 635/1/106 348/1/70 344/1/69
f 636/1/108 633/1/146 335/1/94 343/1/68
f 633/1/146 636/1/108 344/1/69 336/1/95
