# Blender 4.5.3 LTS
# www.blender.org
mtllib glass idk.mtl
o RenderMesh_14653989728
v 0.255630 0.063704 0.043544
v 0.257630 0.063704 0.043544
v 0.255630 0.042838 -0.069643
v 0.257630 0.042838 -0.069643
v 0.255630 0.063704 -0.056694
v 0.257630 0.063704 -0.056694
v 0.255630 0.042838 0.056494
v 0.257630 0.042838 0.056494
v -0.237108 0.042838 -0.069642
v -0.239108 0.042838 -0.069642
v -0.237108 0.042838 0.056494
v -0.239108 0.042838 0.056494
v -0.237108 0.063704 -0.056693
v -0.239108 0.063704 -0.056693
v -0.237108 0.063704 0.043545
v -0.239108 0.063704 0.043545
v -0.173288 0.037340 -0.065247
v -0.175288 0.037340 -0.065247
v -0.173288 -0.063705 -0.065247
v -0.175288 -0.063705 -0.065247
v -0.173288 -0.063705 -0.024077
v -0.175288 -0.063705 -0.024077
v -0.173288 0.037340 -0.024077
v -0.175288 0.037340 -0.024077
v 0.172363 0.037340 -0.024077
v 0.174363 0.037340 -0.024077
v 0.172363 -0.063705 -0.065248
v 0.174363 -0.063705 -0.065248
v 0.172363 0.037340 -0.065248
v 0.174363 0.037340 -0.065248
v 0.172363 -0.063705 -0.024077
v 0.174363 -0.063705 -0.024077
v 0.255630 0.063704 -0.056694
v 0.255630 0.064759 -0.058393
v -0.237108 0.042838 -0.069642
v -0.237108 0.043893 -0.071341
v -0.237108 0.063704 -0.056693
v -0.237108 0.064759 -0.058392
v 0.255630 0.042838 -0.069643
v 0.255630 0.043893 -0.071342
v 0.172363 0.037340 -0.065248
v 0.172363 0.037340 -0.067248
v -0.173288 -0.063705 -0.065247
v -0.173288 -0.063705 -0.067247
v -0.173288 0.037340 -0.065247
v -0.173288 0.037340 -0.067247
v 0.172363 -0.063705 -0.065248
v 0.172363 -0.063705 -0.067248
v -0.237108 0.063704 -0.056693
v -0.237108 0.065704 -0.056693
v 0.255630 0.063704 0.043544
v 0.255630 0.065704 0.043544
v 0.255630 0.063704 -0.056694
v 0.255630 0.065704 -0.056694
v -0.237108 0.063704 0.043545
v -0.237108 0.065704 0.043545
v -0.173288 -0.063705 -0.065247
v -0.173288 -0.065705 -0.065247
v 0.172363 -0.063705 -0.065248
v 0.172363 -0.065705 -0.065248
v 0.172363 -0.063705 -0.024077
v 0.172363 -0.065705 -0.024077
v -0.173288 -0.063705 -0.024077
v -0.173288 -0.065705 -0.024077
v 0.292881 -0.059610 0.069642
v 0.293845 -0.061362 0.069642
v 0.292881 -0.059610 0.037820
v 0.293845 -0.061362 0.037820
v 0.301653 -0.045768 0.037820
v 0.303342 -0.046839 0.037820
v 0.301653 -0.045768 0.069642
v 0.303342 -0.046839 0.069642
v -0.292881 -0.059610 0.037821
v -0.293845 -0.061362 0.037821
v -0.292881 -0.059610 0.069643
v -0.293845 -0.061362 0.069643
v -0.301652 -0.045768 0.069643
v -0.303341 -0.046838 0.069643
v -0.301652 -0.045768 0.037821
v -0.303341 -0.046838 0.037821
v 0.255630 0.063704 0.043544
v 0.255630 0.064759 0.045243
v -0.237108 0.063704 0.043545
v -0.237108 0.064759 0.045244
v 0.255630 0.042838 0.056494
v 0.255630 0.043893 0.058193
v -0.237108 0.042838 0.056494
v -0.237108 0.043893 0.058193
v -0.301652 -0.045768 0.069643
v -0.301652 -0.045768 0.071643
v 0.292881 -0.059610 0.069642
v 0.292881 -0.059610 0.071642
v 0.301653 -0.045768 0.069642
v 0.301653 -0.045768 0.071642
v -0.292881 -0.059610 0.069643
v -0.292881 -0.059610 0.071643
v 0.292881 -0.031925 0.069642
v 0.292881 -0.031925 0.071642
v -0.292881 -0.031925 0.069643
v -0.292881 -0.031925 0.071643
v -0.301652 0.010538 0.069643
v -0.301652 0.010538 0.071643
v 0.292881 -0.003304 0.069642
v 0.292881 -0.003304 0.071642
v 0.301653 0.010538 0.069642
v 0.301653 0.010538 0.071642
v -0.292881 -0.003304 0.069643
v -0.292881 -0.003304 0.071643
v 0.292881 0.024381 0.069642
v 0.292881 0.024381 0.071642
v -0.292881 0.024381 0.069643
v -0.292881 0.024381 0.071643
v -0.173288 0.037340 -0.065247
v -0.173288 0.039340 -0.065247
v 0.172363 0.037340 -0.024077
v 0.172363 0.039340 -0.024077
v 0.172363 0.037340 -0.065248
v 0.172363 0.039340 -0.065248
v -0.173288 0.037340 -0.024077
v -0.173288 0.039340 -0.024077
v -0.292881 0.024381 0.037821
v -0.293845 0.026133 0.037821
v 0.292881 0.024381 0.069642
v 0.293845 0.026133 0.069642
v 0.292881 0.024381 0.037820
v 0.293845 0.026133 0.037820
v 0.301653 0.010538 0.069642
v 0.303342 0.011609 0.069642
v 0.301653 0.010538 0.037820
v 0.303342 0.011609 0.037820
v -0.292881 0.024381 0.069643
v -0.293845 0.026133 0.069643
v -0.301652 0.010538 0.037821
v -0.303341 0.011608 0.037821
v -0.301652 0.010538 0.069643
v -0.303341 0.011608 0.069643
v 0.292881 -0.003304 0.069642
v 0.293845 -0.005056 0.069642
v 0.292881 -0.003304 0.037820
v 0.293845 -0.005056 0.037820
v 0.301653 0.010538 0.037820
v 0.303342 0.009467 0.037820
v 0.301653 0.010538 0.069642
v 0.303342 0.009467 0.069642
v -0.292881 -0.003304 0.037821
v -0.293845 -0.005056 0.037821
v -0.292881 -0.003304 0.069643
v -0.293845 -0.005056 0.069643
v -0.301652 0.010538 0.069643
v -0.303341 0.009468 0.069643
v -0.301652 0.010538 0.037821
v -0.303341 0.009468 0.037821
v -0.292881 -0.031925 0.037821
v -0.293845 -0.030173 0.037821
v 0.292881 -0.031925 0.069642
v 0.293845 -0.030173 0.069642
v 0.292881 -0.031925 0.037820
v 0.293845 -0.030173 0.037820
v 0.301653 -0.045768 0.069642
v 0.303342 -0.044697 0.069642
v 0.301653 -0.045768 0.037820
v 0.303342 -0.044697 0.037820
v -0.292881 -0.031925 0.069643
v -0.293845 -0.030173 0.069643
v -0.301652 -0.045768 0.037821
v -0.303341 -0.044698 0.037821
v -0.301652 -0.045768 0.069643
v -0.303341 -0.044698 0.069643
v 0.172363 0.037340 -0.024077
v 0.172363 0.037340 -0.022077
v -0.173288 0.037340 -0.024077
v -0.173288 0.037340 -0.022077
v 0.172363 -0.063705 -0.024077
v 0.172363 -0.063705 -0.022077
v -0.173288 -0.063705 -0.024077
v -0.173288 -0.063705 -0.022077
v 0.254630 0.063382 -0.058071
v 0.254630 0.044215 -0.069965
v -0.236108 0.044215 -0.069964
v -0.236108 0.063382 -0.058070
v 0.171363 -0.064705 -0.025077
v -0.172288 -0.064705 -0.025077
v -0.172288 -0.064705 -0.064247
v 0.171363 -0.064705 -0.064248
v 0.256630 0.043838 0.054696
v 0.256630 0.043838 -0.067846
v 0.256630 0.062704 -0.056138
v 0.256630 0.062704 0.042988
v -0.300468 0.010538 0.070643
v -0.292331 -0.002304 0.070643
v 0.292331 -0.002304 0.070642
v 0.300469 0.010538 0.070642
v 0.292331 0.023381 0.070642
v -0.292331 0.023381 0.070643
v -0.292363 -0.031049 0.038821
v -0.292363 -0.031049 0.068643
v 0.292363 -0.031049 0.068642
v 0.292363 -0.031049 0.038820
v -0.292363 0.025257 0.038821
v -0.292363 0.025257 0.068643
v 0.292363 0.025257 0.068642
v 0.292363 0.025257 0.038820
v 0.171363 0.036340 -0.066248
v 0.171363 -0.062705 -0.066248
v -0.172288 -0.062705 -0.066247
v -0.172288 0.036340 -0.066247
v -0.236108 0.044215 0.056816
v 0.254630 0.044215 0.056816
v 0.254630 0.063382 0.044921
v -0.236108 0.063382 0.044922
v 0.301962 0.009158 0.038820
v 0.301962 0.009158 0.068642
v 0.293898 -0.003335 0.068642
v 0.293898 -0.003335 0.038820
v 0.301962 -0.044388 0.068642
v 0.301962 -0.044388 0.038820
v 0.293898 -0.031894 0.038820
v 0.293898 -0.031894 0.068642
v -0.172288 -0.062705 -0.023077
v 0.171363 -0.062705 -0.023077
v 0.171363 0.036340 -0.023077
v -0.172288 0.036340 -0.023077
v -0.238108 0.043838 0.054697
v -0.238108 0.062704 0.042989
v -0.238108 0.062704 -0.056137
v -0.238108 0.043838 -0.067845
v 0.173363 0.036340 -0.025077
v 0.173363 -0.062705 -0.025077
v 0.173363 -0.062705 -0.064248
v 0.173363 0.036340 -0.064248
v -0.301962 -0.044388 0.038821
v -0.301962 -0.044388 0.068643
v -0.293898 -0.031894 0.068643
v -0.293898 -0.031894 0.038821
v -0.236108 0.064704 -0.055693
v -0.236108 0.064704 0.042545
v 0.254630 0.064704 0.042544
v 0.254630 0.064704 -0.055694
v -0.174288 -0.062705 -0.025077
v -0.174288 0.036340 -0.025077
v -0.174288 0.036340 -0.064247
v -0.174288 -0.062705 -0.064247
v -0.301962 0.011918 0.038821
v -0.301962 0.011918 0.068643
v -0.293898 0.024412 0.068643
v -0.293898 0.024412 0.038821
v -0.172288 0.038340 -0.064247
v -0.172288 0.038340 -0.025077
v 0.171363 0.038340 -0.025077
v 0.171363 0.038340 -0.064248
v 0.301962 -0.047148 0.038820
v 0.301962 -0.047148 0.068642
v 0.293898 -0.059641 0.068642
v 0.293898 -0.059641 0.038820
v -0.301961 -0.047148 0.068643
v -0.301961 -0.047148 0.038821
v -0.293898 -0.059641 0.038821
v -0.293898 -0.059641 0.068643
v 0.292363 -0.004180 0.068642
v -0.292363 -0.004180 0.068643
v -0.292363 -0.004180 0.038821
v 0.292363 -0.004180 0.038820
v 0.301962 0.011918 0.068642
v 0.301962 0.011918 0.038820
v 0.293898 0.024412 0.038820
v 0.293898 0.024412 0.068642
v 0.292363 -0.060486 0.068642
v -0.292363 -0.060486 0.068643
v -0.292363 -0.060486 0.038821
v 0.292363 -0.060486 0.038820
v -0.300468 -0.045768 0.070643
v -0.292331 -0.058610 0.070643
v 0.292331 -0.058610 0.070642
v 0.300469 -0.045768 0.070642
v 0.292331 -0.032925 0.070642
v -0.292331 -0.032925 0.070643
v -0.301961 0.009158 0.068643
v -0.301961 0.009158 0.038821
v -0.293898 -0.003335 0.038821
v -0.293898 -0.003335 0.068643
vn -0.7071 -0.6008 -0.3729
vn -0.7071 0.6008 0.3729
vn -0.4082 -0.0837 0.9090
vn -0.4082 -0.7774 0.4785
vn -0.4083 0.0836 -0.9090
vn -0.4083 0.7774 -0.4785
vn 0.7071 0.6008 0.3729
vn 0.4082 -0.0837 0.9090
vn 0.4082 0.7774 -0.4785
vn 0.7071 -0.6008 -0.3729
vn 0.4082 -0.7774 0.4785
vn 0.4082 0.0837 -0.9090
vn -0.7071 -0.0000 -0.7071
vn 0.7071 -0.0000 -0.7071
vn 0.4082 0.8165 -0.4082
vn -0.4082 0.8165 -0.4082
vn -0.4082 -0.8165 -0.4082
vn 0.4082 -0.8165 -0.4082
vn 0.7071 -0.0000 0.7071
vn 0.4082 0.8165 0.4082
vn 0.4082 -0.8165 0.4082
vn -0.7071 -0.0000 0.7071
vn -0.4082 0.8165 0.4082
vn -0.4082 -0.8165 0.4082
vn -0.0000 0.4861 -0.8739
vn -0.0000 0.4862 0.8739
vn -0.8994 0.2126 0.3821
vn -0.8994 0.2125 -0.3821
vn 0.8994 0.2126 -0.3821
vn 0.8994 0.2126 0.3821
vn -0.0000 -0.8739 0.4862
vn -0.7530 -0.5750 0.3199
vn 0.7530 -0.5750 0.3199
vn -0.0000 -0.8739 -0.4861
vn -0.7530 -0.5750 -0.3199
vn 0.7530 -0.5750 -0.3199
vn 1.0000 -0.0000 -0.0000
vn 0.4821 0.8761 -0.0000
vn 0.3177 0.5774 -0.7522
vn 0.6453 -0.0000 -0.7639
vn 0.6453 -0.0000 0.7639
vn 0.3177 0.5774 0.7522
vn -0.4820 0.8762 -0.0000
vn -0.3177 0.5774 -0.7521
vn -0.3177 0.5774 0.7521
vn -1.0000 -0.0000 -0.0000
vn -0.6453 -0.0000 -0.7639
vn -0.6453 -0.0000 0.7639
vn -0.4821 -0.8761 -0.0000
vn -0.3177 -0.5774 -0.7521
vn -0.3177 -0.5774 0.7521
vn 0.4821 -0.8761 -0.0000
vn 0.3177 -0.5774 -0.7522
vn 0.3177 -0.5774 0.7522
vn 0.7143 0.2227 0.6635
vn 0.7143 0.2227 -0.6635
vn 0.4179 -0.7698 -0.4824
vn 0.4179 -0.7698 0.4824
vn -0.4288 0.7891 0.4398
vn -0.4288 0.7891 -0.4398
vn -0.7143 0.2227 -0.6635
vn -0.4179 -0.7698 -0.4824
vn 0.4288 0.7891 -0.4398
vn -0.7143 0.2227 0.6635
vn -0.4179 -0.7698 0.4824
vn 0.4288 0.7891 0.4398
vn -0.7071 -0.7071 -0.0000
vn -0.7071 0.7071 -0.0000
vn -0.4082 0.4082 0.8165
vn -0.4082 -0.4082 0.8165
vn -0.4083 -0.4082 -0.8165
vn -0.4083 0.4082 -0.8165
vn 0.7071 0.7071 -0.0000
vn 0.4082 0.4082 0.8165
vn 0.4082 0.4082 -0.8165
vn 0.7071 -0.7071 -0.0000
vn 0.4082 -0.4082 0.8165
vn 0.4082 -0.4082 -0.8165
vn 0.7071 0.6008 -0.3729
vn -0.7071 0.6008 -0.3729
vn -0.4083 -0.0837 -0.9090
vn 0.4082 -0.0837 -0.9090
vn 0.4083 0.7774 0.4785
vn -0.4082 0.7774 0.4785
vn -0.7071 -0.6008 0.3729
vn -0.4082 -0.7774 -0.4785
vn -0.4083 0.0837 0.9090
vn 0.7071 -0.6008 0.3729
vn 0.4083 -0.7774 -0.4785
vn 0.4082 0.0837 0.9090
vn -0.3838 -0.6088 0.6943
vn -0.3838 -0.6088 -0.6943
vn -0.9139 0.0999 -0.3935
vn -0.9139 0.0999 0.3935
vn 0.4744 -0.7888 0.3908
vn 0.4744 -0.7888 -0.3908
vn 0.5568 0.4771 -0.6800
vn -0.4179 0.7698 -0.4824
vn 0.4288 -0.7891 -0.4398
vn 0.5568 0.4771 0.6800
vn -0.4179 0.7698 0.4824
vn 0.4288 -0.7891 0.4398
vn -0.3838 0.6088 -0.6943
vn -0.3838 0.6088 0.6943
vn -0.9139 -0.0999 0.3935
vn -0.9139 -0.0999 -0.3935
vn 0.4744 0.7888 -0.3908
vn 0.4744 0.7888 0.3908
vn 0.5567 -0.4771 0.6800
vn 0.5567 -0.4771 -0.6800
vn -0.4082 0.4082 -0.8165
vn -0.4082 -0.4082 -0.8165
vn -0.0000 0.4862 -0.8739
vn -0.0000 -0.8739 -0.4862
vn -0.8993 0.2126 -0.3821
vn -0.8993 0.2126 0.3821
vn -0.0000 -0.7071 -0.7071
vn -0.0000 0.7071 -0.7071
vn -0.8165 0.4082 -0.4082
vn -0.8165 -0.4082 -0.4082
vn 0.8165 -0.4082 -0.4082
vn 0.8165 0.4082 -0.4082
vn -0.0000 0.7071 0.7071
vn -0.8165 0.4082 0.4082
vn 0.8165 0.4082 0.4082
vn -0.0000 -0.7071 0.7071
vn -0.8165 -0.4082 0.4082
vn 0.8165 -0.4082 0.4082
vn 0.3838 0.6088 0.6943
vn 0.3838 0.6088 -0.6943
vn 0.9139 -0.0999 -0.3935
vn 0.9139 -0.0999 0.3935
vn -0.4744 0.7888 0.3908
vn -0.4744 0.7888 -0.3908
vn -0.5567 -0.4771 -0.6800
vn -0.5567 -0.4771 0.6800
vn 0.4083 -0.8165 -0.4082
vn 0.4083 -0.8165 0.4082
vn 0.4083 0.8165 0.4082
vn 0.4083 0.8165 -0.4082
vn -0.4083 -0.8165 -0.4083
vn -0.4083 0.8165 -0.4083
vn -0.4083 -0.8165 0.4083
vn -0.4083 0.8165 0.4083
vn 0.8165 -0.4083 -0.4082
vn -0.8165 -0.4083 -0.4082
vn 0.3838 -0.6088 -0.6943
vn 0.3838 -0.6088 0.6943
vn 0.9139 0.0999 0.3935
vn 0.9139 0.0999 -0.3935
vn -0.4744 -0.7888 -0.3908
vn -0.4744 -0.7888 0.3908
vn -0.5567 0.4771 0.6800
vn 0.4179 0.7698 0.4824
vn -0.4288 -0.7891 0.4398
vn -0.5567 0.4771 -0.6800
vn 0.4179 0.7698 -0.4824
vn -0.4288 -0.7891 -0.4398
vn -0.7143 -0.2227 -0.6635
vn 0.7143 -0.2227 -0.6635
vn 0.7143 -0.2227 0.6635
vn -0.7143 -0.2227 0.6635
vt 0.000000 0.000000
s 1
f 177/1/1 178/1/2 39/1/3 33/1/4
f 178/1/2 177/1/1 34/1/5 40/1/6
f 178/1/2 179/1/7 35/1/8 39/1/3
f 179/1/7 178/1/2 40/1/6 36/1/9
f 179/1/7 180/1/10 37/1/11 35/1/8
f 180/1/10 179/1/7 36/1/9 38/1/12
f 180/1/10 177/1/1 33/1/4 37/1/11
f 177/1/1 180/1/10 38/1/12 34/1/5
f 181/1/13 182/1/14 63/1/15 61/1/16
f 182/1/14 181/1/13 62/1/17 64/1/18
f 182/1/14 183/1/19 57/1/20 63/1/15
f 183/1/19 182/1/14 64/1/18 58/1/21
f 183/1/19 184/1/22 59/1/23 57/1/20
f 184/1/22 183/1/19 58/1/21 60/1/24
f 184/1/22 181/1/13 61/1/16 59/1/23
f 181/1/13 184/1/22 60/1/24 62/1/17
f 185/1/25 186/1/26 3/1/27 7/1/28
f 186/1/26 185/1/25 8/1/29 4/1/30
f 186/1/26 187/1/31 5/1/32 3/1/27
f 187/1/31 186/1/26 4/1/30 6/1/33
f 187/1/31 188/1/34 1/1/35 5/1/32
f 188/1/34 187/1/31 6/1/33 2/1/36
f 188/1/34 185/1/25 7/1/28 1/1/35
f 185/1/25 188/1/34 2/1/36 8/1/29
f 189/1/37 190/1/38 107/1/39 101/1/40
f 190/1/38 189/1/37 102/1/41 108/1/42
f 190/1/38 191/1/43 103/1/44 107/1/39
f 191/1/43 190/1/38 108/1/42 104/1/45
f 191/1/43 192/1/46 105/1/47 103/1/44
f 192/1/46 191/1/43 104/1/45 106/1/48
f 192/1/46 193/1/49 109/1/50 105/1/47
f 193/1/49 192/1/46 106/1/48 110/1/51
f 193/1/49 194/1/52 111/1/53 109/1/50
f 194/1/52 193/1/49 110/1/51 112/1/54
f 194/1/52 189/1/37 101/1/40 111/1/53
f 189/1/37 194/1/52 112/1/54 102/1/41
f 195/1/55 196/1/56 163/1/57 153/1/58
f 196/1/56 195/1/55 154/1/59 164/1/60
f 196/1/56 197/1/61 155/1/62 163/1/57
f 197/1/61 196/1/56 164/1/60 156/1/63
f 197/1/61 198/1/64 157/1/65 155/1/62
f 198/1/64 197/1/61 156/1/63 158/1/66
f 198/1/64 195/1/55 153/1/58 157/1/65
f 195/1/55 198/1/64 158/1/66 154/1/59
f 199/1/55 200/1/56 131/1/57 121/1/58
f 200/1/56 199/1/55 122/1/59 132/1/60
f 200/1/56 201/1/61 123/1/62 131/1/57
f 201/1/61 200/1/56 132/1/60 124/1/63
f 201/1/61 202/1/64 125/1/65 123/1/62
f 202/1/64 201/1/61 124/1/63 126/1/66
f 202/1/64 199/1/55 121/1/58 125/1/65
f 199/1/55 202/1/64 126/1/66 122/1/59
f 203/1/67 204/1/68 47/1/69 41/1/70
f 204/1/68 203/1/67 42/1/71 48/1/72
f 204/1/68 205/1/73 43/1/74 47/1/69
f 205/1/73 204/1/68 48/1/72 44/1/75
f 205/1/73 206/1/76 45/1/77 43/1/74
f 206/1/76 205/1/73 44/1/75 46/1/78
f 206/1/76 203/1/67 41/1/70 45/1/77
f 203/1/67 206/1/76 46/1/78 42/1/71
f 207/1/79 208/1/80 85/1/81 87/1/82
f 208/1/80 207/1/79 88/1/83 86/1/84
f 208/1/80 209/1/85 81/1/86 85/1/81
f 209/1/85 208/1/80 86/1/84 82/1/87
f 209/1/85 210/1/88 83/1/89 81/1/86
f 210/1/88 209/1/85 82/1/87 84/1/90
f 210/1/88 207/1/79 87/1/82 83/1/89
f 207/1/79 210/1/88 84/1/90 88/1/83
f 211/1/91 212/1/92 143/1/93 141/1/94
f 212/1/92 211/1/91 142/1/95 144/1/96
f 212/1/92 213/1/97 137/1/98 143/1/93
f 213/1/97 212/1/92 144/1/96 138/1/99
f 213/1/97 214/1/100 139/1/101 137/1/98
f 214/1/100 213/1/97 138/1/99 140/1/102
f 214/1/100 211/1/91 141/1/94 139/1/101
f 211/1/91 214/1/100 140/1/102 142/1/95
f 215/1/103 216/1/104 161/1/105 159/1/106
f 216/1/104 215/1/103 160/1/107 162/1/108
f 216/1/104 217/1/109 157/1/65 161/1/105
f 217/1/109 216/1/104 162/1/108 158/1/66
f 217/1/109 218/1/110 155/1/62 157/1/65
f 218/1/110 217/1/109 158/1/66 156/1/63
f 218/1/110 215/1/103 159/1/106 155/1/62
f 215/1/103 218/1/110 156/1/63 160/1/107
f 219/1/73 220/1/68 173/1/111 175/1/75
f 220/1/68 219/1/73 176/1/74 174/1/69
f 220/1/68 221/1/67 169/1/112 173/1/111
f 221/1/67 220/1/68 174/1/69 170/1/70
f 221/1/67 222/1/76 171/1/78 169/1/112
f 222/1/76 221/1/67 170/1/70 172/1/77
f 222/1/76 219/1/73 175/1/75 171/1/78
f 219/1/73 222/1/76 172/1/77 176/1/74
f 223/1/113 224/1/114 15/1/36 11/1/29
f 224/1/114 223/1/113 12/1/115 16/1/35
f 224/1/114 225/1/31 13/1/33 15/1/36
f 225/1/31 224/1/114 16/1/35 14/1/32
f 225/1/31 226/1/26 9/1/30 13/1/33
f 226/1/26 225/1/31 14/1/32 10/1/116
f 226/1/26 223/1/113 11/1/29 9/1/30
f 223/1/113 226/1/26 10/1/116 12/1/115
f 227/1/117 228/1/118 31/1/119 25/1/120
f 228/1/118 227/1/117 26/1/121 32/1/122
f 228/1/118 229/1/123 27/1/124 31/1/119
f 229/1/123 228/1/118 32/1/122 28/1/125
f 229/1/123 230/1/126 29/1/127 27/1/124
f 230/1/126 229/1/123 28/1/125 30/1/128
f 230/1/126 227/1/117 25/1/120 29/1/127
f 227/1/117 230/1/126 30/1/128 26/1/121
f 231/1/129 232/1/130 167/1/131 165/1/132
f 232/1/130 231/1/129 166/1/133 168/1/134
f 232/1/130 233/1/135 163/1/57 167/1/131
f 233/1/135 232/1/130 168/1/134 164/1/60
f 233/1/135 234/1/136 153/1/58 163/1/57
f 234/1/136 233/1/135 164/1/60 154/1/59
f 234/1/136 231/1/129 165/1/132 153/1/58
f 231/1/129 234/1/136 154/1/59 166/1/133
f 235/1/19 236/1/14 55/1/137 49/1/138
f 236/1/14 235/1/19 50/1/139 56/1/140
f 236/1/14 237/1/13 51/1/141 55/1/137
f 237/1/13 236/1/14 56/1/140 52/1/142
f 237/1/13 238/1/22 53/1/143 51/1/141
f 238/1/22 237/1/13 52/1/142 54/1/144
f 238/1/22 235/1/19 49/1/138 53/1/143
f 235/1/19 238/1/22 54/1/144 50/1/139
f 239/1/118 240/1/117 23/1/145 21/1/122
f 240/1/117 239/1/118 22/1/119 24/1/146
f 240/1/117 241/1/126 17/1/128 23/1/145
f 241/1/126 240/1/117 24/1/146 18/1/127
f 241/1/126 242/1/123 19/1/125 17/1/128
f 242/1/123 241/1/126 18/1/127 20/1/124
f 242/1/123 239/1/118 21/1/122 19/1/125
f 239/1/118 242/1/123 20/1/124 22/1/119
f 243/1/129 244/1/130 135/1/131 133/1/132
f 244/1/130 243/1/129 134/1/133 136/1/134
f 244/1/130 245/1/135 131/1/57 135/1/131
f 245/1/135 244/1/130 136/1/134 132/1/60
f 245/1/135 246/1/136 121/1/58 131/1/57
f 246/1/136 245/1/135 132/1/60 122/1/59
f 246/1/136 243/1/129 133/1/132 121/1/58
f 243/1/129 246/1/136 122/1/59 134/1/133
f 247/1/19 248/1/14 119/1/18 113/1/21
f 248/1/14 247/1/19 114/1/20 120/1/15
f 248/1/14 249/1/13 115/1/17 119/1/18
f 249/1/13 248/1/14 120/1/15 116/1/16
f 249/1/13 250/1/22 117/1/24 115/1/17
f 250/1/22 249/1/13 116/1/16 118/1/23
f 250/1/22 247/1/19 113/1/21 117/1/24
f 247/1/19 250/1/22 118/1/23 114/1/20
f 251/1/91 252/1/92 71/1/93 69/1/94
f 252/1/92 251/1/91 70/1/95 72/1/96
f 252/1/92 253/1/97 65/1/98 71/1/93
f 253/1/97 252/1/92 72/1/96 66/1/99
f 253/1/97 254/1/100 67/1/101 65/1/98
f 254/1/100 253/1/97 66/1/99 68/1/102
f 254/1/100 251/1/91 69/1/94 67/1/101
f 251/1/91 254/1/100 68/1/102 70/1/95
f 255/1/147 256/1/148 79/1/149 77/1/150
f 256/1/148 255/1/147 78/1/151 80/1/152
f 256/1/148 257/1/153 73/1/154 79/1/149
f 257/1/153 256/1/148 80/1/152 74/1/155
f 257/1/153 258/1/156 75/1/157 73/1/154
f 258/1/156 257/1/153 74/1/155 76/1/158
f 258/1/156 255/1/147 77/1/150 75/1/157
f 255/1/147 258/1/156 76/1/158 78/1/151
f 259/1/159 260/1/160 147/1/157 137/1/98
f 260/1/160 259/1/159 138/1/99 148/1/158
f 260/1/160 261/1/161 145/1/154 147/1/157
f 261/1/161 260/1/160 148/1/158 146/1/155
f 261/1/161 262/1/162 139/1/101 145/1/154
f 262/1/162 261/1/161 146/1/155 140/1/102
f 262/1/162 259/1/159 137/1/98 139/1/101
f 259/1/159 262/1/162 140/1/102 138/1/99
f 263/1/103 264/1/104 129/1/105 127/1/106
f 264/1/104 263/1/103 128/1/107 130/1/108
f 264/1/104 265/1/109 125/1/65 129/1/105
f 265/1/109 264/1/104 130/1/108 126/1/66
f 265/1/109 266/1/110 123/1/62 125/1/65
f 266/1/110 265/1/109 126/1/66 124/1/63
f 266/1/110 263/1/103 127/1/106 123/1/62
f 263/1/103 266/1/110 124/1/63 128/1/107
f 267/1/159 268/1/160 75/1/157 65/1/98
f 268/1/160 267/1/159 66/1/99 76/1/158
f 268/1/160 269/1/161 73/1/154 75/1/157
f 269/1/161 268/1/160 76/1/158 74/1/155
f 269/1/161 270/1/162 67/1/101 73/1/154
f 270/1/162 269/1/161 74/1/155 68/1/102
f 270/1/162 267/1/159 65/1/98 67/1/101
f 267/1/159 270/1/162 68/1/102 66/1/99
f 271/1/37 272/1/38 95/1/39 89/1/40
f 272/1/38 271/1/37 90/1/41 96/1/42
f 272/1/38 273/1/43 91/1/44 95/1/39
f 273/1/43 272/1/38 96/1/42 92/1/45
f 273/1/43 274/1/46 93/1/47 91/1/44
f 274/1/46 273/1/43 92/1/45 94/1/48
f 274/1/46 275/1/49 97/1/50 93/1/47
f 275/1/49 274/1/46 94/1/48 98/1/51
f 275/1/49 276/1/52 99/1/53 97/1/50
f 276/1/52 275/1/49 98/1/51 100/1/54
f 276/1/52 271/1/37 89/1/40 99/1/53
f 271/1/37 276/1/52 100/1/54 90/1/41
f 277/1/147 278/1/148 151/1/149 149/1/150
f 278/1/148 277/1/147 150/1/151 152/1/152
f 278/1/148 279/1/153 145/1/154 151/1/149
f 279/1/153 278/1/148 152/1/152 146/1/155
f 279/1/153 280/1/156 147/1/157 145/1/154
f 280/1/156 279/1/153 146/1/155 148/1/158
f 280/1/156 277/1/147 149/1/150 147/1/157
f 277/1/147 280/1/156 148/1/158 150/1/151
