# Blender 4.5.3 LTS
# www.blender.org
mtllib glass handle.mtl
o RenderMesh_14653989514
v 0.101508 0.375120 -0.053606
v 0.101508 0.377120 -0.053606
v -0.101509 0.375120 -0.053606
v -0.101509 0.377120 -0.053606
v -0.101509 0.375120 0.053605
v -0.101509 0.377120 0.053605
v 0.101508 0.375120 0.053605
v 0.101508 0.377120 0.053605
v 0.112917 -0.375120 -0.059631
v 0.112917 -0.377120 -0.059631
v -0.112918 -0.375120 0.059631
v -0.112918 -0.377120 0.059631
v -0.112918 -0.375120 -0.059631
v -0.112918 -0.377120 -0.059631
v 0.112918 -0.375120 0.059630
v 0.112918 -0.377120 0.059630
v 0.101508 -0.304730 -0.053606
v 0.103452 -0.304260 -0.053606
v 0.101508 0.375120 -0.053606
v 0.103508 0.375120 -0.053606
v 0.101508 0.375120 0.053605
v 0.103508 0.375120 0.053605
v 0.101508 -0.304730 0.053605
v 0.103452 -0.304260 0.053605
v 0.112917 -0.328663 -0.059631
v 0.114875 -0.328256 -0.059631
v 0.112918 -0.328663 0.059630
v 0.114876 -0.328256 0.059630
v 0.112918 -0.375120 0.059630
v 0.114918 -0.375120 0.059630
v 0.112917 -0.375120 -0.059631
v 0.114917 -0.375120 -0.059631
v -0.101509 0.375120 -0.053606
v -0.103509 0.375120 -0.053606
v -0.101509 -0.304730 -0.053606
v -0.103453 -0.304260 -0.053606
v -0.101509 -0.304730 0.053605
v -0.103453 -0.304260 0.053605
v -0.101509 0.375120 0.053605
v -0.103509 0.375120 0.053605
v -0.112918 -0.328663 -0.059631
v -0.114876 -0.328256 -0.059631
v -0.112918 -0.328663 0.059631
v -0.114876 -0.328256 0.059631
v -0.112918 -0.375120 -0.059631
v -0.114918 -0.375120 -0.059631
v -0.112918 -0.375120 0.059631
v -0.114918 -0.375120 0.059631
v -0.101509 0.375120 0.053605
v -0.101509 0.375120 0.055605
v -0.101509 -0.304730 0.053605
v -0.101509 -0.304454 0.055586
v 0.101508 -0.304730 0.053605
v 0.101508 -0.304454 0.055586
v 0.101508 0.375120 0.053605
v 0.101508 0.375120 0.055605
v -0.112918 -0.328663 0.059631
v -0.112918 -0.328456 0.061620
v 0.112918 -0.328663 0.059630
v 0.112918 -0.328456 0.061619
v -0.112918 -0.375120 0.059631
v -0.112918 -0.375120 0.061631
v 0.112918 -0.375120 0.059630
v 0.112918 -0.375120 0.061630
v 0.101508 0.375120 -0.053606
v 0.101508 0.375120 -0.055606
v -0.101509 -0.304730 -0.053606
v -0.101509 -0.304454 -0.055587
v -0.101509 0.375120 -0.053606
v -0.101509 0.375120 -0.055606
v 0.101508 -0.304730 -0.053606
v 0.101508 -0.304454 -0.055587
v 0.112917 -0.328663 -0.059631
v 0.112917 -0.328456 -0.061620
v -0.112918 -0.328663 -0.059631
v -0.112918 -0.328456 -0.061620
v 0.112917 -0.375120 -0.059631
v 0.112917 -0.375120 -0.061631
v -0.112918 -0.375120 -0.059631
v -0.112918 -0.375120 -0.061631
v -0.102481 -0.303495 0.052605
v -0.102509 0.374120 0.052605
v -0.102509 0.374120 -0.052606
v -0.102481 -0.303495 -0.052606
v 0.111353 -0.327590 -0.060381
v -0.111354 -0.327590 -0.060381
v -0.100870 -0.305562 -0.054841
v 0.100869 -0.305562 -0.054841
v -0.113918 -0.374120 -0.058631
v -0.113918 -0.374120 0.058631
v -0.113897 -0.329459 0.058631
v -0.113897 -0.329459 -0.058631
v -0.111354 -0.327590 0.060382
v 0.111354 -0.327590 0.060381
v 0.100869 -0.305562 0.054840
v -0.100870 -0.305562 0.054840
v 0.100508 0.374120 -0.054606
v 0.100508 -0.303592 -0.054596
v -0.100509 -0.303592 -0.054596
v -0.100509 0.374120 -0.054606
v 0.102508 0.374120 0.052605
v 0.102480 -0.303495 0.052605
v 0.102480 -0.303495 -0.052606
v 0.102508 0.374120 -0.052606
v 0.111917 -0.376120 -0.058631
v 0.111918 -0.376120 0.058630
v -0.111918 -0.376120 0.058631
v -0.111918 -0.376120 -0.058631
v -0.113467 -0.327557 -0.058378
v -0.113467 -0.327557 0.058378
v -0.102911 -0.305397 0.052807
v -0.102911 -0.305397 -0.052808
v 0.102910 -0.305397 0.052807
v 0.113467 -0.327557 0.058377
v 0.113466 -0.327557 -0.058378
v 0.102910 -0.305397 -0.052808
v -0.100509 0.376120 0.052605
v 0.100508 0.376120 0.052605
v 0.100508 0.376120 -0.052606
v -0.100509 0.376120 -0.052606
v 0.113918 -0.374120 0.058630
v 0.113917 -0.374120 -0.058631
v 0.113896 -0.329459 -0.058631
v 0.113897 -0.329459 0.058630
v -0.111918 -0.374120 0.060631
v 0.111918 -0.374120 0.060630
v 0.111918 -0.329560 0.060625
v -0.111918 -0.329560 0.060626
v 0.100508 -0.303592 0.054595
v 0.100508 0.374120 0.054605
v -0.100509 0.374120 0.054605
v -0.100509 -0.303592 0.054595
v 0.111917 -0.374120 -0.060631
v -0.111918 -0.374120 -0.060631
v -0.111918 -0.329560 -0.060626
v 0.111917 -0.329560 -0.060626
vn 0.1021 0.7061 -0.7007
vn -0.0000 -0.7096 -0.7046
vn 0.8184 -0.4078 -0.4049
vn 0.8561 -0.2820 -0.4331
vn -0.8815 0.1308 -0.4536
vn -0.8184 -0.4078 -0.4049
vn -0.0000 -0.7096 0.7046
vn 0.8184 -0.4078 0.4049
vn -0.8184 -0.4078 0.4049
vn 0.1021 0.7061 0.7007
vn 0.8561 -0.2820 0.4331
vn -0.8815 0.1309 0.4536
vn -0.8402 0.5359 0.0832
vn 0.8402 0.5359 0.0832
vn 0.4341 -0.2354 0.8696
vn -0.4341 -0.2354 0.8696
vn -0.4246 -0.0431 -0.9044
vn 0.4246 -0.0431 -0.9044
vn 0.5368 -0.8301 -0.1509
vn 0.4189 -0.2619 0.8695
vn 0.4311 -0.0241 -0.9020
vn -0.5368 -0.8301 -0.1509
vn -0.4189 -0.2619 0.8695
vn -0.4311 -0.0241 -0.9020
vn -0.0001 0.7091 0.7052
vn -0.0001 0.7091 -0.7052
vn 0.8180 0.4078 -0.4058
vn 0.8180 0.4078 0.4058
vn -0.8178 0.4083 0.4056
vn -0.8178 0.4083 -0.4056
vn -0.0881 -0.7063 -0.7024
vn 0.8530 -0.2585 -0.4535
vn -0.8931 0.1131 -0.4355
vn -0.0881 -0.7063 0.7024
vn 0.8530 -0.2585 0.4535
vn -0.8931 0.1131 0.4355
vn 0.8402 0.5359 -0.0832
vn -0.8402 0.5359 -0.0832
vn -0.4341 -0.2355 -0.8696
vn 0.4341 -0.2355 -0.8696
vn 0.4246 -0.0431 0.9044
vn -0.4245 -0.0431 0.9044
vn -0.5368 -0.8301 0.1509
vn -0.4189 -0.2619 -0.8694
vn -0.4311 -0.0241 0.9020
vn 0.5368 -0.8301 0.1509
vn 0.4189 -0.2619 -0.8694
vn 0.4311 -0.0240 0.9020
vn -0.7062 -0.7080 -0.0000
vn -0.7049 0.7068 0.0595
vn -0.4071 -0.4081 0.8171
vn -0.4071 -0.4081 -0.8171
vn 0.7049 0.7068 0.0595
vn 0.7062 -0.7080 -0.0000
vn 0.4071 -0.4081 0.8171
vn 0.4071 -0.4081 -0.8171
vn -0.1021 0.7061 -0.7007
vn -0.8561 -0.2820 -0.4331
vn 0.8815 0.1309 -0.4536
vn -0.1021 0.7061 0.7007
vn -0.8561 -0.2820 0.4331
vn 0.8815 0.1309 0.4536
vn -0.7071 -0.0000 0.7071
vn -0.7071 -0.0000 -0.7071
vn -0.4082 0.8165 -0.4082
vn -0.4082 0.8165 0.4083
vn -0.4082 -0.8165 0.4083
vn -0.4082 -0.8165 -0.4082
vn 0.7071 -0.0000 -0.7071
vn 0.4082 0.8165 -0.4082
vn 0.4082 -0.8165 -0.4082
vn 0.7071 -0.0000 0.7071
vn 0.4082 0.8165 0.4082
vn 0.4082 -0.8165 0.4082
vn 0.1854 0.6056 0.7739
vn 0.1854 0.6055 -0.7739
vn -0.2468 -0.7479 -0.6162
vn -0.2468 -0.7479 0.6162
vn 0.2468 -0.7479 -0.6162
vn -0.1854 0.6056 -0.7739
vn -0.8530 -0.2585 -0.4535
vn 0.8931 0.1132 -0.4355
vn -0.1854 0.6056 0.7739
vn -0.8530 -0.2585 0.4535
vn 0.8931 0.1132 0.4355
vn 0.2469 -0.7479 0.6162
vn -0.4082 -0.8165 0.4082
vn -0.4082 0.8165 0.4082
vn 0.0001 0.7091 -0.7052
vn 0.0001 0.7091 0.7052
vn -0.8179 0.4078 0.4058
vn -0.8180 0.4078 -0.4058
vn 0.8178 0.4083 -0.4056
vn 0.8178 0.4083 0.4056
vn 0.0881 -0.7063 0.7024
vn 0.0881 -0.7063 -0.7024
vn 0.7066 0.7076 -0.0000
vn -0.7066 0.7076 -0.0000
vn -0.4076 0.4081 -0.8169
vn 0.4076 0.4081 -0.8169
vn 0.4076 0.4082 0.8168
vn -0.4076 0.4082 0.8168
vn -0.7059 -0.7069 0.0445
vn 0.7059 -0.7069 0.0445
vn -0.7049 0.7068 -0.0595
vn 0.7049 0.7068 -0.0595
vn 0.4076 0.4081 0.8169
vn -0.4076 0.4081 0.8169
vn -0.4076 0.4083 -0.8168
vn 0.4076 0.4083 -0.8168
vn 0.7059 -0.7069 -0.0445
vn -0.7059 -0.7069 -0.0445
vt 0.000000 0.000000
s 1
f 81/1/1 82/1/2 39/1/3 37/1/4
f 82/1/2 81/1/1 38/1/5 40/1/6
f 82/1/2 83/1/7 33/1/8 39/1/3
f 83/1/7 82/1/2 40/1/6 34/1/9
f 83/1/7 84/1/10 35/1/11 33/1/8
f 84/1/10 83/1/7 34/1/9 36/1/12
f 84/1/10 81/1/1 37/1/4 35/1/11
f 81/1/1 84/1/10 36/1/12 38/1/5
f 85/1/13 86/1/14 75/1/15 73/1/16
f 86/1/14 85/1/13 74/1/17 76/1/18
f 86/1/14 87/1/19 67/1/20 75/1/15
f 87/1/19 86/1/14 76/1/18 68/1/21
f 87/1/19 88/1/22 71/1/23 67/1/20
f 88/1/22 87/1/19 68/1/21 72/1/24
f 88/1/22 85/1/13 73/1/16 71/1/23
f 85/1/13 88/1/22 72/1/24 74/1/17
f 89/1/25 90/1/26 47/1/27 45/1/28
f 90/1/26 89/1/25 46/1/29 48/1/30
f 90/1/26 91/1/31 43/1/32 47/1/27
f 91/1/31 90/1/26 48/1/30 44/1/33
f 91/1/31 92/1/34 41/1/35 43/1/32
f 92/1/34 91/1/31 44/1/33 42/1/36
f 92/1/34 89/1/25 45/1/28 41/1/35
f 89/1/25 92/1/34 42/1/36 46/1/29
f 93/1/37 94/1/38 59/1/39 57/1/40
f 94/1/38 93/1/37 58/1/41 60/1/42
f 94/1/38 95/1/43 53/1/44 59/1/39
f 95/1/43 94/1/38 60/1/42 54/1/45
f 95/1/43 96/1/46 51/1/47 53/1/44
f 96/1/46 95/1/43 54/1/45 52/1/48
f 96/1/46 93/1/37 57/1/40 51/1/47
f 93/1/37 96/1/46 52/1/48 58/1/41
f 97/1/49 98/1/50 71/1/23 65/1/51
f 98/1/50 97/1/49 66/1/52 72/1/24
f 98/1/50 99/1/53 67/1/20 71/1/23
f 99/1/53 98/1/50 72/1/24 68/1/21
f 99/1/53 100/1/54 69/1/55 67/1/20
f 100/1/54 99/1/53 68/1/21 70/1/56
f 100/1/54 97/1/49 65/1/51 69/1/55
f 97/1/49 100/1/54 70/1/56 66/1/52
f 101/1/2 102/1/57 23/1/58 21/1/6
f 102/1/57 101/1/2 22/1/3 24/1/59
f 102/1/57 103/1/60 17/1/61 23/1/58
f 103/1/60 102/1/57 24/1/59 18/1/62
f 103/1/60 104/1/7 19/1/9 17/1/61
f 104/1/7 103/1/60 18/1/62 20/1/8
f 104/1/7 101/1/2 21/1/6 19/1/9
f 101/1/2 104/1/7 20/1/8 22/1/3
f 105/1/63 106/1/64 15/1/65 9/1/66
f 106/1/64 105/1/63 10/1/67 16/1/68
f 106/1/64 107/1/69 11/1/70 15/1/65
f 107/1/69 106/1/64 16/1/68 12/1/71
f 107/1/69 108/1/72 13/1/73 11/1/70
f 108/1/72 107/1/69 12/1/71 14/1/74
f 108/1/72 105/1/63 9/1/66 13/1/73
f 105/1/63 108/1/72 14/1/74 10/1/67
f 109/1/75 110/1/76 43/1/32 41/1/35
f 110/1/76 109/1/75 42/1/36 44/1/33
f 110/1/76 111/1/77 37/1/4 43/1/32
f 111/1/77 110/1/76 44/1/33 38/1/5
f 111/1/77 112/1/78 35/1/11 37/1/4
f 112/1/78 111/1/77 38/1/5 36/1/12
f 112/1/78 109/1/75 41/1/35 35/1/11
f 109/1/75 112/1/78 36/1/12 42/1/36
f 113/1/79 114/1/80 27/1/81 23/1/58
f 114/1/80 113/1/79 24/1/59 28/1/82
f 114/1/80 115/1/83 25/1/84 27/1/81
f 115/1/83 114/1/80 28/1/82 26/1/85
f 115/1/83 116/1/86 17/1/61 25/1/84
f 116/1/86 115/1/83 26/1/85 18/1/62
f 116/1/86 113/1/79 23/1/58 17/1/61
f 113/1/79 116/1/86 18/1/62 24/1/59
f 117/1/69 118/1/64 7/1/68 5/1/71
f 118/1/64 117/1/69 6/1/70 8/1/65
f 118/1/64 119/1/63 1/1/87 7/1/68
f 119/1/63 118/1/64 8/1/65 2/1/88
f 119/1/63 120/1/72 3/1/74 1/1/87
f 120/1/72 119/1/63 2/1/88 4/1/73
f 120/1/72 117/1/69 5/1/71 3/1/74
f 117/1/69 120/1/72 4/1/73 6/1/70
f 121/1/89 122/1/90 31/1/91 29/1/92
f 122/1/90 121/1/89 30/1/93 32/1/94
f 122/1/90 123/1/95 25/1/84 31/1/91
f 123/1/95 122/1/90 32/1/94 26/1/85
f 123/1/95 124/1/96 27/1/81 25/1/84
f 124/1/96 123/1/95 26/1/85 28/1/82
f 124/1/96 121/1/89 29/1/92 27/1/81
f 121/1/89 124/1/96 28/1/82 30/1/93
f 125/1/97 126/1/98 63/1/99 61/1/100
f 126/1/98 125/1/97 62/1/101 64/1/102
f 126/1/98 127/1/103 59/1/39 63/1/99
f 127/1/103 126/1/98 64/1/102 60/1/42
f 127/1/103 128/1/104 57/1/40 59/1/39
f 128/1/104 127/1/103 60/1/42 58/1/41
f 128/1/104 125/1/97 61/1/100 57/1/40
f 125/1/97 128/1/104 58/1/41 62/1/101
f 129/1/105 130/1/49 55/1/52 53/1/44
f 130/1/49 129/1/105 54/1/45 56/1/51
f 130/1/49 131/1/54 49/1/56 55/1/52
f 131/1/54 130/1/49 56/1/51 50/1/55
f 131/1/54 132/1/106 51/1/47 49/1/56
f 132/1/106 131/1/54 50/1/55 52/1/48
f 132/1/106 129/1/105 53/1/44 51/1/47
f 129/1/105 132/1/106 52/1/48 54/1/45
f 133/1/98 134/1/97 79/1/107 77/1/108
f 134/1/97 133/1/98 78/1/109 80/1/110
f 134/1/97 135/1/111 75/1/15 79/1/107
f 135/1/111 134/1/97 80/1/110 76/1/18
f 135/1/111 136/1/112 73/1/16 75/1/15
f 136/1/112 135/1/111 76/1/18 74/1/17
f 136/1/112 133/1/98 77/1/108 73/1/16
f 133/1/98 136/1/112 74/1/17 78/1/109
o RenderMesh_14653989374
v 0.443215 0.195216 0.060507
v 0.441801 0.196630 0.060507
v 0.461771 0.202903 0.060507
v 0.461771 0.204903 0.060507
v 0.443215 0.195216 0.053359
v 0.441801 0.196630 0.053359
v 0.461771 0.202903 0.053359
v 0.461771 0.204903 0.053359
v 0.435529 0.176660 0.053359
v 0.433529 0.176660 0.053359
v 0.480327 0.195216 0.060507
v 0.481741 0.196630 0.060507
v 0.435529 0.176660 0.060507
v 0.433529 0.176660 0.060507
v 0.480327 0.195216 0.053359
v 0.481741 0.196630 0.053359
v 0.443215 0.158104 0.053359
v 0.441801 0.156690 0.053359
v 0.488014 0.176660 0.060507
v 0.490014 0.176660 0.060507
v 0.443215 0.158104 0.060507
v 0.441801 0.156690 0.060507
v 0.488014 0.176660 0.053359
v 0.490014 0.176660 0.053359
v 0.461771 0.150418 0.053359
v 0.461771 0.148418 0.053359
v 0.480327 0.158104 0.060507
v 0.481741 0.156690 0.060507
v 0.461771 0.150418 0.060507
v 0.461771 0.148418 0.060507
v 0.480327 0.158104 0.053359
v 0.481741 0.156690 0.053359
v 0.485642 -0.083980 0.087307
v 0.485642 -0.081980 0.087307
v 0.485642 -0.083980 -0.087307
v 0.485642 -0.081980 -0.087307
v 0.467085 -0.091666 -0.087307
v 0.465671 -0.090252 -0.087307
v 0.504198 -0.091666 0.087307
v 0.505612 -0.090252 0.087307
v 0.467085 -0.091666 0.087307
v 0.465671 -0.090252 0.087307
v 0.504198 -0.091666 -0.087307
v 0.505612 -0.090252 -0.087307
v 0.459399 -0.110222 -0.087307
v 0.457399 -0.110222 -0.087307
v 0.511885 -0.110222 0.087307
v 0.513885 -0.110222 0.087307
v 0.459399 -0.110222 0.087307
v 0.457399 -0.110222 0.087307
v 0.511885 -0.110222 -0.087307
v 0.513885 -0.110222 -0.087307
v 0.467085 -0.128778 -0.087307
v 0.465671 -0.130192 -0.087307
v 0.504198 -0.128778 0.087307
v 0.505612 -0.130192 0.087307
v 0.467085 -0.128778 0.087307
v 0.465671 -0.130192 0.087307
v 0.504198 -0.128778 -0.087307
v 0.505612 -0.130192 -0.087307
v 0.485642 -0.136465 -0.087307
v 0.485642 -0.138465 -0.087307
v 0.485642 -0.136465 0.087307
v 0.485642 -0.138465 0.087307
v -0.246341 -0.080158 -0.098568
v -0.246341 -0.080158 -0.100568
v -0.227785 -0.035360 -0.098568
v -0.227785 -0.035360 -0.100568
v -0.227785 -0.072472 -0.098568
v -0.227785 -0.072472 -0.100568
v -0.220097 -0.053916 -0.098568
v -0.220097 -0.053916 -0.100568
v -0.272583 -0.053916 -0.098568
v -0.272583 -0.053916 -0.100568
v -0.264897 -0.072472 -0.098568
v -0.264897 -0.072472 -0.100568
v -0.264897 -0.035360 -0.098568
v -0.264897 -0.035360 -0.100568
v -0.246341 -0.027673 -0.098568
v -0.246341 -0.027673 -0.100568
v -0.246341 -0.080158 0.098568
v -0.246341 -0.080158 0.100568
v -0.220097 -0.053916 0.098568
v -0.220097 -0.053916 0.100568
v -0.227784 -0.035360 0.098568
v -0.227784 -0.035360 0.100568
v -0.227784 -0.072472 0.098568
v -0.227784 -0.072472 0.100568
v -0.264897 -0.035360 0.098568
v -0.264897 -0.035360 0.100568
v -0.246341 -0.027673 0.098568
v -0.246341 -0.027673 0.100568
v -0.272583 -0.053916 0.098568
v -0.272583 -0.053916 0.100568
v -0.264897 -0.072472 0.098568
v -0.264897 -0.072472 0.100568
v 0.316723 -0.080158 -0.098568
v 0.316723 -0.080158 -0.100568
v 0.335279 -0.035360 -0.098568
v 0.335279 -0.035360 -0.100568
v 0.335279 -0.072472 -0.098568
v 0.335279 -0.072472 -0.100568
v 0.342965 -0.053916 -0.098568
v 0.342965 -0.053916 -0.100568
v 0.290480 -0.053916 -0.098568
v 0.290480 -0.053916 -0.100568
v 0.298166 -0.072472 -0.098568
v 0.298166 -0.072472 -0.100568
v 0.298166 -0.035360 -0.098568
v 0.298166 -0.035360 -0.100568
v 0.316723 -0.027673 -0.098568
v 0.316723 -0.027673 -0.100568
v 0.335279 -0.072472 0.098568
v 0.335279 -0.072472 0.100568
v 0.335279 -0.035360 0.098568
v 0.335279 -0.035360 0.100568
v 0.316723 -0.080158 0.098568
v 0.316723 -0.080158 0.100568
v 0.342965 -0.053916 0.098568
v 0.342965 -0.053916 0.100568
v 0.290480 -0.053916 0.098568
v 0.290480 -0.053916 0.100568
v 0.298166 -0.072472 0.098568
v 0.298166 -0.072472 0.100568
v 0.298166 -0.035360 0.098568
v 0.298166 -0.035360 0.100568
v 0.316723 -0.027673 0.098568
v 0.316723 -0.027673 0.100568
v 0.485642 -0.136465 -0.087307
v 0.485642 -0.136465 -0.089307
v 0.467085 -0.128778 -0.087307
v 0.467085 -0.128778 -0.089307
v 0.504198 -0.128778 -0.087307
v 0.504198 -0.128778 -0.089307
v 0.485642 -0.083980 -0.087307
v 0.485642 -0.083980 -0.089307
v 0.511885 -0.110222 -0.087307
v 0.511885 -0.110222 -0.089307
v 0.504198 -0.091666 -0.087307
v 0.504198 -0.091666 -0.089307
v 0.459399 -0.110222 -0.087307
v 0.459399 -0.110222 -0.089307
v 0.467085 -0.091666 -0.087307
v 0.467085 -0.091666 -0.089307
v 0.504198 -0.128778 0.087307
v 0.504198 -0.128778 0.089307
v 0.467085 -0.128778 0.087307
v 0.467085 -0.128778 0.089307
v 0.485642 -0.136465 0.087307
v 0.485642 -0.136465 0.089307
v 0.485642 -0.083980 0.087307
v 0.485642 -0.083980 0.089307
v 0.511885 -0.110222 0.087307
v 0.511885 -0.110222 0.089307
v 0.504198 -0.091666 0.087307
v 0.504198 -0.091666 0.089307
v 0.459399 -0.110222 0.087307
v 0.459399 -0.110222 0.089307
v 0.467085 -0.091666 0.087307
v 0.467085 -0.091666 0.089307
v -0.485642 -0.136465 -0.087307
v -0.485642 -0.136465 -0.089307
v -0.504198 -0.128778 -0.087307
v -0.504198 -0.128778 -0.089307
v -0.467086 -0.128778 -0.087307
v -0.467086 -0.128778 -0.089307
v -0.511885 -0.110222 -0.087307
v -0.511885 -0.110222 -0.089307
v -0.485642 -0.083980 -0.087307
v -0.485642 -0.083980 -0.089307
v -0.504198 -0.091666 -0.087307
v -0.504198 -0.091666 -0.089307
v -0.467086 -0.091666 -0.087307
v -0.467086 -0.091666 -0.089307
v -0.459400 -0.110222 -0.087307
v -0.459400 -0.110222 -0.089307
v -0.467085 -0.128778 0.087307
v -0.467085 -0.128778 0.089307
v -0.504198 -0.128778 0.087307
v -0.504198 -0.128778 0.089307
v -0.485642 -0.136465 0.087307
v -0.485642 -0.136465 0.089307
v -0.485642 -0.083980 0.087307
v -0.485642 -0.083980 0.089307
v -0.459400 -0.110222 0.087307
v -0.459400 -0.110222 0.089307
v -0.467085 -0.091666 0.087307
v -0.467085 -0.091666 0.089307
v -0.511885 -0.110222 0.087307
v -0.511885 -0.110222 0.089307
v -0.504198 -0.091666 0.087307
v -0.504198 -0.091666 0.089307
v 0.488014 0.176660 0.060507
v 0.488014 0.176660 0.062507
v 0.443215 0.195216 0.060507
v 0.443215 0.195216 0.062507
v 0.461771 0.150418 0.060507
v 0.461771 0.150418 0.062507
v 0.480327 0.158104 0.060507
v 0.480327 0.158104 0.062507
v 0.443215 0.158104 0.060507
v 0.443215 0.158104 0.062507
v 0.435529 0.176660 0.060507
v 0.435529 0.176660 0.062507
v 0.480327 0.195216 0.060507
v 0.480327 0.195216 0.062507
v 0.461771 0.202903 0.060507
v 0.461771 0.202903 0.062507
v 0.443215 0.195216 -0.060508
v 0.443215 0.195216 -0.062508
v 0.488014 0.176660 -0.060508
v 0.488014 0.176660 -0.062508
v 0.461771 0.150418 -0.060508
v 0.461771 0.150418 -0.062508
v 0.480327 0.158104 -0.060508
v 0.480327 0.158104 -0.062508
v 0.480327 0.195216 -0.060508
v 0.480327 0.195216 -0.062508
v 0.461771 0.202903 -0.060508
v 0.461771 0.202903 -0.062508
v 0.443215 0.158104 -0.060508
v 0.443215 0.158104 -0.062508
v 0.435529 0.176660 -0.060508
v 0.435529 0.176660 -0.062508
v 0.316723 -0.027673 0.098568
v 0.316723 -0.025673 0.098568
v 0.316723 -0.027673 -0.098568
v 0.316723 -0.025673 -0.098568
v 0.298166 -0.035360 -0.098568
v 0.296752 -0.033946 -0.098568
v 0.335279 -0.035360 -0.098568
v 0.336693 -0.033946 -0.098568
v 0.298166 -0.035360 0.098568
v 0.296752 -0.033946 0.098568
v 0.335279 -0.035360 0.098568
v 0.336693 -0.033946 0.098568
v 0.290480 -0.053916 -0.098568
v 0.288480 -0.053916 -0.098568
v 0.342965 -0.053916 -0.098568
v 0.344965 -0.053916 -0.098568
v 0.290480 -0.053916 0.098568
v 0.288480 -0.053916 0.098568
v 0.342965 -0.053916 0.098568
v 0.344965 -0.053916 0.098568
v 0.298166 -0.072472 -0.098568
v 0.296752 -0.073886 -0.098568
v 0.335279 -0.072472 0.098568
v 0.336693 -0.073886 0.098568
v 0.298166 -0.072472 0.098568
v 0.296752 -0.073886 0.098568
v 0.335279 -0.072472 -0.098568
v 0.336693 -0.073886 -0.098568
v 0.316723 -0.080158 -0.098568
v 0.316723 -0.082158 -0.098568
v 0.316723 -0.080158 0.098568
v 0.316723 -0.082158 0.098568
v -0.504198 -0.091666 0.087307
v -0.505612 -0.090252 0.087307
v -0.504198 -0.091666 -0.087307
v -0.505612 -0.090252 -0.087307
v -0.511885 -0.110222 -0.087307
v -0.513885 -0.110222 -0.087307
v -0.485642 -0.083980 -0.087307
v -0.485642 -0.081980 -0.087307
v -0.511885 -0.110222 0.087307
v -0.513885 -0.110222 0.087307
v -0.485642 -0.083980 0.087307
v -0.485642 -0.081980 0.087307
v -0.504198 -0.128778 -0.087307
v -0.505612 -0.130192 -0.087307
v -0.467086 -0.091666 -0.087307
v -0.465672 -0.090252 -0.087307
v -0.504198 -0.128778 0.087307
v -0.505612 -0.130192 0.087307
v -0.467085 -0.091666 0.087307
v -0.465671 -0.090252 0.087307
v -0.485642 -0.136465 -0.087307
v -0.485642 -0.138465 -0.087307
v -0.459400 -0.110222 0.087307
v -0.457400 -0.110222 0.087307
v -0.485642 -0.136465 0.087307
v -0.485642 -0.138465 0.087307
v -0.459400 -0.110222 -0.087307
v -0.457400 -0.110222 -0.087307
v -0.467086 -0.128778 -0.087307
v -0.465672 -0.130192 -0.087307
v -0.467085 -0.128778 0.087307
v -0.465671 -0.130192 0.087307
v -0.246341 -0.027673 0.098568
v -0.246341 -0.025673 0.098568
v -0.246341 -0.027673 -0.098568
v -0.246341 -0.025673 -0.098568
v -0.264897 -0.035360 -0.098568
v -0.266311 -0.033946 -0.098568
v -0.227785 -0.035360 -0.098568
v -0.226371 -0.033946 -0.098568
v -0.264897 -0.035360 0.098568
v -0.266311 -0.033946 0.098568
v -0.227784 -0.035360 0.098568
v -0.226370 -0.033946 0.098568
v -0.272583 -0.053916 -0.098568
v -0.274583 -0.053916 -0.098568
v -0.220097 -0.053916 0.098568
v -0.218097 -0.053916 0.098568
v -0.272583 -0.053916 0.098568
v -0.274583 -0.053916 0.098568
v -0.220097 -0.053916 -0.098568
v -0.218097 -0.053916 -0.098568
v -0.264897 -0.072472 -0.098568
v -0.266311 -0.073886 -0.098568
v -0.227784 -0.072472 0.098568
v -0.226370 -0.073886 0.098568
v -0.264897 -0.072472 0.098568
v -0.266311 -0.073886 0.098568
v -0.227785 -0.072472 -0.098568
v -0.226371 -0.073886 -0.098568
v -0.246341 -0.080158 -0.098568
v -0.246341 -0.082158 -0.098568
v -0.246341 -0.080158 0.098568
v -0.246341 -0.082158 0.098568
v 0.192667 -0.202903 -0.053609
v 0.192667 -0.200903 -0.053609
v -0.010350 -0.202903 -0.053609
v -0.010350 -0.200903 -0.053609
v -0.010350 -0.202903 0.053602
v -0.010350 -0.200903 0.053602
v 0.192667 -0.202903 0.053602
v 0.192667 -0.200903 0.053602
v 0.461771 0.202903 -0.060508
v 0.461771 0.204903 -0.060508
v 0.443215 0.195216 -0.060508
v 0.441801 0.196630 -0.060508
v 0.443215 0.195216 -0.053360
v 0.441801 0.196630 -0.053360
v 0.435529 0.176660 -0.053360
v 0.433529 0.176660 -0.053360
v 0.461771 0.202903 -0.053360
v 0.461771 0.204903 -0.053360
v 0.435529 0.176660 -0.060508
v 0.433529 0.176660 -0.060508
v 0.480327 0.195216 -0.060508
v 0.481741 0.196630 -0.060508
v 0.443215 0.158104 -0.053360
v 0.441801 0.156690 -0.053360
v 0.480327 0.195216 -0.053360
v 0.481741 0.196630 -0.053360
v 0.443215 0.158104 -0.060508
v 0.441801 0.156690 -0.060508
v 0.488014 0.176660 -0.060508
v 0.490014 0.176660 -0.060508
v 0.461771 0.150418 -0.053360
v 0.461771 0.148418 -0.053360
v 0.488014 0.176660 -0.053360
v 0.490014 0.176660 -0.053360
v 0.461771 0.150418 -0.060508
v 0.461771 0.148418 -0.060508
v 0.480327 0.158104 -0.060508
v 0.481741 0.156690 -0.060508
v 0.480327 0.158104 -0.053360
v 0.481741 0.156690 -0.053360
v 0.486932 0.176660 0.061507
v 0.479562 0.194451 0.061507
v 0.461771 0.201821 0.061507
v 0.443980 0.194451 0.061507
v 0.436611 0.176660 0.061507
v 0.443980 0.158869 0.061507
v 0.461771 0.151500 0.061507
v 0.479562 0.158869 0.061507
v -0.246341 -0.079076 -0.099568
v -0.264132 -0.071707 -0.099568
v -0.271501 -0.053916 -0.099568
v -0.264132 -0.036125 -0.099568
v -0.246341 -0.028755 -0.099568
v -0.228550 -0.036125 -0.099568
v -0.221179 -0.053916 -0.099568
v -0.228550 -0.071707 -0.099568
v -0.228002 -0.034270 -0.097568
v -0.245417 -0.027056 -0.097568
v -0.245417 -0.027056 0.097568
v -0.228001 -0.034270 0.097568
v 0.503981 -0.129868 0.086307
v 0.486566 -0.137082 0.086307
v 0.486566 -0.137082 -0.086307
v 0.503981 -0.129868 -0.086307
v 0.315799 -0.027056 -0.097568
v 0.298383 -0.034270 -0.097568
v 0.298383 -0.034270 0.097568
v 0.315799 -0.027056 0.097568
v -0.247265 -0.027056 -0.097568
v -0.264680 -0.034270 -0.097568
v -0.264680 -0.034270 0.097568
v -0.247265 -0.027056 0.097568
v -0.467303 -0.090576 -0.086307
v -0.484718 -0.083363 -0.086307
v -0.484718 -0.083363 0.086307
v -0.467302 -0.090576 0.086307
v 0.443432 0.157014 -0.054360
v 0.443432 0.157014 -0.059508
v 0.460847 0.149801 -0.059508
v 0.460847 0.149801 -0.054360
v -0.465995 -0.091883 0.086307
v -0.458783 -0.109298 0.086307
v -0.458783 -0.109298 -0.086307
v -0.465996 -0.091883 -0.086307
v 0.460847 0.149801 0.054359
v 0.460847 0.149801 0.059507
v 0.443432 0.157014 0.059507
v 0.443432 0.157014 0.054359
v 0.336369 -0.035577 -0.097568
v 0.336369 -0.035577 0.097568
v 0.343582 -0.052992 0.097568
v 0.343582 -0.052992 -0.097568
v 0.505288 -0.091883 0.086307
v 0.512502 -0.109298 0.086307
v 0.512502 -0.109298 -0.086307
v 0.505288 -0.091883 -0.086307
v -0.226694 -0.035577 0.097568
v -0.219480 -0.052992 0.097568
v -0.219480 -0.052992 -0.097568
v -0.226695 -0.035577 -0.097568
v -0.264680 -0.073562 -0.097568
v -0.247265 -0.080775 -0.097568
v -0.247265 -0.080775 0.097568
v -0.264680 -0.073562 0.097568
v 0.335062 -0.073562 0.097568
v 0.317647 -0.080775 0.097568
v 0.317647 -0.080775 -0.097568
v 0.335062 -0.073562 -0.097568
v 0.443432 0.196306 -0.059508
v 0.443432 0.196306 -0.054360
v 0.460847 0.203520 -0.054360
v 0.460847 0.203520 -0.059508
v 0.465995 -0.091883 -0.086307
v 0.458782 -0.109298 -0.086307
v 0.458782 -0.109298 0.086307
v 0.465995 -0.091883 0.086307
v 0.481417 0.194999 -0.059508
v 0.481417 0.194999 -0.054360
v 0.488631 0.177584 -0.054360
v 0.488631 0.177584 -0.059508
v -0.503981 -0.129868 -0.086307
v -0.486566 -0.137082 -0.086307
v -0.486566 -0.137082 0.086307
v -0.503981 -0.129868 0.086307
v -0.228549 -0.071707 0.099568
v -0.221179 -0.053916 0.099568
v -0.228549 -0.036125 0.099568
v -0.246341 -0.028755 0.099568
v -0.264132 -0.036125 0.099568
v -0.271501 -0.053916 0.099568
v -0.264132 -0.071707 0.099568
v -0.246341 -0.079076 0.099568
v 0.480110 0.196306 0.059507
v 0.480110 0.196306 0.054359
v 0.462695 0.203520 0.054359
v 0.462695 0.203520 0.059507
v 0.503433 -0.128013 0.088307
v 0.510803 -0.110222 0.088307
v 0.503433 -0.092431 0.088307
v 0.485642 -0.085062 0.088307
v 0.467850 -0.092431 0.088307
v 0.460481 -0.110222 0.088307
v 0.467850 -0.128013 0.088307
v 0.485642 -0.135383 0.088307
v 0.289863 -0.054840 -0.097568
v 0.297076 -0.072255 -0.097568
v 0.297076 -0.072255 0.097568
v 0.289863 -0.054840 0.097568
v 0.488631 0.177584 0.059507
v 0.488631 0.177584 0.054359
v 0.481417 0.194999 0.054359
v 0.481417 0.194999 0.059507
v 0.467302 -0.129868 -0.086307
v 0.484718 -0.137082 -0.086307
v 0.484718 -0.137082 0.086307
v 0.467302 -0.129868 0.086307
v -0.484718 -0.137082 0.086307
v -0.484718 -0.137082 -0.086307
v -0.467303 -0.129868 -0.086307
v -0.467302 -0.129868 0.086307
v 0.298383 -0.073562 -0.097568
v 0.315799 -0.080775 -0.097568
v 0.315799 -0.080775 0.097568
v 0.298383 -0.073562 0.097568
v -0.503433 -0.092431 -0.088307
v -0.485642 -0.085062 -0.088307
v -0.467851 -0.092431 -0.088307
v -0.460482 -0.110222 -0.088307
v -0.467851 -0.128013 -0.088307
v -0.485642 -0.135383 -0.088307
v -0.503433 -0.128013 -0.088307
v -0.510803 -0.110222 -0.088307
v 0.462695 0.203520 -0.059508
v 0.462695 0.203520 -0.054360
v 0.480110 0.196306 -0.054360
v 0.480110 0.196306 -0.059508
v 0.486566 -0.083363 0.086307
v 0.503981 -0.090576 0.086307
v 0.503981 -0.090576 -0.086307
v 0.486566 -0.083363 -0.086307
v -0.460482 -0.110222 0.088307
v -0.467850 -0.092431 0.088307
v -0.485642 -0.085062 0.088307
v -0.503433 -0.092431 0.088307
v -0.510803 -0.110222 0.088307
v -0.503433 -0.128013 0.088307
v -0.485642 -0.135383 0.088307
v -0.467850 -0.128013 0.088307
v -0.009350 -0.201903 -0.052609
v -0.009350 -0.201903 0.052602
v 0.191667 -0.201903 0.052602
v 0.191667 -0.201903 -0.052609
v 0.484718 -0.083363 -0.086307
v 0.467302 -0.090576 -0.086307
v 0.467302 -0.090576 0.086307
v 0.484718 -0.083363 0.086307
v 0.291562 -0.053916 -0.099568
v 0.298931 -0.036125 -0.099568
v 0.316723 -0.028755 -0.099568
v 0.334514 -0.036125 -0.099568
v 0.341883 -0.053916 -0.099568
v 0.334514 -0.071707 -0.099568
v 0.316723 -0.079076 -0.099568
v 0.298931 -0.071707 -0.099568
v 0.488631 0.175736 -0.059508
v 0.488631 0.175736 -0.054360
v 0.481417 0.158321 -0.054360
v 0.481417 0.158321 -0.059508
v 0.317647 -0.027056 -0.097568
v 0.317647 -0.027056 0.097568
v 0.335062 -0.034270 0.097568
v 0.335062 -0.034270 -0.097568
v -0.458783 -0.111146 -0.086307
v -0.458783 -0.111146 0.086307
v -0.465995 -0.128561 0.086307
v -0.465996 -0.128561 -0.086307
v 0.316723 -0.028755 0.099568
v 0.298931 -0.036125 0.099568
v 0.291562 -0.053916 0.099568
v 0.298931 -0.071707 0.099568
v 0.316723 -0.079076 0.099568
v 0.334514 -0.071707 0.099568
v 0.341883 -0.053916 0.099568
v 0.334514 -0.036125 0.099568
v 0.343582 -0.054840 0.097568
v 0.336369 -0.072255 0.097568
v 0.336369 -0.072255 -0.097568
v 0.343582 -0.054840 -0.097568
v -0.273200 -0.054840 -0.097568
v -0.265987 -0.072255 -0.097568
v -0.265987 -0.072255 0.097568
v -0.273200 -0.054840 0.097568
v 0.297076 -0.035577 -0.097568
v 0.289863 -0.052992 -0.097568
v 0.289863 -0.052992 0.097568
v 0.297076 -0.035577 0.097568
v 0.462695 0.149801 -0.054360
v 0.462695 0.149801 -0.059508
v 0.480110 0.157014 -0.059508
v 0.480110 0.157014 -0.054360
v 0.480110 0.157014 0.054359
v 0.480110 0.157014 0.059507
v 0.462695 0.149801 0.059507
v 0.462695 0.149801 0.054359
v -0.512502 -0.111146 -0.086307
v -0.505288 -0.128561 -0.086307
v -0.505288 -0.128561 0.086307
v -0.512502 -0.111146 0.086307
v -0.503981 -0.090576 -0.086307
v -0.503981 -0.090576 0.086307
v -0.486566 -0.083363 0.086307
v -0.486566 -0.083363 -0.086307
v 0.481417 0.158321 0.059507
v 0.481417 0.158321 0.054359
v 0.488631 0.175736 0.054359
v 0.488631 0.175736 0.059507
v 0.485642 -0.135383 -0.088307
v 0.467850 -0.128013 -0.088307
v 0.460481 -0.110222 -0.088307
v 0.467850 -0.092431 -0.088307
v 0.485642 -0.085062 -0.088307
v 0.503433 -0.092431 -0.088307
v 0.510803 -0.110222 -0.088307
v 0.503433 -0.128013 -0.088307
v -0.219480 -0.054840 -0.097568
v -0.219480 -0.054840 0.097568
v -0.226694 -0.072255 0.097568
v -0.226695 -0.072255 -0.097568
v 0.458782 -0.111146 -0.086307
v 0.465995 -0.128561 -0.086307
v 0.465995 -0.128561 0.086307
v 0.458782 -0.111146 0.086307
v -0.265987 -0.035577 -0.097568
v -0.273200 -0.052992 -0.097568
v -0.273200 -0.052992 0.097568
v -0.265987 -0.035577 0.097568
v 0.460847 0.203520 0.059507
v 0.460847 0.203520 0.054359
v 0.443432 0.196306 0.054359
v 0.443432 0.196306 0.059507
v -0.505288 -0.091883 -0.086307
v -0.512502 -0.109298 -0.086307
v -0.512502 -0.109298 0.086307
v -0.505288 -0.091883 0.086307
v 0.442125 0.158321 0.054359
v 0.442125 0.158321 0.059507
v 0.434912 0.175736 0.059507
v 0.434912 0.175736 0.054359
v 0.434912 0.177584 0.054359
v 0.434912 0.177584 0.059507
v 0.442125 0.194999 0.059507
v 0.442125 0.194999 0.054359
v -0.228002 -0.073562 -0.097568
v -0.228001 -0.073562 0.097568
v -0.245417 -0.080775 0.097568
v -0.245417 -0.080775 -0.097568
v 0.443980 0.194451 -0.061508
v 0.461771 0.201821 -0.061508
v 0.479562 0.194451 -0.061508
v 0.486932 0.176660 -0.061508
v 0.479562 0.158869 -0.061508
v 0.461771 0.151500 -0.061508
v 0.443980 0.158869 -0.061508
v 0.436611 0.176660 -0.061508
v 0.512502 -0.111146 0.086307
v 0.505288 -0.128561 0.086307
v 0.505288 -0.128561 -0.086307
v 0.512502 -0.111146 -0.086307
v 0.442125 0.194999 -0.054360
v 0.442125 0.194999 -0.059508
v 0.434912 0.177584 -0.059508
v 0.434912 0.177584 -0.054360
v 0.434912 0.175736 -0.054360
v 0.434912 0.175736 -0.059508
v 0.442125 0.158321 -0.059508
v 0.442125 0.158321 -0.054360
vn -1.0000 -0.0000 -0.0000
vn -0.7071 -0.7071 -0.0000
vn -0.4798 -0.4798 -0.7345
vn -0.6786 -0.0000 -0.7345
vn -0.6786 -0.0000 0.7345
vn -0.4798 -0.4798 0.7345
vn -0.0000 -1.0000 -0.0000
vn -0.0000 -0.6786 -0.7345
vn -0.0000 -0.6786 0.7345
vn 0.7071 -0.7071 -0.0000
vn 0.4799 -0.4798 -0.7345
vn 0.4799 -0.4798 0.7345
vn 1.0000 -0.0000 -0.0000
vn 0.6786 -0.0000 -0.7345
vn 0.6786 -0.0000 0.7345
vn 0.7071 0.7071 -0.0000
vn 0.4798 0.4798 -0.7345
vn 0.4798 0.4798 0.7345
vn -0.0000 1.0000 -0.0000
vn -0.0000 0.6786 -0.7345
vn -0.0000 0.6786 0.7345
vn -0.7071 0.7071 -0.0000
vn -0.4798 0.4798 -0.7345
vn -0.4798 0.4799 0.7345
vn -0.4798 -0.4799 0.7345
vn -0.4798 -0.4799 -0.7345
vn -0.4798 0.4799 -0.7345
vn -0.5914 0.4310 0.6815
vn 0.7230 -0.1135 0.6815
vn -0.0000 -0.8846 0.4664
vn -0.6255 -0.6255 0.4664
vn 0.6375 0.6375 0.4327
vn -0.0000 0.9015 0.4327
vn 0.7230 -0.1135 -0.6815
vn -0.0000 -0.8846 -0.4664
vn -0.0000 0.9015 -0.4327
vn -0.5915 0.4310 -0.6815
vn -0.6255 -0.6255 -0.4664
vn 0.6375 0.6375 -0.4327
vn -0.5914 -0.4310 -0.6815
vn 0.7230 0.1135 -0.6815
vn -0.0000 0.8846 -0.4664
vn -0.6255 0.6255 -0.4664
vn 0.6375 -0.6375 -0.4327
vn -0.0000 -0.9015 -0.4327
vn 0.7230 0.1135 0.6815
vn -0.0000 0.8846 0.4664
vn -0.0000 -0.9015 0.4327
vn -0.5914 -0.4310 0.6815
vn -0.6255 0.6255 0.4664
vn 0.6375 -0.6375 0.4327
vn -0.7230 -0.1134 0.6815
vn 0.5914 0.4310 0.6815
vn 0.6255 -0.6255 0.4664
vn -0.6375 0.6375 0.4327
vn 0.5914 0.4310 -0.6815
vn 0.6255 -0.6255 -0.4664
vn -0.6375 0.6375 -0.4327
vn -0.7230 -0.1134 -0.6815
vn -0.7230 -0.1135 0.6815
vn -0.7230 -0.1135 -0.6815
vn -0.5915 0.4310 0.6815
vn 0.7230 -0.1134 0.6815
vn 0.7230 -0.1134 -0.6815
vn 0.5915 -0.4310 -0.6815
vn 0.5915 -0.4310 0.6815
vn 0.6255 0.6255 0.4664
vn 0.6255 0.6255 -0.4664
vn -0.6375 -0.6375 -0.4327
vn -0.6375 -0.6375 0.4327
vn -0.7230 0.1134 0.6815
vn -0.7230 0.1134 -0.6815
vn 0.4310 -0.5915 -0.6815
vn -0.1134 0.7230 -0.6815
vn -0.8846 -0.0000 -0.4664
vn 0.9015 -0.0000 -0.4327
vn -0.1134 0.7230 0.6815
vn -0.8846 -0.0000 0.4664
vn 0.9015 -0.0000 0.4327
vn 0.4310 -0.5915 0.6815
vn 0.4310 -0.5914 0.6815
vn 0.4310 -0.5914 -0.6815
vn -0.1135 0.7230 -0.6815
vn -0.1135 0.7230 0.6815
vn -0.5915 -0.4310 -0.6815
vn 0.7230 0.1134 -0.6815
vn 0.7230 0.1134 0.6815
vn -0.5915 -0.4310 0.6815
vn -0.4310 -0.5914 0.6815
vn 0.1135 0.7230 0.6815
vn 0.8846 -0.0000 0.4664
vn -0.9015 -0.0000 0.4327
vn 0.1135 0.7230 -0.6815
vn 0.8846 -0.0000 -0.4664
vn -0.9015 -0.0000 -0.4327
vn -0.4310 -0.5914 -0.6815
vn 0.5914 -0.4310 0.6815
vn -0.7230 0.1135 0.6815
vn -0.7230 0.1135 -0.6815
vn 0.5914 -0.4310 -0.6815
vn -0.5914 0.4310 -0.6815
vn -0.4798 0.4798 0.7345
vn 0.4798 -0.4798 -0.7345
vn 0.4798 -0.4798 0.7345
vn 0.1134 -0.7230 0.6815
vn -0.4310 0.5914 0.6815
vn -0.9016 -0.0000 0.4327
vn -0.4310 0.5914 -0.6815
vn 0.1134 -0.7230 -0.6815
vn -0.9016 -0.0000 -0.4327
vn 0.4798 -0.4799 0.7345
vn 0.4798 -0.4799 -0.7345
vn -0.4799 0.4798 0.7345
vn -0.4799 0.4798 -0.7345
vn 0.7071 -0.0000 0.7071
vn 0.7071 -0.0000 -0.7071
vn 0.4083 -0.8165 -0.4083
vn 0.4083 -0.8165 0.4083
vn 0.4082 0.8165 0.4083
vn 0.4082 0.8165 -0.4083
vn -0.7071 -0.0000 -0.7071
vn -0.4083 -0.8165 -0.4083
vn -0.4083 0.8165 -0.4083
vn -0.7071 -0.0000 0.7071
vn -0.4083 -0.8165 0.4083
vn -0.4083 0.8165 0.4083
vn 0.5915 0.4310 0.6815
vn 0.5915 0.4310 -0.6815
vn -0.4799 -0.4798 0.7345
vn -0.4799 -0.4798 -0.7345
vn -0.1135 -0.7230 0.6815
vn -0.1135 -0.7230 -0.6815
vn 0.4310 0.5914 -0.6815
vn 0.4310 0.5914 0.6815
vn -0.1134 -0.7230 0.6815
vn -0.1134 -0.7230 -0.6815
vn 0.4310 0.5915 -0.6815
vn 0.4310 0.5915 0.6815
vn -0.4310 0.5915 0.6815
vn -0.4310 0.5915 -0.6815
vn -0.4310 -0.5915 0.6815
vn 0.1134 0.7230 0.6815
vn 0.1134 0.7230 -0.6815
vn -0.4310 -0.5915 -0.6815
vn 0.1135 -0.7230 0.6815
vn 0.1135 -0.7230 -0.6815
vn 0.4311 0.5914 -0.6815
vn 0.4311 0.5914 0.6815
vt 0.000000 0.000000
s 1
f 497/2/113 498/2/114 341/2/115 329/2/116
f 498/2/114 497/2/113 330/2/117 342/2/118
f 498/2/114 499/2/119 343/2/120 341/2/115
f 499/2/119 498/2/114 342/2/118 344/2/121
f 499/2/119 500/2/122 331/2/123 343/2/120
f 500/2/122 499/2/119 344/2/121 332/2/124
f 500/2/122 501/2/125 339/2/126 331/2/123
f 501/2/125 500/2/122 332/2/124 340/2/127
f 501/2/125 502/2/128 337/2/129 339/2/126
f 502/2/128 501/2/125 340/2/127 338/2/130
f 502/2/128 503/2/131 333/2/132 337/2/129
f 503/2/131 502/2/128 338/2/130 334/2/133
f 503/2/131 504/2/134 335/2/135 333/2/132
f 504/2/134 503/2/131 334/2/133 336/2/136
f 504/2/134 497/2/113 329/2/116 335/2/135
f 497/2/113 504/2/134 336/2/136 330/2/117
f 505/2/131 506/2/128 211/2/130 201/2/133
f 506/2/128 505/2/131 202/2/132 212/2/129
f 506/2/128 507/2/125 209/2/127 211/2/130
f 507/2/125 506/2/128 212/2/129 210/2/126
f 507/2/125 508/2/122 213/2/124 209/2/127
f 508/2/122 507/2/125 210/2/126 214/2/123
f 508/2/122 509/2/119 215/2/121 213/2/124
f 509/2/119 508/2/122 214/2/123 216/2/120
f 509/2/119 510/2/114 203/2/137 215/2/121
f 510/2/114 509/2/119 216/2/120 204/2/138
f 510/2/114 511/2/113 207/2/117 203/2/137
f 511/2/113 510/2/114 204/2/138 208/2/116
f 511/2/113 512/2/134 205/2/136 207/2/117
f 512/2/134 511/2/113 208/2/116 206/2/139
f 512/2/134 505/2/131 201/2/133 205/2/136
f 505/2/131 512/2/134 206/2/139 202/2/132
f 513/2/140 514/2/141 427/2/142 431/2/143
f 514/2/141 513/2/140 432/2/144 428/2/145
f 514/2/141 515/2/146 425/2/147 427/2/142
f 515/2/146 514/2/141 428/2/145 426/2/148
f 515/2/146 516/2/149 435/2/150 425/2/147
f 516/2/149 515/2/146 426/2/148 436/2/151
f 516/2/149 513/2/140 431/2/143 435/2/150
f 513/2/140 516/2/149 436/2/151 432/2/144
f 517/2/152 518/2/153 199/2/154 191/2/155
f 518/2/153 517/2/152 192/2/156 200/2/157
f 518/2/153 519/2/158 197/2/159 199/2/154
f 519/2/158 518/2/153 200/2/157 198/2/160
f 519/2/158 520/2/161 195/2/162 197/2/159
f 520/2/161 519/2/158 198/2/160 196/2/163
f 520/2/161 517/2/152 191/2/155 195/2/162
f 517/2/152 520/2/161 196/2/163 192/2/156
f 521/2/164 522/2/165 365/2/166 363/2/142
f 522/2/165 521/2/164 364/2/145 366/2/167
f 522/2/165 523/2/168 369/2/169 365/2/166
f 523/2/168 522/2/165 366/2/167 370/2/170
f 523/2/168 524/2/171 361/2/147 369/2/169
f 524/2/171 523/2/168 370/2/170 362/2/148
f 524/2/171 521/2/164 363/2/142 361/2/147
f 521/2/164 524/2/171 362/2/148 364/2/145
f 525/2/172 526/2/165 429/2/166 427/2/142
f 526/2/165 525/2/172 428/2/145 430/2/167
f 526/2/165 527/2/168 433/2/169 429/2/166
f 527/2/168 526/2/165 430/2/167 434/2/170
f 527/2/168 528/2/173 425/2/147 433/2/169
f 528/2/173 527/2/168 434/2/170 426/2/148
f 528/2/173 525/2/172 427/2/142 425/2/147
f 525/2/172 528/2/173 426/2/148 428/2/145
f 529/2/174 530/2/175 399/2/142 407/2/143
f 530/2/175 529/2/174 408/2/144 400/2/145
f 530/2/175 531/2/176 403/2/147 399/2/142
f 531/2/176 530/2/175 400/2/145 404/2/148
f 531/2/176 532/2/149 411/2/150 403/2/147
f 532/2/149 531/2/176 404/2/148 412/2/151
f 532/2/149 529/2/174 407/2/143 411/2/150
f 529/2/174 532/2/149 412/2/151 408/2/144
f 533/2/177 534/2/178 483/2/179 479/2/180
f 534/2/178 533/2/177 480/2/181 484/2/182
f 534/2/178 535/2/183 491/2/159 483/2/179
f 535/2/183 534/2/178 484/2/182 492/2/160
f 535/2/183 536/2/184 487/2/154 491/2/159
f 536/2/184 535/2/183 492/2/160 488/2/157
f 536/2/184 533/2/177 479/2/180 487/2/154
f 533/2/177 536/2/184 488/2/157 480/2/181
f 537/2/185 538/2/186 415/2/187 411/2/150
f 538/2/186 537/2/185 412/2/151 416/2/188
f 538/2/186 539/2/189 419/2/190 415/2/187
f 539/2/189 538/2/186 416/2/188 420/2/191
f 539/2/189 540/2/192 407/2/143 419/2/190
f 540/2/192 539/2/189 420/2/191 408/2/144
f 540/2/192 537/2/185 411/2/150 407/2/143
f 537/2/185 540/2/192 408/2/144 412/2/151
f 541/2/183 542/2/184 165/2/154 161/2/159
f 542/2/184 541/2/183 162/2/160 166/2/157
f 542/2/184 543/2/177 157/2/180 165/2/154
f 543/2/177 542/2/184 166/2/157 158/2/181
f 543/2/177 544/2/178 153/2/179 157/2/180
f 544/2/178 543/2/177 158/2/181 154/2/182
f 544/2/178 541/2/183 161/2/159 153/2/179
f 541/2/183 544/2/178 154/2/182 162/2/160
f 545/2/193 546/2/194 371/2/150 367/2/143
f 546/2/194 545/2/193 368/2/144 372/2/151
f 546/2/194 547/2/186 379/2/187 371/2/150
f 547/2/186 546/2/194 372/2/151 380/2/188
f 547/2/186 548/2/189 375/2/190 379/2/187
f 548/2/189 547/2/186 380/2/188 376/2/191
f 548/2/189 545/2/193 367/2/143 375/2/190
f 545/2/193 548/2/189 376/2/191 368/2/144
f 549/2/194 550/2/195 183/2/187 175/2/150
f 550/2/195 549/2/194 176/2/151 184/2/188
f 550/2/195 551/2/196 187/2/190 183/2/187
f 551/2/196 550/2/195 184/2/188 188/2/191
f 551/2/196 552/2/193 179/2/143 187/2/190
f 552/2/193 551/2/196 188/2/191 180/2/144
f 552/2/193 549/2/194 175/2/150 179/2/143
f 549/2/194 552/2/193 180/2/144 176/2/151
f 553/2/194 554/2/195 439/2/187 435/2/150
f 554/2/195 553/2/194 436/2/151 440/2/188
f 554/2/195 555/2/196 443/2/190 439/2/187
f 555/2/196 554/2/195 440/2/188 444/2/191
f 555/2/196 556/2/193 431/2/143 443/2/190
f 556/2/193 555/2/196 444/2/191 432/2/144
f 556/2/193 553/2/194 435/2/150 431/2/143
f 553/2/194 556/2/193 432/2/144 436/2/151
f 557/2/178 558/2/183 453/2/159 445/2/179
f 558/2/183 557/2/178 446/2/182 454/2/160
f 558/2/183 559/2/184 455/2/154 453/2/159
f 559/2/184 558/2/183 454/2/160 456/2/157
f 559/2/184 560/2/177 449/2/180 455/2/154
f 560/2/177 559/2/184 456/2/157 450/2/181
f 560/2/177 557/2/178 445/2/179 449/2/180
f 557/2/178 560/2/177 450/2/181 446/2/182
f 561/2/197 562/2/198 391/2/154 383/2/155
f 562/2/198 561/2/197 384/2/156 392/2/157
f 562/2/198 563/2/199 389/2/159 391/2/154
f 563/2/199 562/2/198 392/2/157 390/2/160
f 563/2/199 564/2/200 387/2/162 389/2/159
f 564/2/200 563/2/199 390/2/160 388/2/163
f 564/2/200 561/2/197 383/2/155 387/2/162
f 561/2/197 564/2/200 388/2/163 384/2/156
f 565/2/165 566/2/168 469/2/169 467/2/166
f 566/2/168 565/2/165 468/2/167 470/2/170
f 566/2/168 567/2/173 473/2/147 469/2/169
f 567/2/173 566/2/168 470/2/170 474/2/148
f 567/2/173 568/2/172 465/2/142 473/2/147
f 568/2/172 567/2/173 474/2/148 466/2/145
f 568/2/172 565/2/165 467/2/166 465/2/142
f 565/2/165 568/2/172 466/2/145 468/2/167
f 569/2/201 570/2/202 181/2/203 173/2/166
f 570/2/202 569/2/201 174/2/167 182/2/204
f 570/2/202 571/2/205 185/2/206 181/2/203
f 571/2/205 570/2/202 182/2/204 186/2/207
f 571/2/205 572/2/208 177/2/169 185/2/206
f 572/2/208 571/2/205 186/2/207 178/2/170
f 572/2/208 569/2/201 173/2/166 177/2/169
f 569/2/201 572/2/208 178/2/170 174/2/167
f 573/2/193 574/2/194 481/2/150 477/2/143
f 574/2/194 573/2/193 478/2/144 482/2/151
f 574/2/194 575/2/195 489/2/187 481/2/150
f 575/2/195 574/2/194 482/2/151 490/2/188
f 575/2/195 576/2/196 485/2/190 489/2/187
f 576/2/196 575/2/195 490/2/188 486/2/191
f 576/2/196 573/2/193 477/2/143 485/2/190
f 573/2/193 576/2/196 486/2/191 478/2/144
f 577/2/209 578/2/210 413/2/159 405/2/179
f 578/2/210 577/2/209 406/2/182 414/2/160
f 578/2/210 579/2/211 417/2/154 413/2/159
f 579/2/211 578/2/210 414/2/160 418/2/157
f 579/2/211 580/2/212 409/2/180 417/2/154
f 580/2/212 579/2/211 418/2/157 410/2/181
f 580/2/212 577/2/209 405/2/179 409/2/180
f 577/2/209 580/2/212 410/2/181 406/2/182
f 581/2/134 582/2/113 219/2/116 223/2/139
f 582/2/113 581/2/134 224/2/136 220/2/117
f 582/2/113 583/2/114 221/2/115 219/2/116
f 583/2/114 582/2/113 220/2/117 222/2/118
f 583/2/114 584/2/119 227/2/120 221/2/115
f 584/2/119 583/2/114 222/2/118 228/2/121
f 584/2/119 585/2/122 225/2/123 227/2/120
f 585/2/122 584/2/119 228/2/121 226/2/124
f 585/2/122 586/2/125 229/2/126 225/2/123
f 586/2/125 585/2/122 226/2/124 230/2/127
f 586/2/125 587/2/128 231/2/129 229/2/126
f 587/2/128 586/2/125 230/2/127 232/2/130
f 587/2/128 588/2/131 217/2/132 231/2/129
f 588/2/131 587/2/128 232/2/130 218/2/133
f 588/2/131 581/2/134 223/2/139 217/2/132
f 581/2/134 588/2/131 218/2/133 224/2/136
f 589/2/213 590/2/140 151/2/143 147/2/150
f 590/2/140 589/2/213 148/2/151 152/2/144
f 590/2/140 591/2/141 143/2/142 151/2/143
f 591/2/141 590/2/140 152/2/144 144/2/145
f 591/2/141 592/2/146 139/2/147 143/2/142
f 592/2/146 591/2/141 144/2/145 140/2/148
f 592/2/146 589/2/213 147/2/150 139/2/147
f 589/2/213 592/2/146 140/2/148 148/2/151
f 593/2/134 594/2/113 289/2/116 281/2/135
f 594/2/113 593/2/134 282/2/214 290/2/117
f 594/2/113 595/2/114 291/2/138 289/2/116
f 595/2/114 594/2/113 290/2/117 292/2/137
f 595/2/114 596/2/119 287/2/120 291/2/138
f 596/2/119 595/2/114 292/2/137 288/2/121
f 596/2/119 597/2/122 295/2/215 287/2/120
f 597/2/122 596/2/119 288/2/121 296/2/216
f 597/2/122 598/2/125 293/2/126 295/2/215
f 598/2/125 597/2/122 296/2/216 294/2/127
f 598/2/125 599/2/128 283/2/129 293/2/126
f 599/2/128 598/2/125 294/2/127 284/2/130
f 599/2/128 600/2/131 285/2/132 283/2/129
f 600/2/131 599/2/128 284/2/130 286/2/133
f 600/2/131 593/2/134 281/2/135 285/2/132
f 593/2/134 600/2/131 286/2/133 282/2/214
f 601/2/217 602/2/218 381/2/179 373/2/203
f 602/2/218 601/2/217 374/2/219 382/2/182
f 602/2/218 603/2/220 385/2/180 381/2/179
f 603/2/220 602/2/218 382/2/182 386/2/181
f 603/2/220 604/2/221 377/2/206 385/2/180
f 604/2/221 603/2/220 386/2/181 378/2/222
f 604/2/221 601/2/217 373/2/203 377/2/206
f 601/2/217 604/2/221 378/2/222 374/2/219
f 605/2/195 606/2/196 159/2/190 155/2/187
f 606/2/196 605/2/195 156/2/188 160/2/191
f 606/2/196 607/2/193 151/2/143 159/2/190
f 607/2/193 606/2/196 160/2/191 152/2/144
f 607/2/193 608/2/194 147/2/150 151/2/143
f 608/2/194 607/2/193 152/2/144 148/2/151
f 608/2/194 605/2/195 155/2/187 147/2/150
f 605/2/195 608/2/194 148/2/151 156/2/188
f 609/2/209 610/2/210 197/2/159 189/2/179
f 610/2/210 609/2/209 190/2/182 198/2/160
f 610/2/210 611/2/211 199/2/154 197/2/159
f 611/2/211 610/2/210 198/2/160 200/2/157
f 611/2/211 612/2/212 193/2/180 199/2/154
f 612/2/212 611/2/211 200/2/157 194/2/181
f 612/2/212 609/2/209 189/2/179 193/2/180
f 609/2/209 612/2/212 194/2/181 190/2/182
f 613/2/153 614/2/158 413/2/159 417/2/154
f 614/2/158 613/2/153 418/2/157 414/2/160
f 614/2/158 615/2/161 421/2/162 413/2/159
f 615/2/161 614/2/158 414/2/160 422/2/163
f 615/2/161 616/2/152 423/2/155 421/2/162
f 616/2/152 615/2/161 422/2/163 424/2/156
f 616/2/152 613/2/153 417/2/154 423/2/155
f 613/2/153 616/2/152 424/2/156 418/2/157
f 617/2/178 618/2/183 389/2/159 381/2/179
f 618/2/183 617/2/178 382/2/182 390/2/160
f 618/2/183 619/2/184 391/2/154 389/2/159
f 619/2/184 618/2/183 390/2/160 392/2/157
f 619/2/184 620/2/177 385/2/180 391/2/154
f 620/2/177 619/2/184 392/2/157 386/2/181
f 620/2/177 617/2/178 381/2/179 385/2/180
f 617/2/178 620/2/177 386/2/181 382/2/182
f 621/2/122 622/2/119 305/2/121 307/2/223
f 622/2/119 621/2/122 308/2/224 306/2/120
f 622/2/119 623/2/114 309/2/118 305/2/121
f 623/2/114 622/2/119 306/2/120 310/2/115
f 623/2/114 624/2/113 311/2/117 309/2/118
f 624/2/113 623/2/114 310/2/115 312/2/116
f 624/2/113 625/2/134 301/2/225 311/2/117
f 625/2/134 624/2/113 312/2/116 302/2/226
f 625/2/134 626/2/131 297/2/133 301/2/225
f 626/2/131 625/2/134 302/2/226 298/2/132
f 626/2/131 627/2/128 299/2/130 297/2/133
f 627/2/128 626/2/131 298/2/132 300/2/129
f 627/2/128 628/2/125 303/2/127 299/2/130
f 628/2/125 627/2/128 300/2/129 304/2/126
f 628/2/125 621/2/122 307/2/223 303/2/127
f 621/2/122 628/2/125 304/2/126 308/2/224
f 629/2/141 630/2/146 473/2/147 465/2/142
f 630/2/146 629/2/141 466/2/145 474/2/148
f 630/2/146 631/2/213 481/2/150 473/2/147
f 631/2/213 630/2/146 474/2/148 482/2/151
f 631/2/213 632/2/140 477/2/143 481/2/150
f 632/2/140 631/2/213 482/2/151 478/2/144
f 632/2/140 629/2/141 465/2/142 477/2/143
f 629/2/141 632/2/140 478/2/144 466/2/145
f 633/2/176 634/2/149 175/2/150 169/2/147
f 634/2/149 633/2/176 170/2/148 176/2/151
f 634/2/149 635/2/174 179/2/143 175/2/150
f 635/2/174 634/2/149 176/2/151 180/2/144
f 635/2/174 636/2/175 171/2/142 179/2/143
f 636/2/175 635/2/174 180/2/144 172/2/145
f 636/2/175 633/2/176 169/2/147 171/2/142
f 633/2/176 636/2/175 172/2/145 170/2/148
f 637/2/113 638/2/114 323/2/115 321/2/116
f 638/2/114 637/2/113 322/2/117 324/2/118
f 638/2/114 639/2/119 319/2/120 323/2/115
f 639/2/119 638/2/114 324/2/118 320/2/121
f 639/2/119 640/2/122 327/2/224 319/2/120
f 640/2/122 639/2/119 320/2/121 328/2/223
f 640/2/122 641/2/125 325/2/126 327/2/224
f 641/2/125 640/2/122 328/2/223 326/2/127
f 641/2/125 642/2/128 315/2/129 325/2/126
f 642/2/128 641/2/125 326/2/127 316/2/130
f 642/2/128 643/2/131 317/2/132 315/2/129
f 643/2/131 642/2/128 316/2/130 318/2/133
f 643/2/131 644/2/134 313/2/226 317/2/132
f 644/2/134 643/2/131 318/2/133 314/2/225
f 644/2/134 637/2/113 321/2/116 313/2/226
f 637/2/113 644/2/134 314/2/225 322/2/117
f 645/2/227 646/2/228 461/2/229 459/2/230
f 646/2/228 645/2/227 460/2/231 462/2/232
f 646/2/228 647/2/233 463/2/234 461/2/229
f 647/2/233 646/2/228 462/2/232 464/2/235
f 647/2/233 648/2/236 457/2/237 463/2/234
f 648/2/236 647/2/233 464/2/235 458/2/238
f 648/2/236 645/2/227 459/2/230 457/2/237
f 645/2/227 648/2/236 458/2/238 460/2/231
f 649/2/164 650/2/239 173/2/166 171/2/142
f 650/2/239 649/2/164 172/2/145 174/2/167
f 650/2/239 651/2/240 177/2/169 173/2/166
f 651/2/240 650/2/239 174/2/167 178/2/170
f 651/2/240 652/2/171 169/2/147 177/2/169
f 652/2/171 651/2/240 178/2/170 170/2/148
f 652/2/171 649/2/164 171/2/142 169/2/147
f 649/2/164 652/2/171 170/2/148 172/2/145
f 653/2/125 654/2/122 245/2/216 241/2/127
f 654/2/122 653/2/125 242/2/126 246/2/215
f 654/2/122 655/2/119 247/2/121 245/2/216
f 655/2/119 654/2/122 246/2/215 248/2/120
f 655/2/119 656/2/114 235/2/241 247/2/121
f 656/2/114 655/2/119 248/2/120 236/2/242
f 656/2/114 657/2/113 239/2/117 235/2/241
f 657/2/113 656/2/114 236/2/242 240/2/116
f 657/2/113 658/2/134 237/2/214 239/2/117
f 658/2/134 657/2/113 240/2/116 238/2/135
f 658/2/134 659/2/131 233/2/133 237/2/214
f 659/2/131 658/2/134 238/2/135 234/2/132
f 659/2/131 660/2/128 243/2/130 233/2/133
f 660/2/128 659/2/131 234/2/132 244/2/129
f 660/2/128 653/2/125 241/2/127 243/2/130
f 653/2/125 660/2/128 244/2/129 242/2/126
f 661/2/243 662/2/244 489/2/187 485/2/190
f 662/2/244 661/2/243 486/2/191 490/2/188
f 662/2/244 663/2/245 495/2/155 489/2/187
f 663/2/245 662/2/244 490/2/188 496/2/156
f 663/2/245 664/2/246 493/2/162 495/2/155
f 664/2/246 663/2/245 496/2/156 494/2/163
f 664/2/246 661/2/243 485/2/190 493/2/162
f 661/2/243 664/2/246 494/2/163 486/2/191
f 665/2/141 666/2/146 361/2/147 363/2/142
f 666/2/146 665/2/141 364/2/145 362/2/148
f 666/2/146 667/2/213 371/2/150 361/2/147
f 667/2/213 666/2/146 362/2/148 372/2/151
f 667/2/213 668/2/140 367/2/143 371/2/150
f 668/2/140 667/2/213 372/2/151 368/2/144
f 668/2/140 665/2/141 363/2/142 367/2/143
f 665/2/141 668/2/140 368/2/144 364/2/145
f 669/2/247 670/2/248 415/2/187 419/2/190
f 670/2/248 669/2/247 420/2/191 416/2/188
f 670/2/248 671/2/249 423/2/155 415/2/187
f 671/2/249 670/2/248 416/2/188 424/2/156
f 671/2/249 672/2/250 421/2/162 423/2/155
f 672/2/250 671/2/249 424/2/156 422/2/163
f 672/2/250 669/2/247 419/2/190 421/2/162
f 669/2/247 672/2/250 422/2/163 420/2/191
f 673/2/119 674/2/122 261/2/215 263/2/120
f 674/2/122 673/2/119 264/2/121 262/2/216
f 674/2/122 675/2/125 257/2/126 261/2/215
f 675/2/125 674/2/122 262/2/216 258/2/127
f 675/2/125 676/2/128 259/2/129 257/2/126
f 676/2/128 675/2/125 258/2/127 260/2/130
f 676/2/128 677/2/131 253/2/132 259/2/129
f 677/2/131 676/2/128 260/2/130 254/2/133
f 677/2/131 678/2/134 249/2/135 253/2/132
f 678/2/134 677/2/131 254/2/133 250/2/214
f 678/2/134 679/2/113 255/2/116 249/2/135
f 679/2/113 678/2/134 250/2/214 256/2/117
f 679/2/113 680/2/114 251/2/242 255/2/116
f 680/2/114 679/2/113 256/2/117 252/2/241
f 680/2/114 673/2/119 263/2/120 251/2/242
f 673/2/119 680/2/114 252/2/241 264/2/121
f 681/2/248 682/2/245 383/2/155 379/2/187
f 682/2/245 681/2/248 380/2/188 384/2/156
f 682/2/245 683/2/246 387/2/162 383/2/155
f 683/2/246 682/2/245 384/2/156 388/2/163
f 683/2/246 684/2/247 375/2/190 387/2/162
f 684/2/247 683/2/246 388/2/163 376/2/191
f 684/2/247 681/2/248 379/2/187 375/2/190
f 681/2/248 684/2/247 376/2/191 380/2/188
f 685/2/217 686/2/251 445/2/179 437/2/203
f 686/2/251 685/2/217 438/2/204 446/2/182
f 686/2/251 687/2/252 449/2/180 445/2/179
f 687/2/252 686/2/251 446/2/182 450/2/181
f 687/2/252 688/2/221 441/2/206 449/2/180
f 688/2/221 687/2/252 450/2/181 442/2/207
f 688/2/221 685/2/217 437/2/203 441/2/206
f 685/2/217 688/2/221 442/2/207 438/2/204
f 689/2/253 690/2/254 373/2/203 365/2/166
f 690/2/254 689/2/253 366/2/167 374/2/219
f 690/2/254 691/2/255 377/2/206 373/2/203
f 691/2/255 690/2/254 374/2/219 378/2/222
f 691/2/255 692/2/256 369/2/169 377/2/206
f 692/2/256 691/2/255 378/2/222 370/2/170
f 692/2/256 689/2/253 365/2/166 369/2/169
f 689/2/253 692/2/256 370/2/170 366/2/167
f 693/2/198 694/2/199 491/2/159 487/2/154
f 694/2/199 693/2/198 488/2/157 492/2/160
f 694/2/199 695/2/200 493/2/162 491/2/159
f 695/2/200 694/2/199 492/2/160 494/2/163
f 695/2/200 696/2/197 495/2/155 493/2/162
f 696/2/197 695/2/200 494/2/163 496/2/156
f 696/2/197 693/2/198 487/2/154 495/2/155
f 693/2/198 696/2/197 496/2/156 488/2/157
f 697/2/200 698/2/197 163/2/155 167/2/162
f 698/2/197 697/2/200 168/2/163 164/2/156
f 698/2/197 699/2/198 165/2/154 163/2/155
f 699/2/198 698/2/197 164/2/156 166/2/157
f 699/2/198 700/2/199 161/2/159 165/2/154
f 700/2/199 699/2/198 166/2/157 162/2/160
f 700/2/199 697/2/200 167/2/162 161/2/159
f 697/2/200 700/2/199 162/2/160 168/2/163
f 701/2/257 702/2/218 405/2/179 397/2/203
f 702/2/218 701/2/257 398/2/204 406/2/182
f 702/2/218 703/2/220 409/2/180 405/2/179
f 703/2/220 702/2/218 406/2/182 410/2/181
f 703/2/220 704/2/258 401/2/206 409/2/180
f 704/2/258 703/2/220 410/2/181 402/2/207
f 704/2/258 701/2/257 397/2/203 401/2/206
f 701/2/257 704/2/258 402/2/207 398/2/204
f 705/2/239 706/2/240 393/2/169 395/2/166
f 706/2/240 705/2/239 396/2/167 394/2/170
f 706/2/240 707/2/171 403/2/147 393/2/169
f 707/2/171 706/2/240 394/2/170 404/2/148
f 707/2/171 708/2/164 399/2/142 403/2/147
f 708/2/164 707/2/171 404/2/148 400/2/145
f 708/2/164 705/2/239 395/2/166 399/2/142
f 705/2/239 708/2/164 400/2/145 396/2/167
f 709/2/245 710/2/246 167/2/162 163/2/155
f 710/2/246 709/2/245 164/2/156 168/2/163
f 710/2/246 711/2/243 159/2/190 167/2/162
f 711/2/243 710/2/246 168/2/163 160/2/191
f 711/2/243 712/2/244 155/2/187 159/2/190
f 712/2/244 711/2/243 160/2/191 156/2/188
f 712/2/244 709/2/245 163/2/155 155/2/187
f 709/2/245 712/2/244 156/2/188 164/2/156
f 713/2/131 714/2/128 267/2/130 265/2/133
f 714/2/128 713/2/131 266/2/132 268/2/129
f 714/2/128 715/2/125 277/2/127 267/2/130
f 715/2/125 714/2/128 268/2/129 278/2/126
f 715/2/125 716/2/122 279/2/216 277/2/127
f 716/2/122 715/2/125 278/2/126 280/2/215
f 716/2/122 717/2/119 271/2/121 279/2/216
f 717/2/119 716/2/122 280/2/215 272/2/120
f 717/2/119 718/2/114 275/2/137 271/2/121
f 718/2/114 717/2/119 272/2/120 276/2/138
f 718/2/114 719/2/113 273/2/117 275/2/137
f 719/2/113 718/2/114 276/2/138 274/2/116
f 719/2/113 720/2/134 269/2/214 273/2/117
f 720/2/134 719/2/113 274/2/116 270/2/135
f 720/2/134 713/2/131 265/2/133 269/2/214
f 713/2/131 720/2/134 270/2/135 266/2/132
f 721/2/243 722/2/244 439/2/187 443/2/190
f 722/2/244 721/2/243 444/2/191 440/2/188
f 722/2/244 723/2/259 447/2/155 439/2/187
f 723/2/259 722/2/244 440/2/188 448/2/156
f 723/2/259 724/2/260 451/2/162 447/2/155
f 724/2/260 723/2/259 448/2/156 452/2/163
f 724/2/260 721/2/243 443/2/190 451/2/162
f 721/2/243 724/2/260 452/2/163 444/2/191
f 725/2/257 726/2/218 189/2/179 181/2/203
f 726/2/218 725/2/257 182/2/204 190/2/182
f 726/2/218 727/2/220 193/2/180 189/2/179
f 727/2/220 726/2/218 190/2/182 194/2/181
f 727/2/220 728/2/258 185/2/206 193/2/180
f 728/2/258 727/2/220 194/2/181 186/2/207
f 728/2/258 725/2/257 181/2/203 185/2/206
f 725/2/257 728/2/258 186/2/207 182/2/204
f 729/2/253 730/2/254 437/2/203 429/2/166
f 730/2/254 729/2/253 430/2/167 438/2/204
f 730/2/254 731/2/255 441/2/206 437/2/203
f 731/2/255 730/2/254 438/2/204 442/2/207
f 731/2/255 732/2/256 433/2/169 441/2/206
f 732/2/256 731/2/255 442/2/207 434/2/170
f 732/2/256 729/2/253 429/2/166 433/2/169
f 729/2/253 732/2/256 434/2/170 430/2/167
f 733/2/173 734/2/172 143/2/142 139/2/147
f 734/2/172 733/2/173 140/2/148 144/2/145
f 734/2/172 735/2/165 141/2/166 143/2/142
f 735/2/165 734/2/172 144/2/145 142/2/167
f 735/2/165 736/2/168 137/2/169 141/2/166
f 736/2/168 735/2/165 142/2/167 138/2/170
f 736/2/168 733/2/173 139/2/147 137/2/169
f 733/2/173 736/2/168 138/2/170 140/2/148
f 737/2/201 738/2/202 397/2/203 395/2/166
f 738/2/202 737/2/201 396/2/167 398/2/204
f 738/2/202 739/2/205 401/2/206 397/2/203
f 739/2/205 738/2/202 398/2/204 402/2/207
f 739/2/205 740/2/208 393/2/169 401/2/206
f 740/2/208 739/2/205 402/2/207 394/2/170
f 740/2/208 737/2/201 395/2/166 393/2/169
f 737/2/201 740/2/208 394/2/170 396/2/167
f 741/2/218 742/2/220 157/2/180 153/2/179
f 742/2/220 741/2/218 154/2/182 158/2/181
f 742/2/220 743/2/258 149/2/206 157/2/180
f 743/2/258 742/2/220 158/2/181 150/2/207
f 743/2/258 744/2/217 145/2/203 149/2/206
f 744/2/217 743/2/258 150/2/207 146/2/204
f 744/2/217 741/2/218 153/2/179 145/2/203
f 741/2/218 744/2/217 146/2/204 154/2/182
f 745/2/254 746/2/255 149/2/206 145/2/203
f 746/2/255 745/2/254 146/2/204 150/2/207
f 746/2/255 747/2/208 137/2/169 149/2/206
f 747/2/208 746/2/255 150/2/207 138/2/170
f 747/2/208 748/2/201 141/2/166 137/2/169
f 748/2/201 747/2/208 138/2/170 142/2/167
f 748/2/201 745/2/254 145/2/203 141/2/166
f 745/2/254 748/2/201 142/2/167 146/2/204
f 749/2/200 750/2/197 447/2/155 451/2/162
f 750/2/197 749/2/200 452/2/163 448/2/156
f 750/2/197 751/2/198 455/2/154 447/2/155
f 751/2/198 750/2/197 448/2/156 456/2/157
f 751/2/198 752/2/199 453/2/159 455/2/154
f 752/2/199 751/2/198 456/2/157 454/2/160
f 752/2/199 749/2/200 451/2/162 453/2/159
f 749/2/200 752/2/199 454/2/160 452/2/163
f 753/2/122 754/2/119 355/2/121 345/2/124
f 754/2/119 753/2/122 346/2/123 356/2/120
f 754/2/119 755/2/114 353/2/118 355/2/121
f 755/2/114 754/2/119 356/2/120 354/2/115
f 755/2/114 756/2/113 347/2/117 353/2/118
f 756/2/113 755/2/114 354/2/115 348/2/116
f 756/2/113 757/2/134 351/2/136 347/2/117
f 757/2/134 756/2/113 348/2/116 352/2/139
f 757/2/134 758/2/131 349/2/133 351/2/136
f 758/2/131 757/2/134 352/2/139 350/2/132
f 758/2/131 759/2/128 357/2/130 349/2/133
f 759/2/128 758/2/131 350/2/132 358/2/129
f 759/2/128 760/2/125 359/2/127 357/2/130
f 760/2/125 759/2/128 358/2/129 360/2/126
f 760/2/125 753/2/122 345/2/124 359/2/127
f 753/2/122 760/2/125 360/2/126 346/2/123
f 761/2/244 762/2/245 191/2/155 183/2/187
f 762/2/245 761/2/244 184/2/188 192/2/156
f 762/2/245 763/2/246 195/2/162 191/2/155
f 763/2/246 762/2/245 192/2/156 196/2/163
f 763/2/246 764/2/243 187/2/190 195/2/162
f 764/2/243 763/2/246 196/2/163 188/2/191
f 764/2/243 761/2/244 183/2/187 187/2/190
f 761/2/244 764/2/243 188/2/191 184/2/188
f 765/2/208 766/2/201 467/2/166 469/2/169
f 766/2/201 765/2/208 470/2/170 468/2/167
f 766/2/201 767/2/254 475/2/203 467/2/166
f 767/2/254 766/2/201 468/2/167 476/2/204
f 767/2/254 768/2/255 471/2/206 475/2/203
f 768/2/255 767/2/254 476/2/204 472/2/207
f 768/2/255 765/2/208 469/2/169 471/2/206
f 765/2/208 768/2/255 472/2/207 470/2/170
f 769/2/258 770/2/257 475/2/203 471/2/206
f 770/2/257 769/2/258 472/2/207 476/2/204
f 770/2/257 771/2/218 483/2/179 475/2/203
f 771/2/218 770/2/257 476/2/204 484/2/182
f 771/2/218 772/2/220 479/2/180 483/2/179
f 772/2/220 771/2/218 484/2/182 480/2/181
f 772/2/220 769/2/258 471/2/206 479/2/180
f 769/2/258 772/2/220 480/2/181 472/2/207
