# Blender 4.5.3 LTS
# www.blender.org
mtllib glass-wildcat-secondmainbody.mtl
o RenderMesh_83884702080665
v 1.329395 0.421397 0.084224
v 1.331395 0.421398 0.084225
v 1.329395 0.356324 0.135623
v 1.331395 0.356325 0.135624
v 1.329395 0.421397 -0.084224
v 1.331395 0.421398 -0.084223
v 1.329395 0.356324 -0.135623
v 1.331395 0.356325 -0.135622
v 1.329395 0.226605 -0.135623
v 1.331395 0.226606 -0.135622
v 1.329395 0.226605 0.135623
v 1.331395 0.226606 0.135624
v -0.248242 -0.260254 -0.064512
v -0.249087 -0.262067 -0.064511
v -0.007062 -0.372717 -0.064512
v -0.007907 -0.374530 -0.064511
v -0.007062 -0.372717 0.064512
v -0.007907 -0.374530 0.064513
v -0.248242 -0.260254 0.064512
v -0.249087 -0.262067 0.064513
v -0.863587 0.330739 -0.082530
v -0.863881 0.332459 -0.083508
v -1.329395 0.275264 -0.121896
v -1.329394 0.276422 -0.123527
v -1.329395 0.330739 -0.082530
v -1.329394 0.332516 -0.083448
v -0.846791 0.275264 -0.121896
v -0.846997 0.276373 -0.123547
v -1.329395 0.330739 0.082530
v -1.329394 0.332516 0.083447
v -0.626791 0.355264 -0.121896
v -0.626974 0.356379 -0.123546
v -0.863587 0.330739 0.082530
v -0.863881 0.332459 0.083508
v -1.329395 0.275264 0.121896
v -1.329394 0.276422 0.123527
v -0.846791 0.275264 0.121896
v -0.846997 0.276373 0.123547
v -0.626791 0.355264 0.121896
v -0.626974 0.356379 0.123546
v -0.643587 0.410739 -0.082530
v -0.643902 0.412500 -0.083424
v -0.643587 0.410739 0.082530
v -0.643903 0.412500 0.083423
v -0.493587 0.410739 0.082530
v -0.493586 0.412516 0.083447
v -0.493587 0.355264 0.121896
v -0.493586 0.356422 0.123527
v -0.493587 0.410739 -0.082530
v -0.493586 0.412516 -0.083448
v -0.493587 0.355264 -0.121896
v -0.493586 0.356422 -0.123527
v 1.329395 0.356324 -0.135623
v 1.329395 0.357564 -0.137192
v 1.329395 0.421397 -0.084224
v 1.329395 0.423197 -0.085096
v -0.448658 0.421397 -0.084224
v -0.448657 0.423197 -0.085096
v -0.448659 0.356324 -0.135623
v -0.448659 0.357564 -0.137192
v -0.448658 0.421397 0.084224
v -0.448657 0.423196 0.085098
v 1.329395 0.421397 0.084224
v 1.329396 0.423197 0.085096
v -0.448659 0.356324 0.135623
v -0.448659 0.357564 0.137192
v 1.329395 0.356324 0.135623
v 1.329396 0.357563 0.137193
v 1.321461 0.136399 -0.120000
v 1.323285 0.135578 -0.119999
v 1.321461 0.299766 -0.120000
v 1.323461 0.299767 -0.119999
v 1.321461 0.136399 0.120000
v 1.323285 0.135578 0.120001
v 1.321461 0.299766 0.120000
v 1.323461 0.299767 0.120001
v 1.253706 0.076399 0.120000
v 1.254414 0.074529 0.120001
v 1.253706 0.076399 -0.120000
v 1.254414 0.074529 -0.119999
v 0.691132 0.076399 -0.120000
v 0.691826 0.074523 -0.120000
v 0.691132 0.076399 0.120000
v 0.691826 0.074523 0.120000
v 0.608268 0.005425 -0.120000
v 0.609897 0.004265 -0.120000
v 0.608268 0.005425 0.120000
v 0.609897 0.004265 0.120001
v 0.458022 -0.375942 -0.120000
v 0.459516 -0.377272 -0.119999
v 0.458022 -0.375942 0.120000
v 0.459516 -0.377271 0.120001
v 0.373347 -0.421397 0.120000
v 0.373835 -0.423337 0.120001
v 0.373347 -0.421397 -0.120000
v 0.373835 -0.423337 -0.119999
v -0.011732 -0.421397 -0.120000
v -0.012680 -0.423158 -0.119999
v -0.011732 -0.421397 0.120000
v -0.012680 -0.423158 0.120001
v -0.041732 -0.375942 -0.120000
v -0.043725 -0.376103 -0.119999
v -0.041732 -0.375942 0.120000
v -0.043725 -0.376103 0.120001
v -0.001732 -0.286867 -0.120000
v -0.003134 -0.285440 -0.120000
v -0.001732 -0.286867 0.120000
v -0.003134 -0.285440 0.120001
v 0.091678 -0.246867 -0.120000
v 0.090364 -0.245359 -0.119999
v 0.091678 -0.246867 0.120000
v 0.090364 -0.245359 0.120001
v 0.218268 -0.036867 -0.120000
v 0.216341 -0.036331 -0.120000
v 0.218268 -0.036867 0.120000
v 0.216341 -0.036331 0.120001
v 0.218268 0.299766 -0.120000
v 0.216268 0.299767 -0.119999
v 0.218268 0.299766 0.120000
v 0.216268 0.299767 0.120001
v -0.205708 -0.155531 -0.121182
v -0.203736 -0.155200 -0.121181
v -0.066979 0.217192 -0.121182
v -0.065104 0.216495 -0.121181
v -0.205708 -0.155531 0.121182
v -0.203736 -0.155200 0.121183
v -0.066979 0.217192 0.121182
v -0.065104 0.216495 0.121183
v -0.146816 -0.227043 0.121182
v -0.144909 -0.226440 0.121182
v -0.146816 -0.227043 -0.121182
v -0.144909 -0.226440 -0.121181
v -0.150640 -0.276757 0.121182
v -0.148905 -0.277752 0.121182
v -0.150640 -0.276757 -0.121182
v -0.148905 -0.277752 -0.121182
v -0.188117 -0.302761 0.121182
v -0.187932 -0.304752 0.121182
v -0.188117 -0.302761 -0.121182
v -0.187932 -0.304752 -0.121182
v -0.462355 -0.179850 0.121182
v -0.463932 -0.181080 0.121183
v -0.462355 -0.179850 -0.121182
v -0.463932 -0.181080 -0.121181
v -0.472267 -0.124342 0.121182
v -0.474255 -0.124124 0.121183
v -0.472267 -0.124342 -0.121182
v -0.474255 -0.124124 -0.121181
v -0.331426 0.217192 0.121182
v -0.333283 0.217935 0.121183
v -0.331426 0.217192 -0.121182
v -0.333283 0.217935 -0.121181
v 1.329395 0.356324 0.135623
v 1.329396 0.356325 0.137623
v 1.329395 0.226605 0.135623
v 1.329396 0.226606 0.137623
v 1.141942 0.226605 0.135623
v 1.141943 0.226606 0.137623
v -0.448659 0.356324 0.135623
v -0.448658 0.356325 0.137623
v 0.999362 0.167002 0.135623
v 0.999640 0.166948 0.137603
v -0.448659 0.167002 0.135623
v -0.448459 0.166802 0.137603
v 1.329395 0.356324 -0.135623
v 1.329396 0.356325 -0.137623
v 1.141942 0.226605 -0.135623
v 1.141943 0.226606 -0.137623
v 1.329395 0.226605 -0.135623
v 1.329396 0.226606 -0.137623
v 0.999362 0.167002 -0.135623
v 0.999254 0.166739 -0.137603
v -0.448659 0.167002 -0.135623
v -0.448943 0.167003 -0.137603
v -0.448659 0.356324 -0.135623
v -0.448658 0.356325 -0.137623
v -0.643587 0.170430 -0.121896
v -0.643586 0.170431 -0.123896
v -0.846791 0.275264 -0.121896
v -0.846790 0.275265 -0.123896
v -0.626791 0.355264 -0.121896
v -0.626790 0.355265 -0.123896
v -0.493587 0.170430 -0.121896
v -0.493586 0.170431 -0.123896
v -0.493587 0.355264 -0.121896
v -0.493586 0.355265 -0.123896
v -0.863587 0.100430 -0.121896
v -0.863586 0.100431 -0.123896
v -1.079396 0.100430 -0.121896
v -1.079395 0.100431 -0.123896
v -1.329395 0.275264 -0.121896
v -1.329394 0.275265 -0.123896
v -1.159396 0.030430 -0.121896
v -1.159395 0.030431 -0.123896
v -1.329395 -0.379261 -0.121896
v -1.329394 -0.379260 -0.123896
v -1.159396 -0.259570 -0.121896
v -1.159395 -0.259569 -0.123896
v -1.159396 -0.379261 -0.121896
v -1.159395 -0.379260 -0.123896
v -1.129396 -0.339570 -0.121896
v -1.129395 -0.339569 -0.123896
v -1.329395 0.275264 0.121896
v -1.329394 0.275265 0.123896
v -1.329395 -0.379261 0.121896
v -1.329394 -0.379260 0.123896
v -1.159396 0.030430 0.121896
v -1.159395 0.030431 0.123896
v -1.159396 -0.259570 0.121896
v -1.159395 -0.259569 0.123896
v -1.159396 -0.379261 0.121896
v -1.159395 -0.379260 0.123896
v -1.129396 -0.339570 0.121896
v -1.129395 -0.339569 0.123896
v -1.079396 0.100430 0.121896
v -1.079395 0.100431 0.123896
v -0.846791 0.275264 0.121896
v -0.846790 0.275265 0.123896
v -0.863587 0.100430 0.121896
v -0.863586 0.100431 0.123896
v -0.643587 0.170430 0.121896
v -0.643586 0.170431 0.123896
v -0.626791 0.355264 0.121896
v -0.626790 0.355265 0.123896
v -0.493587 0.170430 0.121896
v -0.493586 0.170431 0.123896
v -0.493587 0.355264 0.121896
v -0.493586 0.355265 0.123896
v -0.462355 -0.179850 0.121182
v -0.462354 -0.179849 0.123182
v -0.205708 -0.155531 0.121182
v -0.205707 -0.155530 0.123182
v -0.472267 -0.124342 0.121182
v -0.472266 -0.124341 0.123182
v -0.188117 -0.302761 0.121182
v -0.188116 -0.302760 0.123182
v -0.066979 0.217192 0.121182
v -0.066978 0.217193 0.123182
v -0.331426 0.217192 0.121182
v -0.331425 0.217193 0.123182
v -0.146816 -0.227043 0.121182
v -0.146815 -0.227042 0.123182
v -0.150640 -0.276757 0.121182
v -0.150639 -0.276756 0.123182
v -0.146816 -0.227043 -0.121182
v -0.146815 -0.227042 -0.123182
v -0.188117 -0.302761 -0.121182
v -0.188116 -0.302760 -0.123182
v -0.205708 -0.155531 -0.121182
v -0.205707 -0.155530 -0.123182
v -0.150640 -0.276757 -0.121182
v -0.150639 -0.276756 -0.123182
v -0.462355 -0.179850 -0.121182
v -0.462354 -0.179849 -0.123182
v -0.472267 -0.124342 -0.121182
v -0.472266 -0.124341 -0.123182
v -0.066979 0.217192 -0.121182
v -0.066978 0.217193 -0.123182
v -0.331426 0.217192 -0.121182
v -0.331425 0.217193 -0.123182
v -0.011732 -0.421397 -0.120000
v -0.011731 -0.421396 -0.122000
v 0.091678 -0.246867 -0.120000
v 0.091679 -0.246866 -0.122000
v 0.373347 -0.421397 -0.120000
v 0.373348 -0.421396 -0.122000
v -0.001732 -0.286867 -0.120000
v -0.001731 -0.286866 -0.122000
v -0.041732 -0.375942 -0.120000
v -0.041731 -0.375941 -0.122000
v 0.218268 -0.036867 -0.120000
v 0.218269 -0.036866 -0.122000
v 0.458022 -0.375942 -0.120000
v 0.458023 -0.375941 -0.122000
v 0.608268 0.005425 -0.120000
v 0.608269 0.005426 -0.122000
v 0.218268 0.299766 -0.120000
v 0.218269 0.299767 -0.122000
v 0.691132 0.076399 -0.120000
v 0.691133 0.076400 -0.122000
v 1.321461 0.299766 -0.120000
v 1.321462 0.299767 -0.122000
v 1.253706 0.076399 -0.120000
v 1.253707 0.076400 -0.122000
v 1.321461 0.136399 -0.120000
v 1.321462 0.136400 -0.122000
v 0.691132 0.076399 0.120000
v 0.691133 0.076400 0.122000
v 1.253706 0.076399 0.120000
v 1.253707 0.076400 0.122000
v 1.321461 0.299766 0.120000
v 1.321462 0.299767 0.122000
v 1.321461 0.136399 0.120000
v 1.321462 0.136400 0.122000
v 0.218268 0.299766 0.120000
v 0.218269 0.299767 0.122000
v 0.608268 0.005425 0.120000
v 0.608269 0.005426 0.122000
v 0.218268 -0.036867 0.120000
v 0.218269 -0.036866 0.122000
v 0.458022 -0.375942 0.120000
v 0.458023 -0.375941 0.122000
v 0.373347 -0.421397 0.120000
v 0.373348 -0.421396 0.122000
v 0.091678 -0.246867 0.120000
v 0.091679 -0.246866 0.122000
v -0.011732 -0.421397 0.120000
v -0.011731 -0.421396 0.122000
v -0.001732 -0.286867 0.120000
v -0.001731 -0.286866 0.122000
v -0.041732 -0.375942 0.120000
v -0.041731 -0.375941 0.122000
v -0.007062 -0.372717 -0.064512
v -0.007061 -0.372716 -0.066512
v -0.222885 -0.205875 -0.064512
v -0.222884 -0.205874 -0.066512
v 0.018295 -0.318339 -0.064512
v 0.018296 -0.318338 -0.066512
v -0.248242 -0.260254 -0.064512
v -0.248241 -0.260253 -0.066512
v -0.248242 -0.260254 0.064512
v -0.248241 -0.260253 0.066512
v -0.007062 -0.372717 0.064512
v -0.007061 -0.372716 0.066512
v -0.222885 -0.205875 0.064512
v -0.222884 -0.205874 0.066512
v 0.018295 -0.318339 0.064512
v 0.018296 -0.318338 0.066512
v 1.141942 0.226605 -0.135623
v 1.142336 0.224644 -0.135622
v 1.141942 0.226605 0.135623
v 1.142336 0.224644 0.135624
v 0.999362 0.167002 -0.135623
v 0.999902 0.165095 -0.135889
v 1.329395 0.226605 0.135623
v 1.329396 0.224605 0.135624
v 1.329395 0.226605 -0.135623
v 1.329396 0.224605 -0.135622
v 0.999362 0.167002 0.135623
v 0.999490 0.165012 0.135776
v -0.448659 0.167002 0.135623
v -0.448859 0.165022 0.135423
v -0.448659 0.167002 -0.135623
v -0.448658 0.165022 -0.135907
v 0.018295 -0.318339 -0.064512
v 0.019140 -0.316526 -0.064511
v -0.222885 -0.205875 -0.064512
v -0.222040 -0.204062 -0.064512
v -0.222885 -0.205875 0.064512
v -0.222040 -0.204062 0.064513
v 0.018295 -0.318339 0.064512
v 0.019140 -0.316526 0.064513
v -0.643587 0.170430 -0.121896
v -0.643281 0.168453 -0.121895
v -0.493587 0.170430 -0.121896
v -0.493586 0.168430 -0.121895
v -0.643587 0.170430 0.121896
v -0.643281 0.168454 0.121897
v -0.493587 0.170430 0.121896
v -0.493586 0.168430 0.121897
v -0.863587 0.100430 -0.121896
v -0.863281 0.098454 -0.121895
v -0.863587 0.100430 0.121896
v -0.863281 0.098454 0.121897
v -1.079396 0.100430 -0.121896
v -1.078694 0.098557 -0.121895
v -1.079396 0.100430 0.121896
v -1.078694 0.098557 0.121897
v -1.159396 0.030430 -0.121896
v -1.157575 0.029604 -0.121895
v -1.159396 0.030430 0.121896
v -1.157575 0.029604 0.121897
v -1.159396 -0.259570 -0.121896
v -1.157428 -0.259213 -0.121896
v -1.159396 -0.259570 0.121896
v -1.157428 -0.259213 0.121897
v -1.129396 -0.339570 -0.121896
v -1.127417 -0.339858 -0.121895
v -1.129396 -0.339570 0.121896
v -1.127417 -0.339858 0.121897
v -1.159396 -0.379261 -0.121896
v -1.158506 -0.381052 -0.121895
v -1.159396 -0.379261 0.121896
v -1.158506 -0.381052 0.121897
v -1.329395 -0.379261 -0.121896
v -1.329394 -0.381261 -0.121895
v -1.329395 -0.379261 0.121896
v -1.329394 -0.381261 0.121897
v -0.494587 0.169430 -0.120896
v -0.494586 0.169430 0.120897
v -0.642434 0.169442 0.120896
v -0.642434 0.169442 -0.120895
v -0.007545 -0.371388 -0.065512
v -0.246913 -0.259770 -0.065512
v -0.222401 -0.207203 -0.065512
v 0.016967 -0.318822 -0.065512
v -0.012757 -0.421443 0.119000
v -0.042178 -0.376857 0.119001
v -0.042178 -0.376857 -0.119000
v -0.012757 -0.421443 -0.118999
v -0.188223 -0.301617 -0.122182
v -0.461463 -0.179153 -0.122182
v -0.471231 -0.124453 -0.122182
v -0.330756 0.216192 -0.122182
v -0.068418 0.216192 -0.122182
v -0.206846 -0.155722 -0.122182
v -0.147843 -0.227367 -0.122182
v -0.151600 -0.276206 -0.122182
v -1.328394 0.276659 0.122133
v -0.848171 0.276634 0.122143
v -0.864517 0.330783 0.083598
v -1.328395 0.330812 0.083567
v 0.374472 -0.421894 0.119000
v 0.374472 -0.421894 -0.118999
v 0.457888 -0.377080 -0.119000
v 0.457888 -0.377080 0.119000
v 0.091537 -0.245257 0.119001
v 0.216788 -0.037455 0.119000
v 0.216788 -0.037456 -0.119000
v 0.091537 -0.245257 -0.119000
v -0.864517 0.330783 -0.083598
v -0.848171 0.276634 -0.122143
v -1.328395 0.276658 -0.122133
v -1.328395 0.330812 -0.083567
v -0.066390 0.215906 -0.120182
v -0.066391 0.215906 0.120182
v -0.204373 -0.154428 0.120183
v -0.204373 -0.154428 -0.120182
v -0.447658 0.422296 0.083661
v 1.328396 0.422297 0.083660
v 1.328395 0.422297 -0.083660
v -0.447658 0.422297 -0.083660
v -1.160396 0.030884 0.122896
v -1.079771 0.101430 0.122896
v -0.863742 0.101430 0.122896
v -0.643742 0.171430 0.122896
v -0.494586 0.171430 0.122896
v -0.494587 0.354264 0.122896
v -0.626614 0.354264 0.122896
v -0.846614 0.274264 0.122896
v -1.328395 0.274264 0.122896
v -1.328395 -0.378261 0.122896
v -1.159893 -0.378261 0.122896
v -1.130525 -0.339405 0.122896
v -1.160396 -0.259751 0.122896
v 1.143139 0.225625 -0.134623
v 1.328395 0.225605 -0.134623
v 1.328396 0.225605 0.134624
v 1.143139 0.225625 0.134623
v -0.626099 0.356637 0.122142
v -0.494587 0.356658 0.122133
v -0.494586 0.410812 0.083567
v -0.642468 0.410804 0.083555
v -0.628063 0.356272 0.122159
v -0.644446 0.410485 0.083539
v -0.862553 0.331148 0.083581
v -0.846193 0.276953 0.122159
v -0.862553 0.331148 -0.083581
v -0.644445 0.410485 -0.083539
v -0.628063 0.356272 -0.122159
v -0.846193 0.276953 -0.122159
v -0.494587 0.410812 -0.083567
v -0.494587 0.356658 -0.122133
v -0.626099 0.356637 -0.122142
v -0.642468 0.410804 -0.083556
v 1.253327 0.077399 -0.121000
v 0.690763 0.077399 -0.121000
v 0.607429 0.006023 -0.121000
v 0.457226 -0.375234 -0.121000
v 0.373096 -0.420397 -0.121000
v -0.011193 -0.420397 -0.121000
v -0.040594 -0.375850 -0.121000
v -0.000979 -0.287632 -0.121000
v 0.092368 -0.247659 -0.121000
v 0.219268 -0.037145 -0.121000
v 0.219268 0.298766 -0.121000
v 1.320461 0.298766 -0.121000
v 1.320461 0.136850 -0.121000
v -0.332736 0.216639 0.120182
v -0.332736 0.216639 -0.120182
v -0.472880 -0.123309 -0.120182
v -0.472880 -0.123308 0.120182
v -0.862794 0.331941 0.082019
v -0.644685 0.411278 0.081977
v -0.644684 0.411278 -0.081977
v -0.862794 0.331941 -0.082019
v 0.690719 0.074811 0.119000
v 0.609842 0.005495 0.119000
v 0.609842 0.005495 -0.119000
v 0.690719 0.074811 -0.119000
v -0.008391 -0.373201 0.063513
v -0.247758 -0.261583 0.063512
v -0.247758 -0.261583 -0.063511
v -0.008391 -0.373201 -0.063511
v -0.149696 -0.276257 0.120182
v -0.149696 -0.276257 -0.120182
v -0.145939 -0.227739 -0.120182
v -0.145939 -0.227739 0.120182
v 1.253060 0.075464 0.119000
v 0.692479 0.075461 0.119000
v 0.692479 0.075461 -0.119000
v 1.253060 0.075464 -0.119000
v 1.254809 0.076127 0.119000
v 1.254809 0.076127 -0.119000
v 1.321624 0.135325 -0.119000
v 1.321624 0.135325 0.119000
v -0.864434 0.099442 0.120896
v -1.078045 0.099494 0.120896
v -1.078045 0.099494 -0.120895
v -0.864434 0.099442 -0.120896
v -1.159951 -0.380156 0.120896
v -1.328395 -0.380261 0.120897
v -1.328395 -0.380261 -0.120895
v -1.159951 -0.380156 -0.120896
v -0.447659 0.357729 0.135788
v 1.328395 0.357728 0.135788
v 1.328396 0.421512 0.085280
v -0.447658 0.421512 0.085281
v -0.447659 0.355324 -0.136623
v 1.328395 0.355324 -0.136623
v 1.328395 0.227605 -0.136623
v 1.141742 0.227605 -0.136623
v 0.999107 0.167871 -0.136613
v -0.447801 0.168002 -0.136613
v 0.372591 -0.422367 0.119000
v -0.011206 -0.422277 0.119000
v -0.011206 -0.422277 -0.118999
v 0.372591 -0.422367 -0.118999
v -1.328395 0.331628 0.081989
v -0.864734 0.331599 0.082019
v -0.864734 0.331599 -0.082019
v -1.328395 0.331628 -0.081989
v -0.042319 -0.375110 0.119001
v -0.002842 -0.287066 0.119000
v -0.002843 -0.287066 -0.119000
v -0.042319 -0.375110 -0.119000
v 1.328395 0.357729 -0.135788
v -0.447659 0.357729 -0.135788
v -0.447658 0.421512 -0.085280
v 1.328395 0.421512 -0.085280
v -0.494586 0.171430 -0.122896
v -0.643742 0.171430 -0.122896
v -0.863742 0.101430 -0.122896
v -1.079771 0.101430 -0.122896
v -1.160396 0.030884 -0.122896
v -1.160396 -0.259751 -0.122896
v -1.130525 -0.339405 -0.122896
v -1.159893 -0.378261 -0.122896
v -1.328395 -0.378261 -0.122896
v -1.328395 0.274264 -0.122896
v -0.846614 0.274264 -0.122896
v -0.626614 0.354264 -0.122896
v -0.494587 0.354264 -0.122896
v -0.473085 -0.125217 0.120182
v -0.473085 -0.125218 -0.120182
v -0.463319 -0.179481 -0.120181
v -0.463319 -0.179481 0.120183
v -0.147843 -0.227367 0.122182
v -0.206846 -0.155722 0.122182
v -0.068418 0.216192 0.122182
v -0.330756 0.216192 0.122182
v -0.471231 -0.124453 0.122182
v -0.461463 -0.179153 0.122182
v -0.188223 -0.301617 0.122182
v -0.151600 -0.276206 0.122182
v 0.217305 -0.035599 0.119000
v 0.217268 0.298766 0.119000
v 0.217268 0.298766 -0.119000
v 0.217305 -0.035599 -0.119000
v -0.146498 -0.225970 0.120182
v -0.146498 -0.225970 -0.120182
v -0.204086 -0.156137 -0.120182
v -0.204086 -0.156137 0.120183
v 1.322461 0.298767 -0.118999
v 1.322461 0.298767 0.119001
v 1.322373 0.136988 0.119000
v 1.322373 0.136988 -0.119000
v -0.187203 -0.303187 0.120182
v -0.187203 -0.303187 -0.120182
v -0.150594 -0.277824 -0.120182
v -0.150594 -0.277824 0.120182
v -0.000979 -0.287632 0.121000
v -0.040594 -0.375850 0.121000
v -0.011193 -0.420397 0.121000
v 0.373096 -0.420397 0.121000
v 0.457226 -0.375234 0.121000
v 0.607429 0.006023 0.121000
v 0.690763 0.077399 0.121000
v 1.253327 0.077399 0.121000
v 1.320461 0.136850 0.121000
v 1.320461 0.298766 0.121000
v 0.219268 0.298766 0.121000
v 0.219268 -0.037145 0.121000
v 0.092368 -0.247659 0.121000
v -0.462231 -0.180874 -0.120181
v -0.188937 -0.303348 -0.120182
v -0.188937 -0.303348 0.120182
v -0.462231 -0.180874 0.120183
v -0.447559 0.167902 0.136613
v 0.999300 0.167975 0.136613
v 1.141742 0.227605 0.136623
v 1.328395 0.227605 0.136623
v 1.328395 0.355324 0.136623
v -0.447659 0.355324 0.136623
v -0.007545 -0.371388 0.065512
v 0.016967 -0.318822 0.065512
v -0.222401 -0.207203 0.065512
v -0.246913 -0.259770 0.065512
v 1.330395 0.227605 -0.134623
v 1.330395 0.355977 -0.134623
v 1.330395 0.420397 -0.083739
v 1.330395 0.420397 0.083740
v 1.330395 0.355977 0.134623
v 1.330395 0.227605 0.134623
v -0.494587 0.411628 -0.081989
v -0.642745 0.411620 -0.081977
v -0.642745 0.411620 0.081977
v -0.494586 0.411628 0.081989
v 0.608716 0.003915 0.119000
v 0.459136 -0.375676 0.119000
v 0.459136 -0.375676 -0.119000
v 0.608716 0.003914 -0.119000
v -0.447659 0.166012 -0.134765
v 0.998632 0.166048 -0.134756
v 0.998426 0.166007 0.134700
v -0.447759 0.166012 0.134523
v -1.079797 0.098835 0.120896
v -1.157733 0.030676 0.120896
v -1.157733 0.030676 -0.120896
v -1.079798 0.098835 -0.120895
v 1.141216 0.225239 0.134623
v 1.000349 0.166393 0.134700
v 1.000555 0.166434 -0.134756
v 1.141216 0.225239 -0.134623
v -0.644387 0.169139 0.120896
v -0.862481 0.099745 0.120896
v -0.862481 0.099745 -0.120896
v -0.644387 0.169139 -0.120895
v -1.158485 0.029017 0.120896
v -1.158412 -0.258392 0.120896
v -1.158412 -0.258392 -0.120896
v -1.158485 0.029017 -0.120896
v -1.129009 -0.340512 0.120896
v -1.158348 -0.379359 0.120896
v -1.158348 -0.379359 -0.120896
v -1.129009 -0.340512 -0.120896
v -0.001514 -0.285760 0.119000
v 0.090102 -0.246507 0.119001
v 0.090102 -0.246507 -0.119000
v -0.001514 -0.285760 -0.119000
v -1.158061 -0.260328 0.120896
v -1.128757 -0.338778 0.120896
v -1.128757 -0.338778 -0.120896
v -1.158061 -0.260328 -0.120896
v -0.221556 -0.205391 0.063512
v 0.017811 -0.317010 0.063512
v 0.017811 -0.317010 -0.063512
v -0.221556 -0.205391 -0.063512
vn -0.7179 0.0157 0.6960
vn -0.6021 0.2218 -0.7670
vn -0.6030 0.7945 -0.0714
vn -0.1690 -0.5890 -0.7903
vn -0.4895 -0.2323 0.8405
vn -0.4069 -0.8215 -0.3994
vn 0.5070 0.1975 -0.8390
vn -0.3569 -0.9277 -0.1097
vn 0.3891 -0.3378 0.8570
vn 0.7368 0.3826 -0.5575
vn 0.2547 -0.0972 0.9621
vn -0.0550 0.8954 -0.4419
vn 0.4555 0.8000 0.3905
vn -0.1651 0.5555 0.8150
vn -0.3413 0.9399 0.0134
vn 0.5630 0.3747 -0.7366
vn 0.1575 -0.8616 0.4826
vn -0.7322 -0.2666 0.6268
vn 0.3687 -0.9001 0.2320
vn 0.2172 -0.5591 -0.8001
vn 0.4122 -0.5798 0.7029
vn -0.7118 -0.0951 -0.6959
vn -0.7523 -0.0254 -0.6583
vn 0.9913 0.0708 -0.1108
vn 0.4466 0.6071 -0.6573
vn -0.4596 0.5420 -0.7035
vn 0.1707 0.6786 -0.7143
vn 0.3122 -0.4208 -0.8517
vn -0.9094 -0.0807 0.4080
vn 0.4233 -0.5813 -0.6949
vn 0.9548 -0.2747 0.1135
vn -0.2720 0.6574 0.7027
vn 0.0654 -0.3356 -0.9397
vn 0.4284 -0.7454 0.5107
vn -0.9982 -0.0202 0.0569
vn 0.9617 0.1081 0.2520
vn -0.0935 0.9956 -0.0003
vn 0.9525 -0.0003 0.3046
vn 0.5745 -0.1261 0.8087
vn -0.0827 0.9398 -0.3317
vn 0.7387 0.5204 -0.4283
vn 0.6514 -0.7270 0.2171
vn 0.9890 -0.1131 0.0955
vn 0.5161 0.5988 -0.6125
vn 0.6852 -0.6103 0.3975
vn 0.8822 -0.3958 -0.2552
vn -0.8212 -0.5706 0.0002
vn -0.4969 -0.6777 0.5421
vn -0.9066 -0.4219 -0.0089
vn -0.7371 0.5878 0.3333
vn -0.9459 0.0442 0.3215
vn -0.9855 0.1540 -0.0710
vn -0.5694 -0.6895 -0.4476
vn -0.7747 -0.3999 0.4899
vn -0.6663 -0.7432 -0.0604
vn -0.7914 0.4399 -0.4245
vn -0.8746 0.0679 0.4801
vn -0.8002 -0.2262 -0.5554
vn -0.0369 0.9160 0.3994
vn -0.5669 -0.2167 -0.7948
vn -0.7761 0.4957 -0.3899
vn -0.1714 0.2358 0.9566
vn 0.4027 0.8811 -0.2482
vn 0.6850 0.3681 0.6287
vn -0.0254 0.9577 0.2867
vn 0.0748 -0.7756 -0.6268
vn 0.4129 0.6638 -0.6236
vn 0.3278 0.9284 -0.1748
vn -0.6843 -0.4068 0.6051
vn 0.7827 -0.5177 0.3455
vn -0.1309 0.4686 -0.8736
vn 0.6066 -0.7290 -0.3171
vn 0.9140 0.0086 0.4056
vn 0.8595 -0.0820 -0.5045
vn -0.7880 0.2100 -0.5787
vn -0.5134 -0.3101 0.8002
vn 0.5054 0.8202 0.2679
vn -0.1870 0.9819 -0.0290
vn -0.3141 -0.2228 0.9229
vn -0.1151 -0.7296 0.6741
vn -0.6669 -0.2443 -0.7039
vn -0.4673 -0.1469 -0.8718
vn 0.7507 -0.6407 0.1610
vn 0.7313 -0.1579 -0.6635
vn 0.1548 0.3964 -0.9049
vn 0.9019 0.0822 -0.4240
vn 0.5522 0.5839 -0.5951
vn 0.0253 -0.8925 -0.4503
vn -0.6283 -0.5524 -0.5478
vn -0.9771 0.0423 -0.2085
vn -0.3099 -0.8861 0.3447
vn -0.1429 0.7831 0.6053
vn 0.1465 0.4743 0.8681
vn 0.5884 -0.8079 0.0319
vn 0.2662 0.8249 0.4988
vn 0.3210 -0.9470 -0.0118
vn -0.7761 0.4957 0.3898
vn 0.2270 -0.7566 0.6132
vn -0.1858 -0.9723 0.1416
vn 0.2486 0.9239 -0.2910
vn 0.7886 -0.4509 -0.4180
vn 0.1672 -0.1579 0.9732
vn -0.7214 -0.2891 0.6293
vn 0.4152 0.9051 0.0919
vn 0.3659 0.9168 -0.1601
vn 0.6689 -0.7126 -0.2116
vn 0.5919 -0.4493 -0.6692
vn 0.3500 0.7928 -0.4989
vn -0.0083 -0.8356 0.5493
vn -0.4990 -0.1726 0.8493
vn -0.5511 -0.6788 -0.4853
vn -0.4618 -0.7535 -0.4680
vn 0.9804 -0.1502 0.1277
vn 0.2798 -0.8964 -0.3438
vn -0.0376 0.9409 0.3367
vn 0.3453 0.8079 -0.4775
vn 0.2056 0.4795 0.8531
vn -0.5629 -0.8115 -0.1571
vn 0.7265 -0.6724 0.1420
vn -0.8577 0.3436 0.3826
vn 0.7111 -0.0593 -0.7006
vn -0.6447 -0.7134 -0.2746
vn 0.2652 -0.9473 0.1796
vn -0.4794 0.5874 -0.6520
vn 0.3793 -0.2274 0.8969
vn 0.1658 0.9841 -0.0644
vn -0.4706 -0.7928 0.3872
vn -0.3318 0.6762 0.6577
vn 0.2294 0.7878 -0.5716
vn 0.5852 -0.4849 0.6500
vn 0.6465 0.6025 0.4679
vn -0.0405 0.5819 0.8123
vn -0.4051 0.7658 -0.4994
vn -0.9633 -0.2171 -0.1577
vn -0.8057 -0.1404 -0.5754
vn 0.0482 0.5167 0.8548
vn 0.4722 0.5044 0.7229
vn -0.1542 0.9880 -0.0007
vn -0.1756 0.9071 -0.3825
vn 0.4406 0.5817 0.6838
vn -0.4515 0.0938 -0.8873
vn -0.4961 0.5128 -0.7007
vn -0.6543 0.7293 0.2000
vn 0.1970 0.9553 0.2205
vn -0.7098 0.6866 0.1572
vn -0.3535 0.4956 0.7934
vn -0.2095 -0.8948 -0.3943
vn -0.7304 0.6184 -0.2900
vn -0.7099 -0.6892 -0.1449
vn 0.0706 0.5115 0.8564
vn 0.7106 -0.6334 -0.3062
vn 0.1128 -0.9902 -0.0828
vn -0.0076 -0.9030 -0.4296
vn 0.7792 -0.5329 -0.3300
vn -0.0823 -0.9962 -0.0293
vn -0.3928 -0.8008 0.4522
vn 0.7002 -0.6810 0.2146
vn 0.9078 0.3929 -0.1465
vn 0.6986 0.7026 -0.1356
vn 0.5145 -0.2890 -0.8073
vn 0.6596 0.2275 0.7163
vn -0.7663 -0.2972 -0.5696
vn 0.0022 0.7951 -0.6065
vn 0.1792 0.9803 -0.0825
vn 0.4793 0.5869 0.6525
vn -0.9896 0.1437 -0.0008
vn -0.7032 0.3884 0.5955
vn -0.4613 -0.7453 -0.4814
vn -0.7911 -0.5289 -0.3073
vn -0.9810 -0.0762 0.1786
vn -0.8837 -0.0182 -0.4678
vn 0.9077 0.3220 0.2690
vn -0.4549 0.8042 0.3827
vn -0.0792 0.9670 -0.2423
vn -0.7117 0.0194 0.7023
vn 0.5969 -0.2754 0.7536
vn -0.5473 -0.2920 0.7843
vn -0.1631 0.3321 -0.9290
vn -0.7812 0.2388 -0.5769
vn -0.4065 -0.8253 -0.3921
vn 0.5648 -0.1637 -0.8088
vn -0.6653 -0.4813 -0.5707
vn -0.3636 0.8267 -0.4294
vn -0.5002 0.7960 -0.3409
vn -0.2013 0.9244 -0.3240
vn -0.1448 0.2493 -0.9575
vn -0.1189 0.8663 0.4851
vn 0.0254 0.9918 -0.1249
vn -0.2130 0.5996 -0.7714
vn 0.0141 0.8900 -0.4558
vn -0.9268 -0.2773 -0.2532
vn -0.4715 0.8805 0.0497
vn 0.7502 -0.3441 0.5647
vn -0.1122 0.7246 0.6799
vn -0.5240 -0.6804 -0.5123
vn -0.8079 0.5444 -0.2257
vn -0.4823 -0.1825 0.8568
vn 0.4024 0.0872 0.9113
vn -0.1602 0.9119 -0.3779
vn 0.6697 -0.0121 -0.7425
vn 0.5218 -0.8098 0.2684
vn -0.6381 -0.7699 0.0063
vn -0.2206 0.9148 -0.3382
vn -0.6604 0.7447 0.0963
vn -0.0801 0.8726 -0.4818
vn 0.0330 0.5363 0.8434
vn 0.3148 -0.2528 0.9149
vn -0.5529 0.7384 0.3862
vn -0.3977 -0.8069 0.4367
vn -0.6771 -0.6545 -0.3364
vn -0.8752 0.4829 -0.0294
vn -0.0948 -0.9909 -0.0958
vn 0.9861 0.1595 0.0471
vn 0.7504 -0.3444 -0.5642
vn -0.3949 0.4486 -0.8017
vn -0.2128 0.8910 -0.4011
vn 0.5039 0.7094 0.4928
vn -0.7673 0.6364 0.0787
vn -0.7642 0.5885 -0.2639
vn -0.7971 0.4177 -0.4361
vn -0.8121 0.3720 0.4495
vn -0.8900 -0.1593 -0.4272
vn -0.7474 0.6644 0.0011
vn -0.6433 0.6509 0.4031
vn -0.9124 0.0133 -0.4091
vn 0.3507 0.8955 0.2739
vn -0.4245 0.7180 0.5516
vn 0.0815 0.9963 0.0267
vn -0.7523 0.3167 -0.5777
vn 0.3225 0.8504 0.4156
vn -0.0768 0.9623 -0.2609
vn 0.9968 0.0806 0.0003
vn 0.8427 -0.0724 0.5335
vn -0.1983 0.4308 -0.8804
vn 0.8851 -0.4156 0.2095
vn -0.0092 -0.5476 0.8367
vn 0.8542 0.2055 -0.4776
vn 0.7236 -0.5624 0.4002
vn -0.2163 -0.8739 0.4354
vn 0.9089 -0.3574 -0.2147
vn 0.8915 -0.1060 -0.4404
vn 0.8002 -0.3569 0.4821
vn 0.8516 0.4645 -0.2430
vn 0.7151 -0.6803 0.1606
vn 0.7569 -0.6068 0.2426
vn 0.4875 -0.4031 -0.7745
vn -0.8384 0.3760 0.3946
vn 0.9058 -0.2767 -0.3208
vn -0.6919 -0.7091 0.1356
vn 0.6454 -0.0468 -0.7624
vn 0.1760 0.8270 0.5339
vn -0.7414 -0.5376 -0.4016
vn -0.8159 0.3956 -0.4217
vn -0.2869 0.2328 -0.9293
vn -0.2291 -0.8595 0.4569
vn -0.1684 -0.4140 -0.8946
vn 0.6374 0.0220 -0.7702
vn -0.4003 -0.0302 0.9159
vn 0.9580 -0.2728 -0.0887
vn 0.3577 -0.7668 0.5329
vn 0.1830 0.3492 0.9190
vn -0.2744 0.7568 0.5932
vn 0.4022 0.6864 -0.6058
vn 0.3461 0.3973 -0.8500
vn -0.8288 -0.5593 -0.0180
vn -0.8966 -0.4252 0.1235
vn 0.8963 -0.1337 -0.4228
vn -0.6737 -0.2374 -0.6998
vn -0.7615 0.2532 0.5966
vn 0.5018 0.5153 0.6947
vn -0.3079 -0.3724 -0.8755
vn -0.8149 0.3187 -0.4841
vn -0.3320 -0.0883 -0.9391
vn 0.3217 0.8497 -0.4178
vn 0.9801 0.0985 -0.1725
vn 0.9027 -0.2766 -0.3296
vn 0.5867 0.7328 0.3447
vn 0.0193 -0.9491 0.3143
vn -0.3211 -0.2134 0.9227
vn -0.2458 0.9634 0.1070
vn -0.4964 -0.6689 0.5533
vn 0.3569 0.9212 0.1546
vn -0.8056 0.3856 -0.4498
vn -0.4684 0.8261 0.3133
vn 0.1954 0.1552 -0.9684
vn 0.8485 -0.2231 -0.4799
vn -0.5552 -0.8165 0.1583
vn 0.0506 -0.6309 -0.7742
vn 0.8194 -0.0765 0.5681
vn -0.5161 -0.3667 0.7741
vn -0.7334 -0.0030 0.6798
vn 0.9342 0.1720 -0.3127
vn -0.9719 0.2073 0.1115
vn 0.5557 0.8162 -0.1583
vn 0.9477 0.3185 0.0196
vn 0.0068 0.4889 -0.8723
vn -0.5477 -0.4224 -0.7222
vn 0.1273 -0.9896 -0.0665
vn 0.4393 -0.8158 0.3761
vn 0.0657 0.8365 0.5440
vn 0.6221 -0.6280 0.4675
vn -0.9418 0.3360 0.0062
vn -0.1227 -0.3744 -0.9191
vn -0.2058 -0.8683 -0.4513
vn 0.2318 0.4117 -0.8814
vn 0.4010 0.3604 -0.8422
vn 0.4732 0.4928 -0.7302
vn -0.5681 -0.5087 -0.6469
vn -0.9251 0.3605 -0.1193
vn 0.7169 -0.2250 0.6599
vn 0.4151 0.8469 0.3323
vn -0.3822 -0.0591 0.9222
vn -0.2973 -0.3485 0.8889
vn 0.8826 -0.3457 -0.3185
vn 0.9116 0.1631 0.3773
vn 0.8644 0.0545 -0.4998
vn -0.0247 0.8335 0.5519
vn -0.4962 -0.8008 -0.3353
vn 0.1949 -0.9386 0.2846
vn -0.4864 -0.5026 -0.7147
vn -0.4136 -0.2855 -0.8645
vn 0.7103 -0.6977 0.0935
vn 0.6299 -0.1153 -0.7681
vn 0.0931 0.2349 -0.9675
vn -0.8803 0.2247 -0.4178
vn 0.7414 0.6458 0.1825
vn 0.2077 -0.2391 0.9485
vn 0.4038 0.1201 -0.9069
vn 0.3151 -0.5879 0.7450
vn -0.7434 0.0712 0.6650
vn -0.6785 0.5213 -0.5176
vn -0.7415 -0.2160 0.6352
vn 0.2645 -0.5106 0.8181
vn 0.2248 -0.7308 0.6445
vn 0.7243 0.0840 -0.6844
vn -0.9256 -0.1773 0.3343
vn -0.6286 0.2713 -0.7288
vn 0.3543 -0.7109 -0.6075
vn 0.7498 -0.5446 0.3758
vn -0.6436 -0.2967 -0.7055
vn 0.9258 -0.3454 -0.1536
vn -0.7145 0.5216 0.4662
vn -0.1121 0.5343 0.8378
vn -0.6414 -0.1012 0.7605
vn 0.7020 -0.2213 0.6769
vn -0.3164 -0.7490 0.5822
vn 0.4963 0.5272 -0.6898
vn -0.8661 0.0369 -0.4985
vn -0.8185 -0.5394 -0.1979
vn -0.7000 0.5568 -0.4473
vn -0.0610 0.9874 0.1460
vn -0.2347 0.7037 -0.6706
vn -0.9487 -0.3153 -0.0231
vn 0.6836 -0.5963 0.4208
vn 0.6791 -0.3810 0.6274
vn -0.9491 -0.2440 0.1990
vn 0.6554 0.7538 0.0473
vn -0.6882 -0.6888 0.2279
vn 0.4390 -0.3912 -0.8089
vn -0.1672 0.1275 -0.9777
vn -0.7011 0.6789 0.2183
vn -0.4765 -0.3421 -0.8098
vn 0.5622 0.7669 0.3095
vn -0.6488 -0.7605 -0.0263
vn -0.4320 0.9016 -0.0209
vn -0.7243 0.4722 -0.5024
vn -0.3319 0.8186 0.4687
vn -0.7408 0.6654 -0.0921
vn 0.6830 0.7048 0.1918
vn 0.4402 0.4063 0.8007
vn 0.1416 0.9767 -0.1611
vn -0.0824 0.3754 0.9232
vn -0.7186 -0.4832 -0.5001
vn 0.5143 0.0351 -0.8569
vn 0.3471 -0.9370 0.0401
vn -0.8213 -0.4145 0.3920
vn -0.6639 0.3374 -0.6674
vn 0.6704 0.1215 -0.7320
vn -0.4220 0.7651 0.4864
vn 0.2292 0.5536 0.8006
vn -0.7711 -0.4087 -0.4882
vn 0.2340 0.4594 -0.8568
vn -0.8935 -0.0918 -0.4396
vn -0.7662 -0.5271 0.3676
vn 0.9991 0.0098 -0.0418
vn 0.1865 0.5016 0.8448
vn -0.0937 -0.8930 0.4401
vn 0.0732 0.9376 -0.3398
vn 0.1438 0.6444 0.7511
vn -0.8241 -0.4583 -0.3328
vn -0.6552 0.6178 0.4349
vn -0.3995 -0.8472 -0.3502
vn 0.8333 -0.4265 0.3517
vn 0.5834 -0.4564 -0.6719
vn -0.5855 -0.5906 -0.5554
vn -0.4257 0.7882 -0.4444
vn -0.6990 0.6815 0.2168
vn -0.2896 0.9561 0.0448
vn 0.1832 0.8585 0.4789
vn -0.7202 0.4673 -0.5128
vn -0.5547 0.7360 -0.3881
vn -0.1544 0.9880 0.0008
vn -0.5145 0.5901 -0.6221
vn 0.3438 0.5199 0.7820
vn 0.4383 0.6821 0.5854
vn -0.6156 0.2793 -0.7369
vn -0.6838 0.6611 0.3088
vn 0.0475 0.5162 0.8552
vn -0.9632 -0.2175 -0.1577
vn -0.8055 -0.1403 -0.5757
vn -0.8296 -0.3163 0.4601
vn -0.4505 -0.8306 -0.3273
vn -0.9896 0.1437 0.0007
vn -0.9421 -0.0339 0.3337
vn -0.7911 -0.5291 -0.3071
vn 0.4676 0.1277 0.8747
vn -0.7031 0.3881 0.5958
vn -0.8751 0.4739 0.0978
vn -0.7573 -0.0283 -0.6525
vn 0.6857 0.7155 0.1340
vn 0.1356 0.9354 -0.3267
vn 0.4058 -0.8297 0.3834
vn 0.4100 0.4176 0.8108
vn 0.7090 -0.6872 0.1585
vn 0.6724 -0.6801 -0.2920
vn -0.5585 -0.7959 0.2335
vn 0.7404 -0.6518 -0.1641
vn 0.6549 -0.5964 -0.4641
vn 0.2856 -0.8026 0.5238
vn -0.4761 -0.8689 -0.1355
vn -0.7025 -0.6809 -0.2068
vn -0.1946 -0.9146 0.3546
vn 0.1681 -0.3010 -0.9387
vn -0.8958 0.1447 0.4202
vn -0.5127 0.2805 -0.8114
vn -0.2477 -0.8979 0.3638
vn -0.3679 -0.7827 -0.5021
vn 0.8059 -0.3435 0.4823
vn -0.4641 0.8199 -0.3352
vn -0.4249 0.3524 0.8338
vn -0.2052 0.8036 -0.5587
vn -0.0586 0.5045 -0.8614
vn -0.4080 -0.8214 0.3985
vn -0.8054 -0.3026 -0.5096
vn -0.8404 -0.5334 -0.0963
vn -0.7154 -0.6711 -0.1944
vn -0.9997 0.0032 0.0252
vn -0.7637 0.4655 0.4474
vn -0.8212 -0.5706 0.0004
vn -0.9459 0.0441 0.3214
vn 0.8924 -0.3399 -0.2968
vn -0.9064 -0.4224 -0.0077
vn -0.4103 -0.8265 0.3855
vn 0.5486 -0.7018 0.4544
vn 0.8199 0.5563 -0.1353
vn 0.9841 -0.1718 -0.0442
vn 0.3769 -0.6950 0.6123
vn 0.6999 0.5701 0.4302
vn 0.9199 0.1659 0.3552
vn -0.0927 0.9957 -0.0005
vn -0.3334 0.8550 -0.3973
vn 0.5748 -0.1258 0.8086
vn -0.6978 -0.2760 -0.6610
vn -0.5670 -0.2168 -0.7947
vn -0.1327 0.9411 0.3109
vn -0.7259 0.5542 -0.4074
vn -0.9229 0.1512 0.3540
vn 0.0193 0.3759 -0.9264
vn 0.3627 -0.1854 -0.9133
vn 0.1873 -0.8518 -0.4892
vn -0.9909 0.1068 0.0819
vn 0.0310 -0.8939 0.4473
vn -0.5771 0.2549 0.7759
vn -0.0994 0.4477 0.8886
vn 0.6759 -0.7245 -0.1349
vn -0.3905 0.8633 0.3197
vn 0.0354 0.7857 -0.6176
vn 0.3564 -0.3917 0.8483
vn 0.2991 -0.8890 0.3466
vn 0.1609 -0.8674 0.4709
vn -0.9802 0.1635 -0.1113
vn -0.5821 -0.7497 0.3149
vn -0.2877 -0.7735 -0.5648
vn 0.6210 0.0191 -0.7836
vn 0.4425 -0.8910 0.1010
vn -0.0569 0.4902 -0.8697
vn 0.9206 0.3888 0.0361
vn 0.8258 -0.5639 0.0124
vn 0.4149 0.2918 -0.8618
vn -0.6850 0.1705 -0.7083
vn -0.6138 -0.7630 -0.2026
vn -0.6744 0.4400 0.5929
vn 0.6378 0.2902 0.7134
vn 0.2853 0.9265 0.2452
vn 0.7410 -0.6391 0.2064
vn 0.9968 0.0799 -0.0007
vn 0.8538 0.2057 -0.4782
vn 0.7240 -0.5621 0.3999
vn 0.8852 -0.4154 0.2093
vn -0.0089 -0.5475 0.8367
vn -0.0493 0.9017 -0.4296
vn -0.1982 0.4310 -0.8803
vn 0.9472 -0.0723 0.3124
vn 0.5365 0.7353 -0.4142
vn -0.6013 0.7990 0.0024
vn -0.2298 0.9710 0.0656
vn 0.5131 0.6347 0.5778
vn -0.7474 0.6644 -0.0008
vn -0.4244 0.7183 0.5513
vn -0.8230 -0.0804 -0.5623
vn -0.9121 0.0138 -0.4097
vn -0.6954 0.6743 0.2483
vn -0.6485 0.6016 -0.4664
vn -0.7242 0.1343 -0.6763
vn 0.0456 0.9947 0.0924
vn 0.3326 0.8364 0.4357
vn -0.2118 0.8917 -0.3999
vn -0.7671 0.6368 0.0781
vn -0.7610 0.5175 -0.3911
vn -0.2863 0.2330 -0.9294
vn 0.0779 0.8990 0.4309
vn -0.6925 -0.7085 -0.1360
vn -0.6130 -0.5918 -0.5234
vn -0.3758 0.6445 0.6659
vn 0.7107 -0.6694 0.2163
vn 0.2162 -0.9321 -0.2907
vn 0.3362 -0.5195 0.7856
vn 0.8149 0.4331 -0.3852
vn -0.7646 -0.6444 -0.0083
vn 0.3556 -0.7607 0.5431
vn 0.7912 -0.3896 -0.4714
vn 0.7848 0.0896 -0.6132
vn 0.3433 -0.9384 0.0395
vn -0.0169 -0.8976 0.4405
vn -0.3238 0.8975 -0.2995
vn -0.4696 0.2372 0.8504
vn -0.6926 -0.7207 -0.0290
vn 0.4784 0.5358 -0.6958
vn 0.8574 0.5097 -0.0715
vn -0.7043 0.6669 -0.2433
vn 0.2784 0.8560 -0.4356
vn -0.2456 0.9663 -0.0769
vn -0.0186 0.8629 -0.5051
vn -0.4863 -0.0030 -0.8738
vn -0.8180 0.5326 0.2172
vn 0.5426 0.6810 0.4917
vn -0.6798 0.7164 -0.1571
vn -0.4047 0.4779 0.7796
vn -0.1523 -0.8763 -0.4571
vn -0.7447 0.3696 -0.5558
vn -0.3889 -0.6041 0.6956
vn -0.2265 0.7479 0.6240
vn 0.7814 -0.2264 0.5815
vn 0.3140 -0.8417 0.4392
vn 0.4075 -0.4132 -0.8143
vn 0.8334 0.1551 0.5304
vn -0.3687 0.9001 0.2320
vn -0.1004 0.7242 -0.6823
vn -0.3993 0.5810 -0.7092
vn -0.9104 -0.3450 -0.2285
vn -0.3221 -0.0192 0.9465
vn -0.5926 -0.4642 0.6583
vn 0.3389 -0.9407 -0.0127
vn 0.6147 0.7377 0.2792
vn 0.4332 0.8616 0.2645
vn 0.2151 -0.5005 -0.8386
vn -0.3667 -0.4696 -0.8031
vn -0.7323 -0.2664 -0.6267
vn 0.0298 0.7943 0.6068
vn -0.9798 -0.1998 -0.0004
vn -0.4721 0.4103 0.7802
vn 0.0001 -0.9120 0.4102
vn 0.4171 -0.8069 0.4183
vn 0.1197 -0.8929 0.4340
vn 0.7203 -0.6000 -0.3481
vn -0.9845 -0.1456 0.0979
vn -0.7201 -0.6002 0.3482
vn -0.0262 -0.8426 -0.5380
vn 0.9845 -0.1456 -0.0975
vn -0.4170 -0.8067 -0.4186
vn 0.0001 0.4616 -0.8871
vn 0.4721 0.4105 -0.7801
vn -0.1359 0.7005 -0.7006
vn 0.9799 -0.1995 0.0005
vn -0.5208 -0.2165 -0.8258
vn 0.5206 -0.2165 0.8259
vn -0.7014 -0.0624 0.7101
vn 0.7484 -0.0817 0.6582
vn 0.8448 0.1574 -0.5114
vn -0.7850 0.4555 -0.4199
vn -0.1055 -0.8723 -0.4774
vn 0.0890 0.4848 -0.8701
vn -0.0053 0.6590 0.7521
vn -0.6706 -0.3896 0.6312
vn 0.5180 0.3585 0.7766
vn -0.7999 0.4753 0.3663
vn -0.2500 0.7120 0.6562
vn -0.6299 0.1881 0.7536
vn 0.4373 -0.8596 -0.2642
vn 0.5554 -0.6538 0.5138
vn 0.4322 0.8965 0.0977
vn -0.7781 0.2336 -0.5831
vn 0.3155 -0.8352 -0.4504
vn 0.4048 0.8747 0.2666
vn 0.6765 -0.5252 -0.5162
vn 0.4277 -0.7976 -0.4254
vn 0.5183 0.4268 -0.7411
vn -0.9003 -0.0774 -0.4284
vn 0.9097 0.3889 0.1455
vn 0.2971 0.9332 0.2022
vn -0.7949 0.3829 -0.4707
vn 0.5048 -0.0933 0.8582
vn -0.9109 0.0316 -0.4114
vn -0.9199 -0.0609 0.3873
vn -0.5606 -0.4423 -0.7001
vn 0.5888 0.3700 -0.7187
vn 0.4499 0.6823 0.5763
vn -0.5261 -0.5909 0.6116
vn -0.7925 -0.0153 -0.6097
vn 0.8268 -0.3147 -0.4662
vn 0.7002 0.3853 0.6010
vn -0.4001 -0.4432 0.8022
vn -0.0584 -0.6410 -0.7653
vn -0.2458 0.2699 -0.9310
vn -0.6894 0.5298 -0.4941
vn 0.8796 -0.2141 0.4248
vn -0.2151 0.8285 0.5171
vn 0.6051 0.1503 0.7819
vn 0.1829 -0.6366 0.7492
vn -0.8727 -0.1990 0.4459
vn 0.1372 0.6692 -0.7303
vn -0.2695 0.6622 -0.6991
vn -0.5075 -0.4421 -0.7396
vn 0.3123 0.6907 0.6522
vn -0.4610 0.8477 0.2625
vn -0.3140 -0.5745 0.7559
vn 0.8867 -0.0517 0.4594
vn 0.4037 -0.7128 0.5735
vn -0.3723 -0.7326 -0.5699
vn 0.4649 0.1247 -0.8765
vn -0.8504 -0.3333 0.4072
vn 0.3323 0.1999 0.9217
vn 0.0420 -0.7655 -0.6421
vn 0.2411 0.9525 -0.1860
vn -0.2450 0.7019 0.6688
vn 0.4975 -0.7725 0.3947
vn -0.6234 -0.0092 -0.7818
vn 0.7163 -0.5066 -0.4799
vn 0.7834 -0.6114 -0.1115
vn -0.4689 0.8260 0.3130
vn -0.8194 0.0766 0.5680
vn 0.0506 -0.6311 -0.7740
vn 0.5162 0.3668 0.7740
vn 0.7334 0.0032 0.6798
vn -0.9341 -0.1720 -0.3128
vn 0.9720 -0.2070 0.1116
vn -0.5552 -0.8165 -0.1582
vn 0.2685 0.9502 0.1581
vt 0.000000 0.000000
s 1
f 389/1/1 359/1/2 355/1/3
f 390/1/4 356/1/5 360/1/6
f 391/1/7 359/1/2 390/1/4
f 390/1/4 358/1/8 391/1/7
f 392/1/9 357/1/10 391/1/7
f 391/1/7 354/1/11 392/1/9
f 392/1/9 355/1/3 353/1/12
f 389/1/1 354/1/11 356/1/5
f 394/1/13 313/1/14 393/1/15
f 393/1/15 320/1/16 394/1/13
f 394/1/13 315/1/17 319/1/18
f 395/1/19 320/1/16 316/1/20
f 395/1/19 317/1/21 315/1/17
f 396/1/22 316/1/20 318/1/23
f 393/1/15 317/1/21 396/1/22
f 396/1/22 314/1/24 393/1/15
f 397/1/25 99/1/26 103/1/27
f 398/1/28 104/1/29 100/1/30
f 399/1/31 398/1/28 103/1/27
f 398/1/28 399/1/31 102/1/32
f 400/1/33 399/1/31 101/1/34
f 399/1/31 400/1/33 98/1/35
f 400/1/33 97/1/36 99/1/26
f 397/1/25 100/1/30 98/1/35
f 401/1/37 253/1/38 247/1/39
f 401/1/37 254/1/40 402/1/41
f 402/1/41 255/1/42 253/1/38
f 402/1/41 256/1/43 403/1/44
f 404/1/45 255/1/42 403/1/44
f 404/1/45 256/1/43 260/1/46
f 405/1/47 259/1/48 404/1/45
f 405/1/47 260/1/46 258/1/49
f 405/1/47 249/1/50 257/1/51
f 405/1/47 250/1/52 406/1/53
f 407/1/54 249/1/50 406/1/53
f 407/1/54 250/1/52 246/1/55
f 408/1/56 245/1/57 407/1/54
f 408/1/56 246/1/55 252/1/58
f 401/1/37 251/1/59 408/1/56
f 401/1/37 252/1/58 248/1/60
f 410/1/61 35/1/62 409/1/63
f 410/1/61 36/1/64 38/1/65
f 410/1/61 33/1/66 37/1/67
f 410/1/61 34/1/68 411/1/69
f 412/1/70 33/1/66 411/1/69
f 412/1/70 34/1/68 30/1/71
f 409/1/63 29/1/72 412/1/70
f 412/1/70 36/1/64 409/1/63
f 414/1/73 413/1/74 93/1/75
f 413/1/74 414/1/73 96/1/76
f 414/1/73 95/1/77 89/1/78
f 415/1/79 90/1/80 96/1/76
f 415/1/79 89/1/78 91/1/81
f 416/1/82 92/1/83 90/1/80
f 413/1/74 416/1/82 91/1/81
f 416/1/82 413/1/74 94/1/84
f 417/1/85 111/1/86 115/1/87
f 418/1/88 116/1/89 112/1/90
f 419/1/91 418/1/88 115/1/87
f 418/1/88 419/1/91 114/1/92
f 420/1/93 419/1/91 113/1/94
f 419/1/91 420/1/93 110/1/95
f 420/1/93 109/1/96 111/1/86
f 417/1/85 112/1/90 110/1/95
f 422/1/97 21/1/98 421/1/99
f 422/1/97 22/1/100 28/1/101
f 422/1/97 23/1/102 27/1/103
f 422/1/97 24/1/104 423/1/105
f 423/1/105 25/1/106 23/1/102
f 424/1/107 24/1/104 26/1/108
f 424/1/107 21/1/98 25/1/106
f 424/1/107 22/1/100 421/1/99
f 425/1/109 123/1/110 127/1/111
f 426/1/112 128/1/113 124/1/114
f 427/1/115 426/1/112 127/1/111
f 426/1/112 427/1/115 126/1/116
f 428/1/117 427/1/115 125/1/118
f 427/1/115 428/1/117 122/1/119
f 428/1/117 121/1/120 123/1/110
f 425/1/109 124/1/114 122/1/119
f 429/1/121 63/1/122 61/1/123
f 430/1/124 62/1/125 64/1/126
f 430/1/124 55/1/127 63/1/122
f 431/1/128 64/1/126 56/1/129
f 432/1/130 55/1/127 431/1/128
f 431/1/128 58/1/131 432/1/130
f 432/1/130 61/1/123 57/1/132
f 429/1/121 58/1/131 62/1/125
f 434/1/133 207/1/134 433/1/135
f 434/1/133 208/1/136 216/1/137
f 435/1/138 215/1/139 434/1/133
f 435/1/138 216/1/137 220/1/140
f 435/1/138 221/1/141 219/1/142
f 435/1/138 222/1/143 436/1/144
f 437/1/145 221/1/141 436/1/144
f 437/1/145 222/1/143 226/1/146
f 437/1/145 227/1/147 225/1/148
f 438/1/149 226/1/146 228/1/150
f 438/1/149 223/1/151 227/1/147
f 438/1/149 224/1/152 439/1/153
f 439/1/153 217/1/154 223/1/151
f 439/1/153 218/1/155 440/1/156
f 441/1/157 217/1/154 440/1/156
f 441/1/157 218/1/155 204/1/158
f 442/1/159 203/1/160 441/1/157
f 441/1/157 206/1/161 442/1/159
f 442/1/159 211/1/162 205/1/163
f 442/1/159 212/1/164 443/1/165
f 444/1/166 211/1/162 443/1/165
f 444/1/166 212/1/164 214/1/167
f 444/1/166 209/1/168 213/1/169
f 444/1/166 210/1/170 445/1/171
f 445/1/171 207/1/134 209/1/168
f 445/1/171 208/1/136 433/1/135
f 446/1/172 337/1/173 329/1/174
f 447/1/175 330/1/176 338/1/177
f 447/1/175 335/1/178 337/1/173
f 448/1/179 338/1/177 336/1/180
f 449/1/181 335/1/178 448/1/179
f 448/1/179 332/1/182 449/1/181
f 446/1/172 331/1/183 449/1/181
f 449/1/181 330/1/176 446/1/172
f 451/1/184 39/1/185 450/1/186
f 451/1/184 40/1/187 48/1/188
f 451/1/184 45/1/189 47/1/190
f 452/1/191 48/1/188 46/1/192
f 453/1/193 45/1/189 452/1/191
f 453/1/193 46/1/192 44/1/194
f 453/1/193 39/1/185 43/1/195
f 453/1/193 40/1/187 450/1/186
f 454/1/196 43/1/195 39/1/185
f 455/1/197 40/1/187 44/1/194
f 456/1/198 43/1/195 455/1/197
f 455/1/197 34/1/68 456/1/198
f 457/1/199 33/1/66 456/1/198
f 456/1/198 38/1/65 457/1/199
f 457/1/199 39/1/185 37/1/67
f 454/1/196 38/1/65 40/1/187
f 458/1/200 41/1/201 21/1/98
f 459/1/202 22/1/100 42/1/203
f 460/1/204 41/1/201 459/1/202
f 459/1/202 32/1/205 460/1/204
f 461/1/206 31/1/207 460/1/204
f 460/1/204 28/1/101 461/1/206
f 461/1/206 21/1/98 27/1/103
f 458/1/200 28/1/101 22/1/100
f 463/1/208 49/1/209 462/1/210
f 462/1/210 52/1/211 463/1/208
f 463/1/208 31/1/207 51/1/212
f 463/1/208 32/1/205 464/1/213
f 465/1/214 31/1/207 464/1/213
f 465/1/214 32/1/205 42/1/203
f 465/1/214 49/1/209 41/1/201
f 465/1/214 50/1/215 462/1/210
f 466/1/216 279/1/217 283/1/218
f 466/1/216 280/1/219 467/1/220
f 468/1/221 279/1/217 467/1/220
f 468/1/221 280/1/219 276/1/222
f 469/1/223 275/1/224 468/1/221
f 469/1/223 276/1/222 274/1/225
f 469/1/223 265/1/226 273/1/227
f 469/1/223 266/1/228 470/1/229
f 471/1/230 265/1/226 470/1/229
f 471/1/230 266/1/228 262/1/231
f 472/1/232 261/1/233 471/1/230
f 472/1/232 262/1/231 270/1/234
f 472/1/232 267/1/235 269/1/236
f 472/1/232 268/1/237 473/1/238
f 473/1/238 263/1/239 267/1/235
f 473/1/238 264/1/240 474/1/241
f 475/1/242 263/1/239 474/1/241
f 475/1/242 264/1/240 272/1/243
f 476/1/244 271/1/245 475/1/242
f 476/1/244 272/1/243 278/1/246
f 476/1/244 281/1/247 277/1/248
f 477/1/249 278/1/246 282/1/250
f 477/1/249 285/1/251 281/1/247
f 477/1/249 286/1/252 478/1/253
f 478/1/253 283/1/218 285/1/251
f 478/1/253 284/1/254 466/1/216
f 480/1/255 479/1/256 149/1/257
f 479/1/256 480/1/255 152/1/258
f 480/1/255 151/1/259 147/1/260
f 481/1/261 148/1/262 152/1/258
f 481/1/261 147/1/260 145/1/263
f 482/1/264 146/1/265 148/1/262
f 479/1/256 482/1/264 145/1/263
f 482/1/264 479/1/256 150/1/266
f 483/1/267 43/1/195 33/1/66
f 484/1/268 34/1/68 44/1/194
f 485/1/269 43/1/195 484/1/268
f 484/1/268 42/1/203 485/1/269
f 486/1/270 41/1/201 485/1/269
f 485/1/269 22/1/100 486/1/270
f 483/1/267 21/1/98 486/1/270
f 486/1/270 34/1/68 483/1/267
f 487/1/271 83/1/272 87/1/273
f 488/1/274 88/1/275 84/1/276
f 489/1/277 488/1/274 87/1/273
f 488/1/274 489/1/277 86/1/278
f 490/1/279 489/1/277 85/1/280
f 489/1/277 490/1/279 82/1/281
f 487/1/271 490/1/279 81/1/282
f 490/1/279 487/1/271 84/1/276
f 491/1/283 17/1/284 19/1/285
f 492/1/286 20/1/287 18/1/288
f 493/1/289 492/1/286 19/1/285
f 492/1/286 493/1/289 14/1/290
f 494/1/291 493/1/289 13/1/292
f 493/1/289 494/1/291 16/1/293
f 494/1/291 15/1/294 17/1/284
f 491/1/283 18/1/288 16/1/293
f 496/1/295 495/1/296 133/1/297
f 495/1/296 496/1/295 136/1/298
f 497/1/299 496/1/295 135/1/300
f 496/1/295 497/1/299 132/1/301
f 497/1/299 131/1/302 129/1/303
f 498/1/304 130/1/305 132/1/301
f 498/1/304 129/1/303 133/1/297
f 495/1/296 134/1/306 130/1/305
f 500/1/307 499/1/308 77/1/309
f 499/1/308 500/1/307 84/1/276
f 501/1/310 500/1/307 83/1/272
f 500/1/307 501/1/310 82/1/281
f 501/1/310 81/1/282 79/1/311
f 502/1/312 80/1/313 82/1/281
f 502/1/312 79/1/311 77/1/309
f 499/1/308 78/1/314 80/1/313
f 504/1/315 503/1/316 77/1/309
f 503/1/316 504/1/315 80/1/313
f 504/1/315 79/1/311 69/1/317
f 505/1/318 70/1/319 80/1/313
f 505/1/318 69/1/317 73/1/320
f 506/1/321 74/1/322 70/1/319
f 503/1/316 506/1/321 73/1/320
f 506/1/321 503/1/316 78/1/314
f 508/1/323 363/1/324 507/1/325
f 507/1/325 368/1/326 508/1/323
f 509/1/327 367/1/328 508/1/323
f 508/1/323 366/1/329 509/1/327
f 509/1/327 361/1/330 365/1/331
f 510/1/332 366/1/329 362/1/333
f 510/1/332 363/1/324 361/1/330
f 507/1/325 362/1/333 364/1/334
f 512/1/335 383/1/336 511/1/337
f 511/1/337 388/1/338 512/1/335
f 513/1/339 387/1/340 512/1/335
f 512/1/335 386/1/341 513/1/339
f 513/1/339 381/1/342 385/1/343
f 514/1/344 386/1/341 382/1/345
f 514/1/344 383/1/336 381/1/342
f 511/1/337 382/1/345 384/1/346
f 515/1/347 67/1/348 65/1/349
f 516/1/350 66/1/351 68/1/352
f 516/1/350 63/1/122 67/1/348
f 517/1/353 68/1/352 64/1/126
f 518/1/354 63/1/122 517/1/353
f 517/1/353 62/1/125 518/1/354
f 515/1/347 61/1/123 518/1/354
f 518/1/354 66/1/351 515/1/347
f 519/1/355 165/1/356 175/1/357
f 520/1/358 176/1/359 166/1/360
f 521/1/361 165/1/356 520/1/358
f 520/1/358 170/1/362 521/1/361
f 521/1/361 167/1/363 169/1/364
f 521/1/361 168/1/365 522/1/366
f 523/1/367 167/1/363 522/1/366
f 523/1/367 168/1/365 172/1/368
f 524/1/369 171/1/370 523/1/367
f 524/1/369 172/1/368 174/1/371
f 524/1/369 175/1/357 173/1/372
f 519/1/355 174/1/371 176/1/359
f 525/1/373 93/1/75 99/1/26
f 526/1/374 100/1/30 94/1/84
f 527/1/375 526/1/374 99/1/26
f 526/1/374 527/1/375 98/1/35
f 528/1/376 527/1/375 97/1/36
f 527/1/375 528/1/376 96/1/76
f 528/1/376 95/1/77 93/1/75
f 525/1/373 94/1/84 96/1/76
f 530/1/377 29/1/72 529/1/378
f 529/1/378 34/1/68 530/1/377
f 531/1/379 33/1/66 530/1/377
f 530/1/377 22/1/100 531/1/379
f 531/1/379 25/1/106 21/1/98
f 532/1/380 22/1/100 26/1/108
f 529/1/378 25/1/106 532/1/380
f 529/1/378 26/1/108 30/1/71
f 534/1/381 533/1/382 103/1/27
f 533/1/382 534/1/381 108/1/383
f 535/1/384 534/1/381 107/1/385
f 534/1/381 535/1/384 106/1/386
f 535/1/384 105/1/387 101/1/34
f 536/1/388 102/1/32 106/1/386
f 536/1/388 101/1/34 103/1/27
f 533/1/382 104/1/29 102/1/32
f 538/1/389 53/1/390 537/1/391
f 537/1/391 60/1/392 538/1/389
f 538/1/389 57/1/132 59/1/393
f 539/1/394 60/1/392 58/1/131
f 539/1/394 55/1/127 57/1/132
f 539/1/394 56/1/129 540/1/395
f 537/1/391 55/1/127 540/1/395
f 540/1/395 54/1/396 537/1/391
f 541/1/397 177/1/398 183/1/399
f 541/1/397 178/1/400 542/1/401
f 543/1/402 177/1/398 542/1/401
f 543/1/402 178/1/400 188/1/403
f 543/1/402 189/1/404 187/1/405
f 543/1/402 190/1/406 544/1/407
f 544/1/407 193/1/408 189/1/404
f 544/1/407 194/1/409 545/1/410
f 546/1/411 193/1/408 545/1/410
f 546/1/411 194/1/409 198/1/412
f 547/1/413 197/1/414 546/1/411
f 547/1/413 198/1/412 202/1/415
f 547/1/413 199/1/416 201/1/417
f 547/1/413 200/1/418 548/1/419
f 549/1/420 199/1/416 548/1/419
f 549/1/420 200/1/418 196/1/421
f 549/1/420 191/1/422 195/1/423
f 550/1/424 196/1/421 192/1/425
f 550/1/424 179/1/426 191/1/422
f 550/1/424 180/1/427 551/1/428
f 552/1/429 179/1/426 551/1/428
f 552/1/429 180/1/427 182/1/430
f 553/1/431 181/1/432 552/1/429
f 553/1/431 182/1/430 186/1/433
f 541/1/397 185/1/434 553/1/431
f 553/1/431 184/1/435 541/1/397
f 555/1/436 554/1/437 145/1/263
f 554/1/437 555/1/436 148/1/262
f 555/1/436 147/1/260 143/1/438
f 556/1/439 144/1/440 148/1/262
f 556/1/439 143/1/438 141/1/441
f 557/1/442 142/1/443 144/1/440
f 554/1/437 557/1/442 141/1/441
f 557/1/442 554/1/437 146/1/265
f 558/1/444 231/1/445 241/1/446
f 558/1/444 232/1/447 559/1/448
f 560/1/449 231/1/445 559/1/448
f 560/1/449 232/1/447 238/1/450
f 560/1/449 239/1/451 237/1/452
f 560/1/449 240/1/453 561/1/454
f 561/1/454 233/1/455 239/1/451
f 561/1/454 234/1/456 562/1/457
f 563/1/458 233/1/455 562/1/457
f 563/1/458 234/1/456 230/1/459
f 564/1/460 229/1/461 563/1/458
f 564/1/460 230/1/459 236/1/462
f 564/1/460 243/1/463 235/1/464
f 564/1/460 244/1/465 565/1/466
f 565/1/466 241/1/446 243/1/463
f 565/1/466 242/1/467 558/1/444
f 566/1/468 115/1/87 119/1/469
f 567/1/470 120/1/471 116/1/89
f 568/1/472 567/1/470 119/1/469
f 567/1/470 568/1/472 118/1/473
f 569/1/474 568/1/472 117/1/475
f 568/1/472 569/1/474 114/1/92
f 569/1/474 113/1/94 115/1/87
f 566/1/468 116/1/89 114/1/92
f 571/1/476 570/1/477 129/1/303
f 570/1/477 571/1/476 132/1/301
f 572/1/478 571/1/476 131/1/302
f 571/1/476 572/1/478 122/1/119
f 572/1/478 121/1/120 125/1/118
f 573/1/479 126/1/116 122/1/119
f 573/1/479 125/1/118 129/1/303
f 570/1/477 130/1/305 126/1/116
f 574/1/480 71/1/481 75/1/482
f 575/1/483 76/1/484 72/1/485
f 575/1/483 75/1/482 73/1/320
f 576/1/486 74/1/322 76/1/484
f 577/1/487 576/1/486 73/1/320
f 576/1/486 577/1/487 70/1/319
f 574/1/480 577/1/487 69/1/317
f 577/1/487 574/1/480 72/1/485
f 579/1/488 578/1/489 137/1/490
f 578/1/489 579/1/488 140/1/491
f 580/1/492 579/1/488 139/1/493
f 579/1/488 580/1/492 136/1/298
f 581/1/494 580/1/492 135/1/300
f 580/1/492 581/1/494 134/1/306
f 581/1/494 133/1/297 137/1/490
f 578/1/489 138/1/495 134/1/306
f 583/1/496 309/1/497 582/1/498
f 583/1/496 310/1/499 312/1/500
f 583/1/496 307/1/501 311/1/502
f 583/1/496 308/1/503 584/1/504
f 584/1/504 303/1/505 307/1/501
f 584/1/504 304/1/506 585/1/507
f 586/1/508 303/1/505 585/1/507
f 586/1/508 304/1/506 302/1/509
f 586/1/508 297/1/510 301/1/511
f 586/1/508 298/1/512 587/1/513
f 587/1/513 287/1/514 297/1/510
f 587/1/513 288/1/515 588/1/516
f 589/1/517 287/1/514 588/1/516
f 589/1/517 288/1/515 290/1/518
f 590/1/519 289/1/520 589/1/517
f 590/1/519 290/1/518 294/1/521
f 591/1/522 293/1/523 590/1/519
f 591/1/522 294/1/521 292/1/524
f 592/1/525 291/1/526 591/1/522
f 591/1/522 296/1/527 592/1/525
f 592/1/525 299/1/528 295/1/529
f 592/1/525 300/1/530 593/1/531
f 593/1/531 305/1/532 299/1/528
f 593/1/531 306/1/533 594/1/534
f 582/1/498 305/1/532 594/1/534
f 582/1/498 306/1/533 310/1/499
f 595/1/535 143/1/438 139/1/493
f 596/1/536 140/1/491 144/1/440
f 597/1/537 596/1/536 139/1/493
f 596/1/536 597/1/537 138/1/495
f 598/1/538 597/1/537 137/1/490
f 597/1/537 598/1/538 142/1/443
f 595/1/535 598/1/538 141/1/441
f 598/1/538 595/1/535 144/1/440
f 599/1/539 161/1/540 163/1/541
f 599/1/539 162/1/542 600/1/543
f 600/1/543 157/1/544 161/1/540
f 600/1/543 158/1/545 601/1/546
f 602/1/547 157/1/544 601/1/546
f 602/1/547 158/1/545 156/1/548
f 602/1/547 153/1/549 155/1/550
f 603/1/551 156/1/548 154/1/552
f 604/1/553 153/1/549 603/1/551
f 603/1/551 160/1/554 604/1/553
f 604/1/553 163/1/541 159/1/555
f 599/1/539 160/1/554 164/1/556
f 605/1/557 327/1/558 323/1/559
f 606/1/560 324/1/561 328/1/562
f 607/1/563 327/1/558 606/1/560
f 606/1/560 326/1/564 607/1/563
f 608/1/565 325/1/566 607/1/563
f 607/1/563 322/1/567 608/1/565
f 608/1/565 323/1/559 321/1/568
f 605/1/557 322/1/567 324/1/561
f 609/1/569 9/1/570 7/1/571
f 609/1/569 610/1/572 8/1/573
f 611/1/574 610/1/572 7/1/571
f 611/1/574 6/1/575 8/1/573
f 611/1/574 5/1/576 1/1/577
f 612/1/578 2/1/579 6/1/575
f 612/1/578 1/1/577 3/1/580
f 612/1/578 613/1/581 4/1/582
f 614/1/583 613/1/581 3/1/580
f 614/1/583 12/1/584 4/1/582
f 609/1/569 614/1/583 11/1/585
f 614/1/583 609/1/569 10/1/586
f 615/1/587 41/1/201 49/1/209
f 616/1/588 50/1/215 42/1/203
f 617/1/589 41/1/201 616/1/588
f 616/1/588 44/1/194 617/1/589
f 618/1/590 43/1/195 617/1/589
f 617/1/589 46/1/192 618/1/590
f 618/1/590 49/1/209 45/1/189
f 615/1/587 46/1/192 50/1/215
f 619/1/591 87/1/273 91/1/81
f 620/1/592 92/1/83 88/1/275
f 621/1/593 620/1/592 91/1/81
f 620/1/592 621/1/593 90/1/80
f 622/1/594 621/1/593 89/1/78
f 621/1/593 622/1/594 86/1/278
f 622/1/594 85/1/280 87/1/273
f 619/1/591 88/1/275 86/1/278
f 623/1/595 333/1/596 343/1/597
f 624/1/598 344/1/599 334/1/600
f 624/1/598 339/1/601 333/1/596
f 625/1/602 334/1/600 340/1/603
f 625/1/602 341/1/604 339/1/601
f 626/1/605 340/1/603 342/1/606
f 626/1/605 343/1/597 341/1/604
f 623/1/595 342/1/606 344/1/599
f 628/1/607 367/1/328 627/1/608
f 627/1/608 372/1/609 628/1/607
f 629/1/610 371/1/611 628/1/607
f 628/1/607 370/1/612 629/1/610
f 629/1/610 365/1/331 369/1/613
f 630/1/614 370/1/612 366/1/329
f 630/1/614 367/1/328 365/1/331
f 627/1/608 366/1/329 368/1/326
f 631/1/615 339/1/601 331/1/183
f 632/1/616 332/1/182 340/1/603
f 632/1/616 333/1/596 339/1/601
f 633/1/617 340/1/603 334/1/600
f 634/1/618 333/1/596 633/1/617
f 633/1/617 330/1/176 634/1/618
f 634/1/618 331/1/183 329/1/174
f 631/1/615 330/1/176 332/1/182
f 635/1/619 363/1/324 357/1/10
f 636/1/620 358/1/8 364/1/334
f 637/1/621 363/1/324 636/1/620
f 636/1/620 362/1/333 637/1/621
f 638/1/622 361/1/330 637/1/621
f 637/1/621 354/1/11 638/1/622
f 638/1/622 357/1/10 353/1/12
f 635/1/619 354/1/11 358/1/8
f 639/1/623 375/1/624 371/1/611
f 640/1/625 372/1/609 376/1/626
f 641/1/627 375/1/624 640/1/625
f 640/1/625 374/1/628 641/1/627
f 642/1/629 373/1/630 641/1/627
f 641/1/627 370/1/612 642/1/629
f 642/1/629 371/1/611 369/1/613
f 639/1/623 370/1/612 372/1/609
f 644/1/631 379/1/632 643/1/633
f 643/1/633 384/1/346 644/1/631
f 645/1/634 383/1/336 644/1/631
f 644/1/631 382/1/345 645/1/634
f 645/1/634 377/1/635 381/1/342
f 646/1/636 382/1/345 378/1/637
f 646/1/636 379/1/632 377/1/635
f 643/1/633 378/1/637 380/1/638
f 648/1/639 647/1/640 107/1/385
f 647/1/640 648/1/639 112/1/90
f 649/1/641 648/1/639 111/1/86
f 648/1/639 649/1/641 110/1/95
f 649/1/641 109/1/96 105/1/387
f 650/1/642 106/1/386 110/1/95
f 650/1/642 105/1/387 107/1/385
f 647/1/640 108/1/383 106/1/386
f 651/1/643 379/1/632 375/1/624
f 652/1/644 376/1/626 380/1/638
f 653/1/645 379/1/632 652/1/644
f 652/1/644 378/1/637 653/1/645
f 654/1/646 377/1/635 653/1/645
f 653/1/645 374/1/628 654/1/646
f 654/1/646 375/1/624 373/1/630
f 651/1/643 374/1/628 376/1/626
f 656/1/647 655/1/648 349/1/649
f 655/1/648 656/1/647 352/1/650
f 657/1/651 656/1/647 351/1/652
f 656/1/647 657/1/651 346/1/653
f 658/1/654 657/1/651 345/1/655
f 657/1/651 658/1/654 348/1/656
f 658/1/654 347/1/657 349/1/649
f 655/1/648 350/1/658 348/1/656
f 389/1/1 390/1/4 359/1/2
f 390/1/4 389/1/1 356/1/5
f 391/1/7 357/1/10 359/1/2
f 390/1/4 360/1/6 358/1/8
f 392/1/9 353/1/12 357/1/10
f 391/1/7 358/1/8 354/1/11
f 392/1/9 389/1/1 355/1/3
f 389/1/1 392/1/9 354/1/11
f 394/1/13 319/1/18 313/1/14
f 393/1/15 314/1/24 320/1/16
f 394/1/13 395/1/19 315/1/17
f 395/1/19 394/1/13 320/1/16
f 395/1/19 396/1/22 317/1/21
f 396/1/22 395/1/19 316/1/20
f 393/1/15 313/1/14 317/1/21
f 396/1/22 318/1/23 314/1/24
f 397/1/25 103/1/27 398/1/28
f 398/1/28 100/1/30 397/1/25
f 399/1/31 103/1/27 101/1/34
f 398/1/28 102/1/32 104/1/29
f 400/1/33 101/1/34 97/1/36
f 399/1/31 98/1/35 102/1/32
f 400/1/33 99/1/26 397/1/25
f 397/1/25 98/1/35 400/1/33
f 401/1/37 402/1/41 253/1/38
f 401/1/37 248/1/60 254/1/40
f 402/1/41 403/1/44 255/1/42
f 402/1/41 254/1/40 256/1/43
f 404/1/45 259/1/48 255/1/42
f 404/1/45 403/1/44 256/1/43
f 405/1/47 257/1/51 259/1/48
f 405/1/47 404/1/45 260/1/46
f 405/1/47 406/1/53 249/1/50
f 405/1/47 258/1/49 250/1/52
f 407/1/54 245/1/57 249/1/50
f 407/1/54 406/1/53 250/1/52
f 408/1/56 251/1/59 245/1/57
f 408/1/56 407/1/54 246/1/55
f 401/1/37 247/1/39 251/1/59
f 401/1/37 408/1/56 252/1/58
f 410/1/61 37/1/67 35/1/62
f 410/1/61 409/1/63 36/1/64
f 410/1/61 411/1/69 33/1/66
f 410/1/61 38/1/65 34/1/68
f 412/1/70 29/1/72 33/1/66
f 412/1/70 411/1/69 34/1/68
f 409/1/63 35/1/62 29/1/72
f 412/1/70 30/1/71 36/1/64
f 414/1/73 93/1/75 95/1/77
f 413/1/74 96/1/76 94/1/84
f 414/1/73 89/1/78 415/1/79
f 415/1/79 96/1/76 414/1/73
f 415/1/79 91/1/81 416/1/82
f 416/1/82 90/1/80 415/1/79
f 413/1/74 91/1/81 93/1/75
f 416/1/82 94/1/84 92/1/83
f 417/1/85 115/1/87 418/1/88
f 418/1/88 112/1/90 417/1/85
f 419/1/91 115/1/87 113/1/94
f 418/1/88 114/1/92 116/1/89
f 420/1/93 113/1/94 109/1/96
f 419/1/91 110/1/95 114/1/92
f 420/1/93 111/1/86 417/1/85
f 417/1/85 110/1/95 420/1/93
f 422/1/97 27/1/103 21/1/98
f 422/1/97 421/1/99 22/1/100
f 422/1/97 423/1/105 23/1/102
f 422/1/97 28/1/101 24/1/104
f 423/1/105 424/1/107 25/1/106
f 424/1/107 423/1/105 24/1/104
f 424/1/107 421/1/99 21/1/98
f 424/1/107 26/1/108 22/1/100
f 425/1/109 127/1/111 426/1/112
f 426/1/112 124/1/114 425/1/109
f 427/1/115 127/1/111 125/1/118
f 426/1/112 126/1/116 128/1/113
f 428/1/117 125/1/118 121/1/120
f 427/1/115 122/1/119 126/1/116
f 428/1/117 123/1/110 425/1/109
f 425/1/109 122/1/119 428/1/117
f 429/1/121 430/1/124 63/1/122
f 430/1/124 429/1/121 62/1/125
f 430/1/124 431/1/128 55/1/127
f 431/1/128 430/1/124 64/1/126
f 432/1/130 57/1/132 55/1/127
f 431/1/128 56/1/129 58/1/131
f 432/1/130 429/1/121 61/1/123
f 429/1/121 432/1/130 58/1/131
f 434/1/133 215/1/139 207/1/134
f 434/1/133 433/1/135 208/1/136
f 435/1/138 219/1/142 215/1/139
f 435/1/138 434/1/133 216/1/137
f 435/1/138 436/1/144 221/1/141
f 435/1/138 220/1/140 222/1/143
f 437/1/145 225/1/148 221/1/141
f 437/1/145 436/1/144 222/1/143
f 437/1/145 438/1/149 227/1/147
f 438/1/149 437/1/145 226/1/146
f 438/1/149 439/1/153 223/1/151
f 438/1/149 228/1/150 224/1/152
f 439/1/153 440/1/156 217/1/154
f 439/1/153 224/1/152 218/1/155
f 441/1/157 203/1/160 217/1/154
f 441/1/157 440/1/156 218/1/155
f 442/1/159 205/1/163 203/1/160
f 441/1/157 204/1/158 206/1/161
f 442/1/159 443/1/165 211/1/162
f 442/1/159 206/1/161 212/1/164
f 444/1/166 213/1/169 211/1/162
f 444/1/166 443/1/165 212/1/164
f 444/1/166 445/1/171 209/1/168
f 444/1/166 214/1/167 210/1/170
f 445/1/171 433/1/135 207/1/134
f 445/1/171 210/1/170 208/1/136
f 446/1/172 447/1/175 337/1/173
f 447/1/175 446/1/172 330/1/176
f 447/1/175 448/1/179 335/1/178
f 448/1/179 447/1/175 338/1/177
f 449/1/181 331/1/183 335/1/178
f 448/1/179 336/1/180 332/1/182
f 446/1/172 329/1/174 331/1/183
f 449/1/181 332/1/182 330/1/176
f 451/1/184 47/1/190 39/1/185
f 451/1/184 450/1/186 40/1/187
f 451/1/184 452/1/191 45/1/189
f 452/1/191 451/1/184 48/1/188
f 453/1/193 43/1/195 45/1/189
f 453/1/193 452/1/191 46/1/192
f 453/1/193 450/1/186 39/1/185
f 453/1/193 44/1/194 40/1/187
f 454/1/196 455/1/197 43/1/195
f 455/1/197 454/1/196 40/1/187
f 456/1/198 33/1/66 43/1/195
f 455/1/197 44/1/194 34/1/68
f 457/1/199 37/1/67 33/1/66
f 456/1/198 34/1/68 38/1/65
f 457/1/199 454/1/196 39/1/185
f 454/1/196 457/1/199 38/1/65
f 458/1/200 459/1/202 41/1/201
f 459/1/202 458/1/200 22/1/100
f 460/1/204 31/1/207 41/1/201
f 459/1/202 42/1/203 32/1/205
f 461/1/206 27/1/103 31/1/207
f 460/1/204 32/1/205 28/1/101
f 461/1/206 458/1/200 21/1/98
f 458/1/200 461/1/206 28/1/101
f 463/1/208 51/1/212 49/1/209
f 462/1/210 50/1/215 52/1/211
f 463/1/208 464/1/213 31/1/207
f 463/1/208 52/1/211 32/1/205
f 465/1/214 41/1/201 31/1/207
f 465/1/214 464/1/213 32/1/205
f 465/1/214 462/1/210 49/1/209
f 465/1/214 42/1/203 50/1/215
f 466/1/216 467/1/220 279/1/217
f 466/1/216 284/1/254 280/1/219
f 468/1/221 275/1/224 279/1/217
f 468/1/221 467/1/220 280/1/219
f 469/1/223 273/1/227 275/1/224
f 469/1/223 468/1/221 276/1/222
f 469/1/223 470/1/229 265/1/226
f 469/1/223 274/1/225 266/1/228
f 471/1/230 261/1/233 265/1/226
f 471/1/230 470/1/229 266/1/228
f 472/1/232 269/1/236 261/1/233
f 472/1/232 471/1/230 262/1/231
f 472/1/232 473/1/238 267/1/235
f 472/1/232 270/1/234 268/1/237
f 473/1/238 474/1/241 263/1/239
f 473/1/238 268/1/237 264/1/240
f 475/1/242 271/1/245 263/1/239
f 475/1/242 474/1/241 264/1/240
f 476/1/244 277/1/248 271/1/245
f 476/1/244 475/1/242 272/1/243
f 476/1/244 477/1/249 281/1/247
f 477/1/249 476/1/244 278/1/246
f 477/1/249 478/1/253 285/1/251
f 477/1/249 282/1/250 286/1/252
f 478/1/253 466/1/216 283/1/218
f 478/1/253 286/1/252 284/1/254
f 480/1/255 149/1/257 151/1/259
f 479/1/256 152/1/258 150/1/266
f 480/1/255 147/1/260 481/1/261
f 481/1/261 152/1/258 480/1/255
f 481/1/261 145/1/263 482/1/264
f 482/1/264 148/1/262 481/1/261
f 479/1/256 145/1/263 149/1/257
f 482/1/264 150/1/266 146/1/265
f 483/1/267 484/1/268 43/1/195
f 484/1/268 483/1/267 34/1/68
f 485/1/269 41/1/201 43/1/195
f 484/1/268 44/1/194 42/1/203
f 486/1/270 21/1/98 41/1/201
f 485/1/269 42/1/203 22/1/100
f 483/1/267 33/1/66 21/1/98
f 486/1/270 22/1/100 34/1/68
f 487/1/271 87/1/273 488/1/274
f 488/1/274 84/1/276 487/1/271
f 489/1/277 87/1/273 85/1/280
f 488/1/274 86/1/278 88/1/275
f 490/1/279 85/1/280 81/1/282
f 489/1/277 82/1/281 86/1/278
f 487/1/271 81/1/282 83/1/272
f 490/1/279 84/1/276 82/1/281
f 491/1/283 19/1/285 492/1/286
f 492/1/286 18/1/288 491/1/283
f 493/1/289 19/1/285 13/1/292
f 492/1/286 14/1/290 20/1/287
f 494/1/291 13/1/292 15/1/294
f 493/1/289 16/1/293 14/1/290
f 494/1/291 17/1/284 491/1/283
f 491/1/283 16/1/293 494/1/291
f 496/1/295 133/1/297 135/1/300
f 495/1/296 136/1/298 134/1/306
f 497/1/299 135/1/300 131/1/302
f 496/1/295 132/1/301 136/1/298
f 497/1/299 129/1/303 498/1/304
f 498/1/304 132/1/301 497/1/299
f 498/1/304 133/1/297 495/1/296
f 495/1/296 130/1/305 498/1/304
f 500/1/307 77/1/309 83/1/272
f 499/1/308 84/1/276 78/1/314
f 501/1/310 83/1/272 81/1/282
f 500/1/307 82/1/281 84/1/276
f 501/1/310 79/1/311 502/1/312
f 502/1/312 82/1/281 501/1/310
f 502/1/312 77/1/309 499/1/308
f 499/1/308 80/1/313 502/1/312
f 504/1/315 77/1/309 79/1/311
f 503/1/316 80/1/313 78/1/314
f 504/1/315 69/1/317 505/1/318
f 505/1/318 80/1/313 504/1/315
f 505/1/318 73/1/320 506/1/321
f 506/1/321 70/1/319 505/1/318
f 503/1/316 73/1/320 77/1/309
f 506/1/321 78/1/314 74/1/322
f 508/1/323 367/1/328 363/1/324
f 507/1/325 364/1/334 368/1/326
f 509/1/327 365/1/331 367/1/328
f 508/1/323 368/1/326 366/1/329
f 509/1/327 510/1/332 361/1/330
f 510/1/332 509/1/327 366/1/329
f 510/1/332 507/1/325 363/1/324
f 507/1/325 510/1/332 362/1/333
f 512/1/335 387/1/340 383/1/336
f 511/1/337 384/1/346 388/1/338
f 513/1/339 385/1/343 387/1/340
f 512/1/335 388/1/338 386/1/341
f 513/1/339 514/1/344 381/1/342
f 514/1/344 513/1/339 386/1/341
f 514/1/344 511/1/337 383/1/336
f 511/1/337 514/1/344 382/1/345
f 515/1/347 516/1/350 67/1/348
f 516/1/350 515/1/347 66/1/351
f 516/1/350 517/1/353 63/1/122
f 517/1/353 516/1/350 68/1/352
f 518/1/354 61/1/123 63/1/122
f 517/1/353 64/1/126 62/1/125
f 515/1/347 65/1/349 61/1/123
f 518/1/354 62/1/125 66/1/351
f 519/1/355 520/1/358 165/1/356
f 520/1/358 519/1/355 176/1/359
f 521/1/361 169/1/364 165/1/356
f 520/1/358 166/1/360 170/1/362
f 521/1/361 522/1/366 167/1/363
f 521/1/361 170/1/362 168/1/365
f 523/1/367 171/1/370 167/1/363
f 523/1/367 522/1/366 168/1/365
f 524/1/369 173/1/372 171/1/370
f 524/1/369 523/1/367 172/1/368
f 524/1/369 519/1/355 175/1/357
f 519/1/355 524/1/369 174/1/371
f 525/1/373 99/1/26 526/1/374
f 526/1/374 94/1/84 525/1/373
f 527/1/375 99/1/26 97/1/36
f 526/1/374 98/1/35 100/1/30
f 528/1/376 97/1/36 95/1/77
f 527/1/375 96/1/76 98/1/35
f 528/1/376 93/1/75 525/1/373
f 525/1/373 96/1/76 528/1/376
f 530/1/377 33/1/66 29/1/72
f 529/1/378 30/1/71 34/1/68
f 531/1/379 21/1/98 33/1/66
f 530/1/377 34/1/68 22/1/100
f 531/1/379 532/1/380 25/1/106
f 532/1/380 531/1/379 22/1/100
f 529/1/378 29/1/72 25/1/106
f 529/1/378 532/1/380 26/1/108
f 534/1/381 103/1/27 107/1/385
f 533/1/382 108/1/383 104/1/29
f 535/1/384 107/1/385 105/1/387
f 534/1/381 106/1/386 108/1/383
f 535/1/384 101/1/34 536/1/388
f 536/1/388 106/1/386 535/1/384
f 536/1/388 103/1/27 533/1/382
f 533/1/382 102/1/32 536/1/388
f 538/1/389 59/1/393 53/1/390
f 537/1/391 54/1/396 60/1/392
f 538/1/389 539/1/394 57/1/132
f 539/1/394 538/1/389 60/1/392
f 539/1/394 540/1/395 55/1/127
f 539/1/394 58/1/131 56/1/129
f 537/1/391 53/1/390 55/1/127
f 540/1/395 56/1/129 54/1/396
f 541/1/397 542/1/401 177/1/398
f 541/1/397 184/1/435 178/1/400
f 543/1/402 187/1/405 177/1/398
f 543/1/402 542/1/401 178/1/400
f 543/1/402 544/1/407 189/1/404
f 543/1/402 188/1/403 190/1/406
f 544/1/407 545/1/410 193/1/408
f 544/1/407 190/1/406 194/1/409
f 546/1/411 197/1/414 193/1/408
f 546/1/411 545/1/410 194/1/409
f 547/1/413 201/1/417 197/1/414
f 547/1/413 546/1/411 198/1/412
f 547/1/413 548/1/419 199/1/416
f 547/1/413 202/1/415 200/1/418
f 549/1/420 195/1/423 199/1/416
f 549/1/420 548/1/419 200/1/418
f 549/1/420 550/1/424 191/1/422
f 550/1/424 549/1/420 196/1/421
f 550/1/424 551/1/428 179/1/426
f 550/1/424 192/1/425 180/1/427
f 552/1/429 181/1/432 179/1/426
f 552/1/429 551/1/428 180/1/427
f 553/1/431 185/1/434 181/1/432
f 553/1/431 552/1/429 182/1/430
f 541/1/397 183/1/399 185/1/434
f 553/1/431 186/1/433 184/1/435
f 555/1/436 145/1/263 147/1/260
f 554/1/437 148/1/262 146/1/265
f 555/1/436 143/1/438 556/1/439
f 556/1/439 148/1/262 555/1/436
f 556/1/439 141/1/441 557/1/442
f 557/1/442 144/1/440 556/1/439
f 554/1/437 141/1/441 145/1/263
f 557/1/442 146/1/265 142/1/443
f 558/1/444 559/1/448 231/1/445
f 558/1/444 242/1/467 232/1/447
f 560/1/449 237/1/452 231/1/445
f 560/1/449 559/1/448 232/1/447
f 560/1/449 561/1/454 239/1/451
f 560/1/449 238/1/450 240/1/453
f 561/1/454 562/1/457 233/1/455
f 561/1/454 240/1/453 234/1/456
f 563/1/458 229/1/461 233/1/455
f 563/1/458 562/1/457 234/1/456
f 564/1/460 235/1/464 229/1/461
f 564/1/460 563/1/458 230/1/459
f 564/1/460 565/1/466 243/1/463
f 564/1/460 236/1/462 244/1/465
f 565/1/466 558/1/444 241/1/446
f 565/1/466 244/1/465 242/1/467
f 566/1/468 119/1/469 567/1/470
f 567/1/470 116/1/89 566/1/468
f 568/1/472 119/1/469 117/1/475
f 567/1/470 118/1/473 120/1/471
f 569/1/474 117/1/475 113/1/94
f 568/1/472 114/1/92 118/1/473
f 569/1/474 115/1/87 566/1/468
f 566/1/468 114/1/92 569/1/474
f 571/1/476 129/1/303 131/1/302
f 570/1/477 132/1/301 130/1/305
f 572/1/478 131/1/302 121/1/120
f 571/1/476 122/1/119 132/1/301
f 572/1/478 125/1/118 573/1/479
f 573/1/479 122/1/119 572/1/478
f 573/1/479 129/1/303 570/1/477
f 570/1/477 126/1/116 573/1/479
f 574/1/480 75/1/482 575/1/483
f 575/1/483 72/1/485 574/1/480
f 575/1/483 73/1/320 576/1/486
f 576/1/486 76/1/484 575/1/483
f 577/1/487 73/1/320 69/1/317
f 576/1/486 70/1/319 74/1/322
f 574/1/480 69/1/317 71/1/481
f 577/1/487 72/1/485 70/1/319
f 579/1/488 137/1/490 139/1/493
f 578/1/489 140/1/491 138/1/495
f 580/1/492 139/1/493 135/1/300
f 579/1/488 136/1/298 140/1/491
f 581/1/494 135/1/300 133/1/297
f 580/1/492 134/1/306 136/1/298
f 581/1/494 137/1/490 578/1/489
f 578/1/489 134/1/306 581/1/494
f 583/1/496 311/1/502 309/1/497
f 583/1/496 582/1/498 310/1/499
f 583/1/496 584/1/504 307/1/501
f 583/1/496 312/1/500 308/1/503
f 584/1/504 585/1/507 303/1/505
f 584/1/504 308/1/503 304/1/506
f 586/1/508 301/1/511 303/1/505
f 586/1/508 585/1/507 304/1/506
f 586/1/508 587/1/513 297/1/510
f 586/1/508 302/1/509 298/1/512
f 587/1/513 588/1/516 287/1/514
f 587/1/513 298/1/512 288/1/515
f 589/1/517 289/1/520 287/1/514
f 589/1/517 588/1/516 288/1/515
f 590/1/519 293/1/523 289/1/520
f 590/1/519 589/1/517 290/1/518
f 591/1/522 291/1/526 293/1/523
f 591/1/522 590/1/519 294/1/521
f 592/1/525 295/1/529 291/1/526
f 591/1/522 292/1/524 296/1/527
f 592/1/525 593/1/531 299/1/528
f 592/1/525 296/1/527 300/1/530
f 593/1/531 594/1/534 305/1/532
f 593/1/531 300/1/530 306/1/533
f 582/1/498 309/1/497 305/1/532
f 582/1/498 594/1/534 306/1/533
f 595/1/535 139/1/493 596/1/536
f 596/1/536 144/1/440 595/1/535
f 597/1/537 139/1/493 137/1/490
f 596/1/536 138/1/495 140/1/491
f 598/1/538 137/1/490 141/1/441
f 597/1/537 142/1/443 138/1/495
f 595/1/535 141/1/441 143/1/438
f 598/1/538 144/1/440 142/1/443
f 599/1/539 600/1/543 161/1/540
f 599/1/539 164/1/556 162/1/542
f 600/1/543 601/1/546 157/1/544
f 600/1/543 162/1/542 158/1/545
f 602/1/547 155/1/550 157/1/544
f 602/1/547 601/1/546 158/1/545
f 602/1/547 603/1/551 153/1/549
f 603/1/551 602/1/547 156/1/548
f 604/1/553 159/1/555 153/1/549
f 603/1/551 154/1/552 160/1/554
f 604/1/553 599/1/539 163/1/541
f 599/1/539 604/1/553 160/1/554
f 605/1/557 606/1/560 327/1/558
f 606/1/560 605/1/557 324/1/561
f 607/1/563 325/1/566 327/1/558
f 606/1/560 328/1/562 326/1/564
f 608/1/565 321/1/568 325/1/566
f 607/1/563 326/1/564 322/1/567
f 608/1/565 605/1/557 323/1/559
f 605/1/557 608/1/565 322/1/567
f 609/1/569 7/1/571 610/1/572
f 609/1/569 8/1/573 10/1/586
f 611/1/574 7/1/571 5/1/576
f 611/1/574 8/1/573 610/1/572
f 611/1/574 1/1/577 612/1/578
f 612/1/578 6/1/575 611/1/574
f 612/1/578 3/1/580 613/1/581
f 612/1/578 4/1/582 2/1/579
f 614/1/583 3/1/580 11/1/585
f 614/1/583 4/1/582 613/1/581
f 609/1/569 11/1/585 9/1/570
f 614/1/583 10/1/586 12/1/584
f 615/1/587 616/1/588 41/1/201
f 616/1/588 615/1/587 50/1/215
f 617/1/589 43/1/195 41/1/201
f 616/1/588 42/1/203 44/1/194
f 618/1/590 45/1/189 43/1/195
f 617/1/589 44/1/194 46/1/192
f 618/1/590 615/1/587 49/1/209
f 615/1/587 618/1/590 46/1/192
f 619/1/591 91/1/81 620/1/592
f 620/1/592 88/1/275 619/1/591
f 621/1/593 91/1/81 89/1/78
f 620/1/592 90/1/80 92/1/83
f 622/1/594 89/1/78 85/1/280
f 621/1/593 86/1/278 90/1/80
f 622/1/594 87/1/273 619/1/591
f 619/1/591 86/1/278 622/1/594
f 623/1/595 624/1/598 333/1/596
f 624/1/598 623/1/595 344/1/599
f 624/1/598 625/1/602 339/1/601
f 625/1/602 624/1/598 334/1/600
f 625/1/602 626/1/605 341/1/604
f 626/1/605 625/1/602 340/1/603
f 626/1/605 623/1/595 343/1/597
f 623/1/595 626/1/605 342/1/606
f 628/1/607 371/1/611 367/1/328
f 627/1/608 368/1/326 372/1/609
f 629/1/610 369/1/613 371/1/611
f 628/1/607 372/1/609 370/1/612
f 629/1/610 630/1/614 365/1/331
f 630/1/614 629/1/610 370/1/612
f 630/1/614 627/1/608 367/1/328
f 627/1/608 630/1/614 366/1/329
f 631/1/615 632/1/616 339/1/601
f 632/1/616 631/1/615 332/1/182
f 632/1/616 633/1/617 333/1/596
f 633/1/617 632/1/616 340/1/603
f 634/1/618 329/1/174 333/1/596
f 633/1/617 334/1/600 330/1/176
f 634/1/618 631/1/615 331/1/183
f 631/1/615 634/1/618 330/1/176
f 635/1/619 636/1/620 363/1/324
f 636/1/620 635/1/619 358/1/8
f 637/1/621 361/1/330 363/1/324
f 636/1/620 364/1/334 362/1/333
f 638/1/622 353/1/12 361/1/330
f 637/1/621 362/1/333 354/1/11
f 638/1/622 635/1/619 357/1/10
f 635/1/619 638/1/622 354/1/11
f 639/1/623 640/1/625 375/1/624
f 640/1/625 639/1/623 372/1/609
f 641/1/627 373/1/630 375/1/624
f 640/1/625 376/1/626 374/1/628
f 642/1/629 369/1/613 373/1/630
f 641/1/627 374/1/628 370/1/612
f 642/1/629 639/1/623 371/1/611
f 639/1/623 642/1/629 370/1/612
f 644/1/631 383/1/336 379/1/632
f 643/1/633 380/1/638 384/1/346
f 645/1/634 381/1/342 383/1/336
f 644/1/631 384/1/346 382/1/345
f 645/1/634 646/1/636 377/1/635
f 646/1/636 645/1/634 382/1/345
f 646/1/636 643/1/633 379/1/632
f 643/1/633 646/1/636 378/1/637
f 648/1/639 107/1/385 111/1/86
f 647/1/640 112/1/90 108/1/383
f 649/1/641 111/1/86 109/1/96
f 648/1/639 110/1/95 112/1/90
f 649/1/641 105/1/387 650/1/642
f 650/1/642 110/1/95 649/1/641
f 650/1/642 107/1/385 647/1/640
f 647/1/640 106/1/386 650/1/642
f 651/1/643 652/1/644 379/1/632
f 652/1/644 651/1/643 376/1/626
f 653/1/645 377/1/635 379/1/632
f 652/1/644 380/1/638 378/1/637
f 654/1/646 373/1/630 377/1/635
f 653/1/645 378/1/637 374/1/628
f 654/1/646 651/1/643 375/1/624
f 651/1/643 654/1/646 374/1/628
f 656/1/647 349/1/649 351/1/652
f 655/1/648 352/1/650 350/1/658
f 657/1/651 351/1/652 345/1/655
f 656/1/647 346/1/653 352/1/650
f 658/1/654 345/1/655 347/1/657
f 657/1/651 348/1/656 346/1/653
f 658/1/654 349/1/649 655/1/648
f 655/1/648 348/1/656 658/1/654
