# Blender 4.5.3 LTS
# www.blender.org
mtllib glass-body.mtl
o RenderMesh_18687757654
v 1.314610 0.508902 0.062727
v 1.312972 0.507754 0.062727
v 1.423851 0.353056 -0.156818
v 1.421939 0.352468 -0.156818
v 1.314610 0.508902 -0.062727
v 1.312972 0.507754 -0.062727
v 1.423851 0.353056 0.156818
v 1.421939 0.352468 0.156818
v 1.423851 0.279900 0.125454
v 1.421855 0.280028 0.125454
v 1.423851 0.279900 -0.125454
v 1.421855 0.280028 -0.125454
v 1.341769 -0.283123 0.125454
v 1.339778 -0.282932 0.125454
v 1.341769 -0.283123 -0.125454
v 1.339778 -0.282932 -0.125454
v 1.339190 -0.338627 0.125454
v 1.337199 -0.338439 0.125454
v 1.339190 -0.338627 -0.125454
v 1.337199 -0.338439 -0.125454
v 1.331396 -0.393173 0.125454
v 1.330086 -0.391662 0.125454
v 1.331396 -0.393173 -0.125454
v 1.330086 -0.391662 -0.125454
v 0.983070 -0.393173 -0.125454
v 0.983070 -0.391173 -0.125454
v 0.983070 -0.393173 0.125454
v 0.983070 -0.391173 0.125454
v 0.623343 -0.111863 0.125454
v 0.621416 -0.111326 0.125454
v 0.623343 -0.111863 -0.125454
v 0.621416 -0.111326 -0.125454
v 0.648001 -0.023381 -0.125454
v 0.646074 -0.022844 -0.125454
v 0.648001 -0.023381 0.125454
v 0.646074 -0.022844 0.125454
v -0.403959 0.508902 0.062727
v -0.403959 0.506902 0.062727
v 1.314610 0.508902 0.062727
v 1.314610 0.506902 0.062727
v -0.403959 0.508902 -0.062727
v -0.403959 0.506902 -0.062727
v 1.314610 0.508902 -0.062727
v 1.314610 0.506902 -0.062727
v -1.167603 0.279900 0.125454
v -1.167603 0.277900 0.125454
v -0.403959 0.279900 0.125454
v -0.402393 0.278655 0.125454
v -1.167603 0.279900 -0.125454
v -1.167603 0.277900 -0.125454
v -0.403959 0.279900 -0.125454
v -0.402393 0.278655 -0.125454
v -0.403959 0.508902 -0.062727
v -0.401959 0.508902 -0.062727
v -0.403959 0.353056 -0.156818
v -0.401959 0.353056 -0.156818
v -0.403959 0.508902 0.062727
v -0.401959 0.508902 0.062727
v -0.403959 0.353056 0.156818
v -0.401959 0.353056 0.156818
v -1.382208 -0.508902 -0.064601
v -1.382208 -0.506902 -0.064601
v -1.218222 -0.508902 0.065271
v -1.218222 -0.506902 0.065271
v -1.382208 -0.508902 0.065271
v -1.382208 -0.506902 0.065271
v -1.423851 -0.508902 0.024378
v -1.423851 -0.506902 0.024378
v -1.423851 -0.508902 -0.023708
v -1.423851 -0.506902 -0.023708
v -1.218222 -0.508902 -0.064601
v -1.218222 -0.506902 -0.064601
v -1.177094 -0.508902 0.024378
v -1.177094 -0.506902 0.024378
v -1.177094 -0.508902 -0.023708
v -1.177094 -0.506902 -0.023708
v -1.208048 0.088506 -0.064601
v -1.208764 0.088608 -0.062736
v -1.244255 -0.132276 -0.064601
v -1.244966 -0.132292 -0.062732
v -1.343472 0.088506 -0.064601
v -1.342712 0.088506 -0.062751
v -1.180712 0.057765 -0.023708
v -1.182529 0.058001 -0.022906
v -1.384890 -0.132276 -0.023708
v -1.383051 -0.132368 -0.022928
v -1.384890 0.088506 -0.023708
v -1.383045 0.088506 -0.022937
v -1.356382 -0.262147 -0.064601
v -1.355583 -0.262147 -0.062768
v -1.384890 0.088506 0.024378
v -1.383045 0.088506 0.023607
v -1.384890 -0.132276 0.024378
v -1.383051 -0.132368 0.023598
v -1.343472 0.088506 0.065271
v -1.342712 0.088506 0.063421
v -1.244255 -0.132276 0.065271
v -1.244966 -0.132292 0.063402
v -1.208048 0.088506 0.065271
v -1.208764 0.088608 0.063406
v -1.356382 -0.262147 0.065271
v -1.355583 -0.262147 0.063438
v -1.180712 0.057765 0.024378
v -1.182529 0.058001 0.023576
v -1.203069 -0.132276 0.024378
v -1.204915 -0.132339 0.023610
v -1.397877 -0.262147 0.024378
v -1.396025 -0.262147 0.023623
v -1.397877 -0.262147 -0.023708
v -1.396025 -0.262147 -0.022953
v -1.384890 -0.392018 0.024378
v -1.383073 -0.392230 0.023570
v -1.218261 -0.262147 0.065271
v -1.219062 -0.262230 0.063440
v -1.343306 -0.392018 0.065271
v -1.342640 -0.392086 0.063386
v -1.177094 -0.262147 0.024378
v -1.178939 -0.262327 0.023628
v -1.384890 -0.392018 -0.023708
v -1.383073 -0.392230 -0.022899
v -1.382208 -0.508902 0.065271
v -1.381336 -0.509193 0.063495
v -1.423851 -0.508902 0.024378
v -1.422070 -0.509495 0.023688
v -1.423851 -0.508902 -0.023708
v -1.422070 -0.509495 -0.023018
v -1.218222 -0.508902 0.065271
v -1.218984 -0.508902 0.063422
v -1.382208 -0.508902 -0.064601
v -1.381336 -0.509193 -0.062825
v -1.177094 -0.508902 0.024378
v -1.178941 -0.508902 0.023610
v -1.343306 -0.392018 -0.064601
v -1.342640 -0.392086 -0.062716
v -1.218222 -0.508902 -0.064601
v -1.218984 -0.508902 -0.062752
v -1.177094 -0.508902 -0.023708
v -1.178941 -0.508902 -0.022940
v -1.177094 -0.262147 -0.023708
v -1.178939 -0.262327 -0.022958
v -1.218261 -0.262147 -0.064601
v -1.219062 -0.262230 -0.062770
v -1.203069 -0.132276 -0.023708
v -1.204915 -0.132339 -0.022940
v -0.741184 -0.277736 -0.125454
v -0.739860 -0.276237 -0.125453
v -0.741184 -0.277736 0.125454
v -0.739860 -0.276237 0.125455
v -0.623033 -0.335276 -0.125454
v -0.622584 -0.333327 -0.125454
v -0.957079 0.053034 0.125454
v -0.955515 0.054280 0.125455
v -0.623033 -0.335276 0.125454
v -0.622584 -0.333327 0.125454
v -0.236790 -0.335276 -0.125454
v -0.236790 -0.333276 -0.125454
v -0.236790 -0.335276 0.125454
v -0.236790 -0.333276 0.125454
v -0.957079 0.053034 -0.125454
v -0.955515 0.054280 -0.125454
v -1.074358 0.174737 0.125454
v -1.072918 0.176125 0.125454
v -1.074358 0.174737 -0.125454
v -1.072918 0.176125 -0.125454
v -0.403959 0.279900 0.125454
v -0.403825 0.280167 0.123476
v -0.359803 0.109088 0.125454
v -0.359803 0.109087 0.123454
v -0.234666 0.174024 0.125454
v -0.234666 0.174025 0.123454
v 0.172671 0.109088 0.125454
v 0.172672 0.109088 0.123454
v -0.576910 0.177796 0.125454
v -0.576909 0.177796 0.123454
v -0.576910 0.055268 0.125454
v -0.576909 0.055268 0.123454
v -0.351201 0.055268 0.125454
v -0.351200 0.055268 0.123454
v -0.458198 -0.217425 0.125454
v -0.458197 -0.217426 0.123454
v -0.236790 -0.264737 0.125454
v -0.236789 -0.264737 0.123454
v -0.236790 -0.335276 0.125454
v -0.236789 -0.335276 0.123454
v -0.509812 -0.274200 0.125454
v -0.509812 -0.274201 0.123454
v -0.623033 -0.335276 0.125454
v -0.623033 -0.335277 0.123454
v -0.646330 -0.275645 0.125454
v -0.646330 -0.275645 0.123454
v -0.741184 -0.277736 0.125454
v -0.741184 -0.277736 0.123454
v -0.868765 0.054564 0.125454
v -0.868765 0.054564 0.123454
v -0.957079 0.053034 0.125454
v -0.957079 0.053034 0.123454
v -0.868765 0.119500 0.125454
v -0.868636 0.119539 0.123458
v -1.074358 0.174737 0.125454
v -1.074358 0.174737 0.123454
v -0.814965 0.176266 0.125454
v -0.814965 0.176687 0.123499
v -1.167603 0.279900 0.125454
v -1.167604 0.279900 0.123454
v -1.167603 0.174024 0.125454
v -1.167603 0.174023 0.123454
v 1.423851 0.353056 0.156818
v 1.423292 0.353248 0.154907
v -0.403959 0.353056 0.156818
v -0.404157 0.352721 0.154856
v 1.314610 0.508902 0.062727
v 1.314610 0.507869 0.061014
v -0.403959 0.508902 0.062727
v -0.403959 0.508976 0.060728
v 1.423851 0.279900 0.125454
v 1.423851 0.279831 0.123455
v 0.648001 -0.023381 0.125454
v 0.648001 -0.023380 0.123454
v 0.210350 -0.002772 0.125454
v 0.210350 -0.002771 0.123454
v 0.623343 -0.111863 0.125454
v 0.623344 -0.111863 0.123454
v 1.037616 -0.283123 0.125454
v 1.037616 -0.283123 0.123454
v 1.341769 -0.283123 0.125454
v 1.341770 -0.283123 0.123454
v 1.339190 -0.338627 0.125454
v 1.339191 -0.338627 0.123454
v 1.331396 -0.393173 0.125454
v 1.331397 -0.393173 0.123454
v 0.983070 -0.393173 0.125454
v 0.983070 -0.393172 0.123454
v 0.983070 -0.338627 0.125454
v 0.983069 -0.338627 0.123454
v 1.314610 0.508902 -0.062727
v 1.314611 0.507869 -0.061015
v -0.403959 0.353056 -0.156818
v -0.403959 0.352918 -0.154823
v -0.403959 0.508902 -0.062727
v -0.403959 0.508976 -0.060728
v 1.423851 0.353056 -0.156818
v 1.424515 0.353126 -0.154933
v -0.403959 0.279900 -0.125454
v -0.403959 0.279937 -0.123454
v 1.423851 0.279900 -0.125454
v 1.423987 0.280160 -0.123476
v 0.172671 0.109088 -0.125454
v 0.172671 0.109088 -0.123454
v 0.648001 -0.023381 -0.125454
v 0.648001 -0.023381 -0.123454
v 0.210350 -0.002772 -0.125454
v 0.210350 -0.002772 -0.123454
v 0.623343 -0.111863 -0.125454
v 0.623343 -0.111863 -0.123454
v -0.234666 0.174024 -0.125454
v -0.234666 0.174024 -0.123454
v 1.037616 -0.283123 -0.125454
v 1.037616 -0.283123 -0.123454
v -0.359803 0.109088 -0.125454
v -0.359803 0.109088 -0.123454
v 1.341769 -0.283123 -0.125454
v 1.341769 -0.283123 -0.123454
v 1.339190 -0.338627 -0.125454
v 1.339190 -0.338627 -0.123454
v 1.331396 -0.393173 -0.125454
v 1.331396 -0.393173 -0.123454
v 0.983070 -0.393173 -0.125454
v 0.983070 -0.393173 -0.123454
v 0.983070 -0.338627 -0.125454
v 0.983070 -0.338627 -0.123454
v -0.576910 0.177796 -0.125454
v -0.576910 0.177796 -0.123454
v -0.576910 0.055268 -0.125454
v -0.576910 0.055535 -0.123472
v -0.814965 0.176266 -0.125454
v -0.814965 0.176266 -0.123454
v -0.351201 0.055268 -0.125454
v -0.351201 0.055268 -0.123454
v -1.167603 0.279900 -0.125454
v -1.167603 0.279900 -0.123454
v -0.458198 -0.217425 -0.125454
v -0.458198 -0.217004 -0.123499
v -0.236790 -0.264737 -0.125454
v -0.236790 -0.264737 -0.123454
v -0.236790 -0.335276 -0.125454
v -0.236790 -0.335276 -0.123454
v -0.509812 -0.274200 -0.125454
v -0.509812 -0.274200 -0.123454
v -0.623033 -0.335276 -0.125454
v -0.623033 -0.335276 -0.123454
v -0.646330 -0.275645 -0.125454
v -0.646330 -0.275645 -0.123454
v -0.741184 -0.277736 -0.125454
v -0.741184 -0.277736 -0.123454
v -0.868765 0.054564 -0.125454
v -0.868765 0.054564 -0.123454
v -0.957079 0.053034 -0.125454
v -0.957079 0.053034 -0.123454
v -0.868765 0.119500 -0.125454
v -0.868765 0.119499 -0.123454
v -1.074358 0.174737 -0.125454
v -1.074358 0.174737 -0.123454
v -1.167603 0.174024 -0.125454
v -1.167603 0.174024 -0.123454
v -0.359803 0.109088 0.125454
v -0.361699 0.109486 0.124958
v -0.359803 0.109088 -0.125454
v -0.361104 0.110463 -0.124810
v -0.234666 0.174024 -0.125454
v -0.234764 0.176009 -0.125226
v -0.351201 0.055268 0.125454
v -0.353138 0.054771 0.125454
v -0.234666 0.174024 0.125454
v -0.235596 0.175678 0.124823
v 0.172671 0.109088 -0.125454
v 0.172986 0.111063 -0.125454
v 0.172671 0.109088 0.125454
v 0.172352 0.111062 0.125454
v -0.351201 0.055268 -0.125454
v -0.353179 0.055562 -0.125454
v -0.236790 -0.264737 0.125454
v -0.238745 -0.265076 0.125204
v -0.236790 -0.264737 -0.125454
v -0.238761 -0.265079 -0.125454
v -0.236790 -0.335276 0.125454
v -0.238790 -0.335276 0.125454
v -0.236790 -0.335276 -0.125454
v -0.238761 -0.335618 -0.125454
v -0.868765 0.119500 0.125454
v -0.870679 0.119794 0.124955
v -0.868765 0.119500 -0.125454
v -0.870270 0.120718 -0.124952
v -0.814965 0.176266 -0.125454
v -0.815485 0.178176 -0.125171
v -0.868765 0.054564 0.125454
v -0.870678 0.053980 0.125453
v -0.814965 0.176266 0.125454
v -0.816195 0.177748 0.124915
v -0.576910 0.177796 -0.125454
v -0.576923 0.179796 -0.125454
v -0.576910 0.177796 0.125454
v -0.577706 0.179631 0.125454
v -0.868765 0.054564 -0.125454
v -0.870186 0.054130 -0.124116
v -0.646330 -0.275645 0.125454
v -0.646945 -0.276816 0.123954
v -0.646330 -0.275645 -0.125454
v -0.647260 -0.277416 -0.125454
v -0.509812 -0.274200 0.125454
v -0.508467 -0.275528 0.124799
v -0.509812 -0.274200 -0.125454
v -0.509629 -0.276089 -0.124822
v -0.458198 -0.217425 0.125454
v -0.456216 -0.217489 0.125195
v -0.458198 -0.217425 -0.125454
v -0.456568 -0.218372 -0.124785
v -0.576910 0.055268 0.125454
v -0.574933 0.055532 0.125309
v -0.576910 0.055268 -0.125454
v -0.574932 0.055415 -0.125195
v -0.576910 0.177796 0.125454
v -0.574910 0.177796 0.125454
v -0.576910 0.177796 -0.125454
v -0.574952 0.178204 -0.125454
v -1.343472 0.088506 0.065271
v -1.343472 0.086506 0.065271
v -1.343472 0.088506 -0.064601
v -1.343472 0.086506 -0.064601
v -1.384890 0.088506 -0.023708
v -1.384890 0.086506 -0.023708
v -1.384890 0.088506 0.024378
v -1.384890 0.086506 0.024378
v -1.208048 0.088506 -0.064601
v -1.208589 0.086581 -0.064601
v -1.208048 0.088506 0.065271
v -1.208589 0.086581 0.065271
v -1.180712 0.057765 0.024378
v -1.182207 0.056436 0.024378
v -1.180712 0.057765 -0.023708
v -1.182207 0.056436 -0.023708
v 0.210350 -0.002772 -0.125454
v 0.210861 -0.000838 -0.125454
v 0.623343 -0.111863 -0.125454
v 0.623854 -0.109929 -0.125454
v 0.210350 -0.002772 0.125454
v 0.210861 -0.000838 0.125454
v 0.623343 -0.111863 0.125454
v 0.623854 -0.109929 0.125454
v -1.167603 0.174024 0.125454
v -1.167618 0.176024 0.125454
v -1.167603 0.174024 -0.125454
v -1.167618 0.176024 -0.125454
v -1.074358 0.174737 -0.125454
v -1.074373 0.176737 -0.125454
v -1.074358 0.174737 0.125454
v -1.074373 0.176737 0.125454
v 0.648001 -0.023381 -0.125454
v 0.649110 -0.021717 -0.125453
v 1.037616 -0.283123 -0.125454
v 1.038725 -0.281458 -0.125454
v 0.648001 -0.023381 0.125454
v 0.649110 -0.021716 0.125454
v 1.037616 -0.283123 0.125454
v 1.038725 -0.281459 0.125453
v 0.210350 -0.002772 -0.125454
v 0.212245 -0.002134 -0.125454
v 0.172671 0.109088 0.125454
v 0.174566 0.109726 0.125454
v 0.172671 0.109088 -0.125454
v 0.174566 0.109726 -0.125454
v 0.210350 -0.002772 0.125454
v 0.212245 -0.002134 0.125454
v 0.983070 -0.338627 -0.125454
v 0.984990 -0.339118 -0.125181
v 1.037616 -0.283123 0.125454
v 1.039042 -0.284525 0.125454
v 1.037616 -0.283123 -0.125454
v 1.039467 -0.283880 -0.125454
v 0.983070 -0.338627 0.125454
v 0.984783 -0.339623 0.125181
v 0.983070 -0.393173 -0.125454
v 0.985070 -0.393173 -0.125454
v 0.983070 -0.393173 0.125454
v 0.984921 -0.393930 0.125454
v 0.622632 -0.110641 -0.124454
v 0.211572 -0.002061 -0.124454
v 0.211572 -0.002061 0.124454
v 0.622632 -0.110641 0.124454
v -0.352328 0.056007 0.124454
v -0.352348 0.056402 -0.124454
v -0.360296 0.108788 -0.124132
v -0.360593 0.108300 0.124206
v -0.237790 -0.334276 0.124454
v -0.237775 -0.334447 -0.124454
v -0.237775 -0.265908 -0.124454
v -0.237768 -0.265907 0.124329
v 1.338241 -0.337534 0.124454
v 1.340727 -0.284026 0.124454
v 1.340727 -0.284026 -0.124454
v 1.338241 -0.337534 -0.124454
v -1.218143 -0.261198 -0.062974
v -1.178931 -0.261247 -0.024045
v -1.204510 -0.133298 -0.024036
v -1.243695 -0.133274 -0.062955
v -0.402959 0.507902 0.062163
v -0.402959 0.352978 0.155697
v -0.403176 0.280278 0.124795
v -0.403176 0.280278 -0.124795
v -0.402959 0.352978 -0.155697
v -0.402959 0.507902 -0.062163
v -1.218143 -0.261198 0.063644
v -1.243695 -0.133274 0.063625
v -1.204510 -0.133298 0.024706
v -1.178931 -0.261247 0.024715
v -1.242748 -0.124733 -0.062878
v -1.182419 0.057475 -0.024232
v -1.208060 0.086862 -0.062881
v -0.869721 0.055272 0.124453
v -0.869476 0.055347 -0.123785
v -0.869518 0.119109 -0.124203
v -0.869722 0.118647 0.124204
v 1.313610 0.507902 -0.061727
v 1.313610 0.507902 0.061727
v -0.402959 0.507902 0.061727
v -0.402959 0.507902 -0.061727
v -1.383366 -0.391127 0.024677
v -1.396137 -0.263145 0.024704
v -1.356596 -0.263144 0.063651
v -1.343788 -0.391054 0.063626
v -1.242748 -0.124733 0.063548
v -1.208060 0.086862 0.063551
v -1.182419 0.057475 0.024902
v -1.183132 0.051086 0.024684
v -1.204587 -0.131311 0.024701
v -1.243516 -0.131287 0.063366
v -1.203875 -0.131314 0.022994
v -1.181737 0.056890 0.022977
v -1.181737 0.056890 -0.022307
v -1.203875 -0.131314 -0.022324
v -1.356596 -0.263144 -0.062981
v -1.396137 -0.263145 -0.024034
v -1.383366 -0.391127 -0.024007
v -1.343788 -0.391054 -0.062956
v 1.329741 -0.392418 0.124454
v 1.329741 -0.392418 -0.124454
v 0.984070 -0.392173 -0.124454
v 0.984070 -0.392173 0.124454
v -1.383574 -0.393098 -0.024023
v -1.421904 -0.508225 -0.024082
v -1.382180 -0.508073 -0.062994
v -1.344029 -0.393026 -0.062939
v -0.647354 -0.275701 -0.124454
v -0.868917 0.053518 -0.123785
v -0.869163 0.053443 0.124453
v -0.647196 -0.275401 0.123704
v -1.178726 -0.263237 0.024708
v -1.178726 -0.507902 0.024699
v -1.217894 -0.507902 0.063641
v -1.217952 -0.263189 0.063651
v -1.217894 -0.507902 -0.062971
v -1.178726 -0.507902 -0.024029
v -1.178726 -0.263237 -0.024038
v -1.217952 -0.263189 -0.062981
v -1.178017 -0.507902 -0.022324
v -1.178017 -0.507902 0.022994
v -1.178017 -0.263237 0.023003
v -1.178017 -0.263237 -0.022333
v -1.383970 -0.131322 0.022988
v -1.383970 -0.131322 -0.022318
v -1.383967 0.087506 -0.022322
v -1.383967 0.087506 0.022992
v 0.173426 0.109980 -0.124454
v -0.234834 0.175063 -0.124454
v -0.360904 0.109643 -0.124454
v -0.352174 0.055019 -0.124454
v -0.237790 -0.264910 -0.124454
v -0.237790 -0.334276 -0.124454
v -0.622802 -0.334276 -0.124454
v -0.737034 -0.278645 -0.124454
v -0.646314 -0.276645 -0.124454
v -0.509365 -0.275195 -0.124454
v -0.457023 -0.217408 -0.124476
v -0.575910 0.055610 -0.124463
v -0.575910 0.178802 -0.124454
v -0.815398 0.177263 -0.124454
v -0.869081 0.120620 -0.124454
v -1.074229 0.175738 -0.124454
v -1.166603 0.175032 -0.124454
v -1.166603 0.278900 -0.124454
v -0.403959 0.278919 -0.124454
v 1.422763 0.279030 -0.124465
v 1.340772 -0.283027 -0.124454
v 1.338193 -0.338533 -0.124454
v 1.330529 -0.392173 -0.124454
v 0.984070 -0.392173 -0.124454
v 0.984070 -0.339036 -0.124454
v 1.039177 -0.282962 -0.124454
v 0.647408 -0.021784 -0.124454
v 0.622645 -0.110644 -0.124454
v 0.211126 -0.001943 -0.124454
v 1.330882 -0.391428 0.124454
v 1.338053 -0.339523 0.124454
v 1.338053 -0.339523 -0.124454
v 1.330882 -0.391428 -0.124454
v -0.869765 0.118733 -0.124454
v -0.869765 0.054259 -0.124454
v -0.648182 -0.274686 -0.124454
v -0.740650 -0.276724 -0.124454
v -0.956293 0.053660 -0.124454
v -1.071137 0.172836 -0.124454
v -1.245627 -0.132302 0.064336
v -1.219661 -0.262288 0.064356
v -1.219603 -0.507902 0.064347
v -1.380385 -0.508047 0.064383
v -1.341956 -0.392165 0.064329
v -1.354981 -0.262115 0.064354
v -1.342128 0.087506 0.064346
v -1.209583 0.087557 0.064339
v -1.341956 -0.392165 -0.063659
v -1.380385 -0.508047 -0.063713
v -1.219603 -0.507902 -0.063676
v -1.219661 -0.262288 -0.063686
v -1.245627 -0.132302 -0.063666
v -1.209583 0.087557 -0.063669
v -1.342128 0.087506 -0.063676
v -1.354981 -0.262115 -0.063684
v -1.243516 -0.131287 -0.062696
v -1.204587 -0.131311 -0.024031
v -1.183132 0.051086 -0.024014
v -0.741069 -0.276149 0.124454
v -0.741069 -0.276149 -0.124454
v -0.955750 0.052820 -0.124454
v -0.955750 0.052820 0.124455
v -0.575522 0.054483 0.124382
v -0.575522 0.054425 -0.124324
v -0.457782 -0.216982 -0.124120
v -0.457606 -0.216540 0.124324
v -0.575910 0.176796 0.124454
v -0.575931 0.177000 -0.124454
v -0.575921 0.056341 -0.124324
v -0.575921 0.056400 0.124382
v -1.356658 -0.261147 -0.062982
v -1.343841 0.087506 -0.062973
v -1.383256 0.087506 -0.024025
v -1.382970 -0.132372 -0.023318
v -1.396137 -0.261149 -0.024034
v -1.384298 -0.393073 0.022974
v -1.422644 -0.508250 0.023033
v -1.422644 -0.508250 -0.022363
v -1.384298 -0.393073 -0.022304
v -0.404176 0.279278 -0.124454
v -0.404176 0.279278 0.124454
v -1.166603 0.278900 0.124454
v -1.166603 0.278900 -0.124454
v 1.422853 0.280964 0.124795
v 1.422895 0.351762 0.155301
v 1.422895 0.351762 -0.155301
v 1.422853 0.280964 -0.124795
v -1.166603 0.175031 0.124454
v -1.074230 0.175738 0.124454
v -0.869017 0.120640 0.124456
v -0.815398 0.177474 0.124476
v -0.575910 0.178802 0.124454
v -0.575910 0.055476 0.124454
v -0.457023 -0.217619 0.124454
v -0.509365 -0.275196 0.124454
v -0.644872 -0.276630 0.124454
v -0.622350 -0.334276 0.124454
v -0.237790 -0.334276 0.124454
v -0.237790 -0.264910 0.124454
v -0.352173 0.055019 0.124454
v -0.360904 0.109643 0.124454
v -0.234834 0.175064 0.124454
v 0.173426 0.109980 0.124454
v 0.211126 -0.001942 0.124454
v 0.622645 -0.110644 0.124454
v 0.647408 -0.021783 0.124454
v 1.039176 -0.282961 0.124454
v 0.984070 -0.339036 0.124454
v 0.984070 -0.392173 0.124454
v 1.330529 -0.392173 0.124454
v 1.338194 -0.338533 0.124454
v 1.340773 -0.283027 0.124454
v 1.422695 0.278866 0.124455
v -0.403892 0.279033 0.124465
v -1.166603 0.278900 0.124454
v 0.984070 -0.392173 -0.124454
v 0.983996 -0.392552 0.124454
v 0.983927 -0.340125 0.124318
v 0.984030 -0.339872 -0.124318
v -0.956293 0.053660 0.124454
v -0.740498 -0.276958 0.124454
v -0.624896 -0.333257 0.124454
v -0.647221 -0.276112 0.124454
v -0.869765 0.054259 0.124454
v -0.869701 0.118753 0.124456
v -1.071138 0.172837 0.124454
v -1.396852 -0.263142 -0.022330
v -1.396852 -0.263142 0.023000
v -1.384081 -0.391129 0.022974
v -1.384081 -0.391129 -0.022304
v -0.577917 0.178790 -0.124454
v -0.578308 0.178707 0.124454
v -0.814580 0.177013 0.124184
v -0.814225 0.177228 -0.124312
v 0.210978 -0.001505 -0.124454
v 0.173938 0.108460 -0.124454
v 0.173938 0.108460 0.124454
v 0.210978 -0.001505 0.124454
v 1.422321 0.353581 0.155208
v 1.314365 0.507509 0.062106
v 1.314365 0.507509 -0.062106
v 1.422321 0.353581 -0.155208
v -0.402892 0.280953 0.124859
v 1.422851 0.280785 0.124849
v 1.422571 0.352233 0.155469
v -0.403058 0.351970 0.155443
v -1.218635 -0.507902 -0.063601
v -1.381799 -0.507902 -0.063601
v -1.422851 -0.507902 -0.023288
v -1.422851 -0.507902 0.023958
v -1.381799 -0.507902 0.064271
v -1.218635 -0.507902 0.064271
v -1.178094 -0.507902 0.023962
v -1.178094 -0.507902 -0.023292
v 0.646769 -0.024076 -0.124454
v 0.646769 -0.024076 0.124454
v 0.622648 -0.110631 0.124454
v 0.622648 -0.110631 -0.124454
v 1.422919 0.280949 -0.124859
v -0.402959 0.280838 -0.124848
v -0.402959 0.352068 -0.155426
v 1.423183 0.352172 -0.155481
v 1.314044 0.507529 -0.062388
v 1.422417 0.353947 -0.155359
v -0.402959 0.353843 -0.155304
v -0.402959 0.508083 -0.062245
v -1.178213 -0.261256 -0.022333
v -1.178213 -0.261256 0.023003
v -1.203796 -0.133288 0.022994
v -1.203796 -0.133288 -0.022324
v -1.382970 -0.132372 0.023988
v -1.383256 0.087506 0.024695
v -1.343841 0.087506 0.063643
v -1.356658 -0.261147 0.063652
v -1.396137 -0.261149 0.024704
v -0.815913 0.176495 -0.124312
v -0.816268 0.176281 0.124184
v -0.869034 0.120373 0.124204
v -0.868830 0.120835 -0.124203
v 1.037338 -0.281736 -0.124454
v 1.037339 -0.281736 0.124454
v 0.649387 -0.023103 0.124454
v 0.649388 -0.023104 -0.124454
v -0.235603 0.174556 -0.124340
v -0.236019 0.174391 0.124138
v -0.359863 0.109748 0.124206
v -0.359566 0.110236 -0.124132
v -1.072944 0.174711 0.124454
v -0.956991 0.054377 0.124455
v -0.956991 0.054377 -0.124454
v -1.072944 0.174711 -0.124454
v 0.171841 0.110233 -0.124454
v 0.171524 0.110233 0.124454
v -0.234144 0.174694 0.124138
v -0.233727 0.174859 -0.124340
v -0.510140 -0.274874 0.124126
v -0.510720 -0.275155 -0.124138
v -0.645795 -0.276520 -0.124454
v -0.645638 -0.276220 0.123704
v -1.384070 -0.133317 -0.022318
v -1.384070 -0.133317 0.022988
v -1.396852 -0.261152 0.023000
v -1.396852 -0.261152 -0.022330
v 1.340918 -0.282038 -0.124454
v 1.340918 -0.282038 0.124454
v 1.422709 0.278975 0.124454
v 1.422709 0.278975 -0.124454
v 1.314044 0.507529 0.062387
v -0.402959 0.508083 0.062244
v -0.403058 0.353745 0.155320
v 1.421805 0.354008 0.155346
v 0.984731 -0.338159 -0.124318
v 0.984627 -0.338412 0.124318
v 1.037628 -0.284537 0.124454
v 1.037841 -0.284215 -0.124454
v -0.623707 -0.333864 -0.124454
v -0.739623 -0.277424 -0.124454
v -0.739623 -0.277424 0.124454
v -0.623707 -0.333864 0.124454
v -0.457880 -0.218197 0.124324
v -0.458056 -0.218638 -0.124120
v -0.509048 -0.274404 -0.124138
v -0.508467 -0.274124 0.124126
v -0.237790 -0.334276 -0.124454
v -0.621808 -0.334302 -0.124454
v -0.621808 -0.334302 0.124454
v -0.237790 -0.334276 0.124454
v -0.238112 -0.263966 -0.124454
v -0.351853 0.054473 -0.124454
v -0.351833 0.054078 0.124454
v -0.238104 -0.263965 0.124329
v -1.383574 -0.393098 0.024693
v -1.344029 -0.393026 0.063609
v -1.382180 -0.508073 0.063664
v -1.421904 -0.508225 0.024752
v -1.075366 0.175729 -0.124454
v -1.166611 0.175032 -0.124454
v -1.166611 0.175032 0.124454
v -1.075366 0.175729 0.124454
v -1.209319 0.087543 -0.063601
v -1.209319 0.087543 0.064271
v -1.343062 0.087506 0.064271
v -1.383890 0.087506 0.023960
v -1.383890 0.087506 -0.023290
v -1.343062 0.087506 -0.063601
v -1.182124 0.057848 0.023962
v -1.207654 0.086796 0.062867
v -1.207654 0.086796 -0.062197
v -1.182124 0.057848 -0.023292
vn -0.6837 0.1806 0.7071
vn 0.6837 -0.1806 0.7071
vn 0.1862 -0.8937 0.4082
vn -0.6032 -0.6852 0.4082
vn -0.1862 0.8937 0.4082
vn 0.6032 0.6852 0.4083
vn 0.6837 -0.1806 -0.7071
vn 0.1862 -0.8937 -0.4082
vn 0.6032 0.6852 -0.4083
vn -0.6837 0.1806 -0.7071
vn -0.6032 -0.6852 -0.4082
vn -0.1862 0.8937 -0.4082
vn -0.0401 0.7213 -0.6915
vn 0.4015 0.7074 0.5817
vn 0.9268 -0.0930 0.3639
vn 0.9109 0.1875 -0.3676
vn -0.8724 -0.1797 -0.4546
vn -0.8963 0.1838 0.4035
vn -0.2992 -0.7933 0.5302
vn 0.8805 -0.2556 0.3992
vn -0.4649 0.5426 0.6996
vn -0.0004 -0.6031 -0.7977
vn 0.7020 -0.6210 -0.3487
vn -0.7425 0.1513 -0.6525
vn -0.0077 0.6657 -0.7462
vn 0.1852 0.7194 0.6694
vn 0.7964 0.3973 0.4560
vn 0.8660 0.4513 -0.2153
vn -0.8709 0.2149 -0.4421
vn -0.8210 0.4306 0.3749
vn -0.0629 -0.7179 0.6933
vn 0.8120 0.1418 0.5661
vn -0.8709 -0.1519 0.4673
vn -0.1648 -0.7032 -0.6916
vn 0.7374 0.1277 -0.6633
vn -0.7957 -0.1386 -0.5896
vn 0.0533 0.7055 -0.7067
vn -0.0539 -0.7054 -0.7067
vn 0.8893 -0.0853 -0.4492
vn 0.9000 -0.0851 -0.4276
vn -0.8985 0.0839 -0.4308
vn -0.8914 0.0855 -0.4450
vn -0.0539 -0.7054 0.7067
vn 0.8893 -0.0853 0.4492
vn -0.8914 0.0855 0.4450
vn 0.0533 0.7055 0.7067
vn 0.9000 -0.0851 0.4276
vn -0.8985 0.0839 0.4308
vn 0.5276 0.7482 0.4023
vn -0.4506 0.6498 -0.6121
vn 0.9254 0.0808 -0.3702
vn 0.3087 0.0434 -0.9502
vn -0.5847 -0.0492 0.8098
vn -0.9173 -0.0986 0.3858
vn -0.3057 -0.7075 -0.6372
vn 0.9173 0.0118 -0.3980
vn -0.9289 -0.0499 0.3669
vn 0.7267 -0.5695 0.3841
vn 0.1950 -0.0839 -0.9772
vn -0.6259 -0.0123 0.7798
vn -0.0000 -0.8709 -0.4915
vn 0.0335 -0.0861 -0.9957
vn -0.7445 -0.0448 -0.6661
vn -0.7541 -0.5719 -0.3228
vn 0.7541 -0.5719 -0.3228
vn 0.7820 -0.0658 -0.6198
vn 0.2917 0.8124 -0.5049
vn -0.5383 0.6791 -0.4991
vn 0.7805 -0.4045 -0.4767
vn 0.2917 0.8124 0.5049
vn -0.5383 0.6791 0.4991
vn 0.7805 -0.4045 0.4767
vn 0.0335 -0.0861 0.9957
vn -0.7445 -0.0448 0.6661
vn 0.7820 -0.0658 0.6198
vn -0.0000 -0.8709 0.4915
vn -0.7541 -0.5719 0.3228
vn 0.7541 -0.5719 0.3228
vn 0.5276 0.7482 -0.4023
vn 0.7267 -0.5988 -0.3367
vn 0.1970 -0.0838 0.9768
vn 0.3087 0.0434 0.9502
vn -0.5847 -0.0492 -0.8098
vn -0.6278 -0.0736 -0.7749
vn -0.3337 -0.7008 0.6305
vn 0.9173 0.0118 0.3980
vn -0.9259 -0.0207 -0.3772
vn -0.4506 0.6498 0.6121
vn 0.9254 0.0808 0.3702
vn -0.9173 -0.0986 -0.3859
vn 0.7107 0.6449 -0.2809
vn -0.6246 -0.2986 -0.7216
vn 0.7162 -0.4465 -0.5364
vn -0.9201 -0.2238 0.3214
vn 0.4136 -0.8842 0.2173
vn 0.1683 -0.4298 -0.8871
vn -0.4926 -0.4022 0.7717
vn -0.0628 0.6299 -0.7741
vn -0.4061 0.3526 0.8430
vn 0.6877 0.2066 0.6960
vn 0.9402 0.2920 -0.1752
vn -0.8573 -0.2579 -0.4456
vn -0.3752 -0.1124 0.9201
vn -0.1599 -0.8548 0.4937
vn 0.8555 -0.3240 0.4039
vn -0.5514 0.5140 0.6571
vn -0.0422 -0.5245 -0.8504
vn 0.8135 -0.3901 -0.4313
vn -0.7544 0.0928 -0.6499
vn -0.7071 -0.0000 0.7071
vn -0.7071 -0.0000 -0.7071
vn -0.4082 0.8165 -0.4082
vn -0.4082 0.8165 0.4082
vn -0.4082 -0.8165 0.4082
vn -0.4082 -0.8165 -0.4082
vn 0.7071 -0.0000 -0.7071
vn 0.4083 0.8165 -0.4083
vn 0.4082 -0.8165 -0.4082
vn 0.7071 -0.0000 0.7071
vn 0.4083 0.8165 0.4083
vn 0.4082 -0.8165 0.4082
vn 0.3852 0.7064 0.5938
vn 0.4206 -0.6765 0.6046
vn -0.9113 0.0145 0.4114
vn -0.9045 0.0924 0.4163
vn 0.9181 -0.1162 -0.3790
vn 0.9074 0.0028 -0.4204
vn -0.5998 -0.7114 -0.3663
vn -0.3100 -0.0204 0.9505
vn 0.5744 0.0049 -0.8186
vn -0.6792 0.6520 -0.3370
vn -0.1953 0.1054 0.9751
vn 0.5985 -0.0020 -0.8011
vn 0.6641 0.6889 0.2906
vn 0.4136 -0.8842 -0.2173
vn 0.1683 -0.4299 0.8871
vn -0.4926 -0.4022 -0.7717
vn -0.6246 -0.2986 0.7216
vn 0.7162 -0.4465 0.5364
vn -0.9201 -0.2238 -0.3214
vn 0.2115 -0.8314 0.5139
vn -0.3630 0.7159 0.5964
vn 0.6448 0.5670 -0.5126
vn 0.2154 0.6608 -0.7190
vn 0.1136 -0.7097 -0.6953
vn 0.1136 -0.7097 0.6953
vn 0.2170 0.6644 0.7151
vn -0.6004 -0.7091 0.3697
vn 0.3950 -0.6792 -0.6186
vn -0.9113 0.0145 -0.4114
vn -0.3130 -0.0070 -0.9497
vn 0.5810 -0.0039 0.8139
vn 0.9148 -0.0193 0.4035
vn 0.3852 0.7064 -0.5938
vn -0.9045 0.0924 -0.4163
vn 0.9181 -0.1162 0.3790
vn -0.6938 0.6002 0.3981
vn -0.1945 0.1055 -0.9752
vn 0.5764 -0.0900 0.8122
vn -0.6982 -0.3079 -0.6463
vn -0.6982 -0.3079 0.6463
vn 0.5800 -0.6681 0.4661
vn 0.5800 -0.6681 -0.4661
vn -0.5566 0.6382 -0.5319
vn -0.5566 0.6382 0.5319
vn 0.7314 0.0002 0.6819
vn 0.4039 -0.8335 0.3769
vn 0.4046 0.8334 0.3766
vn 0.7314 0.0002 -0.6819
vn 0.4039 -0.8335 -0.3769
vn 0.4046 0.8334 -0.3766
vn 0.2639 -0.7257 -0.6354
vn 0.5315 0.6234 -0.5735
vn -0.6931 0.6740 -0.2556
vn 0.8997 0.1961 0.3900
vn -0.4293 0.7787 0.4576
vn -0.3894 0.5711 -0.7226
vn 0.3365 0.3483 0.8749
vn -0.7271 -0.5987 0.3359
vn -0.4859 0.6320 0.6037
vn -0.1790 -0.5086 0.8422
vn 0.4742 0.8792 0.0474
vn -0.4154 -0.8015 0.4301
vn 0.4740 -0.5553 -0.6834
vn -0.4445 -0.0280 -0.8954
vn 0.3549 0.6973 -0.6228
vn -0.1470 -0.2769 -0.9496
vn -0.3587 -0.6782 0.6414
vn -0.3818 0.6818 0.6241
vn 0.8329 0.4325 0.3453
vn -0.8171 0.4664 -0.3389
vn 0.6230 0.6819 -0.3833
vn 0.3469 0.4401 0.8283
vn -0.3386 0.4533 -0.8245
vn 0.6367 -0.6798 -0.3641
vn 0.6230 0.6819 0.3832
vn -0.3818 0.6818 -0.6241
vn 0.8329 0.4325 -0.3454
vn 0.3469 0.4401 -0.8283
vn -0.3386 0.4533 0.8245
vn -0.8171 0.4664 0.3389
vn -0.3586 -0.6782 -0.6415
vn 0.6367 -0.6798 0.3641
vn 0.1708 0.6817 0.7114
vn 0.1708 0.6817 -0.7114
vn 0.2060 -0.6779 -0.7057
vn 0.2060 -0.6779 0.7057
vn -0.1433 0.6551 -0.7418
vn -0.1597 0.6520 0.7412
vn -0.7980 0.0938 -0.5953
vn -0.8147 0.0907 0.5728
vn 0.9724 -0.0550 -0.2266
vn 0.9735 -0.0798 0.2145
vn -0.2105 -0.6814 0.7010
vn -0.7891 -0.4490 -0.4193
vn 0.8068 -0.4464 0.3871
vn -0.2106 -0.6814 -0.7010
vn -0.7890 -0.4489 0.4194
vn 0.8068 -0.4463 -0.3872
vn 0.8145 0.4794 -0.3268
vn 0.0349 0.9477 0.3174
vn -0.0915 0.7471 -0.6583
vn 0.5370 0.5191 -0.6650
vn 0.4227 0.6157 0.6649
vn -0.1486 0.7379 0.6583
vn -0.6118 0.7308 0.3028
vn -0.6086 0.4112 -0.6786
vn -0.6927 0.2445 0.6785
vn -0.9398 -0.1890 0.2847
vn -0.7037 -0.1777 -0.6880
vn -0.7024 -0.1828 0.6879
vn -0.9510 -0.2434 0.1905
vn -0.6553 -0.1041 -0.7482
vn -0.6521 -0.1226 0.7481
vn -0.7060 0.7060 -0.0567
vn -0.2315 0.4351 -0.8701
vn -0.4351 0.2315 0.8701
vn 0.1273 0.9783 0.1635
vn 0.1615 0.6273 -0.7619
vn 0.1295 0.6347 0.7618
vn 0.9764 -0.2158 -0.0011
vn 0.2368 0.4932 -0.8371
vn 0.3201 0.4271 0.8457
vn -0.1583 -0.9691 0.1891
vn -0.2137 -0.6031 -0.7685
vn -0.0875 -0.6582 0.7478
vn 0.1495 -0.9294 0.3373
vn 0.2750 -0.7127 -0.6454
vn 0.3425 -0.6590 0.6696
vn 0.6572 -0.5949 -0.4628
vn 0.4908 -0.4977 -0.7151
vn 0.6250 0.3064 0.7179
vn 0.9258 0.1489 -0.3476
vn 0.6878 0.0784 -0.7217
vn 0.6867 0.2023 0.6983
vn 0.9270 0.2574 0.2727
vn 0.5665 0.3901 -0.7259
vn 0.3855 0.5698 0.7257
vn -0.1462 0.9362 0.3195
vn -0.2591 0.7090 -0.6558
vn -0.3407 0.6736 0.6559
vn -0.2698 0.9568 -0.1079
vn -0.3052 0.2298 -0.9241
vn -0.3611 0.0937 0.9278
vn -0.1673 0.9820 -0.0876
vn 0.0110 0.6888 -0.7249
vn 0.2528 0.6071 0.7533
vn 0.7033 0.7087 -0.0560
vn 0.4336 0.2318 -0.8708
vn 0.2285 0.4353 0.8708
vn 0.7061 -0.7061 -0.0534
vn 0.2308 -0.4376 -0.8691
vn 0.4344 -0.2302 0.8708
vn 0.2730 -0.9455 0.1773
vn 0.3535 -0.4773 -0.8045
vn 0.1268 -0.5906 0.7970
vn -0.7532 -0.6577 -0.0094
vn -0.5256 -0.1532 -0.8368
vn -0.3568 0.1542 0.9214
vn -0.9529 0.1177 0.2794
vn -0.7168 0.0696 -0.6938
vn -0.7104 0.0671 0.7006
vn -0.9656 0.0912 -0.2436
vn -0.7138 0.0688 -0.6969
vn -0.7141 0.0661 0.6969
vn -0.6536 0.7536 -0.0698
vn -0.3541 0.6077 -0.7108
vn -0.5515 0.4366 0.7108
vn 0.7060 0.7060 -0.0567
vn 0.4351 0.2315 -0.8701
vn 0.2315 0.4351 0.8701
vn 0.9628 -0.2597 0.0743
vn 0.5351 -0.2698 -0.8005
vn 0.5708 -0.1827 0.8005
vn 0.8596 -0.4445 0.2518
vn 0.6441 -0.0758 -0.7611
vn 0.6150 0.2061 0.7611
vn 0.2573 0.9374 0.2345
vn -0.0683 0.6096 -0.7898
vn -0.3461 0.5065 0.7898
vn -0.4991 0.8646 -0.0578
vn -0.1116 0.4818 -0.8692
vn -0.3592 0.3399 0.8691
vn 0.5929 0.8052 0.0153
vn 0.4384 0.3617 -0.8228
vn 0.3317 0.4615 0.8228
vn 0.4046 0.6471 -0.6462
vn -0.0836 -0.7278 -0.6807
vn -0.0836 -0.7278 0.6807
vn 0.4046 0.6471 0.6462
vn -0.7409 -0.6717 -0.0000
vn -0.8421 -0.4371 0.3160
vn -0.7108 -0.2435 -0.6598
vn -0.7256 -0.1952 0.6598
vn -0.8823 0.4705 0.0130
vn 0.5514 0.8323 -0.0572
vn 0.7487 0.5963 -0.2898
vn 0.5506 0.4146 -0.7245
vn 0.5273 0.4439 0.7245
vn 0.8628 -0.5055 -0.0011
vn -0.9832 -0.0709 0.1680
vn -0.9740 -0.0965 0.2048
vn -0.7160 0.6814 0.1518
vn 0.8155 0.5513 0.1762
vn -0.3894 0.5711 0.7226
vn 0.3365 0.3483 -0.8749
vn 0.9608 -0.1122 0.2536
vn 0.9767 0.0207 0.2137
vn 0.6907 -0.6978 0.1896
vn -0.3150 -0.4116 0.8552
vn 0.3260 -0.4565 -0.8278
vn -0.7569 -0.6243 0.1930
vn 0.9603 -0.1174 -0.2530
vn 0.8155 0.5513 -0.1762
vn -0.7160 0.6814 -0.1518
vn -0.9740 -0.0965 -0.2048
vn -0.9818 -0.0710 -0.1759
vn -0.7569 -0.6243 -0.1930
vn 0.6907 -0.6978 -0.1896
vn -0.3150 -0.4116 -0.8552
vn 0.3260 -0.4565 0.8278
vn 0.9773 0.0475 -0.2064
vn 0.6544 0.5501 0.5188
vn -0.3421 0.7094 -0.6162
vn 0.2201 -0.7987 -0.5600
vn -0.4827 0.5278 -0.6989
vn -0.4835 0.5282 0.6980
vn -0.5942 -0.6733 0.4400
vn -0.5944 -0.6735 -0.4393
vn 0.5865 0.6649 -0.4626
vn 0.5863 0.6646 0.4632
vn 0.4224 -0.5724 0.7028
vn -0.6989 -0.5564 0.4495
vn 0.7020 0.5588 0.4415
vn 0.4220 -0.5727 -0.7028
vn -0.6991 -0.5565 -0.4489
vn 0.7023 0.5590 -0.4408
vn 0.3807 -0.6469 -0.6607
vn -0.0070 -0.5122 0.8588
vn -0.7845 0.1020 0.6117
vn -0.8020 0.0430 -0.5958
vn 0.8429 0.0660 -0.5340
vn 0.8222 0.0033 0.5692
vn 0.1115 0.8533 0.5094
vn -0.9177 0.0528 0.3937
vn 0.5734 -0.4121 0.7081
vn -0.0816 0.7114 -0.6981
vn -0.8591 0.4259 -0.2840
vn 0.8290 -0.0687 -0.5550
vn 0.0219 -0.6645 -0.7470
vn -0.2316 -0.7182 0.6561
vn -0.8224 -0.3952 0.4093
vn -0.8618 -0.4578 -0.2184
vn 0.8742 -0.2141 -0.4358
vn 0.8265 -0.4106 0.3851
vn -0.0573 0.9049 0.4217
vn -0.0724 0.8638 -0.4986
vn -0.6058 0.7025 0.3735
vn -0.6488 -0.6701 0.3606
vn 0.4494 -0.6702 -0.5907
vn 0.6963 0.0146 -0.7176
vn 0.5000 0.6308 -0.5934
vn -0.3067 -0.6233 -0.7194
vn 0.0616 0.7046 -0.7070
vn -0.6931 0.6740 0.2556
vn 0.8997 0.1961 -0.3900
vn 0.0616 0.7046 0.7069
vn -0.3067 -0.6233 0.7194
vn -0.6931 -0.3863 0.6086
vn -0.6931 -0.3863 -0.6086
vn 0.7467 -0.0001 -0.6652
vn 0.4016 0.8429 -0.3579
vn 0.4022 -0.8428 -0.3578
vn 0.7467 -0.0001 0.6652
vn 0.4016 0.8429 0.3579
vn 0.4022 -0.8428 0.3578
vn 0.0110 0.8375 -0.5463
vn 0.1326 -0.5489 -0.8253
vn 0.8834 0.2546 -0.3935
vn 0.8989 0.0772 -0.4314
vn -0.8883 0.1891 -0.4185
vn -0.8489 -0.2801 -0.4482
vn 0.1326 -0.5489 0.8253
vn 0.8834 0.2546 0.3935
vn -0.8489 -0.2801 0.4482
vn 0.0110 0.8375 0.5463
vn 0.8989 0.0772 0.4314
vn -0.8883 0.1891 0.4185
vn 0.7433 0.6689 -0.0001
vn 0.2993 0.9233 -0.2406
vn 0.2037 0.6797 0.7047
vn 0.5669 0.3903 0.7255
vn 0.3859 0.5697 -0.7256
vn 0.1050 0.7187 -0.6873
vn -0.2769 0.9405 0.1970
vn -0.2977 0.0224 0.9544
vn -0.2505 0.2405 -0.9378
vn -0.6204 0.6096 -0.4935
vn -0.4521 0.7131 0.5358
vn -0.2219 0.8720 -0.4362
vn 0.2589 0.9354 -0.2407
vn 0.3843 0.5450 0.7452
vn 0.5724 0.4119 -0.7090
vn 0.9782 0.1126 -0.1745
vn 0.6375 0.1464 0.7564
vn 0.6433 0.1203 -0.7561
vn 0.9303 0.1970 -0.3095
vn 0.7421 -0.0394 0.6691
vn 0.7157 -0.2013 -0.6688
vn 0.5974 -0.7355 -0.3196
vn 0.3508 -0.6685 0.6558
vn 0.2663 -0.7067 -0.6554
vn 0.8174 -0.5757 -0.0217
vn -0.4622 -0.4177 0.7822
vn -0.3525 -0.4844 -0.8007
vn 0.5614 0.8222 0.0939
vn 0.2275 0.5081 0.8307
vn 0.2077 0.5137 -0.8325
vn -0.7060 0.7060 0.0568
vn -0.3898 0.5690 0.7240
vn -0.5688 0.3897 -0.7243
vn -0.9642 -0.1672 0.2058
vn -0.7288 -0.1174 0.6745
vn -0.7255 -0.1347 -0.6749
vn -0.9272 -0.2377 0.2894
vn -0.6639 -0.1673 0.7289
vn -0.6623 -0.1726 -0.7291
vn -0.7813 0.3939 0.4842
vn -0.4170 0.3312 0.8464
vn -0.5142 0.1382 -0.8465
vn -0.3319 0.8882 -0.3177
vn -0.1488 0.7381 0.6581
vn -0.0914 0.7475 -0.6579
vn 0.3262 0.8921 -0.3126
vn 0.4226 0.6160 0.6648
vn 0.5374 0.5192 -0.6645
vn 0.7642 0.6448 -0.0152
vn 0.3320 0.4615 0.8227
vn 0.4386 0.3621 -0.8225
vn -0.4964 0.8661 0.0582
vn -0.2297 0.6529 0.7218
vn -0.4473 0.5282 -0.7218
vn -0.8069 0.5419 -0.2349
vn -0.3466 0.5065 0.7895
vn -0.0679 0.6099 -0.7895
vn 0.8116 0.0176 0.5839
vn 0.4363 -0.0991 0.8943
vn 0.4068 0.1862 -0.8943
vn 0.9158 -0.3746 0.1449
vn 0.6817 -0.3238 0.6561
vn 0.7130 -0.2468 -0.6562
vn 0.7060 0.7059 0.0572
vn 0.2319 0.4350 0.8700
vn 0.4351 0.2319 -0.8700
vn -0.6536 0.7536 0.0701
vn -0.3763 0.6058 0.7011
vn -0.5464 0.4581 -0.7012
vn -0.9655 0.0912 0.2439
vn -0.7138 0.0681 0.6970
vn -0.7136 0.0667 -0.6974
vn -0.9572 0.0918 0.2745
vn -0.6927 0.0672 0.7181
vn -0.6915 0.0655 -0.7194
vn -0.7487 -0.6377 0.1811
vn -0.4133 -0.0880 0.9063
vn -0.4508 0.0023 -0.8926
vn -0.2203 -0.9593 -0.1765
vn 0.1704 -0.6166 0.7686
vn 0.4079 -0.2842 -0.8677
vn 0.7077 -0.7058 0.0334
vn 0.3903 -0.5884 0.7081
vn 0.5603 -0.3748 -0.7386
vn 0.0407 0.6615 0.7488
vn -0.3411 0.7775 -0.5284
vn -0.8954 0.3767 -0.2372
vn -0.8562 0.4735 0.2066
vn 0.8793 0.1982 0.4332
vn 0.9127 0.2299 -0.3379
vn -0.1192 -0.3449 -0.9310
vn -0.4370 0.5280 -0.7282
vn 0.6752 -0.4419 -0.5907
vn -0.1963 -0.9305 0.3094
vn -0.6818 -0.0705 0.7281
vn 0.7910 -0.1583 0.5909
vn 0.5710 0.8194 0.0513
vn 0.5330 0.8422 0.0812
vn 0.4813 0.4482 0.7533
vn 0.5662 0.4545 0.6876
vn 0.5697 0.4502 -0.6876
vn 0.3847 0.5334 -0.7533
vn -0.6780 0.7350 0.0081
vn -0.9331 -0.3189 -0.1663
vn -0.8953 -0.2729 0.3522
vn -0.6142 -0.1567 0.7734
vn -0.5834 -0.2090 -0.7848
vn -0.7899 -0.5997 0.1284
vn 0.8606 -0.5088 -0.0195
vn -0.1247 -0.6903 0.7127
vn -0.1303 -0.6855 -0.7164
vn -0.1642 0.6759 -0.7185
vn -0.1642 0.6759 0.7185
vn -0.6603 -0.0932 0.7452
vn -0.5503 -0.5816 -0.5991
vn -0.3539 -0.7973 -0.4890
vn -0.3644 -0.9007 0.2367
vn -0.2567 0.8487 0.4624
vn -0.5499 0.7200 -0.4232
vn 0.7935 0.3462 -0.5005
vn 0.3340 -0.8348 -0.4377
vn -0.5155 0.5482 -0.6586
vn 0.6344 0.1159 0.7643
vn 0.5064 -0.7807 0.3662
vn -0.2310 0.7912 0.5663
vn -0.2257 0.6701 0.7071
vn 0.2257 -0.6701 0.7071
vn -0.6435 -0.6475 0.4082
vn -0.9041 0.1263 0.4082
vn 0.6435 0.6475 0.4082
vn 0.9041 -0.1262 0.4082
vn 0.2257 -0.6701 -0.7071
vn -0.6435 -0.6475 -0.4082
vn 0.9041 -0.1262 -0.4082
vn -0.2257 0.6701 -0.7071
vn -0.9041 0.1263 -0.4082
vn 0.6435 0.6475 -0.4082
vn -0.1932 0.5078 -0.8395
vn 0.4724 -0.7087 -0.5241
vn 0.9365 -0.0213 -0.3500
vn -0.3252 -0.8882 -0.3246
vn 0.4724 -0.7087 0.5241
vn 0.9365 -0.0213 0.3500
vn -0.3252 -0.8882 0.3246
vn -0.1932 0.5078 0.8395
vn 0.6528 0.7520 0.0910
vn -0.6286 0.6769 0.3830
vn -0.2074 -0.9206 -0.3310
vn -0.6810 -0.5257 0.5097
vn -0.6534 -0.1245 -0.7467
vn 0.6626 -0.6742 0.3263
vn 0.0352 0.4900 0.8710
vn 0.3505 -0.1422 -0.9257
vn -0.3814 -0.0000 0.9244
vn 0.3785 -0.0000 0.9256
vn 0.2571 -0.7339 0.6287
vn -0.2589 -0.7343 0.6275
vn -0.2589 0.7343 0.6275
vn 0.2571 0.7339 0.6288
vn 0.9221 -0.0000 0.3869
vn 0.6251 -0.7351 0.2623
vn 0.6251 0.7351 0.2623
vn 0.9221 -0.0000 -0.3869
vn 0.6251 -0.7351 -0.2623
vn 0.6252 0.7351 -0.2623
vn 0.3785 -0.0000 -0.9256
vn 0.2571 -0.7339 -0.6288
vn 0.2571 0.7339 -0.6288
vn -0.3814 -0.0000 -0.9244
vn -0.2589 -0.7343 -0.6275
vn -0.2589 0.7343 -0.6275
vn -0.9233 -0.0000 -0.3840
vn -0.6264 -0.7347 -0.2605
vn -0.6264 0.7347 -0.2605
vn -0.9233 -0.0000 0.3840
vn -0.6264 -0.7347 0.2605
vn -0.6264 0.7347 0.2605
vn -0.1787 -0.6415 0.7460
vn -0.1349 -0.6953 -0.7060
vn 0.7760 -0.4566 -0.4351
vn 0.7214 -0.6527 0.2315
vn -0.9003 0.0105 0.4351
vn -0.9550 -0.1855 -0.2315
vn 0.2441 0.6648 -0.7060
vn 0.9550 0.1855 -0.2315
vn -0.7760 0.4566 -0.4351
vn 0.2441 0.6648 0.7060
vn 0.9003 -0.0106 0.4351
vn -0.7214 0.6527 0.2315
vn -0.7349 0.6739 -0.0762
vn 0.6132 0.7862 -0.0764
vn 0.6381 -0.6614 0.3941
vn 0.7569 0.0359 -0.6526
vn 0.5022 -0.0519 0.8632
vn -0.7190 -0.5677 -0.4009
vn 0.1590 0.2381 -0.9581
vn -0.1823 -0.1498 0.9718
vn -0.3785 -0.8584 -0.3463
vn -0.8107 0.4079 -0.4199
vn -0.3458 -0.3806 -0.8576
vn -0.3149 -0.8429 0.4362
vn 0.6378 0.6232 0.4527
vn 0.3424 -0.5288 -0.7766
vn 0.1181 0.1874 -0.9752
vn 0.2836 -0.5157 0.8084
vn 0.0698 0.7062 0.7045
vn 0.0698 0.7062 -0.7045
vn 0.2301 -0.6681 -0.7076
vn 0.2579 -0.6592 0.7063
vn 0.6955 0.0146 0.7184
vn 0.4494 -0.6702 0.5907
vn -0.6488 -0.6701 -0.3606
vn -0.6045 0.7035 -0.3737
vn 0.5226 0.6296 0.5749
vn -0.4928 -0.5269 0.6925
vn -0.3087 -0.4187 -0.8541
vn 0.4035 0.7199 -0.5647
vn 0.3985 0.3169 0.8607
vn -0.5539 0.3690 0.7463
vn -0.6314 0.3604 -0.6867
vn -0.6830 -0.6035 -0.4115
vn -0.8446 -0.4826 0.2318
vn 0.2896 0.8525 0.4352
vn 0.1461 0.9613 -0.2336
vn 0.5558 -0.4391 -0.7059
vn -0.0774 -0.8188 -0.5689
vn 0.8751 0.2869 -0.3898
vn 0.5557 -0.4391 0.7059
vn -0.2830 -0.8446 0.4545
vn 0.8550 0.4632 0.2331
vn -0.6072 -0.3817 0.6968
vn -0.3144 -0.3354 -0.8881
vn 0.2252 -0.8394 -0.4946
vn 0.2685 -0.8895 0.3697
vn -0.0665 0.8354 0.5456
vn -0.4380 0.5917 -0.6767
vn 0.5597 0.5717 -0.5999
vn 0.4718 0.2330 0.8504
vn 0.4911 -0.5093 -0.7067
vn -0.4618 0.5368 -0.7061
vn -0.3049 -0.8607 -0.4078
vn 0.8714 0.2729 -0.4076
vn -0.4614 0.5372 0.7061
vn 0.4910 -0.5094 0.7067
vn -0.3049 -0.8607 0.4077
vn 0.8714 0.2729 0.4077
vn -0.6660 0.0341 0.7451
vn -0.6788 -0.3940 -0.6197
vn -0.5009 -0.7522 -0.4282
vn -0.5203 -0.8209 0.2354
vn -0.1098 0.8821 0.4581
vn -0.3584 0.8228 -0.4411
vn 0.8734 0.2448 -0.4211
vn 0.6429 0.0100 0.7659
vn -0.6794 0.3527 -0.6435
vn -0.4414 0.0187 0.8971
vn -0.3867 0.8025 0.4544
vn -0.3851 0.8257 -0.4121
vn 0.5597 -0.4434 -0.7001
vn 0.0170 -0.7232 0.6904
vn 0.7192 0.0312 0.6941
vn 0.2734 -0.3554 -0.8938
vn -0.2617 -0.6546 0.7093
vn -0.2600 -0.6669 -0.6983
vn -0.1222 0.7042 -0.6994
vn -0.1504 0.7070 0.6911
vn 0.0811 0.7030 0.7065
vn 0.0811 0.7030 -0.7065
vn -0.0677 -0.7047 -0.7063
vn -0.0677 -0.7047 0.7063
vn -0.5794 -0.7371 0.3479
vn 0.3464 -0.5406 0.7667
vn 0.1555 0.1804 0.9712
vn -0.4225 -0.2352 0.8753
vn -0.2863 -0.8849 -0.3673
vn 0.2787 -0.5133 -0.8117
vn 0.6354 0.7381 0.2270
vn -0.9988 0.0488 -0.0108
vn 0.7084 0.3751 0.5979
vn 0.5118 0.8012 -0.3100
vn -0.5030 -0.4922 -0.7105
vn -0.9427 0.2622 -0.2065
vn 0.4881 -0.7575 -0.4337
vn -0.7885 -0.3157 0.5279
vn -0.9028 0.3586 0.2374
vn 0.4898 -0.8035 0.3384
vn -0.6809 0.2223 0.6979
vn 0.5851 -0.4149 0.6968
vn -0.2023 -0.8753 0.4392
vn 0.2000 0.8657 0.4588
vn 0.5852 -0.4154 -0.6964
vn -0.6808 0.2224 -0.6979
vn -0.2023 -0.8753 -0.4393
vn 0.2000 0.8658 -0.4587
vn -0.3915 -0.6171 -0.6826
vn -0.4086 -0.3256 0.8526
vn 0.7480 0.4288 0.5066
vn 0.2181 0.3783 -0.8996
vn -0.7094 -0.0000 0.7048
vn 0.7062 -0.0974 0.7013
vn -0.4078 -0.8182 0.4052
vn -0.4079 0.8182 0.4051
vn 0.7062 -0.0974 -0.7013
vn -0.7094 -0.0000 -0.7048
vn -0.4078 -0.8182 -0.4052
vn -0.4079 0.8182 -0.4051
vn -0.1267 0.6075 0.7841
vn 0.4966 -0.6881 0.5290
vn 0.1383 -0.6907 -0.7098
vn -0.3916 0.6067 -0.6918
vn 0.2639 -0.7257 0.6354
vn -0.7798 -0.5426 -0.3123
vn -0.4293 0.7787 -0.4576
vn 0.5315 0.6234 0.5735
vn -0.7071 -0.0054 0.7071
vn 0.7071 0.0054 0.7071
vn 0.4145 -0.8133 0.4083
vn -0.4020 -0.8196 0.4083
vn -0.4145 0.8133 0.4083
vn 0.4020 0.8196 0.4083
vn 0.7071 0.0054 -0.7071
vn 0.4145 -0.8133 -0.4083
vn 0.4020 0.8196 -0.4083
vn -0.7071 -0.0054 -0.7071
vn -0.4020 -0.8196 -0.4083
vn -0.4145 0.8133 -0.4083
vn -0.7057 0.1180 0.6986
vn -0.7057 0.1180 -0.6986
vn 0.0272 0.9217 -0.3869
vn 0.0272 0.9217 0.3869
vn -0.4991 -0.7495 0.4350
vn -0.4991 -0.7495 -0.4350
vn 0.3816 -0.0000 -0.9243
vn 0.2577 0.7373 -0.6245
vn 0.2580 -0.7372 -0.6245
vn 0.9227 -0.0000 -0.3856
vn 0.6257 0.7350 -0.2615
vn 0.6257 -0.7350 -0.2615
vn 0.9227 -0.0000 0.3856
vn 0.6257 0.7350 0.2615
vn 0.6257 -0.7350 0.2615
vn 0.3816 -0.0000 0.9243
vn 0.2577 0.7373 0.6245
vn 0.2580 -0.7372 0.6245
vn -0.6533 0.6589 -0.3729
vn 0.4460 -0.0970 -0.8898
vn 0.1032 0.9552 -0.2773
vn -0.9723 -0.0702 -0.2230
vn 0.4460 -0.0970 0.8898
vn -0.6533 0.6589 0.3729
vn 0.1032 0.9552 0.2773
vn -0.9723 -0.0702 0.2230
vt 0.000000 0.000000
s 1
f 425/1/1 426/1/2 381/1/3 383/1/4
f 426/1/2 425/1/1 384/1/5 382/1/6
f 426/1/2 427/1/7 385/1/8 381/1/3
f 427/1/7 426/1/2 382/1/6 386/1/9
f 427/1/7 428/1/10 387/1/11 385/1/8
f 428/1/10 427/1/7 386/1/9 388/1/12
f 428/1/10 425/1/1 383/1/4 387/1/11
f 425/1/1 428/1/10 388/1/12 384/1/5
f 429/1/13 430/1/14 319/1/15 311/1/16
f 430/1/14 429/1/13 312/1/17 320/1/18
f 430/1/14 431/1/19 307/1/20 319/1/15
f 431/1/19 430/1/14 320/1/18 308/1/21
f 431/1/19 432/1/22 305/1/23 307/1/20
f 432/1/22 431/1/19 308/1/21 306/1/24
f 432/1/22 429/1/13 311/1/16 305/1/23
f 429/1/13 432/1/22 306/1/24 312/1/17
f 433/1/25 434/1/26 327/1/27 325/1/28
f 434/1/26 433/1/25 326/1/29 328/1/30
f 434/1/26 435/1/31 323/1/32 327/1/27
f 435/1/31 434/1/26 328/1/30 324/1/33
f 435/1/31 436/1/34 321/1/35 323/1/32
f 436/1/34 435/1/31 324/1/33 322/1/36
f 436/1/34 433/1/25 325/1/28 321/1/35
f 433/1/25 436/1/34 322/1/36 326/1/29
f 437/1/37 438/1/38 13/1/39 17/1/40
f 438/1/38 437/1/37 18/1/41 14/1/42
f 438/1/38 439/1/43 15/1/44 13/1/39
f 439/1/43 438/1/38 14/1/42 16/1/45
f 439/1/43 440/1/46 19/1/47 15/1/44
f 440/1/46 439/1/43 16/1/45 20/1/48
f 440/1/46 437/1/37 17/1/40 19/1/47
f 437/1/37 440/1/46 20/1/48 18/1/41
f 441/1/49 442/1/50 139/1/51 141/1/52
f 442/1/50 441/1/49 142/1/53 140/1/54
f 442/1/50 443/1/55 143/1/56 139/1/51
f 443/1/55 442/1/50 140/1/54 144/1/57
f 443/1/55 444/1/58 79/1/59 143/1/56
f 444/1/58 443/1/55 144/1/57 80/1/60
f 444/1/58 441/1/49 141/1/52 79/1/59
f 441/1/49 444/1/58 80/1/60 142/1/53
f 445/1/61 446/1/62 59/1/63 57/1/64
f 446/1/62 445/1/61 58/1/65 60/1/66
f 446/1/62 447/1/67 47/1/68 59/1/63
f 447/1/67 446/1/62 60/1/66 48/1/69
f 447/1/67 448/1/70 51/1/71 47/1/68
f 448/1/70 447/1/67 48/1/69 52/1/72
f 448/1/70 449/1/73 55/1/74 51/1/71
f 449/1/73 448/1/70 52/1/72 56/1/75
f 449/1/73 450/1/76 53/1/77 55/1/74
f 450/1/76 449/1/73 56/1/75 54/1/78
f 450/1/76 445/1/61 57/1/64 53/1/77
f 445/1/61 450/1/76 54/1/78 58/1/65
f 451/1/79 452/1/80 97/1/81 113/1/82
f 452/1/80 451/1/79 114/1/83 98/1/84
f 452/1/80 453/1/85 105/1/86 97/1/81
f 453/1/85 452/1/80 98/1/84 106/1/87
f 453/1/85 454/1/88 117/1/89 105/1/86
f 454/1/88 453/1/85 106/1/87 118/1/90
f 454/1/88 451/1/79 113/1/82 117/1/89
f 451/1/79 454/1/88 118/1/90 114/1/83
f 455/1/91 456/1/92 83/1/93 79/1/59
f 456/1/92 455/1/91 80/1/60 84/1/94
f 456/1/92 457/1/95 77/1/96 83/1/93
f 457/1/95 456/1/92 84/1/94 78/1/97
f 457/1/95 455/1/91 79/1/59 77/1/96
f 455/1/91 457/1/95 78/1/97 80/1/60
f 458/1/98 459/1/99 343/1/100 335/1/101
f 459/1/99 458/1/98 336/1/102 344/1/103
f 459/1/99 460/1/104 331/1/105 343/1/100
f 460/1/104 459/1/99 344/1/103 332/1/106
f 460/1/104 461/1/107 329/1/108 331/1/105
f 461/1/107 460/1/104 332/1/106 330/1/109
f 461/1/107 458/1/98 335/1/101 329/1/108
f 458/1/98 461/1/107 330/1/109 336/1/102
f 462/1/110 463/1/111 39/1/112 43/1/113
f 463/1/111 462/1/110 44/1/114 40/1/115
f 463/1/111 464/1/116 37/1/117 39/1/112
f 464/1/116 463/1/111 40/1/115 38/1/118
f 464/1/116 465/1/119 41/1/120 37/1/117
f 465/1/119 464/1/116 38/1/118 42/1/121
f 465/1/119 462/1/110 43/1/113 41/1/120
f 462/1/110 465/1/119 42/1/121 44/1/114
f 466/1/122 467/1/123 107/1/124 111/1/125
f 467/1/123 466/1/122 112/1/126 108/1/127
f 467/1/123 468/1/128 101/1/129 107/1/124
f 468/1/128 467/1/123 108/1/127 102/1/130
f 468/1/128 469/1/131 115/1/132 101/1/129
f 469/1/131 468/1/128 102/1/130 116/1/133
f 469/1/131 466/1/122 111/1/125 115/1/132
f 466/1/122 469/1/131 116/1/133 112/1/126
f 470/1/134 471/1/135 99/1/136 97/1/81
f 471/1/135 470/1/134 98/1/84 100/1/137
f 471/1/135 472/1/138 103/1/139 99/1/136
f 472/1/138 471/1/135 100/1/137 104/1/140
f 472/1/138 470/1/134 97/1/81 103/1/139
f 470/1/134 472/1/138 104/1/140 98/1/84
f 473/1/141 474/1/142 105/1/86 103/1/139
f 474/1/142 473/1/141 104/1/140 106/1/87
f 474/1/142 475/1/143 97/1/81 105/1/86
f 475/1/143 474/1/142 106/1/87 98/1/84
f 475/1/143 473/1/141 103/1/139 97/1/81
f 473/1/141 475/1/143 98/1/84 104/1/140
f 476/1/144 477/1/145 103/1/139 105/1/86
f 477/1/145 476/1/144 106/1/87 104/1/140
f 477/1/145 478/1/146 83/1/93 103/1/139
f 478/1/146 477/1/145 104/1/140 84/1/94
f 478/1/146 479/1/147 143/1/56 83/1/93
f 479/1/147 478/1/146 84/1/94 144/1/57
f 479/1/147 476/1/144 105/1/86 143/1/56
f 476/1/144 479/1/147 144/1/57 106/1/87
f 480/1/148 481/1/149 109/1/150 89/1/151
f 481/1/149 480/1/148 90/1/152 110/1/153
f 481/1/149 482/1/154 119/1/155 109/1/150
f 482/1/154 481/1/149 110/1/153 120/1/156
f 482/1/154 483/1/157 133/1/158 119/1/155
f 483/1/157 482/1/154 120/1/156 134/1/159
f 483/1/157 480/1/148 89/1/151 133/1/158
f 480/1/148 483/1/157 134/1/159 90/1/152
f 484/1/160 485/1/161 23/1/162 21/1/163
f 485/1/161 484/1/160 22/1/164 24/1/165
f 485/1/161 486/1/166 25/1/167 23/1/162
f 486/1/166 485/1/161 24/1/165 26/1/168
f 486/1/166 487/1/169 27/1/170 25/1/167
f 487/1/169 486/1/166 26/1/168 28/1/171
f 487/1/169 484/1/160 21/1/163 27/1/170
f 484/1/160 487/1/169 28/1/171 22/1/164
f 488/1/172 489/1/173 125/1/174 119/1/155
f 489/1/173 488/1/172 120/1/156 126/1/175
f 489/1/173 490/1/176 129/1/177 125/1/174
f 490/1/176 489/1/173 126/1/175 130/1/178
f 490/1/176 491/1/179 133/1/158 129/1/177
f 491/1/179 490/1/176 130/1/178 134/1/159
f 491/1/179 488/1/172 119/1/155 133/1/158
f 488/1/172 491/1/179 134/1/159 120/1/156
f 492/1/180 493/1/181 343/1/100 347/1/182
f 493/1/181 492/1/180 348/1/183 344/1/103
f 493/1/181 494/1/184 335/1/101 343/1/100
f 494/1/184 493/1/181 344/1/103 336/1/102
f 494/1/184 495/1/185 345/1/186 335/1/101
f 495/1/185 494/1/184 336/1/102 346/1/187
f 495/1/185 492/1/180 347/1/182 345/1/186
f 492/1/180 495/1/185 346/1/187 348/1/183
f 496/1/188 497/1/189 131/1/190 117/1/89
f 497/1/189 496/1/188 118/1/90 132/1/191
f 497/1/189 498/1/192 127/1/193 131/1/190
f 498/1/192 497/1/189 132/1/191 128/1/194
f 498/1/192 499/1/195 113/1/82 127/1/193
f 499/1/195 498/1/192 128/1/194 114/1/83
f 499/1/195 496/1/188 117/1/89 113/1/82
f 496/1/188 499/1/195 114/1/83 118/1/90
f 500/1/196 501/1/197 137/1/198 135/1/199
f 501/1/197 500/1/196 136/1/200 138/1/201
f 501/1/197 502/1/202 139/1/51 137/1/198
f 502/1/202 501/1/197 138/1/201 140/1/54
f 502/1/202 503/1/203 141/1/52 139/1/51
f 503/1/203 502/1/202 140/1/54 142/1/53
f 503/1/203 500/1/196 135/1/199 141/1/52
f 500/1/196 503/1/203 142/1/53 136/1/200
f 504/1/204 505/1/205 131/1/190 137/1/198
f 505/1/205 504/1/204 138/1/201 132/1/191
f 505/1/205 506/1/206 117/1/89 131/1/190
f 506/1/206 505/1/205 132/1/191 118/1/90
f 506/1/206 507/1/207 139/1/51 117/1/89
f 507/1/207 506/1/206 118/1/90 140/1/54
f 507/1/207 504/1/204 137/1/198 139/1/51
f 504/1/204 507/1/207 140/1/54 138/1/201
f 508/1/208 509/1/209 85/1/210 93/1/211
f 509/1/209 508/1/208 94/1/212 86/1/213
f 509/1/209 510/1/214 87/1/215 85/1/210
f 510/1/214 509/1/209 86/1/213 88/1/216
f 510/1/214 511/1/217 91/1/218 87/1/215
f 511/1/217 510/1/214 88/1/216 92/1/219
f 511/1/217 508/1/208 93/1/211 91/1/218
f 508/1/208 511/1/217 92/1/219 94/1/212
f 512/1/220 513/1/221 255/1/222 247/1/223
f 513/1/221 512/1/220 248/1/224 256/1/225
f 513/1/221 514/1/226 259/1/227 255/1/222
f 514/1/226 513/1/221 256/1/225 260/1/228
f 514/1/226 515/1/229 277/1/230 259/1/227
f 515/1/229 514/1/226 260/1/228 278/1/231
f 515/1/229 516/1/232 283/1/233 277/1/230
f 516/1/232 515/1/229 278/1/231 284/1/234
f 516/1/232 517/1/235 285/1/236 283/1/233
f 517/1/235 516/1/232 284/1/234 286/1/237
f 517/1/235 518/1/238 289/1/239 285/1/236
f 518/1/238 517/1/235 286/1/237 290/1/240
f 518/1/238 519/1/241 293/1/242 289/1/239
f 519/1/241 518/1/238 290/1/240 294/1/243
f 519/1/241 520/1/244 291/1/245 293/1/242
f 520/1/244 519/1/241 294/1/243 292/1/246
f 520/1/244 521/1/247 287/1/248 291/1/245
f 521/1/247 520/1/244 292/1/246 288/1/249
f 521/1/247 522/1/250 281/1/251 287/1/248
f 522/1/250 521/1/247 288/1/249 282/1/252
f 522/1/250 523/1/253 273/1/254 281/1/251
f 523/1/253 522/1/250 282/1/252 274/1/255
f 523/1/253 524/1/256 271/1/257 273/1/254
f 524/1/256 523/1/253 274/1/255 272/1/258
f 524/1/256 525/1/259 275/1/260 271/1/257
f 525/1/259 524/1/256 272/1/258 276/1/261
f 525/1/259 526/1/262 299/1/263 275/1/260
f 526/1/262 525/1/259 276/1/261 300/1/264
f 526/1/262 527/1/265 301/1/266 299/1/263
f 527/1/265 526/1/262 300/1/264 302/1/267
f 527/1/265 528/1/268 303/1/269 301/1/266
f 528/1/268 527/1/265 302/1/267 304/1/270
f 528/1/268 529/1/271 279/1/272 303/1/269
f 529/1/271 528/1/268 304/1/270 280/1/273
f 529/1/271 530/1/274 243/1/275 279/1/272
f 530/1/274 529/1/271 280/1/273 244/1/276
f 530/1/274 531/1/277 245/1/278 243/1/275
f 531/1/277 530/1/274 244/1/276 246/1/279
f 531/1/277 532/1/280 261/1/281 245/1/278
f 532/1/280 531/1/277 246/1/279 262/1/282
f 532/1/280 533/1/283 263/1/284 261/1/281
f 533/1/283 532/1/280 262/1/282 264/1/285
f 533/1/283 534/1/286 265/1/287 263/1/284
f 534/1/286 533/1/283 264/1/285 266/1/288
f 534/1/286 535/1/289 267/1/290 265/1/287
f 535/1/289 534/1/286 266/1/288 268/1/291
f 535/1/289 536/1/292 269/1/293 267/1/290
f 536/1/292 535/1/289 268/1/291 270/1/294
f 536/1/292 537/1/295 257/1/296 269/1/293
f 537/1/295 536/1/292 270/1/294 258/1/297
f 537/1/295 538/1/298 249/1/299 257/1/296
f 538/1/298 537/1/295 258/1/297 250/1/300
f 538/1/298 539/1/301 253/1/302 249/1/299
f 539/1/301 538/1/298 250/1/300 254/1/303
f 539/1/301 540/1/304 251/1/305 253/1/302
f 540/1/304 539/1/301 254/1/303 252/1/306
f 540/1/304 512/1/220 247/1/223 251/1/305
f 512/1/220 540/1/304 252/1/306 248/1/224
f 541/1/307 542/1/308 17/1/40 21/1/163
f 542/1/308 541/1/307 22/1/164 18/1/41
f 542/1/308 543/1/309 19/1/47 17/1/40
f 543/1/309 542/1/308 18/1/41 20/1/48
f 543/1/309 544/1/310 23/1/162 19/1/47
f 544/1/310 543/1/309 20/1/48 24/1/165
f 544/1/310 541/1/307 21/1/163 23/1/162
f 541/1/307 544/1/310 24/1/165 22/1/164
f 545/1/311 546/1/312 295/1/313 299/1/263
f 546/1/312 545/1/311 300/1/264 296/1/314
f 546/1/312 547/1/315 291/1/245 295/1/313
f 547/1/315 546/1/312 296/1/314 292/1/246
f 547/1/315 548/1/316 293/1/242 291/1/245
f 548/1/316 547/1/315 292/1/246 294/1/243
f 548/1/316 549/1/317 297/1/318 293/1/242
f 549/1/317 548/1/316 294/1/243 298/1/319
f 549/1/317 550/1/320 301/1/266 297/1/318
f 550/1/320 549/1/317 298/1/319 302/1/267
f 550/1/320 545/1/311 299/1/263 301/1/266
f 545/1/311 550/1/320 302/1/267 300/1/264
f 551/1/321 552/1/322 113/1/82 97/1/81
f 552/1/322 551/1/321 98/1/84 114/1/83
f 552/1/322 553/1/323 127/1/193 113/1/82
f 553/1/323 552/1/322 114/1/83 128/1/194
f 553/1/323 554/1/324 121/1/325 127/1/193
f 554/1/324 553/1/323 128/1/194 122/1/326
f 554/1/324 555/1/327 115/1/132 121/1/325
f 555/1/327 554/1/324 122/1/326 116/1/133
f 555/1/327 556/1/328 101/1/129 115/1/132
f 556/1/328 555/1/327 116/1/133 102/1/130
f 556/1/328 557/1/329 95/1/330 101/1/129
f 557/1/329 556/1/328 102/1/130 96/1/331
f 557/1/329 558/1/332 99/1/136 95/1/330
f 558/1/332 557/1/329 96/1/331 100/1/137
f 558/1/332 551/1/321 97/1/81 99/1/136
f 551/1/321 558/1/332 100/1/137 98/1/84
f 559/1/333 560/1/334 129/1/177 133/1/158
f 560/1/334 559/1/333 134/1/159 130/1/178
f 560/1/334 561/1/335 135/1/199 129/1/177
f 561/1/335 560/1/334 130/1/178 136/1/200
f 561/1/335 562/1/336 141/1/52 135/1/199
f 562/1/336 561/1/335 136/1/200 142/1/53
f 562/1/336 563/1/337 79/1/59 141/1/52
f 563/1/337 562/1/336 142/1/53 80/1/60
f 563/1/337 564/1/338 77/1/96 79/1/59
f 564/1/338 563/1/337 80/1/60 78/1/97
f 564/1/338 565/1/339 81/1/340 77/1/96
f 565/1/339 564/1/338 78/1/97 82/1/341
f 565/1/339 566/1/342 89/1/151 81/1/340
f 566/1/342 565/1/339 82/1/341 90/1/152
f 566/1/342 559/1/333 133/1/158 89/1/151
f 559/1/333 566/1/342 90/1/152 134/1/159
f 567/1/343 568/1/344 143/1/56 79/1/59
f 568/1/344 567/1/343 80/1/60 144/1/57
f 568/1/344 569/1/345 83/1/93 143/1/56
f 569/1/345 568/1/344 144/1/57 84/1/94
f 569/1/345 567/1/343 79/1/59 83/1/93
f 567/1/343 569/1/345 84/1/94 80/1/60
f 570/1/346 571/1/347 145/1/348 147/1/349
f 571/1/347 570/1/346 148/1/350 146/1/351
f 571/1/347 572/1/352 159/1/353 145/1/348
f 572/1/352 571/1/347 146/1/351 160/1/354
f 572/1/352 573/1/355 151/1/356 159/1/353
f 573/1/355 572/1/352 160/1/354 152/1/357
f 573/1/355 570/1/346 147/1/349 151/1/356
f 570/1/346 573/1/355 152/1/357 148/1/350
f 574/1/358 575/1/359 359/1/360 357/1/361
f 575/1/359 574/1/358 358/1/362 360/1/363
f 575/1/359 576/1/364 355/1/365 359/1/360
f 576/1/364 575/1/359 360/1/363 356/1/366
f 576/1/364 577/1/367 353/1/368 355/1/365
f 577/1/367 576/1/364 356/1/366 354/1/369
f 577/1/367 574/1/358 357/1/361 353/1/368
f 574/1/358 577/1/367 354/1/369 358/1/362
f 578/1/370 579/1/371 363/1/372 361/1/373
f 579/1/371 578/1/370 362/1/374 364/1/375
f 579/1/371 580/1/376 359/1/360 363/1/372
f 580/1/376 579/1/371 364/1/375 360/1/363
f 580/1/376 581/1/377 357/1/361 359/1/360
f 581/1/377 580/1/376 360/1/363 358/1/362
f 581/1/377 578/1/370 361/1/373 357/1/361
f 578/1/370 581/1/377 358/1/362 362/1/374
f 582/1/378 583/1/379 81/1/340 89/1/151
f 583/1/379 582/1/378 90/1/152 82/1/341
f 583/1/379 584/1/380 87/1/215 81/1/340
f 584/1/380 583/1/379 82/1/341 88/1/216
f 584/1/380 585/1/381 85/1/210 87/1/215
f 585/1/381 584/1/380 88/1/216 86/1/213
f 585/1/381 586/1/382 109/1/150 85/1/210
f 586/1/382 585/1/381 86/1/213 110/1/153
f 586/1/382 582/1/378 89/1/151 109/1/150
f 582/1/378 586/1/382 110/1/153 90/1/152
f 587/1/383 588/1/384 123/1/385 111/1/125
f 588/1/384 587/1/383 112/1/126 124/1/386
f 588/1/384 589/1/387 125/1/174 123/1/385
f 589/1/387 588/1/384 124/1/386 126/1/175
f 589/1/387 590/1/388 119/1/155 125/1/174
f 590/1/388 589/1/387 126/1/175 120/1/156
f 590/1/388 587/1/383 111/1/125 119/1/155
f 587/1/383 590/1/388 120/1/156 112/1/126
f 591/1/389 592/1/390 47/1/68 51/1/71
f 592/1/390 591/1/389 52/1/72 48/1/69
f 592/1/390 593/1/391 45/1/392 47/1/68
f 593/1/391 592/1/390 48/1/69 46/1/393
f 593/1/391 594/1/394 49/1/395 45/1/392
f 594/1/394 593/1/391 46/1/393 50/1/396
f 594/1/394 591/1/389 51/1/71 49/1/395
f 591/1/389 594/1/394 50/1/396 52/1/72
f 595/1/397 596/1/398 7/1/399 9/1/400
f 596/1/398 595/1/397 10/1/401 8/1/402
f 596/1/398 597/1/403 3/1/404 7/1/399
f 597/1/403 596/1/398 8/1/402 4/1/405
f 597/1/403 598/1/406 11/1/407 3/1/404
f 598/1/406 597/1/403 4/1/405 12/1/408
f 598/1/406 595/1/397 9/1/400 11/1/407
f 595/1/397 598/1/406 12/1/408 10/1/401
f 599/1/409 600/1/410 199/1/411 205/1/412
f 600/1/410 599/1/409 206/1/413 200/1/414
f 600/1/410 601/1/415 197/1/416 199/1/411
f 601/1/415 600/1/410 200/1/414 198/1/417
f 601/1/415 602/1/418 201/1/419 197/1/416
f 602/1/418 601/1/415 198/1/417 202/1/420
f 602/1/418 603/1/421 173/1/422 201/1/419
f 603/1/421 602/1/418 202/1/420 174/1/423
f 603/1/421 604/1/424 175/1/425 173/1/422
f 604/1/424 603/1/421 174/1/423 176/1/426
f 604/1/424 605/1/427 179/1/428 175/1/425
f 605/1/427 604/1/424 176/1/426 180/1/429
f 605/1/427 606/1/430 185/1/431 179/1/428
f 606/1/430 605/1/427 180/1/429 186/1/432
f 606/1/430 607/1/433 189/1/434 185/1/431
f 607/1/433 606/1/430 186/1/432 190/1/435
f 607/1/433 608/1/436 187/1/437 189/1/434
f 608/1/436 607/1/433 190/1/435 188/1/438
f 608/1/436 609/1/439 183/1/440 187/1/437
f 609/1/439 608/1/436 188/1/438 184/1/441
f 609/1/439 610/1/442 181/1/443 183/1/440
f 610/1/442 609/1/439 184/1/441 182/1/444
f 610/1/442 611/1/445 177/1/446 181/1/443
f 611/1/445 610/1/442 182/1/444 178/1/447
f 611/1/445 612/1/448 167/1/449 177/1/446
f 612/1/448 611/1/445 178/1/447 168/1/450
f 612/1/448 613/1/451 169/1/452 167/1/449
f 613/1/451 612/1/448 168/1/450 170/1/453
f 613/1/451 614/1/454 171/1/455 169/1/452
f 614/1/454 613/1/451 170/1/453 172/1/456
f 614/1/454 615/1/457 219/1/458 171/1/455
f 615/1/457 614/1/454 172/1/456 220/1/459
f 615/1/457 616/1/460 221/1/461 219/1/458
f 616/1/460 615/1/457 220/1/459 222/1/462
f 616/1/460 617/1/463 217/1/464 221/1/461
f 617/1/463 616/1/460 222/1/462 218/1/465
f 617/1/463 618/1/466 223/1/467 217/1/464
f 618/1/466 617/1/463 218/1/465 224/1/468
f 618/1/466 619/1/469 233/1/470 223/1/467
f 619/1/469 618/1/466 224/1/468 234/1/471
f 619/1/469 620/1/472 231/1/473 233/1/470
f 620/1/472 619/1/469 234/1/471 232/1/474
f 620/1/472 621/1/475 229/1/476 231/1/473
f 621/1/475 620/1/472 232/1/474 230/1/477
f 621/1/475 622/1/478 227/1/479 229/1/476
f 622/1/478 621/1/475 230/1/477 228/1/480
f 622/1/478 623/1/481 225/1/482 227/1/479
f 623/1/481 622/1/478 228/1/480 226/1/483
f 623/1/481 624/1/484 215/1/485 225/1/482
f 624/1/484 623/1/481 226/1/483 216/1/486
f 624/1/484 625/1/487 165/1/488 215/1/485
f 625/1/487 624/1/484 216/1/486 166/1/489
f 625/1/487 626/1/490 203/1/491 165/1/488
f 626/1/490 625/1/487 166/1/489 204/1/492
f 626/1/490 599/1/409 205/1/412 203/1/491
f 599/1/409 626/1/490 204/1/492 206/1/413
f 627/1/493 628/1/494 423/1/495 421/1/496
f 628/1/494 627/1/493 422/1/497 424/1/498
f 628/1/494 629/1/499 419/1/500 423/1/495
f 629/1/499 628/1/494 424/1/498 420/1/501
f 629/1/499 630/1/502 413/1/503 419/1/500
f 630/1/502 629/1/499 420/1/501 414/1/504
f 630/1/502 627/1/493 421/1/496 413/1/503
f 627/1/493 630/1/502 414/1/504 422/1/497
f 631/1/505 632/1/506 191/1/507 195/1/508
f 632/1/506 631/1/505 196/1/509 192/1/510
f 632/1/506 633/1/511 187/1/437 191/1/507
f 633/1/511 632/1/506 192/1/510 188/1/438
f 633/1/511 634/1/512 189/1/434 187/1/437
f 634/1/512 633/1/511 188/1/438 190/1/435
f 634/1/512 635/1/513 193/1/514 189/1/434
f 635/1/513 634/1/512 190/1/435 194/1/515
f 635/1/513 636/1/516 197/1/416 193/1/514
f 636/1/516 635/1/513 194/1/515 198/1/417
f 636/1/516 637/1/517 199/1/411 197/1/416
f 637/1/517 636/1/516 198/1/417 200/1/414
f 637/1/517 631/1/505 195/1/508 199/1/411
f 631/1/505 637/1/517 200/1/414 196/1/509
f 638/1/518 639/1/519 107/1/124 109/1/150
f 639/1/519 638/1/518 110/1/153 108/1/127
f 639/1/519 640/1/520 111/1/125 107/1/124
f 640/1/520 639/1/519 108/1/127 112/1/126
f 640/1/520 641/1/521 119/1/155 111/1/125
f 641/1/521 640/1/520 112/1/126 120/1/156
f 641/1/521 638/1/518 109/1/150 119/1/155
f 638/1/518 641/1/521 120/1/156 110/1/153
f 642/1/522 643/1/523 341/1/524 339/1/525
f 643/1/523 642/1/522 340/1/526 342/1/527
f 643/1/523 644/1/528 337/1/529 341/1/524
f 644/1/528 643/1/523 342/1/527 338/1/530
f 644/1/528 645/1/531 333/1/532 337/1/529
f 645/1/531 644/1/528 338/1/530 334/1/533
f 645/1/531 642/1/522 339/1/525 333/1/532
f 642/1/522 645/1/531 334/1/533 340/1/526
f 646/1/534 647/1/535 409/1/536 405/1/537
f 647/1/535 646/1/534 406/1/538 410/1/539
f 647/1/535 648/1/540 407/1/541 409/1/536
f 648/1/540 647/1/535 410/1/539 408/1/542
f 648/1/540 649/1/543 411/1/544 407/1/541
f 649/1/543 648/1/540 408/1/542 412/1/545
f 649/1/543 646/1/534 405/1/537 411/1/544
f 646/1/534 649/1/543 412/1/545 406/1/538
f 650/1/546 651/1/547 1/1/548 7/1/399
f 651/1/547 650/1/546 8/1/402 2/1/549
f 651/1/547 652/1/550 5/1/551 1/1/548
f 652/1/550 651/1/547 2/1/549 6/1/552
f 652/1/550 653/1/553 3/1/404 5/1/551
f 653/1/553 652/1/550 6/1/552 4/1/405
f 653/1/553 650/1/546 7/1/399 3/1/404
f 650/1/546 653/1/553 4/1/405 8/1/402
f 654/1/554 655/1/555 215/1/485 165/1/488
f 655/1/555 654/1/554 166/1/489 216/1/486
f 655/1/555 656/1/556 207/1/557 215/1/485
f 656/1/556 655/1/555 216/1/486 208/1/558
f 656/1/556 657/1/559 209/1/560 207/1/557
f 657/1/559 656/1/556 208/1/558 210/1/561
f 657/1/559 654/1/554 165/1/488 209/1/560
f 654/1/554 657/1/559 210/1/561 166/1/489
f 658/1/562 659/1/563 61/1/564 71/1/565
f 659/1/563 658/1/562 72/1/566 62/1/567
f 659/1/563 660/1/568 69/1/569 61/1/564
f 660/1/568 659/1/563 62/1/567 70/1/570
f 660/1/568 661/1/571 67/1/572 69/1/569
f 661/1/571 660/1/568 70/1/570 68/1/573
f 661/1/571 662/1/574 65/1/575 67/1/572
f 662/1/574 661/1/571 68/1/573 66/1/576
f 662/1/574 663/1/577 63/1/578 65/1/575
f 663/1/577 662/1/574 66/1/576 64/1/579
f 663/1/577 664/1/580 73/1/581 63/1/578
f 664/1/580 663/1/577 64/1/579 74/1/582
f 664/1/580 665/1/583 75/1/584 73/1/581
f 665/1/583 664/1/580 74/1/582 76/1/585
f 665/1/583 658/1/562 71/1/565 75/1/584
f 658/1/562 665/1/583 76/1/585 72/1/566
f 666/1/586 667/1/587 35/1/588 33/1/589
f 667/1/587 666/1/586 34/1/590 36/1/591
f 667/1/587 668/1/592 29/1/593 35/1/588
f 668/1/592 667/1/587 36/1/591 30/1/594
f 668/1/592 669/1/595 31/1/596 29/1/593
f 669/1/595 668/1/592 30/1/594 32/1/597
f 669/1/595 666/1/586 33/1/589 31/1/596
f 666/1/586 669/1/595 32/1/597 34/1/590
f 670/1/598 671/1/599 243/1/275 245/1/278
f 671/1/599 670/1/598 246/1/279 244/1/276
f 671/1/599 672/1/600 237/1/601 243/1/275
f 672/1/600 671/1/599 244/1/276 238/1/602
f 672/1/600 673/1/603 241/1/604 237/1/601
f 673/1/603 672/1/600 238/1/602 242/1/605
f 673/1/603 670/1/598 245/1/278 241/1/604
f 670/1/598 673/1/603 242/1/605 246/1/279
f 674/1/606 675/1/607 241/1/604 235/1/608
f 675/1/607 674/1/606 236/1/609 242/1/605
f 675/1/607 676/1/610 237/1/601 241/1/604
f 676/1/610 675/1/607 242/1/605 238/1/602
f 676/1/610 677/1/611 239/1/612 237/1/601
f 677/1/611 676/1/610 238/1/602 240/1/613
f 677/1/611 674/1/606 235/1/608 239/1/612
f 674/1/606 677/1/611 240/1/613 236/1/609
f 678/1/614 679/1/615 117/1/89 139/1/51
f 679/1/615 678/1/614 140/1/54 118/1/90
f 679/1/615 680/1/616 105/1/86 117/1/89
f 680/1/616 679/1/615 118/1/90 106/1/87
f 680/1/616 681/1/617 143/1/56 105/1/86
f 681/1/617 680/1/616 106/1/87 144/1/57
f 681/1/617 678/1/614 139/1/51 143/1/56
f 678/1/614 681/1/617 144/1/57 140/1/54
f 682/1/618 683/1/619 91/1/218 93/1/211
f 683/1/619 682/1/618 94/1/212 92/1/219
f 683/1/619 684/1/620 95/1/330 91/1/218
f 684/1/620 683/1/619 92/1/219 96/1/331
f 684/1/620 685/1/621 101/1/129 95/1/330
f 685/1/621 684/1/620 96/1/331 102/1/130
f 685/1/621 686/1/622 107/1/124 101/1/129
f 686/1/622 685/1/621 102/1/130 108/1/127
f 686/1/622 682/1/618 93/1/211 107/1/124
f 682/1/618 686/1/622 108/1/127 94/1/212
f 687/1/623 688/1/624 337/1/529 333/1/532
f 688/1/624 687/1/623 334/1/533 338/1/530
f 688/1/624 689/1/625 329/1/108 337/1/529
f 689/1/625 688/1/624 338/1/530 330/1/109
f 689/1/625 690/1/626 331/1/105 329/1/108
f 690/1/626 689/1/625 330/1/109 332/1/106
f 690/1/626 687/1/623 333/1/532 331/1/105
f 687/1/623 690/1/626 332/1/106 334/1/533
f 691/1/627 692/1/628 403/1/629 399/1/630
f 692/1/628 691/1/627 400/1/631 404/1/632
f 692/1/628 693/1/633 401/1/634 403/1/629
f 693/1/633 692/1/628 404/1/632 402/1/635
f 693/1/633 694/1/636 397/1/637 401/1/634
f 694/1/636 693/1/633 402/1/635 398/1/638
f 694/1/636 691/1/627 399/1/630 397/1/637
f 691/1/627 694/1/636 398/1/638 400/1/631
f 695/1/639 696/1/640 313/1/641 309/1/642
f 696/1/640 695/1/639 310/1/643 314/1/644
f 696/1/640 697/1/645 305/1/23 313/1/641
f 697/1/645 696/1/640 314/1/644 306/1/24
f 697/1/645 698/1/646 307/1/20 305/1/23
f 698/1/646 697/1/645 306/1/24 308/1/21
f 698/1/646 695/1/639 309/1/642 307/1/20
f 695/1/639 698/1/646 308/1/21 310/1/643
f 699/1/647 700/1/648 151/1/356 161/1/649
f 700/1/648 699/1/647 162/1/650 152/1/357
f 700/1/648 701/1/651 159/1/353 151/1/356
f 701/1/651 700/1/648 152/1/357 160/1/354
f 701/1/651 702/1/652 163/1/653 159/1/353
f 702/1/652 701/1/651 160/1/354 164/1/654
f 702/1/652 699/1/647 161/1/649 163/1/653
f 699/1/647 702/1/652 164/1/654 162/1/650
f 703/1/655 704/1/656 317/1/657 315/1/658
f 704/1/656 703/1/655 316/1/659 318/1/660
f 704/1/656 705/1/661 313/1/641 317/1/657
f 705/1/661 704/1/656 318/1/660 314/1/644
f 705/1/661 706/1/662 309/1/642 313/1/641
f 706/1/662 705/1/661 314/1/644 310/1/643
f 706/1/662 703/1/655 315/1/658 309/1/642
f 703/1/655 706/1/662 310/1/643 316/1/659
f 707/1/663 708/1/664 351/1/665 349/1/666
f 708/1/664 707/1/663 350/1/667 352/1/668
f 708/1/664 709/1/669 347/1/182 351/1/665
f 709/1/669 708/1/664 352/1/668 348/1/183
f 709/1/669 710/1/670 345/1/186 347/1/182
f 710/1/670 709/1/669 348/1/183 346/1/187
f 710/1/670 707/1/663 349/1/666 345/1/186
f 707/1/663 710/1/670 346/1/187 350/1/667
f 711/1/671 712/1/672 93/1/211 85/1/210
f 712/1/672 711/1/671 86/1/213 94/1/212
f 712/1/672 713/1/673 107/1/124 93/1/211
f 713/1/673 712/1/672 94/1/212 108/1/127
f 713/1/673 714/1/674 109/1/150 107/1/124
f 714/1/674 713/1/673 108/1/127 110/1/153
f 714/1/674 711/1/671 85/1/210 109/1/150
f 711/1/671 714/1/674 110/1/153 86/1/213
f 715/1/675 716/1/676 13/1/39 15/1/44
f 716/1/676 715/1/675 16/1/45 14/1/42
f 716/1/676 717/1/677 9/1/400 13/1/39
f 717/1/677 716/1/676 14/1/42 10/1/401
f 717/1/677 718/1/678 11/1/407 9/1/400
f 718/1/678 717/1/677 10/1/401 12/1/408
f 718/1/678 715/1/675 15/1/44 11/1/407
f 715/1/675 718/1/678 12/1/408 16/1/45
f 719/1/679 720/1/680 213/1/681 211/1/682
f 720/1/680 719/1/679 212/1/683 214/1/684
f 720/1/680 721/1/685 209/1/560 213/1/681
f 721/1/685 720/1/680 214/1/684 210/1/561
f 721/1/685 722/1/686 207/1/557 209/1/560
f 722/1/686 721/1/685 210/1/561 208/1/558
f 722/1/686 719/1/679 211/1/682 207/1/557
f 719/1/679 722/1/686 208/1/558 212/1/683
f 723/1/687 724/1/688 419/1/500 413/1/503
f 724/1/688 723/1/687 414/1/504 420/1/501
f 724/1/688 725/1/689 415/1/690 419/1/500
f 725/1/689 724/1/688 420/1/501 416/1/691
f 725/1/689 726/1/692 417/1/693 415/1/690
f 726/1/692 725/1/689 416/1/691 418/1/694
f 726/1/692 723/1/687 413/1/503 417/1/693
f 723/1/687 726/1/692 418/1/694 414/1/504
f 727/1/695 728/1/696 145/1/348 149/1/697
f 728/1/696 727/1/695 150/1/698 146/1/351
f 728/1/696 729/1/699 147/1/349 145/1/348
f 729/1/699 728/1/696 146/1/351 148/1/350
f 729/1/699 730/1/700 153/1/701 147/1/349
f 730/1/700 729/1/699 148/1/350 154/1/702
f 730/1/700 727/1/695 149/1/697 153/1/701
f 727/1/695 730/1/700 154/1/702 150/1/698
f 731/1/703 732/1/704 355/1/365 353/1/368
f 732/1/704 731/1/703 354/1/369 356/1/366
f 732/1/704 733/1/705 351/1/665 355/1/365
f 733/1/705 732/1/704 356/1/366 352/1/668
f 733/1/705 734/1/706 349/1/666 351/1/665
f 734/1/706 733/1/705 352/1/668 350/1/667
f 734/1/706 731/1/703 353/1/368 349/1/666
f 731/1/703 734/1/706 350/1/667 354/1/369
f 735/1/707 736/1/708 149/1/697 155/1/709
f 736/1/708 735/1/707 156/1/710 150/1/698
f 736/1/708 737/1/711 153/1/701 149/1/697
f 737/1/711 736/1/708 150/1/698 154/1/702
f 737/1/711 738/1/712 157/1/713 153/1/701
f 738/1/712 737/1/711 154/1/702 158/1/714
f 738/1/712 735/1/707 155/1/709 157/1/713
f 735/1/707 738/1/712 158/1/714 156/1/710
f 739/1/715 740/1/716 319/1/15 323/1/32
f 740/1/716 739/1/715 324/1/33 320/1/18
f 740/1/716 741/1/717 311/1/16 319/1/15
f 741/1/717 740/1/716 320/1/18 312/1/17
f 741/1/717 742/1/718 321/1/35 311/1/16
f 742/1/718 741/1/717 312/1/17 322/1/36
f 742/1/718 739/1/715 323/1/32 321/1/35
f 739/1/715 742/1/718 322/1/36 324/1/33
f 743/1/719 744/1/720 115/1/132 111/1/125
f 744/1/720 743/1/719 112/1/126 116/1/133
f 744/1/720 745/1/721 121/1/325 115/1/132
f 745/1/721 744/1/720 116/1/133 122/1/326
f 745/1/721 746/1/722 123/1/385 121/1/325
f 746/1/722 745/1/721 122/1/326 124/1/386
f 746/1/722 743/1/719 111/1/125 123/1/385
f 743/1/719 746/1/722 124/1/386 112/1/126
f 747/1/723 748/1/724 391/1/725 393/1/726
f 748/1/724 747/1/723 394/1/727 392/1/728
f 748/1/724 749/1/729 389/1/730 391/1/725
f 749/1/729 748/1/724 392/1/728 390/1/731
f 749/1/729 750/1/732 395/1/733 389/1/730
f 750/1/732 749/1/729 390/1/731 396/1/734
f 750/1/732 747/1/723 393/1/726 395/1/733
f 747/1/723 750/1/732 396/1/734 394/1/727
f 751/1/735 752/1/736 375/1/737 373/1/738
f 752/1/736 751/1/735 374/1/739 376/1/740
f 752/1/736 753/1/741 365/1/742 375/1/737
f 753/1/741 752/1/736 376/1/740 366/1/743
f 753/1/741 754/1/744 371/1/745 365/1/742
f 754/1/744 753/1/741 366/1/743 372/1/746
f 754/1/744 755/1/747 369/1/748 371/1/745
f 755/1/747 754/1/744 372/1/746 370/1/749
f 755/1/747 756/1/750 367/1/751 369/1/748
f 756/1/750 755/1/747 370/1/749 368/1/752
f 756/1/750 751/1/735 373/1/738 367/1/751
f 751/1/735 756/1/750 368/1/752 374/1/739
f 757/1/753 758/1/754 375/1/737 377/1/755
f 758/1/754 757/1/753 378/1/756 376/1/740
f 758/1/754 759/1/757 373/1/738 375/1/737
f 759/1/757 758/1/754 376/1/740 374/1/739
f 759/1/757 760/1/758 379/1/759 373/1/738
f 760/1/758 759/1/757 374/1/739 380/1/760
f 760/1/758 757/1/753 377/1/755 379/1/759
f 757/1/753 760/1/758 380/1/760 378/1/756
