# Converted from Roblox mesh format
# Vertices: 80, Faces: 60

v 0.196344 0.255352 -0.075227 1.000000 1.000000 1.000000
v -0.094500 0.300497 -0.075227 1.000000 1.000000 1.000000
v -0.094500 0.300497 0.075227 1.000000 1.000000 1.000000
v 0.196344 0.255352 0.075227 1.000000 1.000000 1.000000
v -0.215052 -0.246322 -0.090272 1.000000 1.000000 1.000000
v 0.133962 -0.300496 -0.090272 1.000000 1.000000 1.000000
v 0.133962 -0.300496 0.090272 1.000000 1.000000 1.000000
v -0.215052 -0.246322 0.090272 1.000000 1.000000 1.000000
v -0.215052 -0.246322 -0.090272 1.000000 1.000000 1.000000
v -0.206828 -0.193486 0.090272 1.000000 1.000000 1.000000
v -0.206828 -0.193486 -0.090272 1.000000 1.000000 1.000000
v -0.215052 -0.246322 0.090272 1.000000 1.000000 1.000000
v 0.196344 0.255352 0.075227 1.000000 1.000000 1.000000
v 0.210832 0.159478 -0.075227 1.000000 1.000000 1.000000
v 0.196344 0.255352 -0.075227 1.000000 1.000000 1.000000
v 0.210832 0.159478 0.075227 1.000000 1.000000 1.000000
v 0.215052 0.065197 -0.075227 1.000000 1.000000 1.000000
v 0.215052 0.065197 0.075227 1.000000 1.000000 1.000000
v 0.200861 -0.026226 -0.075227 1.000000 1.000000 1.000000
v 0.200861 -0.026226 0.075227 1.000000 1.000000 1.000000
v 0.168260 -0.114792 -0.075227 1.000000 1.000000 1.000000
v 0.168260 -0.114792 0.075227 1.000000 1.000000 1.000000
v 0.125390 -0.201763 -0.075227 1.000000 1.000000 1.000000
v 0.125390 -0.201763 0.075227 1.000000 1.000000 1.000000
v 0.142185 -0.247660 0.090272 1.000000 1.000000 1.000000
v 0.142185 -0.247660 -0.090272 1.000000 1.000000 1.000000
v 0.133962 -0.300496 0.090272 1.000000 1.000000 1.000000
v 0.133962 -0.300496 -0.090272 1.000000 1.000000 1.000000
v 0.142185 -0.247660 -0.090272 1.000000 1.000000 1.000000
v 0.142185 -0.247660 0.090272 1.000000 1.000000 1.000000
v -0.094500 0.300497 -0.075227 1.000000 1.000000 1.000000
v -0.080013 0.204623 -0.075227 1.000000 1.000000 1.000000
v -0.080013 0.204623 0.075227 1.000000 1.000000 1.000000
v -0.094500 0.300497 0.075227 1.000000 1.000000 1.000000
v -0.075793 0.110342 0.075227 1.000000 1.000000 1.000000
v -0.075793 0.110342 -0.075227 1.000000 1.000000 1.000000
v -0.089983 0.018919 0.075227 1.000000 1.000000 1.000000
v -0.089983 0.018919 -0.075227 1.000000 1.000000 1.000000
v -0.122584 -0.069647 0.075227 1.000000 1.000000 1.000000
v -0.122584 -0.069647 -0.075227 1.000000 1.000000 1.000000
v -0.165454 -0.156619 0.075227 1.000000 1.000000 1.000000
v -0.165454 -0.156619 -0.075227 1.000000 1.000000 1.000000
v -0.206828 -0.193486 -0.090272 1.000000 1.000000 1.000000
v -0.206828 -0.193486 0.090272 1.000000 1.000000 1.000000
v 0.133962 -0.300496 -0.090272 1.000000 1.000000 1.000000
v -0.206828 -0.193486 -0.090272 1.000000 1.000000 1.000000
v 0.142185 -0.247660 -0.090272 1.000000 1.000000 1.000000
v -0.215052 -0.246322 -0.090272 1.000000 1.000000 1.000000
v 0.133962 -0.300496 0.090272 1.000000 1.000000 1.000000
v -0.206828 -0.193486 0.090272 1.000000 1.000000 1.000000
v -0.215052 -0.246322 0.090272 1.000000 1.000000 1.000000
v 0.142185 -0.247660 0.090272 1.000000 1.000000 1.000000
v 0.196344 0.255352 0.075227 1.000000 1.000000 1.000000
v -0.080013 0.204623 0.075227 1.000000 1.000000 1.000000
v 0.210832 0.159478 0.075227 1.000000 1.000000 1.000000
v -0.094500 0.300497 0.075227 1.000000 1.000000 1.000000
v -0.075793 0.110342 0.075227 1.000000 1.000000 1.000000
v 0.215052 0.065197 0.075227 1.000000 1.000000 1.000000
v -0.089983 0.018919 0.075227 1.000000 1.000000 1.000000
v 0.200861 -0.026226 0.075227 1.000000 1.000000 1.000000
v 0.168260 -0.114792 0.075227 1.000000 1.000000 1.000000
v -0.122584 -0.069647 0.075227 1.000000 1.000000 1.000000
v 0.125390 -0.201763 0.075227 1.000000 1.000000 1.000000
v -0.165454 -0.156619 0.075227 1.000000 1.000000 1.000000
v 0.142185 -0.247660 0.090272 1.000000 1.000000 1.000000
v -0.206828 -0.193486 0.090272 1.000000 1.000000 1.000000
v 0.196344 0.255352 -0.075227 1.000000 1.000000 1.000000
v -0.080013 0.204623 -0.075227 1.000000 1.000000 1.000000
v -0.094500 0.300497 -0.075227 1.000000 1.000000 1.000000
v 0.210832 0.159478 -0.075227 1.000000 1.000000 1.000000
v -0.075793 0.110342 -0.075227 1.000000 1.000000 1.000000
v 0.215052 0.065197 -0.075227 1.000000 1.000000 1.000000
v -0.089983 0.018919 -0.075227 1.000000 1.000000 1.000000
v 0.200861 -0.026226 -0.075227 1.000000 1.000000 1.000000
v 0.168260 -0.114792 -0.075227 1.000000 1.000000 1.000000
v -0.122584 -0.069647 -0.075227 1.000000 1.000000 1.000000
v 0.125390 -0.201763 -0.075227 1.000000 1.000000 1.000000
v -0.165454 -0.156619 -0.075227 1.000000 1.000000 1.000000
v 0.142185 -0.247660 -0.090272 1.000000 1.000000 1.000000
v -0.206828 -0.193486 -0.090272 1.000000 1.000000 1.000000

vn 0.153395 0.988165 0.000000
vn 0.153395 0.988165 0.000000
vn 0.153395 0.988165 0.000000
vn 0.153395 0.988165 0.000000
vn -0.153395 -0.988165 -0.000000
vn -0.153395 -0.988165 -0.000000
vn -0.153395 -0.988165 -0.000000
vn -0.153395 -0.988165 -0.000000
vn -0.988102 0.153800 0.000000
vn -0.988102 0.153800 0.000000
vn -0.988102 0.153800 0.000000
vn -0.988102 0.153800 0.000000
vn 0.988777 0.149397 0.000000
vn 0.995265 0.097197 0.000000
vn 0.988777 0.149397 0.000000
vn 0.995265 0.097197 0.000000
vn 0.998508 -0.054600 -0.000000
vn 0.998508 -0.054600 -0.000000
vn 0.968091 -0.250598 -0.000000
vn 0.968091 -0.250598 -0.000000
vn 0.918985 -0.394293 -0.000000
vn 0.918985 -0.394293 -0.000000
vn 0.999864 -0.016499 -0.000000
vn 0.999864 -0.016499 -0.000000
vn 0.939114 0.343605 0.000000
vn 0.939114 0.343605 0.000000
vn 0.988102 -0.153800 -0.000000
vn 0.988102 -0.153800 -0.000000
vn 0.988102 -0.153800 -0.000000
vn 0.988102 -0.153800 -0.000000
vn -0.988777 -0.149397 -0.000000
vn -0.995265 -0.097197 -0.000000
vn -0.995265 -0.097197 -0.000000
vn -0.988777 -0.149397 -0.000000
vn -0.998508 0.054600 0.000000
vn -0.998508 0.054600 0.000000
vn -0.968091 0.250598 0.000000
vn -0.968091 0.250598 0.000000
vn -0.918985 0.394293 0.000000
vn -0.918985 0.394293 0.000000
vn -0.786544 0.617534 0.000000
vn -0.786544 0.617534 0.000000
vn -0.665288 0.746587 0.000000
vn -0.665288 0.746587 0.000000
vn 0.000000 0.000000 -1.000000
vn 0.000000 0.000000 -1.000000
vn 0.000000 0.000000 -1.000000
vn 0.000000 0.000000 -1.000000
vn -0.000000 -0.000000 1.000000
vn -0.000000 -0.000000 1.000000
vn -0.000000 -0.000000 1.000000
vn -0.000000 -0.000000 1.000000
vn -0.000000 -0.000000 1.000000
vn -0.000000 -0.000000 1.000000
vn -0.000000 -0.000000 1.000000
vn -0.000000 -0.000000 1.000000
vn -0.000000 -0.000000 1.000000
vn -0.000000 -0.000000 1.000000
vn -0.000000 -0.000000 1.000000
vn -0.000000 -0.000000 1.000000
vn -0.000000 -0.000000 1.000000
vn -0.000000 -0.000000 1.000000
vn 0.027000 0.173802 0.984410
vn 0.032901 0.211908 0.976736
vn 0.050897 0.327882 0.943347
vn 0.050897 0.327882 0.943347
vn 0.000000 0.000000 -1.000000
vn 0.000000 0.000000 -1.000000
vn 0.000000 0.000000 -1.000000
vn 0.000000 0.000000 -1.000000
vn 0.000000 0.000000 -1.000000
vn 0.000000 0.000000 -1.000000
vn 0.000000 0.000000 -1.000000
vn 0.000000 0.000000 -1.000000
vn 0.000000 0.000000 -1.000000
vn 0.000000 0.000000 -1.000000
vn 0.027000 0.173802 -0.984410
vn 0.032901 0.211908 -0.976736
vn 0.050897 0.327882 -0.943347
vn 0.050897 0.327882 -0.943347

vt 0.000000 0.000000 0.0
vt 0.000000 0.000000 0.0
vt 0.000000 0.000000 0.0
vt 0.000000 0.000000 0.0
vt 0.000000 0.000000 0.0
vt 0.000000 0.000000 0.0
vt 0.000000 0.000000 0.0
vt 0.000000 0.000000 0.0
vt 0.000000 0.000000 0.0
vt 0.000000 0.000000 0.0
vt 0.000000 0.000000 0.0
vt 0.000000 0.000000 0.0
vt 0.000000 0.000000 0.0
vt 0.000000 0.000000 0.0
vt 0.000000 0.000000 0.0
vt 0.000000 0.000000 0.0
vt 0.000000 0.000000 0.0
vt 0.000000 0.000000 0.0
vt 0.000000 0.000000 0.0
vt 0.000000 0.000000 0.0
vt 0.000000 0.000000 0.0
vt 0.000000 0.000000 0.0
vt 0.000000 0.000000 0.0
vt 0.000000 0.000000 0.0
vt 0.000000 0.000000 0.0
vt 0.000000 0.000000 0.0
vt 0.000000 0.000000 0.0
vt 0.000000 0.000000 0.0
vt 0.000000 0.000000 0.0
vt 0.000000 0.000000 0.0
vt 0.000000 0.000000 0.0
vt 0.000000 0.000000 0.0
vt 0.000000 0.000000 0.0
vt 0.000000 0.000000 0.0
vt 0.000000 0.000000 0.0
vt 0.000000 0.000000 0.0
vt 0.000000 0.000000 0.0
vt 0.000000 0.000000 0.0
vt 0.000000 0.000000 0.0
vt 0.000000 0.000000 0.0
vt 0.000000 0.000000 0.0
vt 0.000000 0.000000 0.0
vt 0.000000 0.000000 0.0
vt 0.000000 0.000000 0.0
vt 0.000000 0.000000 0.0
vt 0.000000 0.000000 0.0
vt 0.000000 0.000000 0.0
vt 0.000000 0.000000 0.0
vt 0.000000 0.000000 0.0
vt 0.000000 0.000000 0.0
vt 0.000000 0.000000 0.0
vt 0.000000 0.000000 0.0
vt 0.000000 0.000000 0.0
vt 0.000000 0.000000 0.0
vt 0.000000 0.000000 0.0
vt 0.000000 0.000000 0.0
vt 0.000000 0.000000 0.0
vt 0.000000 0.000000 0.0
vt 0.000000 0.000000 0.0
vt 0.000000 0.000000 0.0
vt 0.000000 0.000000 0.0
vt 0.000000 0.000000 0.0
vt 0.000000 0.000000 0.0
vt 0.000000 0.000000 0.0
vt 0.000000 0.000000 0.0
vt 0.000000 0.000000 0.0
vt 0.000000 0.000000 0.0
vt 0.000000 0.000000 0.0
vt 0.000000 0.000000 0.0
vt 0.000000 0.000000 0.0
vt 0.000000 0.000000 0.0
vt 0.000000 0.000000 0.0
vt 0.000000 0.000000 0.0
vt 0.000000 0.000000 0.0
vt 0.000000 0.000000 0.0
vt 0.000000 0.000000 0.0
vt 0.000000 0.000000 0.0
vt 0.000000 0.000000 0.0
vt 0.000000 0.000000 0.0
vt 0.000000 0.000000 0.0

f 1/1/1 2/2/2 3/3/3
f 1/1/1 3/3/3 4/4/4
f 5/5/5 6/6/6 7/7/7
f 5/5/5 7/7/7 8/8/8
f 9/9/9 10/10/10 11/11/11
f 10/10/10 9/9/9 12/12/12
f 13/13/13 14/14/14 15/15/15
f 14/14/14 13/13/13 16/16/16
f 14/14/14 16/16/16 17/17/17
f 17/17/17 16/16/16 18/18/18
f 18/18/18 19/19/19 17/17/17
f 19/19/19 18/18/18 20/20/20
f 20/20/20 21/21/21 19/19/19
f 21/21/21 20/20/20 22/22/22
f 21/21/21 22/22/22 23/23/23
f 23/23/23 22/22/22 24/24/24
f 25/25/25 23/23/23 24/24/24
f 25/25/25 26/26/26 23/23/23
f 27/27/27 28/28/28 29/29/29
f 29/29/29 30/30/30 27/27/27
f 31/31/31 32/32/32 33/33/33
f 31/31/31 33/33/33 34/34/34
f 32/32/32 35/35/35 33/33/33
f 32/32/32 36/36/36 35/35/35
f 36/36/36 37/37/37 35/35/35
f 36/36/36 38/38/38 37/37/37
f 38/38/38 39/39/39 37/37/37
f 38/38/38 40/40/40 39/39/39
f 40/40/40 41/41/41 39/39/39
f 40/40/40 42/42/42 41/41/41
f 43/43/43 41/41/41 42/42/42
f 43/43/43 44/44/44 41/41/41
f 45/45/45 46/46/46 47/47/47
f 46/46/46 45/45/45 48/48/48
f 49/49/49 50/50/50 51/51/51
f 50/50/50 49/49/49 52/52/52
f 53/53/53 54/54/54 55/55/55
f 54/54/54 53/53/53 56/56/56
f 57/57/57 55/55/55 54/54/54
f 55/55/55 57/57/57 58/58/58
f 59/59/59 58/58/58 57/57/57
f 58/58/58 59/59/59 60/60/60
f 60/60/60 59/59/59 61/61/61
f 62/62/62 61/61/61 59/59/59
f 61/61/61 62/62/62 63/63/63
f 64/64/64 63/63/63 62/62/62
f 64/64/64 65/65/65 63/63/63
f 65/65/65 64/64/64 66/66/66
f 67/67/67 68/68/68 69/69/69
f 68/68/68 67/67/67 70/70/70
f 70/70/70 71/71/71 68/68/68
f 71/71/71 70/70/70 72/72/72
f 72/72/72 73/73/73 71/71/71
f 73/73/73 72/72/72 74/74/74
f 75/75/75 73/73/73 74/74/74
f 73/73/73 75/75/75 76/76/76
f 77/77/77 76/76/76 75/75/75
f 76/76/76 77/77/77 78/78/78
f 79/79/79 78/78/78 77/77/77
f 78/78/78 79/79/79 80/80/80
