# Converted from Roblox mesh format
# Vertices: 94, Faces: 60

v -0.414839 0.283985 0.105342 1.000000 1.000000 1.000000
v -0.414839 0.283985 -0.105342 1.000000 1.000000 1.000000
v -0.414839 0.191228 -0.105342 1.000000 1.000000 1.000000
v -0.414839 0.191228 0.105342 1.000000 1.000000 1.000000
v -0.374839 0.071228 -0.105342 1.000000 1.000000 1.000000
v -0.374839 0.071228 0.105342 1.000000 1.000000 1.000000
v -0.374839 0.161228 -0.105342 1.000000 1.000000 1.000000
v -0.374839 0.161228 0.105342 1.000000 1.000000 1.000000
v 0.167977 -0.283985 -0.096575 1.000000 1.000000 1.000000
v 0.414839 -0.225590 -0.096575 1.000000 1.000000 1.000000
v 0.167977 -0.283985 0.096575 1.000000 1.000000 1.000000
v 0.414839 -0.225590 0.096575 1.000000 1.000000 1.000000
v -0.414839 0.283985 0.105342 1.000000 1.000000 1.000000
v 0.412383 0.283985 0.105342 1.000000 1.000000 1.000000
v -0.414839 0.283985 -0.105342 1.000000 1.000000 1.000000
v 0.412383 0.283985 -0.105342 1.000000 1.000000 1.000000
v 0.316551 0.189913 -0.096575 1.000000 1.000000 1.000000
v 0.398017 -0.154478 0.096575 1.000000 1.000000 1.000000
v 0.398017 -0.154478 -0.096575 1.000000 1.000000 1.000000
v 0.316551 0.189913 0.096575 1.000000 1.000000 1.000000
v 0.403624 -0.178182 -0.096575 1.000000 1.000000 1.000000
v 0.403624 -0.178182 0.096575 1.000000 1.000000 1.000000
v 0.414839 -0.225590 -0.096575 1.000000 1.000000 1.000000
v 0.414839 -0.225590 0.096575 1.000000 1.000000 1.000000
v -0.374839 0.161228 -0.105342 1.000000 1.000000 1.000000
v -0.374839 0.161228 0.105342 1.000000 1.000000 1.000000
v -0.414839 0.191228 -0.105342 1.000000 1.000000 1.000000
v -0.414839 0.191228 0.105342 1.000000 1.000000 1.000000
v -0.038469 0.022546 -0.105342 1.000000 1.000000 1.000000
v -0.374839 0.071228 -0.105342 1.000000 1.000000 1.000000
v -0.033102 0.111228 -0.105342 1.000000 1.000000 1.000000
v -0.374839 0.161228 -0.105342 1.000000 1.000000 1.000000
v -0.414839 0.283985 -0.105342 1.000000 1.000000 1.000000
v -0.414839 0.191228 -0.105342 1.000000 1.000000 1.000000
v 0.412383 0.283985 -0.105342 1.000000 1.000000 1.000000
v 0.358635 0.161228 -0.105342 1.000000 1.000000 1.000000
v 0.338635 0.111228 -0.105342 1.000000 1.000000 1.000000
v 0.412383 0.181228 -0.105342 1.000000 1.000000 1.000000
v 0.358635 0.161228 0.105342 1.000000 1.000000 1.000000
v -0.033102 0.111228 0.105342 1.000000 1.000000 1.000000
v 0.338635 0.111228 0.105342 1.000000 1.000000 1.000000
v 0.412383 0.283985 0.105342 1.000000 1.000000 1.000000
v 0.412383 0.181228 0.105342 1.000000 1.000000 1.000000
v -0.414839 0.283985 0.105342 1.000000 1.000000 1.000000
v -0.374839 0.161228 0.105342 1.000000 1.000000 1.000000
v -0.414839 0.191228 0.105342 1.000000 1.000000 1.000000
v -0.374839 0.071228 0.105342 1.000000 1.000000 1.000000
v -0.038469 0.022546 0.105342 1.000000 1.000000 1.000000
v 0.398017 -0.154478 -0.096575 1.000000 1.000000 1.000000
v 0.093393 0.137125 -0.096575 1.000000 1.000000 1.000000
v 0.316551 0.189913 -0.096575 1.000000 1.000000 1.000000
v 0.174859 -0.207267 -0.096575 1.000000 1.000000 1.000000
v 0.403624 -0.178182 -0.096575 1.000000 1.000000 1.000000
v 0.156763 -0.236578 -0.096575 1.000000 1.000000 1.000000
v 0.414839 -0.225590 -0.096575 1.000000 1.000000 1.000000
v 0.167977 -0.283985 -0.096575 1.000000 1.000000 1.000000
v 0.398017 -0.154478 0.096575 1.000000 1.000000 1.000000
v 0.093393 0.137125 0.096575 1.000000 1.000000 1.000000
v 0.174859 -0.207267 0.096575 1.000000 1.000000 1.000000
v 0.316551 0.189913 0.096575 1.000000 1.000000 1.000000
v 0.403624 -0.178182 0.096575 1.000000 1.000000 1.000000
v 0.156763 -0.236578 0.096575 1.000000 1.000000 1.000000
v 0.414839 -0.225590 0.096575 1.000000 1.000000 1.000000
v 0.167977 -0.283985 0.096575 1.000000 1.000000 1.000000
v 0.358635 0.161228 -0.105342 1.000000 1.000000 1.000000
v 0.358635 0.161228 0.105342 1.000000 1.000000 1.000000
v 0.338635 0.111228 -0.105342 1.000000 1.000000 1.000000
v 0.338635 0.111228 0.105342 1.000000 1.000000 1.000000
v 0.412383 0.181228 0.105342 1.000000 1.000000 1.000000
v 0.412383 0.181228 -0.105342 1.000000 1.000000 1.000000
v -0.038469 0.022546 -0.105342 1.000000 1.000000 1.000000
v -0.374839 0.071228 0.105342 1.000000 1.000000 1.000000
v -0.374839 0.071228 -0.105342 1.000000 1.000000 1.000000
v -0.038469 0.022546 0.105342 1.000000 1.000000 1.000000
v 0.167977 -0.283985 0.096575 1.000000 1.000000 1.000000
v 0.156763 -0.236578 -0.096575 1.000000 1.000000 1.000000
v 0.167977 -0.283985 -0.096575 1.000000 1.000000 1.000000
v 0.156763 -0.236578 0.096575 1.000000 1.000000 1.000000
v 0.174859 -0.207267 0.096575 1.000000 1.000000 1.000000
v 0.093393 0.137125 0.096575 1.000000 1.000000 1.000000
v 0.174859 -0.207267 -0.096575 1.000000 1.000000 1.000000
v 0.093393 0.137125 -0.096575 1.000000 1.000000 1.000000
v 0.338635 0.111228 0.105342 1.000000 1.000000 1.000000
v -0.033102 0.111228 0.105342 1.000000 1.000000 1.000000
v 0.338635 0.111228 -0.105342 1.000000 1.000000 1.000000
v -0.033102 0.111228 -0.105342 1.000000 1.000000 1.000000
v -0.033102 0.111228 -0.105342 1.000000 1.000000 1.000000
v -0.033102 0.111228 0.105342 1.000000 1.000000 1.000000
v -0.038469 0.022546 -0.105342 1.000000 1.000000 1.000000
v -0.038469 0.022546 0.105342 1.000000 1.000000 1.000000
v 0.156763 -0.236578 -0.096575 1.000000 1.000000 1.000000
v 0.156763 -0.236578 0.096575 1.000000 1.000000 1.000000
v 0.174859 -0.207267 -0.096575 1.000000 1.000000 1.000000
v 0.174859 -0.207267 0.096575 1.000000 1.000000 1.000000

vn -1.000000 0.000000 0.000000
vn -1.000000 0.000000 0.000000
vn -1.000000 0.000000 0.000000
vn -1.000000 0.000000 0.000000
vn -1.000000 0.000000 0.000000
vn -1.000000 0.000000 0.000000
vn -1.000000 0.000000 0.000000
vn -1.000000 0.000000 0.000000
vn 0.230210 -0.973141 -0.000000
vn 0.230210 -0.973141 -0.000000
vn 0.230210 -0.973141 -0.000000
vn 0.230210 -0.973141 -0.000000
vn 0.000000 1.000000 0.000000
vn 0.000000 1.000000 0.000000
vn 0.000000 1.000000 0.000000
vn 0.000000 1.000000 0.000000
vn 0.973141 0.230210 0.000000
vn 0.973141 0.230210 0.000000
vn 0.973141 0.230210 0.000000
vn 0.973141 0.230210 0.000000
vn 0.973141 0.230210 0.000000
vn 0.973141 0.230210 0.000000
vn 0.973141 0.230210 0.000000
vn 0.973141 0.230210 0.000000
vn -0.600000 -0.800000 -0.000000
vn -0.600000 -0.800000 -0.000000
vn -0.600000 -0.800000 -0.000000
vn -0.600000 -0.800000 -0.000000
vn 0.000000 0.000000 -1.000000
vn 0.000000 0.000000 -1.000000
vn 0.000000 0.000000 -1.000000
vn 0.000000 0.000000 -1.000000
vn 0.000000 0.000000 -1.000000
vn 0.000000 0.000000 -1.000000
vn 0.000000 0.000000 -1.000000
vn 0.000000 0.000000 -1.000000
vn 0.000000 0.000000 -1.000000
vn 0.000000 0.000000 -1.000000
vn -0.000000 -0.000000 1.000000
vn -0.000000 -0.000000 1.000000
vn -0.000000 -0.000000 1.000000
vn -0.000000 -0.000000 1.000000
vn -0.000000 -0.000000 1.000000
vn -0.000000 -0.000000 1.000000
vn -0.000000 -0.000000 1.000000
vn -0.000000 -0.000000 1.000000
vn -0.000000 -0.000000 1.000000
vn -0.000000 -0.000000 1.000000
vn 0.000000 0.000000 -1.000000
vn 0.000000 0.000000 -1.000000
vn 0.000000 0.000000 -1.000000
vn 0.000000 0.000000 -1.000000
vn 0.000000 0.000000 -1.000000
vn 0.000000 0.000000 -1.000000
vn 0.000000 0.000000 -1.000000
vn 0.000000 0.000000 -1.000000
vn -0.000000 -0.000000 1.000000
vn -0.000000 -0.000000 1.000000
vn -0.000000 -0.000000 1.000000
vn -0.000000 -0.000000 1.000000
vn -0.000000 -0.000000 1.000000
vn -0.000000 -0.000000 1.000000
vn -0.000000 -0.000000 1.000000
vn -0.000000 -0.000000 1.000000
vn 0.698505 -0.715605 -0.000000
vn 0.698505 -0.715605 -0.000000
vn 0.928477 -0.371391 -0.000000
vn 0.928477 -0.371391 -0.000000
vn 0.348711 -0.937230 -0.000000
vn 0.348711 -0.937230 -0.000000
vn -0.143199 -0.989694 -0.000000
vn -0.143199 -0.989694 -0.000000
vn -0.143199 -0.989694 -0.000000
vn -0.143199 -0.989694 -0.000000
vn -0.973141 -0.230210 -0.000000
vn -0.973141 -0.230210 -0.000000
vn -0.973141 -0.230210 -0.000000
vn -0.973141 -0.230210 -0.000000
vn -0.973141 -0.230210 -0.000000
vn -0.973141 -0.230210 -0.000000
vn -0.973141 -0.230210 -0.000000
vn -0.973141 -0.230210 -0.000000
vn -0.000000 -1.000000 -0.000000
vn -0.000000 -1.000000 -0.000000
vn -0.000000 -1.000000 -0.000000
vn -0.000000 -1.000000 -0.000000
vn 0.998174 -0.060398 -0.000000
vn 0.998174 -0.060398 -0.000000
vn 0.998174 -0.060398 -0.000000
vn 0.998174 -0.060398 -0.000000
vn -0.850912 0.525308 0.000000
vn -0.850912 0.525308 0.000000
vn -0.850912 0.525308 0.000000
vn -0.850912 0.525308 0.000000

vt 0.000000 0.000000 0.0
vt 0.000000 0.000000 0.0
vt 0.000000 0.000000 0.0
vt 0.000000 0.000000 0.0
vt 0.000000 0.000000 0.0
vt 0.000000 0.000000 0.0
vt 0.000000 0.000000 0.0
vt 0.000000 0.000000 0.0
vt 0.000000 0.000000 0.0
vt 0.000000 0.000000 0.0
vt 0.000000 0.000000 0.0
vt 0.000000 0.000000 0.0
vt 0.000000 0.000000 0.0
vt 0.000000 0.000000 0.0
vt 0.000000 0.000000 0.0
vt 0.000000 0.000000 0.0
vt 0.000000 0.000000 0.0
vt 0.000000 0.000000 0.0
vt 0.000000 0.000000 0.0
vt 0.000000 0.000000 0.0
vt 0.000000 0.000000 0.0
vt 0.000000 0.000000 0.0
vt 0.000000 0.000000 0.0
vt 0.000000 0.000000 0.0
vt 0.000000 0.000000 0.0
vt 0.000000 0.000000 0.0
vt 0.000000 0.000000 0.0
vt 0.000000 0.000000 0.0
vt 0.000000 0.000000 0.0
vt 0.000000 0.000000 0.0
vt 0.000000 0.000000 0.0
vt 0.000000 0.000000 0.0
vt 0.000000 0.000000 0.0
vt 0.000000 0.000000 0.0
vt 0.000000 0.000000 0.0
vt 0.000000 0.000000 0.0
vt 0.000000 0.000000 0.0
vt 0.000000 0.000000 0.0
vt 0.000000 0.000000 0.0
vt 0.000000 0.000000 0.0
vt 0.000000 0.000000 0.0
vt 0.000000 0.000000 0.0
vt 0.000000 0.000000 0.0
vt 0.000000 0.000000 0.0
vt 0.000000 0.000000 0.0
vt 0.000000 0.000000 0.0
vt 0.000000 0.000000 0.0
vt 0.000000 0.000000 0.0
vt 0.000000 0.000000 0.0
vt 0.000000 0.000000 0.0
vt 0.000000 0.000000 0.0
vt 0.000000 0.000000 0.0
vt 0.000000 0.000000 0.0
vt 0.000000 0.000000 0.0
vt 0.000000 0.000000 0.0
vt 0.000000 0.000000 0.0
vt 0.000000 0.000000 0.0
vt 0.000000 0.000000 0.0
vt 0.000000 0.000000 0.0
vt 0.000000 0.000000 0.0
vt 0.000000 0.000000 0.0
vt 0.000000 0.000000 0.0
vt 0.000000 0.000000 0.0
vt 0.000000 0.000000 0.0
vt 0.000000 0.000000 0.0
vt 0.000000 0.000000 0.0
vt 0.000000 0.000000 0.0
vt 0.000000 0.000000 0.0
vt 0.000000 0.000000 0.0
vt 0.000000 0.000000 0.0
vt 0.000000 0.000000 0.0
vt 0.000000 0.000000 0.0
vt 0.000000 0.000000 0.0
vt 0.000000 0.000000 0.0
vt 0.000000 0.000000 0.0
vt 0.000000 0.000000 0.0
vt 0.000000 0.000000 0.0
vt 0.000000 0.000000 0.0
vt 0.000000 0.000000 0.0
vt 0.000000 0.000000 0.0
vt 0.000000 0.000000 0.0
vt 0.000000 0.000000 0.0
vt 0.000000 0.000000 0.0
vt 0.000000 0.000000 0.0
vt 0.000000 0.000000 0.0
vt 0.000000 0.000000 0.0
vt 0.000000 0.000000 0.0
vt 0.000000 0.000000 0.0
vt 0.000000 0.000000 0.0
vt 0.000000 0.000000 0.0
vt 0.000000 0.000000 0.0
vt 0.000000 0.000000 0.0
vt 0.000000 0.000000 0.0
vt 0.000000 0.000000 0.0

f 1/1/1 2/2/2 3/3/3
f 3/3/3 4/4/4 1/1/1
f 5/5/5 6/6/6 7/7/7
f 7/7/7 6/6/6 8/8/8
f 9/9/9 10/10/10 11/11/11
f 10/10/10 12/12/12 11/11/11
f 13/13/13 14/14/14 15/15/15
f 16/16/16 15/15/15 14/14/14
f 17/17/17 18/18/18 19/19/19
f 18/18/18 17/17/17 20/20/20
f 19/19/19 18/18/18 21/21/21
f 21/21/21 18/18/18 22/22/22
f 21/21/21 22/22/22 23/23/23
f 23/23/23 22/22/22 24/24/24
f 25/25/25 26/26/26 27/27/27
f 27/27/27 26/26/26 28/28/28
f 29/29/29 30/30/30 31/31/31
f 32/32/32 31/31/31 30/30/30
f 32/32/32 33/33/33 31/31/31
f 33/33/33 32/32/32 34/34/34
f 31/31/31 33/33/33 35/35/35
f 36/36/36 31/31/31 35/35/35
f 37/37/37 31/31/31 36/36/36
f 36/36/36 35/35/35 38/38/38
f 39/39/39 40/40/40 41/41/41
f 42/42/42 39/39/39 43/43/43
f 42/42/42 40/40/40 39/39/39
f 40/40/40 42/42/42 44/44/44
f 44/44/44 45/45/45 40/40/40
f 45/45/45 44/44/44 46/46/46
f 47/47/47 40/40/40 45/45/45
f 40/40/40 47/47/47 48/48/48
f 49/49/49 50/50/50 51/51/51
f 50/50/50 49/49/49 52/52/52
f 53/53/53 52/52/52 49/49/49
f 52/52/52 53/53/53 54/54/54
f 55/55/55 54/54/54 53/53/53
f 54/54/54 55/55/55 56/56/56
f 57/57/57 58/58/58 59/59/59
f 58/58/58 57/57/57 60/60/60
f 57/57/57 59/59/59 61/61/61
f 62/62/62 61/61/61 59/59/59
f 61/61/61 62/62/62 63/63/63
f 63/63/63 62/62/62 64/64/64
f 65/65/65 66/66/66 67/67/67
f 67/67/67 66/66/66 68/68/68
f 65/65/65 69/69/69 66/66/66
f 70/70/70 69/69/69 65/65/65
f 71/71/71 72/72/72 73/73/73
f 72/72/72 71/71/71 74/74/74
f 75/75/75 76/76/76 77/77/77
f 76/76/76 75/75/75 78/78/78
f 79/79/79 80/80/80 81/81/81
f 82/82/82 81/81/81 80/80/80
f 83/83/83 84/84/84 85/85/85
f 86/86/86 85/85/85 84/84/84
f 87/87/87 88/88/88 89/89/89
f 89/89/89 88/88/88 90/90/90
f 91/91/91 92/92/92 93/93/93
f 93/93/93 92/92/92 94/94/94
