# Converted from Roblox mesh format
# Vertices: 168, Faces: 132

v -0.028142 -0.211774 -0.080276 1.000000 1.000000 1.000000
v -0.028142 -0.211774 0.080276 1.000000 1.000000 1.000000
v -0.054016 -0.207757 -0.080276 1.000000 1.000000 1.000000
v -0.054016 -0.207757 0.080276 1.000000 1.000000 1.000000
v 0.011104 0.211773 -0.080276 1.000000 1.000000 1.000000
v 0.011104 0.211773 0.080276 1.000000 1.000000 1.000000
v 0.036978 0.207757 -0.080276 1.000000 1.000000 1.000000
v 0.036978 0.207757 0.080276 1.000000 1.000000 1.000000
v 0.066969 -0.226536 -0.080276 1.000000 1.000000 1.000000
v 0.066969 -0.226536 0.080276 1.000000 1.000000 1.000000
v 0.041094 -0.222520 -0.080276 1.000000 1.000000 1.000000
v 0.041094 -0.222520 0.080276 1.000000 1.000000 1.000000
v 0.106214 0.197010 -0.080276 1.000000 1.000000 1.000000
v 0.106214 0.197010 0.080276 1.000000 1.000000 1.000000
v 0.132088 0.192994 -0.080276 1.000000 1.000000 1.000000
v 0.132088 0.192994 0.080276 1.000000 1.000000 1.000000
v -0.123252 -0.197010 -0.080276 1.000000 1.000000 1.000000
v -0.123252 -0.197010 0.080276 1.000000 1.000000 1.000000
v -0.149126 -0.192994 -0.080276 1.000000 1.000000 1.000000
v -0.149126 -0.192994 0.080276 1.000000 1.000000 1.000000
v -0.084007 0.226536 -0.080276 1.000000 1.000000 1.000000
v -0.084007 0.226536 0.080276 1.000000 1.000000 1.000000
v -0.058133 0.222520 -0.080276 1.000000 1.000000 1.000000
v -0.058133 0.222520 0.080276 1.000000 1.000000 1.000000
v 0.132088 0.192994 -0.080276 1.000000 1.000000 1.000000
v 0.132088 0.192994 0.080276 1.000000 1.000000 1.000000
v 0.145465 0.111569 -0.080276 1.000000 1.000000 1.000000
v 0.145465 0.111569 0.080276 1.000000 1.000000 1.000000
v 0.149126 0.020687 -0.080276 1.000000 1.000000 1.000000
v 0.149126 0.020687 0.080276 1.000000 1.000000 1.000000
v 0.135437 -0.067502 -0.080276 1.000000 1.000000 1.000000
v 0.135437 -0.067502 0.080276 1.000000 1.000000 1.000000
v 0.104399 -0.152998 -0.080276 1.000000 1.000000 1.000000
v 0.104399 -0.152998 0.080276 1.000000 1.000000 1.000000
v 0.066969 -0.226536 -0.080276 1.000000 1.000000 1.000000
v 0.066969 -0.226536 0.080276 1.000000 1.000000 1.000000
v -0.070629 0.145111 -0.080276 1.000000 1.000000 1.000000
v -0.070629 0.145111 0.080276 1.000000 1.000000 1.000000
v -0.084007 0.226536 -0.080276 1.000000 1.000000 1.000000
v -0.084007 0.226536 0.080276 1.000000 1.000000 1.000000
v -0.066969 0.054229 0.080276 1.000000 1.000000 1.000000
v -0.066969 0.054229 -0.080276 1.000000 1.000000 1.000000
v -0.080657 -0.033960 0.080276 1.000000 1.000000 1.000000
v -0.080657 -0.033960 -0.080276 1.000000 1.000000 1.000000
v -0.111696 -0.119456 0.080276 1.000000 1.000000 1.000000
v -0.111696 -0.119456 -0.080276 1.000000 1.000000 1.000000
v -0.149126 -0.192994 0.080276 1.000000 1.000000 1.000000
v -0.149126 -0.192994 -0.080276 1.000000 1.000000 1.000000
v 0.024481 0.130348 0.080276 1.000000 1.000000 1.000000
v 0.036978 0.207757 0.080276 1.000000 1.000000 1.000000
v 0.011104 0.211773 0.080276 1.000000 1.000000 1.000000
v 0.050355 0.126332 0.080276 1.000000 1.000000 1.000000
v 0.028142 0.039466 0.080276 1.000000 1.000000 1.000000
v 0.054016 0.035450 0.080276 1.000000 1.000000 1.000000
v 0.040327 -0.052739 0.080276 1.000000 1.000000 1.000000
v 0.014453 -0.048723 0.080276 1.000000 1.000000 1.000000
v 0.009289 -0.138235 0.080276 1.000000 1.000000 1.000000
v -0.016585 -0.134219 0.080276 1.000000 1.000000 1.000000
v -0.028142 -0.211774 0.080276 1.000000 1.000000 1.000000
v -0.054016 -0.207757 0.080276 1.000000 1.000000 1.000000
v 0.036978 0.207757 -0.080276 1.000000 1.000000 1.000000
v 0.024481 0.130348 -0.080276 1.000000 1.000000 1.000000
v 0.011104 0.211773 -0.080276 1.000000 1.000000 1.000000
v 0.050355 0.126332 -0.080276 1.000000 1.000000 1.000000
v 0.028142 0.039466 -0.080276 1.000000 1.000000 1.000000
v 0.054016 0.035450 -0.080276 1.000000 1.000000 1.000000
v 0.040327 -0.052739 -0.080276 1.000000 1.000000 1.000000
v 0.014453 -0.048723 -0.080276 1.000000 1.000000 1.000000
v 0.009289 -0.138235 -0.080276 1.000000 1.000000 1.000000
v -0.016585 -0.134219 -0.080276 1.000000 1.000000 1.000000
v -0.028142 -0.211774 -0.080276 1.000000 1.000000 1.000000
v -0.054016 -0.207757 -0.080276 1.000000 1.000000 1.000000
v 0.119591 0.115585 0.080276 1.000000 1.000000 1.000000
v 0.132088 0.192994 0.080276 1.000000 1.000000 1.000000
v 0.106214 0.197010 0.080276 1.000000 1.000000 1.000000
v 0.145465 0.111569 0.080276 1.000000 1.000000 1.000000
v 0.123252 0.024703 0.080276 1.000000 1.000000 1.000000
v 0.149126 0.020687 0.080276 1.000000 1.000000 1.000000
v 0.135437 -0.067502 0.080276 1.000000 1.000000 1.000000
v 0.109563 -0.063486 0.080276 1.000000 1.000000 1.000000
v 0.104399 -0.152998 0.080276 1.000000 1.000000 1.000000
v 0.078525 -0.148982 0.080276 1.000000 1.000000 1.000000
v 0.066969 -0.226536 0.080276 1.000000 1.000000 1.000000
v 0.041094 -0.222520 0.080276 1.000000 1.000000 1.000000
v 0.132088 0.192994 -0.080276 1.000000 1.000000 1.000000
v 0.119591 0.115585 -0.080276 1.000000 1.000000 1.000000
v 0.106214 0.197010 -0.080276 1.000000 1.000000 1.000000
v 0.145465 0.111569 -0.080276 1.000000 1.000000 1.000000
v 0.123252 0.024703 -0.080276 1.000000 1.000000 1.000000
v 0.149126 0.020687 -0.080276 1.000000 1.000000 1.000000
v 0.135437 -0.067502 -0.080276 1.000000 1.000000 1.000000
v 0.109563 -0.063486 -0.080276 1.000000 1.000000 1.000000
v 0.104399 -0.152998 -0.080276 1.000000 1.000000 1.000000
v 0.078525 -0.148982 -0.080276 1.000000 1.000000 1.000000
v 0.066969 -0.226536 -0.080276 1.000000 1.000000 1.000000
v 0.041094 -0.222520 -0.080276 1.000000 1.000000 1.000000
v -0.070629 0.145111 0.080276 1.000000 1.000000 1.000000
v -0.058133 0.222520 0.080276 1.000000 1.000000 1.000000
v -0.084007 0.226536 0.080276 1.000000 1.000000 1.000000
v -0.044755 0.141095 0.080276 1.000000 1.000000 1.000000
v -0.066969 0.054229 0.080276 1.000000 1.000000 1.000000
v -0.041094 0.050213 0.080276 1.000000 1.000000 1.000000
v -0.054783 -0.037976 0.080276 1.000000 1.000000 1.000000
v -0.080657 -0.033960 0.080276 1.000000 1.000000 1.000000
v -0.085821 -0.123472 0.080276 1.000000 1.000000 1.000000
v -0.111696 -0.119456 0.080276 1.000000 1.000000 1.000000
v -0.123252 -0.197010 0.080276 1.000000 1.000000 1.000000
v -0.149126 -0.192994 0.080276 1.000000 1.000000 1.000000
v -0.058133 0.222520 -0.080276 1.000000 1.000000 1.000000
v -0.070629 0.145111 -0.080276 1.000000 1.000000 1.000000
v -0.084007 0.226536 -0.080276 1.000000 1.000000 1.000000
v -0.044755 0.141095 -0.080276 1.000000 1.000000 1.000000
v -0.066969 0.054229 -0.080276 1.000000 1.000000 1.000000
v -0.041094 0.050213 -0.080276 1.000000 1.000000 1.000000
v -0.054783 -0.037976 -0.080276 1.000000 1.000000 1.000000
v -0.080657 -0.033960 -0.080276 1.000000 1.000000 1.000000
v -0.085821 -0.123472 -0.080276 1.000000 1.000000 1.000000
v -0.111696 -0.119456 -0.080276 1.000000 1.000000 1.000000
v -0.123252 -0.197010 -0.080276 1.000000 1.000000 1.000000
v -0.149126 -0.192994 -0.080276 1.000000 1.000000 1.000000
v 0.036978 0.207757 -0.080276 1.000000 1.000000 1.000000
v 0.036978 0.207757 0.080276 1.000000 1.000000 1.000000
v 0.050355 0.126332 -0.080276 1.000000 1.000000 1.000000
v 0.050355 0.126332 0.080276 1.000000 1.000000 1.000000
v 0.054016 0.035450 -0.080276 1.000000 1.000000 1.000000
v 0.054016 0.035450 0.080276 1.000000 1.000000 1.000000
v 0.040327 -0.052739 -0.080276 1.000000 1.000000 1.000000
v 0.040327 -0.052739 0.080276 1.000000 1.000000 1.000000
v 0.009289 -0.138235 -0.080276 1.000000 1.000000 1.000000
v 0.009289 -0.138235 0.080276 1.000000 1.000000 1.000000
v -0.028142 -0.211774 -0.080276 1.000000 1.000000 1.000000
v -0.028142 -0.211774 0.080276 1.000000 1.000000 1.000000
v 0.024481 0.130348 -0.080276 1.000000 1.000000 1.000000
v 0.024481 0.130348 0.080276 1.000000 1.000000 1.000000
v 0.011104 0.211773 -0.080276 1.000000 1.000000 1.000000
v 0.011104 0.211773 0.080276 1.000000 1.000000 1.000000
v 0.028142 0.039466 0.080276 1.000000 1.000000 1.000000
v 0.028142 0.039466 -0.080276 1.000000 1.000000 1.000000
v 0.014453 -0.048723 0.080276 1.000000 1.000000 1.000000
v 0.014453 -0.048723 -0.080276 1.000000 1.000000 1.000000
v -0.016585 -0.134219 0.080276 1.000000 1.000000 1.000000
v -0.016585 -0.134219 -0.080276 1.000000 1.000000 1.000000
v -0.054016 -0.207757 0.080276 1.000000 1.000000 1.000000
v -0.054016 -0.207757 -0.080276 1.000000 1.000000 1.000000
v -0.058133 0.222520 0.080276 1.000000 1.000000 1.000000
v -0.044755 0.141095 -0.080276 1.000000 1.000000 1.000000
v -0.058133 0.222520 -0.080276 1.000000 1.000000 1.000000
v -0.044755 0.141095 0.080276 1.000000 1.000000 1.000000
v -0.041094 0.050213 -0.080276 1.000000 1.000000 1.000000
v -0.041094 0.050213 0.080276 1.000000 1.000000 1.000000
v -0.054783 -0.037976 -0.080276 1.000000 1.000000 1.000000
v -0.054783 -0.037976 0.080276 1.000000 1.000000 1.000000
v -0.085821 -0.123472 -0.080276 1.000000 1.000000 1.000000
v -0.085821 -0.123472 0.080276 1.000000 1.000000 1.000000
v -0.123252 -0.197010 -0.080276 1.000000 1.000000 1.000000
v -0.123252 -0.197010 0.080276 1.000000 1.000000 1.000000
v 0.119591 0.115585 -0.080276 1.000000 1.000000 1.000000
v 0.119591 0.115585 0.080276 1.000000 1.000000 1.000000
v 0.106214 0.197010 -0.080276 1.000000 1.000000 1.000000
v 0.106214 0.197010 0.080276 1.000000 1.000000 1.000000
v 0.123252 0.024703 0.080276 1.000000 1.000000 1.000000
v 0.123252 0.024703 -0.080276 1.000000 1.000000 1.000000
v 0.109563 -0.063486 0.080276 1.000000 1.000000 1.000000
v 0.109563 -0.063486 -0.080276 1.000000 1.000000 1.000000
v 0.078525 -0.148982 0.080276 1.000000 1.000000 1.000000
v 0.078525 -0.148982 -0.080276 1.000000 1.000000 1.000000
v 0.041094 -0.222520 0.080276 1.000000 1.000000 1.000000
v 0.041094 -0.222520 -0.080276 1.000000 1.000000 1.000000

vn -0.153395 -0.988165 -0.000000
vn -0.153395 -0.988165 -0.000000
vn -0.153395 -0.988165 -0.000000
vn -0.153395 -0.988165 -0.000000
vn 0.153395 0.988165 0.000000
vn 0.153395 0.988165 0.000000
vn 0.153395 0.988165 0.000000
vn 0.153395 0.988165 0.000000
vn -0.153395 -0.988165 -0.000000
vn -0.153395 -0.988165 -0.000000
vn -0.153395 -0.988165 -0.000000
vn -0.153395 -0.988165 -0.000000
vn 0.153395 0.988165 0.000000
vn 0.153395 0.988165 0.000000
vn 0.153395 0.988165 0.000000
vn 0.153395 0.988165 0.000000
vn -0.153395 -0.988165 -0.000000
vn -0.153395 -0.988165 -0.000000
vn -0.153395 -0.988165 -0.000000
vn -0.153395 -0.988165 -0.000000
vn 0.153395 0.988165 0.000000
vn 0.153395 0.988165 0.000000
vn 0.153395 0.988165 0.000000
vn 0.153395 0.988165 0.000000
vn 0.986775 0.162096 0.000000
vn 0.986775 0.162096 0.000000
vn 0.994845 0.101405 0.000000
vn 0.994845 0.101405 0.000000
vn 0.998386 -0.056799 -0.000000
vn 0.998386 -0.056799 -0.000000
vn 0.968630 -0.248508 -0.000000
vn 0.968630 -0.248508 -0.000000
vn 0.917299 -0.398199 -0.000000
vn 0.917299 -0.398199 -0.000000
vn 0.891204 -0.453602 -0.000000
vn 0.891204 -0.453602 -0.000000
vn -0.994845 -0.101405 -0.000000
vn -0.994845 -0.101405 -0.000000
vn -0.986775 -0.162096 -0.000000
vn -0.986775 -0.162096 -0.000000
vn -0.998386 0.056799 0.000000
vn -0.998386 0.056799 0.000000
vn -0.968630 0.248508 0.000000
vn -0.968630 0.248508 0.000000
vn -0.917299 0.398199 0.000000
vn -0.917299 0.398199 0.000000
vn -0.891204 0.453602 0.000000
vn -0.891204 0.453602 0.000000
vn -0.000000 -0.000000 1.000000
vn -0.000000 -0.000000 1.000000
vn -0.000000 -0.000000 1.000000
vn -0.000000 -0.000000 1.000000
vn -0.000000 -0.000000 1.000000
vn -0.000000 -0.000000 1.000000
vn -0.000000 -0.000000 1.000000
vn -0.000000 -0.000000 1.000000
vn -0.000000 -0.000000 1.000000
vn -0.000000 -0.000000 1.000000
vn -0.000000 -0.000000 1.000000
vn -0.000000 -0.000000 1.000000
vn 0.000000 0.000000 -1.000000
vn 0.000000 0.000000 -1.000000
vn 0.000000 0.000000 -1.000000
vn 0.000000 0.000000 -1.000000
vn 0.000000 0.000000 -1.000000
vn 0.000000 0.000000 -1.000000
vn 0.000000 0.000000 -1.000000
vn 0.000000 0.000000 -1.000000
vn 0.000000 0.000000 -1.000000
vn 0.000000 0.000000 -1.000000
vn 0.000000 0.000000 -1.000000
vn 0.000000 0.000000 -1.000000
vn -0.000000 -0.000000 1.000000
vn -0.000000 -0.000000 1.000000
vn -0.000000 -0.000000 1.000000
vn -0.000000 -0.000000 1.000000
vn -0.000000 -0.000000 1.000000
vn -0.000000 -0.000000 1.000000
vn -0.000000 -0.000000 1.000000
vn -0.000000 -0.000000 1.000000
vn -0.000000 -0.000000 1.000000
vn -0.000000 -0.000000 1.000000
vn -0.000000 -0.000000 1.000000
vn -0.000000 -0.000000 1.000000
vn 0.000000 0.000000 -1.000000
vn 0.000000 0.000000 -1.000000
vn 0.000000 0.000000 -1.000000
vn 0.000000 0.000000 -1.000000
vn 0.000000 0.000000 -1.000000
vn 0.000000 0.000000 -1.000000
vn 0.000000 0.000000 -1.000000
vn 0.000000 0.000000 -1.000000
vn 0.000000 0.000000 -1.000000
vn 0.000000 0.000000 -1.000000
vn 0.000000 0.000000 -1.000000
vn 0.000000 0.000000 -1.000000
vn -0.000000 -0.000000 1.000000
vn -0.000000 -0.000000 1.000000
vn -0.000000 -0.000000 1.000000
vn -0.000000 -0.000000 1.000000
vn -0.000000 -0.000000 1.000000
vn -0.000000 -0.000000 1.000000
vn -0.000000 -0.000000 1.000000
vn -0.000000 -0.000000 1.000000
vn -0.000000 -0.000000 1.000000
vn -0.000000 -0.000000 1.000000
vn -0.000000 -0.000000 1.000000
vn -0.000000 -0.000000 1.000000
vn 0.000000 0.000000 -1.000000
vn 0.000000 0.000000 -1.000000
vn 0.000000 0.000000 -1.000000
vn 0.000000 0.000000 -1.000000
vn 0.000000 0.000000 -1.000000
vn 0.000000 0.000000 -1.000000
vn 0.000000 0.000000 -1.000000
vn 0.000000 0.000000 -1.000000
vn 0.000000 0.000000 -1.000000
vn 0.000000 0.000000 -1.000000
vn 0.000000 0.000000 -1.000000
vn 0.000000 0.000000 -1.000000
vn 0.986775 0.162096 0.000000
vn 0.986775 0.162096 0.000000
vn 0.994845 0.101405 0.000000
vn 0.994845 0.101405 0.000000
vn 0.998386 -0.056799 -0.000000
vn 0.998386 -0.056799 -0.000000
vn 0.968630 -0.248508 -0.000000
vn 0.968630 -0.248508 -0.000000
vn 0.917299 -0.398199 -0.000000
vn 0.917299 -0.398199 -0.000000
vn 0.891204 -0.453602 -0.000000
vn 0.891204 -0.453602 -0.000000
vn -0.994845 -0.101405 -0.000000
vn -0.994845 -0.101405 -0.000000
vn -0.986775 -0.162096 -0.000000
vn -0.986775 -0.162096 -0.000000
vn -0.998386 0.056799 0.000000
vn -0.998386 0.056799 0.000000
vn -0.968630 0.248508 0.000000
vn -0.968630 0.248508 0.000000
vn -0.917299 0.398199 0.000000
vn -0.917299 0.398199 0.000000
vn -0.891204 0.453602 0.000000
vn -0.891204 0.453602 0.000000
vn 0.986775 0.162096 0.000000
vn 0.994845 0.101405 0.000000
vn 0.986775 0.162096 0.000000
vn 0.994845 0.101405 0.000000
vn 0.998386 -0.056799 -0.000000
vn 0.998386 -0.056799 -0.000000
vn 0.968630 -0.248508 -0.000000
vn 0.968630 -0.248508 -0.000000
vn 0.917299 -0.398199 -0.000000
vn 0.917299 -0.398199 -0.000000
vn 0.891204 -0.453602 -0.000000
vn 0.891204 -0.453602 -0.000000
vn -0.994845 -0.101405 -0.000000
vn -0.994845 -0.101405 -0.000000
vn -0.986775 -0.162096 -0.000000
vn -0.986775 -0.162096 -0.000000
vn -0.998386 0.056799 0.000000
vn -0.998386 0.056799 0.000000
vn -0.968630 0.248508 0.000000
vn -0.968630 0.248508 0.000000
vn -0.917299 0.398199 0.000000
vn -0.917299 0.398199 0.000000
vn -0.891204 0.453602 0.000000
vn -0.891204 0.453602 0.000000

vt 0.000000 0.000000 0.0
vt 0.000000 0.000000 0.0
vt 0.000000 0.000000 0.0
vt 0.000000 0.000000 0.0
vt 0.000000 0.000000 0.0
vt 0.000000 0.000000 0.0
vt 0.000000 0.000000 0.0
vt 0.000000 0.000000 0.0
vt 0.000000 0.000000 0.0
vt 0.000000 0.000000 0.0
vt 0.000000 0.000000 0.0
vt 0.000000 0.000000 0.0
vt 0.000000 0.000000 0.0
vt 0.000000 0.000000 0.0
vt 0.000000 0.000000 0.0
vt 0.000000 0.000000 0.0
vt 0.000000 0.000000 0.0
vt 0.000000 0.000000 0.0
vt 0.000000 0.000000 0.0
vt 0.000000 0.000000 0.0
vt 0.000000 0.000000 0.0
vt 0.000000 0.000000 0.0
vt 0.000000 0.000000 0.0
vt 0.000000 0.000000 0.0
vt 0.000000 0.000000 0.0
vt 0.000000 0.000000 0.0
vt 0.000000 0.000000 0.0
vt 0.000000 0.000000 0.0
vt 0.000000 0.000000 0.0
vt 0.000000 0.000000 0.0
vt 0.000000 0.000000 0.0
vt 0.000000 0.000000 0.0
vt 0.000000 0.000000 0.0
vt 0.000000 0.000000 0.0
vt 0.000000 0.000000 0.0
vt 0.000000 0.000000 0.0
vt 0.000000 0.000000 0.0
vt 0.000000 0.000000 0.0
vt 0.000000 0.000000 0.0
vt 0.000000 0.000000 0.0
vt 0.000000 0.000000 0.0
vt 0.000000 0.000000 0.0
vt 0.000000 0.000000 0.0
vt 0.000000 0.000000 0.0
vt 0.000000 0.000000 0.0
vt 0.000000 0.000000 0.0
vt 0.000000 0.000000 0.0
vt 0.000000 0.000000 0.0
vt 0.000000 0.000000 0.0
vt 0.000000 0.000000 0.0
vt 0.000000 0.000000 0.0
vt 0.000000 0.000000 0.0
vt 0.000000 0.000000 0.0
vt 0.000000 0.000000 0.0
vt 0.000000 0.000000 0.0
vt 0.000000 0.000000 0.0
vt 0.000000 0.000000 0.0
vt 0.000000 0.000000 0.0
vt 0.000000 0.000000 0.0
vt 0.000000 0.000000 0.0
vt 0.000000 0.000000 0.0
vt 0.000000 0.000000 0.0
vt 0.000000 0.000000 0.0
vt 0.000000 0.000000 0.0
vt 0.000000 0.000000 0.0
vt 0.000000 0.000000 0.0
vt 0.000000 0.000000 0.0
vt 0.000000 0.000000 0.0
vt 0.000000 0.000000 0.0
vt 0.000000 0.000000 0.0
vt 0.000000 0.000000 0.0
vt 0.000000 0.000000 0.0
vt 0.000000 0.000000 0.0
vt 0.000000 0.000000 0.0
vt 0.000000 0.000000 0.0
vt 0.000000 0.000000 0.0
vt 0.000000 0.000000 0.0
vt 0.000000 0.000000 0.0
vt 0.000000 0.000000 0.0
vt 0.000000 0.000000 0.0
vt 0.000000 0.000000 0.0
vt 0.000000 0.000000 0.0
vt 0.000000 0.000000 0.0
vt 0.000000 0.000000 0.0
vt 0.000000 0.000000 0.0
vt 0.000000 0.000000 0.0
vt 0.000000 0.000000 0.0
vt 0.000000 0.000000 0.0
vt 0.000000 0.000000 0.0
vt 0.000000 0.000000 0.0
vt 0.000000 0.000000 0.0
vt 0.000000 0.000000 0.0
vt 0.000000 0.000000 0.0
vt 0.000000 0.000000 0.0
vt 0.000000 0.000000 0.0
vt 0.000000 0.000000 0.0
vt 0.000000 0.000000 0.0
vt 0.000000 0.000000 0.0
vt 0.000000 0.000000 0.0
vt 0.000000 0.000000 0.0
vt 0.000000 0.000000 0.0
vt 0.000000 0.000000 0.0
vt 0.000000 0.000000 0.0
vt 0.000000 0.000000 0.0
vt 0.000000 0.000000 0.0
vt 0.000000 0.000000 0.0
vt 0.000000 0.000000 0.0
vt 0.000000 0.000000 0.0
vt 0.000000 0.000000 0.0
vt 0.000000 0.000000 0.0
vt 0.000000 0.000000 0.0
vt 0.000000 0.000000 0.0
vt 0.000000 0.000000 0.0
vt 0.000000 0.000000 0.0
vt 0.000000 0.000000 0.0
vt 0.000000 0.000000 0.0
vt 0.000000 0.000000 0.0
vt 0.000000 0.000000 0.0
vt 0.000000 0.000000 0.0
vt 0.000000 0.000000 0.0
vt 0.000000 0.000000 0.0
vt 0.000000 0.000000 0.0
vt 0.000000 0.000000 0.0
vt 0.000000 0.000000 0.0
vt 0.000000 0.000000 0.0
vt 0.000000 0.000000 0.0
vt 0.000000 0.000000 0.0
vt 0.000000 0.000000 0.0
vt 0.000000 0.000000 0.0
vt 0.000000 0.000000 0.0
vt 0.000000 0.000000 0.0
vt 0.000000 0.000000 0.0
vt 0.000000 0.000000 0.0
vt 0.000000 0.000000 0.0
vt 0.000000 0.000000 0.0
vt 0.000000 0.000000 0.0
vt 0.000000 0.000000 0.0
vt 0.000000 0.000000 0.0
vt 0.000000 0.000000 0.0
vt 0.000000 0.000000 0.0
vt 0.000000 0.000000 0.0
vt 0.000000 0.000000 0.0
vt 0.000000 0.000000 0.0
vt 0.000000 0.000000 0.0
vt 0.000000 0.000000 0.0
vt 0.000000 0.000000 0.0
vt 0.000000 0.000000 0.0
vt 0.000000 0.000000 0.0
vt 0.000000 0.000000 0.0
vt 0.000000 0.000000 0.0
vt 0.000000 0.000000 0.0
vt 0.000000 0.000000 0.0
vt 0.000000 0.000000 0.0
vt 0.000000 0.000000 0.0
vt 0.000000 0.000000 0.0
vt 0.000000 0.000000 0.0
vt 0.000000 0.000000 0.0
vt 0.000000 0.000000 0.0
vt 0.000000 0.000000 0.0
vt 0.000000 0.000000 0.0
vt 0.000000 0.000000 0.0
vt 0.000000 0.000000 0.0
vt 0.000000 0.000000 0.0
vt 0.000000 0.000000 0.0
vt 0.000000 0.000000 0.0
vt 0.000000 0.000000 0.0
vt 0.000000 0.000000 0.0
vt 0.000000 0.000000 0.0

f 1/1/1 2/2/2 3/3/3
f 3/3/3 2/2/2 4/4/4
f 5/5/5 6/6/6 7/7/7
f 7/7/7 6/6/6 8/8/8
f 9/9/9 10/10/10 11/11/11
f 11/11/11 10/10/10 12/12/12
f 13/13/13 14/14/14 15/15/15
f 15/15/15 14/14/14 16/16/16
f 17/17/17 18/18/18 19/19/19
f 19/19/19 18/18/18 20/20/20
f 21/21/21 22/22/22 23/23/23
f 23/23/23 22/22/22 24/24/24
f 25/25/25 26/26/26 27/27/27
f 27/27/27 26/26/26 28/28/28
f 27/27/27 28/28/28 29/29/29
f 29/29/29 28/28/28 30/30/30
f 29/29/29 30/30/30 31/31/31
f 31/31/31 30/30/30 32/32/32
f 31/31/31 32/32/32 33/33/33
f 33/33/33 32/32/32 34/34/34
f 33/33/33 34/34/34 35/35/35
f 35/35/35 34/34/34 36/36/36
f 37/37/37 38/38/38 39/39/39
f 39/39/39 38/38/38 40/40/40
f 37/37/37 41/41/41 38/38/38
f 42/42/42 41/41/41 37/37/37
f 42/42/42 43/43/43 41/41/41
f 44/44/44 43/43/43 42/42/42
f 44/44/44 45/45/45 43/43/43
f 46/46/46 45/45/45 44/44/44
f 46/46/46 47/47/47 45/45/45
f 48/48/48 47/47/47 46/46/46
f 49/49/49 50/50/50 51/51/51
f 50/50/50 49/49/49 52/52/52
f 53/53/53 52/52/52 49/49/49
f 52/52/52 53/53/53 54/54/54
f 55/55/55 54/54/54 53/53/53
f 53/53/53 56/56/56 55/55/55
f 57/57/57 55/55/55 56/56/56
f 56/56/56 58/58/58 57/57/57
f 59/59/59 57/57/57 58/58/58
f 58/58/58 60/60/60 59/59/59
f 61/61/61 62/62/62 63/63/63
f 62/62/62 61/61/61 64/64/64
f 64/64/64 65/65/65 62/62/62
f 65/65/65 64/64/64 66/66/66
f 67/67/67 65/65/65 66/66/66
f 65/65/65 67/67/67 68/68/68
f 69/69/69 68/68/68 67/67/67
f 68/68/68 69/69/69 70/70/70
f 71/71/71 70/70/70 69/69/69
f 70/70/70 71/71/71 72/72/72
f 73/73/73 74/74/74 75/75/75
f 74/74/74 73/73/73 76/76/76
f 77/77/77 76/76/76 73/73/73
f 76/76/76 77/77/77 78/78/78
f 79/79/79 78/78/78 77/77/77
f 77/77/77 80/80/80 79/79/79
f 81/81/81 79/79/79 80/80/80
f 80/80/80 82/82/82 81/81/81
f 83/83/83 81/81/81 82/82/82
f 82/82/82 84/84/84 83/83/83
f 85/85/85 86/86/86 87/87/87
f 86/86/86 85/85/85 88/88/88
f 88/88/88 89/89/89 86/86/86
f 89/89/89 88/88/88 90/90/90
f 91/91/91 89/89/89 90/90/90
f 89/89/89 91/91/91 92/92/92
f 93/93/93 92/92/92 91/91/91
f 92/92/92 93/93/93 94/94/94
f 95/95/95 94/94/94 93/93/93
f 94/94/94 95/95/95 96/96/96
f 97/97/97 98/98/98 99/99/99
f 98/98/98 97/97/97 100/100/100
f 101/101/101 100/100/100 97/97/97
f 100/100/100 101/101/101 102/102/102
f 103/103/103 102/102/102 101/101/101
f 101/101/101 104/104/104 103/103/103
f 105/105/105 103/103/103 104/104/104
f 104/104/104 106/106/106 105/105/105
f 107/107/107 105/105/105 106/106/106
f 106/106/106 108/108/108 107/107/107
f 109/109/109 110/110/110 111/111/111
f 110/110/110 109/109/109 112/112/112
f 112/112/112 113/113/113 110/110/110
f 113/113/113 112/112/112 114/114/114
f 115/115/115 113/113/113 114/114/114
f 113/113/113 115/115/115 116/116/116
f 117/117/117 116/116/116 115/115/115
f 116/116/116 117/117/117 118/118/118
f 119/119/119 118/118/118 117/117/117
f 118/118/118 119/119/119 120/120/120
f 121/121/121 122/122/122 123/123/123
f 123/123/123 122/122/122 124/124/124
f 124/124/124 125/125/125 123/123/123
f 125/125/125 124/124/124 126/126/126
f 125/125/125 126/126/126 127/127/127
f 127/127/127 126/126/126 128/128/128
f 127/127/127 128/128/128 129/129/129
f 129/129/129 128/128/128 130/130/130
f 130/130/130 131/131/131 129/129/129
f 131/131/131 130/130/130 132/132/132
f 133/133/133 134/134/134 135/135/135
f 135/135/135 134/134/134 136/136/136
f 133/133/133 137/137/137 134/134/134
f 138/138/138 137/137/137 133/133/133
f 138/138/138 139/139/139 137/137/137
f 140/140/140 139/139/139 138/138/138
f 140/140/140 141/141/141 139/139/139
f 142/142/142 141/141/141 140/140/140
f 142/142/142 143/143/143 141/141/141
f 144/144/144 143/143/143 142/142/142
f 145/145/145 146/146/146 147/147/147
f 146/146/146 145/145/145 148/148/148
f 146/146/146 148/148/148 149/149/149
f 149/149/149 148/148/148 150/150/150
f 149/149/149 150/150/150 151/151/151
f 151/151/151 150/150/150 152/152/152
f 151/151/151 152/152/152 153/153/153
f 153/153/153 152/152/152 154/154/154
f 153/153/153 154/154/154 155/155/155
f 155/155/155 154/154/154 156/156/156
f 157/157/157 158/158/158 159/159/159
f 159/159/159 158/158/158 160/160/160
f 157/157/157 161/161/161 158/158/158
f 162/162/162 161/161/161 157/157/157
f 162/162/162 163/163/163 161/161/161
f 164/164/164 163/163/163 162/162/162
f 164/164/164 165/165/165 163/163/163
f 166/166/166 165/165/165 164/164/164
f 166/166/166 167/167/167 165/165/165
f 168/168/168 167/167/167 166/166/166
