# Converted from Roblox mesh format
# Vertices: 56, Faces: 54

v -0.024709 -0.024709 0.070033 1.000000 1.000000 1.000000
v 0.000001 0.034944 0.070033 1.000000 1.000000 1.000000
v -0.034944 0.000001 0.070033 1.000000 1.000000 1.000000
v -0.024709 0.024710 0.070033 1.000000 1.000000 1.000000
v 0.024708 -0.024709 0.070033 1.000000 1.000000 1.000000
v 0.000001 -0.034943 0.070033 1.000000 1.000000 1.000000
v 0.034943 0.000001 0.070033 1.000000 1.000000 1.000000
v 0.024708 0.024710 0.070033 1.000000 1.000000 1.000000
v 0.000001 -0.020957 -0.012484 1.000000 1.000000 1.000000
v 0.024708 -0.024709 -0.012484 1.000000 1.000000 1.000000
v 0.000001 -0.034943 -0.012484 1.000000 1.000000 1.000000
v -0.024709 -0.024709 -0.012484 1.000000 1.000000 1.000000
v 0.014820 -0.014818 -0.012484 1.000000 1.000000 1.000000
v -0.014820 -0.014818 -0.012484 1.000000 1.000000 1.000000
v 0.034943 0.000001 -0.012484 1.000000 1.000000 1.000000
v -0.034944 0.000001 -0.012484 1.000000 1.000000 1.000000
v 0.020957 0.000001 -0.012484 1.000000 1.000000 1.000000
v -0.020957 0.000001 -0.012484 1.000000 1.000000 1.000000
v 0.014820 0.014820 -0.012484 1.000000 1.000000 1.000000
v -0.014820 0.014820 -0.012484 1.000000 1.000000 1.000000
v 0.024708 0.024710 -0.012484 1.000000 1.000000 1.000000
v -0.024709 0.024710 -0.012484 1.000000 1.000000 1.000000
v 0.000001 0.020958 -0.012484 1.000000 1.000000 1.000000
v 0.000001 0.034944 -0.012484 1.000000 1.000000 1.000000
v 0.000001 0.034944 -0.012484 1.000000 1.000000 1.000000
v 0.000001 0.034944 0.070033 1.000000 1.000000 1.000000
v 0.024708 0.024710 -0.012484 1.000000 1.000000 1.000000
v 0.024708 0.024710 0.070033 1.000000 1.000000 1.000000
v -0.024709 0.024710 0.070033 1.000000 1.000000 1.000000
v 0.034943 0.000001 -0.012484 1.000000 1.000000 1.000000
v -0.024709 0.024710 -0.012484 1.000000 1.000000 1.000000
v 0.034943 0.000001 0.070033 1.000000 1.000000 1.000000
v -0.034944 0.000001 0.070033 1.000000 1.000000 1.000000
v 0.024708 -0.024709 -0.012484 1.000000 1.000000 1.000000
v -0.034944 0.000001 -0.012484 1.000000 1.000000 1.000000
v 0.024708 -0.024709 0.070033 1.000000 1.000000 1.000000
v -0.024709 -0.024709 0.070033 1.000000 1.000000 1.000000
v 0.000001 -0.034943 -0.012484 1.000000 1.000000 1.000000
v -0.024709 -0.024709 -0.012484 1.000000 1.000000 1.000000
v 0.000001 -0.034943 0.070033 1.000000 1.000000 1.000000
v -0.020957 0.000001 -0.070033 1.000000 1.000000 1.000000
v -0.014820 0.014820 -0.012484 1.000000 1.000000 1.000000
v -0.014820 0.014820 -0.070033 1.000000 1.000000 1.000000
v -0.000001 0.020958 -0.070033 1.000000 1.000000 1.000000
v -0.020957 0.000001 -0.012484 1.000000 1.000000 1.000000
v 0.000001 0.020958 -0.012484 1.000000 1.000000 1.000000
v -0.014820 -0.014818 -0.070033 1.000000 1.000000 1.000000
v 0.014820 0.014820 -0.070033 1.000000 1.000000 1.000000
v -0.014820 -0.014818 -0.012484 1.000000 1.000000 1.000000
v 0.014820 0.014820 -0.012484 1.000000 1.000000 1.000000
v -0.000001 -0.020957 -0.070033 1.000000 1.000000 1.000000
v 0.020957 0.000001 -0.012484 1.000000 1.000000 1.000000
v 0.000001 -0.020957 -0.012484 1.000000 1.000000 1.000000
v 0.020957 0.000001 -0.070033 1.000000 1.000000 1.000000
v 0.014820 -0.014818 -0.070033 1.000000 1.000000 1.000000
v 0.014820 -0.014818 -0.012484 1.000000 1.000000 1.000000

vn -0.000000 -0.000000 1.000000
vn -0.000000 -0.000000 1.000000
vn -0.000000 -0.000000 1.000000
vn -0.000000 -0.000000 1.000000
vn -0.000000 -0.000000 1.000000
vn -0.000000 -0.000000 1.000000
vn -0.000000 -0.000000 1.000000
vn -0.000000 -0.000000 1.000000
vn 0.000000 0.000000 -1.000000
vn 0.000000 0.000000 -1.000000
vn 0.000000 0.000000 -1.000000
vn 0.000000 0.000000 -1.000000
vn 0.000000 0.000000 -1.000000
vn 0.000000 0.000000 -1.000000
vn 0.000000 0.000000 -1.000000
vn 0.000000 0.000000 -1.000000
vn 0.000000 0.000000 -1.000000
vn 0.000000 0.000000 -1.000000
vn 0.000000 0.000000 -1.000000
vn 0.000000 0.000000 -1.000000
vn 0.000000 0.000000 -1.000000
vn 0.000000 0.000000 -1.000000
vn 0.000000 0.000000 -1.000000
vn 0.000000 0.000000 -1.000000
vn 0.000000 1.000000 0.000000
vn 0.000000 1.000000 0.000000
vn 0.707107 0.707107 0.000000
vn 0.707107 0.707107 0.000000
vn -0.707107 0.707107 0.000000
vn 1.000000 -0.000000 0.000000
vn -0.707107 0.707107 0.000000
vn 1.000000 -0.000000 0.000000
vn -1.000000 0.000000 0.000000
vn 0.707107 -0.707107 -0.000000
vn -1.000000 0.000000 0.000000
vn 0.707107 -0.707107 -0.000000
vn -0.707107 -0.707107 -0.000000
vn -0.000000 -1.000000 -0.000000
vn -0.707107 -0.707107 -0.000000
vn -0.000000 -1.000000 -0.000000
vn -1.000000 0.000000 0.000000
vn -0.707107 0.707107 0.000000
vn -0.707107 0.707107 0.000000
vn 0.000000 1.000000 0.000000
vn -1.000000 0.000000 0.000000
vn 0.000000 1.000000 0.000000
vn -0.707107 -0.707107 -0.000000
vn 0.707107 0.707107 0.000000
vn -0.707107 -0.707107 -0.000000
vn 0.707107 0.707107 0.000000
vn -0.000000 -1.000000 -0.000000
vn 1.000000 -0.000000 0.000000
vn -0.000000 -1.000000 -0.000000
vn 1.000000 -0.000000 0.000000
vn 0.707107 -0.707107 -0.000000
vn 0.707107 -0.707107 -0.000000

vt 0.000000 0.000000 0.0
vt 0.000000 0.000000 0.0
vt 0.000000 0.000000 0.0
vt 0.000000 0.000000 0.0
vt 0.000000 0.000000 0.0
vt 0.000000 0.000000 0.0
vt 0.000000 0.000000 0.0
vt 0.000000 0.000000 0.0
vt 0.000000 0.000000 0.0
vt 0.000000 0.000000 0.0
vt 0.000000 0.000000 0.0
vt 0.000000 0.000000 0.0
vt 0.000000 0.000000 0.0
vt 0.000000 0.000000 0.0
vt 0.000000 0.000000 0.0
vt 0.000000 0.000000 0.0
vt 0.000000 0.000000 0.0
vt 0.000000 0.000000 0.0
vt 0.000000 0.000000 0.0
vt 0.000000 0.000000 0.0
vt 0.000000 0.000000 0.0
vt 0.000000 0.000000 0.0
vt 0.000000 0.000000 0.0
vt 0.000000 0.000000 0.0
vt 0.000000 0.000000 0.0
vt 0.000000 0.000000 0.0
vt 0.000000 0.000000 0.0
vt 0.000000 0.000000 0.0
vt 0.000000 0.000000 0.0
vt 0.000000 0.000000 0.0
vt 0.000000 0.000000 0.0
vt 0.000000 0.000000 0.0
vt 0.000000 0.000000 0.0
vt 0.000000 0.000000 0.0
vt 0.000000 0.000000 0.0
vt 0.000000 0.000000 0.0
vt 0.000000 0.000000 0.0
vt 0.000000 0.000000 0.0
vt 0.000000 0.000000 0.0
vt 0.000000 0.000000 0.0
vt 0.000000 0.000000 0.0
vt 0.000000 0.000000 0.0
vt 0.000000 0.000000 0.0
vt 0.000000 0.000000 0.0
vt 0.000000 0.000000 0.0
vt 0.000000 0.000000 0.0
vt 0.000000 0.000000 0.0
vt 0.000000 0.000000 0.0
vt 0.000000 0.000000 0.0
vt 0.000000 0.000000 0.0
vt 0.000000 0.000000 0.0
vt 0.000000 0.000000 0.0
vt 0.000000 0.000000 0.0
vt 0.000000 0.000000 0.0
vt 0.000000 0.000000 0.0
vt 0.000000 0.000000 0.0

f 1/1/1 2/2/2 3/3/3
f 3/3/3 2/2/2 4/4/4
f 2/2/2 1/1/1 5/5/5
f 5/5/5 1/1/1 6/6/6
f 2/2/2 5/5/5 7/7/7
f 2/2/2 7/7/7 8/8/8
f 9/9/9 10/10/10 11/11/11
f 12/12/12 9/9/9 11/11/11
f 10/10/10 9/9/9 13/13/13
f 9/9/9 12/12/12 14/14/14
f 13/13/13 15/15/15 10/10/10
f 12/12/12 16/16/16 14/14/14
f 15/15/15 13/13/13 17/17/17
f 14/14/14 16/16/16 18/18/18
f 19/19/19 15/15/15 17/17/17
f 16/16/16 20/20/20 18/18/18
f 15/15/15 19/19/19 21/21/21
f 20/20/20 16/16/16 22/22/22
f 23/23/23 21/21/21 19/19/19
f 22/22/22 23/23/23 20/20/20
f 24/24/24 21/21/21 23/23/23
f 23/23/23 22/22/22 24/24/24
f 25/25/25 26/26/26 27/27/27
f 27/27/27 26/26/26 28/28/28
f 25/25/25 29/29/29 26/26/26
f 27/27/27 28/28/28 30/30/30
f 31/31/31 29/29/29 25/25/25
f 30/30/30 28/28/28 32/32/32
f 31/31/31 33/33/33 29/29/29
f 30/30/30 32/32/32 34/34/34
f 35/35/35 33/33/33 31/31/31
f 34/34/34 32/32/32 36/36/36
f 35/35/35 37/37/37 33/33/33
f 34/34/34 36/36/36 38/38/38
f 39/39/39 37/37/37 35/35/35
f 38/38/38 36/36/36 40/40/40
f 39/39/39 40/40/40 37/37/37
f 38/38/38 40/40/40 39/39/39
f 41/41/41 42/42/42 43/43/43
f 42/42/42 44/44/44 43/43/43
f 42/42/42 41/41/41 45/45/45
f 44/44/44 42/42/42 46/46/46
f 47/47/47 45/45/45 41/41/41
f 46/46/46 48/48/48 44/44/44
f 45/45/45 47/47/47 49/49/49
f 48/48/48 46/46/46 50/50/50
f 51/51/51 49/49/49 47/47/47
f 52/52/52 48/48/48 50/50/50
f 49/49/49 51/51/51 53/53/53
f 48/48/48 52/52/52 54/54/54
f 55/55/55 53/53/53 51/51/51
f 56/56/56 54/54/54 52/52/52
f 53/53/53 55/55/55 56/56/56
f 54/54/54 56/56/56 55/55/55
