# Converted from Roblox mesh format
# Vertices: 300, Faces: 222

v -1.051893 0.197424 -0.115091 1.000000 1.000000 1.000000
v -1.051893 0.049471 -0.115091 1.000000 1.000000 1.000000
v -1.051893 0.197424 0.114473 1.000000 1.000000 1.000000
v -1.051893 0.049471 0.114473 1.000000 1.000000 1.000000
v -1.045866 0.278175 -0.084910 1.000000 1.000000 1.000000
v -1.045866 0.135418 -0.084910 1.000000 1.000000 1.000000
v -1.045866 0.278175 0.084292 1.000000 1.000000 1.000000
v -1.045866 0.135418 0.084292 1.000000 1.000000 1.000000
v 1.051893 0.215838 -0.124489 1.000000 1.000000 1.000000
v 1.051893 -0.290426 0.124489 1.000000 1.000000 1.000000
v 1.051893 -0.290426 -0.124489 1.000000 1.000000 1.000000
v 1.051893 0.215838 0.124489 1.000000 1.000000 1.000000
v -0.782635 0.262034 0.084292 1.000000 1.000000 1.000000
v -0.782635 0.262034 -0.084910 1.000000 1.000000 1.000000
v -0.782635 0.219013 -0.084910 1.000000 1.000000 1.000000
v -0.782635 0.219013 0.084292 1.000000 1.000000 1.000000
v 0.766412 0.200426 -0.110640 1.000000 1.000000 1.000000
v 0.746412 0.108947 0.110640 1.000000 1.000000 1.000000
v 0.746412 0.108947 -0.110640 1.000000 1.000000 1.000000
v 0.766412 0.200426 0.110640 1.000000 1.000000 1.000000
v 0.701412 0.023947 -0.103690 1.000000 1.000000 1.000000
v 0.701412 0.023947 0.103690 1.000000 1.000000 1.000000
v 0.666412 -0.041053 -0.103690 1.000000 1.000000 1.000000
v 0.666412 -0.041053 0.103690 1.000000 1.000000 1.000000
v 0.716412 0.088947 0.103690 1.000000 1.000000 1.000000
v 0.716412 0.088947 -0.103690 1.000000 1.000000 1.000000
v -0.530635 0.219013 -0.084910 1.000000 1.000000 1.000000
v -0.530635 0.219013 0.084292 1.000000 1.000000 1.000000
v -0.530635 0.262034 -0.084910 1.000000 1.000000 1.000000
v -0.530635 0.262034 0.084292 1.000000 1.000000 1.000000
v 0.746412 0.108947 -0.110640 1.000000 1.000000 1.000000
v 0.716412 0.088947 0.103690 1.000000 1.000000 1.000000
v 0.716412 0.088947 -0.103690 1.000000 1.000000 1.000000
v 0.746412 0.108947 0.110640 1.000000 1.000000 1.000000
v 0.979533 -0.290426 0.124489 1.000000 1.000000 1.000000
v 0.979533 -0.290426 -0.124489 1.000000 1.000000 1.000000
v 1.051893 -0.290426 -0.124489 1.000000 1.000000 1.000000
v 1.051893 -0.290426 0.124489 1.000000 1.000000 1.000000
v 0.686411 0.250426 -0.110640 1.000000 1.000000 1.000000
v 0.686411 0.250426 0.110640 1.000000 1.000000 1.000000
v 0.766412 0.200426 -0.110640 1.000000 1.000000 1.000000
v 0.766412 0.200426 0.110640 1.000000 1.000000 1.000000
v 0.601758 0.270426 -0.110640 1.000000 1.000000 1.000000
v 0.601758 0.270426 0.110640 1.000000 1.000000 1.000000
v 0.505452 0.270426 -0.110640 1.000000 1.000000 1.000000
v 0.505452 0.270426 0.110640 1.000000 1.000000 1.000000
v 0.425452 0.290426 0.110640 1.000000 1.000000 1.000000
v 0.425452 0.290426 -0.110640 1.000000 1.000000 1.000000
v 0.505452 -0.041053 0.103690 1.000000 1.000000 1.000000
v 0.505452 -0.041053 -0.103690 1.000000 1.000000 1.000000
v 0.591758 -0.041053 -0.103690 1.000000 1.000000 1.000000
v 0.425452 -0.041053 -0.103690 1.000000 1.000000 1.000000
v 0.425452 -0.041053 0.103690 1.000000 1.000000 1.000000
v 0.591758 -0.041053 0.103690 1.000000 1.000000 1.000000
v 0.666412 -0.041053 -0.103690 1.000000 1.000000 1.000000
v 0.666412 -0.041053 0.103690 1.000000 1.000000 1.000000
v -1.045866 0.278175 0.084292 1.000000 1.000000 1.000000
v 0.413637 0.278175 0.084292 1.000000 1.000000 1.000000
v -1.045866 0.278175 -0.084910 1.000000 1.000000 1.000000
v 0.413637 0.278175 -0.084910 1.000000 1.000000 1.000000
v 1.051893 0.215838 -0.124489 1.000000 1.000000 1.000000
v 0.785630 0.070044 -0.124489 1.000000 1.000000 1.000000
v 0.884856 0.215838 -0.124489 1.000000 1.000000 1.000000
v 0.835630 0.196612 -0.124489 1.000000 1.000000 1.000000
v 0.785630 -0.056523 -0.124489 1.000000 1.000000 1.000000
v 1.051893 -0.290426 -0.124489 1.000000 1.000000 1.000000
v 0.979533 -0.290426 -0.124489 1.000000 1.000000 1.000000
v 0.785630 -0.056523 0.124489 1.000000 1.000000 1.000000
v 1.051893 0.215838 0.124489 1.000000 1.000000 1.000000
v 0.785630 0.070044 0.124489 1.000000 1.000000 1.000000
v 0.884856 0.215838 0.124489 1.000000 1.000000 1.000000
v 0.835630 0.196612 0.124489 1.000000 1.000000 1.000000
v 1.051893 -0.290426 0.124489 1.000000 1.000000 1.000000
v 0.979533 -0.290426 0.124489 1.000000 1.000000 1.000000
v 0.716412 0.088947 -0.103690 1.000000 1.000000 1.000000
v 0.591758 0.108947 -0.110640 1.000000 1.000000 1.000000
v 0.746412 0.108947 -0.110640 1.000000 1.000000 1.000000
v 0.591758 0.088947 -0.103690 1.000000 1.000000 1.000000
v 0.505452 0.088947 -0.103690 1.000000 1.000000 1.000000
v 0.505452 0.108947 -0.110640 1.000000 1.000000 1.000000
v 0.425452 0.088947 -0.103690 1.000000 1.000000 1.000000
v 0.425452 0.108947 -0.110640 1.000000 1.000000 1.000000
v 0.716412 0.088947 0.103690 1.000000 1.000000 1.000000
v 0.591758 0.108947 0.110640 1.000000 1.000000 1.000000
v 0.591758 0.088947 0.103690 1.000000 1.000000 1.000000
v 0.746412 0.108947 0.110640 1.000000 1.000000 1.000000
v 0.505452 0.108947 0.110640 1.000000 1.000000 1.000000
v 0.505452 0.088947 0.103690 1.000000 1.000000 1.000000
v 0.425452 0.108947 0.110640 1.000000 1.000000 1.000000
v 0.425452 0.088947 0.103690 1.000000 1.000000 1.000000
v 0.413730 0.079471 -0.115091 1.000000 1.000000 1.000000
v -0.440978 0.079471 -0.115091 1.000000 1.000000 1.000000
v 0.071028 0.106177 -0.115091 1.000000 1.000000 1.000000
v 0.413730 0.197424 -0.115091 1.000000 1.000000 1.000000
v -0.400978 0.106177 -0.115091 1.000000 1.000000 1.000000
v 0.071028 0.174870 -0.115091 1.000000 1.000000 1.000000
v -0.445537 0.106177 -0.115091 1.000000 1.000000 1.000000
v -0.465599 0.174870 -0.115091 1.000000 1.000000 1.000000
v -0.485537 0.049471 -0.115091 1.000000 1.000000 1.000000
v -1.051893 0.197424 -0.115091 1.000000 1.000000 1.000000
v -1.051893 0.049471 -0.115091 1.000000 1.000000 1.000000
v -0.465599 0.106177 -0.115091 1.000000 1.000000 1.000000
v -0.465599 0.106177 0.114473 1.000000 1.000000 1.000000
v -0.485537 0.049471 0.114473 1.000000 1.000000 1.000000
v -0.440978 0.079471 0.114473 1.000000 1.000000 1.000000
v 0.071028 0.106177 0.114473 1.000000 1.000000 1.000000
v 0.413730 0.079471 0.114473 1.000000 1.000000 1.000000
v 0.413730 0.197424 0.114473 1.000000 1.000000 1.000000
v 0.071028 0.174870 0.114473 1.000000 1.000000 1.000000
v -0.440978 0.197424 0.114473 1.000000 1.000000 1.000000
v -0.400978 0.174870 0.114473 1.000000 1.000000 1.000000
v -0.445537 0.174870 0.114473 1.000000 1.000000 1.000000
v -0.485537 0.197424 0.114473 1.000000 1.000000 1.000000
v -0.465599 0.174870 0.114473 1.000000 1.000000 1.000000
v -1.051893 0.049471 0.114473 1.000000 1.000000 1.000000
v -1.051893 0.197424 0.114473 1.000000 1.000000 1.000000
v 0.766412 0.200426 -0.110640 1.000000 1.000000 1.000000
v 0.746412 0.108947 -0.110640 1.000000 1.000000 1.000000
v 0.686411 0.250426 -0.110640 1.000000 1.000000 1.000000
v 0.591758 0.108947 -0.110640 1.000000 1.000000 1.000000
v 0.601758 0.270426 -0.110640 1.000000 1.000000 1.000000
v 0.505452 0.270426 -0.110640 1.000000 1.000000 1.000000
v 0.505452 0.108947 -0.110640 1.000000 1.000000 1.000000
v 0.425452 0.108947 -0.110640 1.000000 1.000000 1.000000
v 0.425452 0.290426 -0.110640 1.000000 1.000000 1.000000
v 0.591758 0.108947 0.110640 1.000000 1.000000 1.000000
v 0.686411 0.250426 0.110640 1.000000 1.000000 1.000000
v 0.601758 0.270426 0.110640 1.000000 1.000000 1.000000
v 0.746412 0.108947 0.110640 1.000000 1.000000 1.000000
v 0.766412 0.200426 0.110640 1.000000 1.000000 1.000000
v 0.505452 0.270426 0.110640 1.000000 1.000000 1.000000
v 0.505452 0.108947 0.110640 1.000000 1.000000 1.000000
v 0.425452 0.108947 0.110640 1.000000 1.000000 1.000000
v 0.425452 0.290426 0.110640 1.000000 1.000000 1.000000
v 0.505452 0.088947 -0.103690 1.000000 1.000000 1.000000
v 0.591758 0.088947 -0.103690 1.000000 1.000000 1.000000
v 0.591758 -0.041053 -0.103690 1.000000 1.000000 1.000000
v 0.701412 0.023947 -0.103690 1.000000 1.000000 1.000000
v 0.716412 0.088947 -0.103690 1.000000 1.000000 1.000000
v 0.666412 -0.041053 -0.103690 1.000000 1.000000 1.000000
v 0.505452 -0.041053 -0.103690 1.000000 1.000000 1.000000
v 0.425452 -0.041053 -0.103690 1.000000 1.000000 1.000000
v 0.425452 0.088947 -0.103690 1.000000 1.000000 1.000000
v 0.505452 -0.041053 0.103690 1.000000 1.000000 1.000000
v 0.505452 0.088947 0.103690 1.000000 1.000000 1.000000
v 0.425452 -0.041053 0.103690 1.000000 1.000000 1.000000
v 0.425452 0.088947 0.103690 1.000000 1.000000 1.000000
v 0.591758 -0.041053 0.103690 1.000000 1.000000 1.000000
v 0.591758 0.088947 0.103690 1.000000 1.000000 1.000000
v 0.701412 0.023947 0.103690 1.000000 1.000000 1.000000
v 0.666412 -0.041053 0.103690 1.000000 1.000000 1.000000
v 0.716412 0.088947 0.103690 1.000000 1.000000 1.000000
v -0.465599 0.135418 -0.084910 1.000000 1.000000 1.000000
v -0.530635 0.219013 -0.084910 1.000000 1.000000 1.000000
v -0.465599 0.174870 -0.084910 1.000000 1.000000 1.000000
v -0.405811 0.219013 -0.084910 1.000000 1.000000 1.000000
v 0.071028 0.174870 -0.084910 1.000000 1.000000 1.000000
v -0.711936 0.219013 -0.084910 1.000000 1.000000 1.000000
v 0.181239 0.219013 -0.084910 1.000000 1.000000 1.000000
v 0.071028 0.135418 -0.084910 1.000000 1.000000 1.000000
v 0.413637 0.135418 -0.084910 1.000000 1.000000 1.000000
v 0.413637 0.278175 -0.084910 1.000000 1.000000 1.000000
v 0.181239 0.262034 -0.084910 1.000000 1.000000 1.000000
v -0.405811 0.262034 -0.084910 1.000000 1.000000 1.000000
v -0.530635 0.262034 -0.084910 1.000000 1.000000 1.000000
v -1.045866 0.278175 -0.084910 1.000000 1.000000 1.000000
v -0.711936 0.262034 -0.084910 1.000000 1.000000 1.000000
v -0.782635 0.262034 -0.084910 1.000000 1.000000 1.000000
v -0.963937 0.262034 -0.084910 1.000000 1.000000 1.000000
v -0.963937 0.219013 -0.084910 1.000000 1.000000 1.000000
v -0.782635 0.219013 -0.084910 1.000000 1.000000 1.000000
v -1.045866 0.135418 -0.084910 1.000000 1.000000 1.000000
v -0.711936 0.262034 0.084292 1.000000 1.000000 1.000000
v -0.782635 0.219013 0.084292 1.000000 1.000000 1.000000
v -0.711936 0.219013 0.084292 1.000000 1.000000 1.000000
v -0.465599 0.135418 0.084292 1.000000 1.000000 1.000000
v -0.530635 0.219013 0.084292 1.000000 1.000000 1.000000
v -1.045866 0.135418 0.084292 1.000000 1.000000 1.000000
v -0.465599 0.174870 0.084292 1.000000 1.000000 1.000000
v -0.963937 0.219013 0.084292 1.000000 1.000000 1.000000
v -0.530635 0.262034 0.084292 1.000000 1.000000 1.000000
v -1.045866 0.278175 0.084292 1.000000 1.000000 1.000000
v -0.782635 0.262034 0.084292 1.000000 1.000000 1.000000
v -0.963937 0.262034 0.084292 1.000000 1.000000 1.000000
v -0.405811 0.262034 0.084292 1.000000 1.000000 1.000000
v 0.413637 0.278175 0.084292 1.000000 1.000000 1.000000
v -0.405811 0.219013 0.084292 1.000000 1.000000 1.000000
v 0.181239 0.262034 0.084292 1.000000 1.000000 1.000000
v 0.071028 0.174870 0.084292 1.000000 1.000000 1.000000
v 0.181239 0.219013 0.084292 1.000000 1.000000 1.000000
v 0.413637 0.135418 0.084292 1.000000 1.000000 1.000000
v 0.071028 0.135418 0.084292 1.000000 1.000000 1.000000
v -1.051893 0.049471 -0.115091 1.000000 1.000000 1.000000
v -0.485537 0.049471 -0.115091 1.000000 1.000000 1.000000
v -0.485537 0.049471 0.114473 1.000000 1.000000 1.000000
v -1.051893 0.049471 0.114473 1.000000 1.000000 1.000000
v -0.440978 0.079471 0.114473 1.000000 1.000000 1.000000
v -0.440978 0.079471 -0.115091 1.000000 1.000000 1.000000
v 0.413730 0.079471 -0.115091 1.000000 1.000000 1.000000
v 0.413730 0.079471 0.114473 1.000000 1.000000 1.000000
v -0.782635 0.219013 -0.084910 1.000000 1.000000 1.000000
v -0.963937 0.219013 -0.084910 1.000000 1.000000 1.000000
v -0.963937 0.219013 0.084292 1.000000 1.000000 1.000000
v -0.782635 0.219013 0.084292 1.000000 1.000000 1.000000
v -0.530635 0.219013 -0.084910 1.000000 1.000000 1.000000
v -0.711936 0.219013 -0.084910 1.000000 1.000000 1.000000
v -0.711936 0.219013 0.084292 1.000000 1.000000 1.000000
v -0.530635 0.219013 0.084292 1.000000 1.000000 1.000000
v 0.181239 0.219013 -0.084910 1.000000 1.000000 1.000000
v -0.405811 0.219013 -0.084910 1.000000 1.000000 1.000000
v -0.405811 0.219013 0.084292 1.000000 1.000000 1.000000
v 0.181239 0.219013 0.084292 1.000000 1.000000 1.000000
v -0.440978 0.197424 0.114473 1.000000 1.000000 1.000000
v -1.051893 0.197424 -0.115091 1.000000 1.000000 1.000000
v -0.485537 0.197424 0.114473 1.000000 1.000000 1.000000
v -1.051893 0.197424 0.114473 1.000000 1.000000 1.000000
v 0.413730 0.197424 -0.115091 1.000000 1.000000 1.000000
v 0.413730 0.197424 0.114473 1.000000 1.000000 1.000000
v -0.465599 0.135418 0.084292 1.000000 1.000000 1.000000
v -1.045866 0.135418 0.084292 1.000000 1.000000 1.000000
v -0.465599 0.135418 -0.084910 1.000000 1.000000 1.000000
v -1.045866 0.135418 -0.084910 1.000000 1.000000 1.000000
v 0.413637 0.135418 -0.084910 1.000000 1.000000 1.000000
v 0.071028 0.135418 0.084292 1.000000 1.000000 1.000000
v 0.071028 0.135418 -0.084910 1.000000 1.000000 1.000000
v 0.413637 0.135418 0.084292 1.000000 1.000000 1.000000
v 0.835630 0.196612 -0.124489 1.000000 1.000000 1.000000
v 0.835630 0.196612 0.124489 1.000000 1.000000 1.000000
v 0.884856 0.215838 -0.124489 1.000000 1.000000 1.000000
v 0.884856 0.215838 0.124489 1.000000 1.000000 1.000000
v 1.051893 0.215838 0.124489 1.000000 1.000000 1.000000
v 1.051893 0.215838 -0.124489 1.000000 1.000000 1.000000
v -0.400978 0.174870 0.114473 1.000000 1.000000 1.000000
v 0.071028 0.174870 -0.115091 1.000000 1.000000 1.000000
v 0.071028 0.174870 0.114473 1.000000 1.000000 1.000000
v -0.465599 0.174870 -0.115091 1.000000 1.000000 1.000000
v -0.445537 0.174870 0.114473 1.000000 1.000000 1.000000
v -0.465599 0.174870 0.114473 1.000000 1.000000 1.000000
v 0.071028 0.174870 0.084292 1.000000 1.000000 1.000000
v -0.465599 0.174870 0.084292 1.000000 1.000000 1.000000
v 0.071028 0.174870 -0.084910 1.000000 1.000000 1.000000
v -0.465599 0.174870 -0.084910 1.000000 1.000000 1.000000
v -0.465599 0.106177 0.114473 1.000000 1.000000 1.000000
v -0.400978 0.106177 -0.115091 1.000000 1.000000 1.000000
v -0.445537 0.106177 -0.115091 1.000000 1.000000 1.000000
v -0.465599 0.106177 -0.115091 1.000000 1.000000 1.000000
v 0.071028 0.106177 0.114473 1.000000 1.000000 1.000000
v 0.071028 0.106177 -0.115091 1.000000 1.000000 1.000000
v 0.071028 0.174870 0.114473 1.000000 1.000000 1.000000
v 0.071028 0.174870 -0.115091 1.000000 1.000000 1.000000
v 0.071028 0.106177 -0.115091 1.000000 1.000000 1.000000
v 0.071028 0.106177 0.114473 1.000000 1.000000 1.000000
v 0.071028 0.174870 0.084292 1.000000 1.000000 1.000000
v 0.071028 0.174870 -0.084910 1.000000 1.000000 1.000000
v 0.071028 0.135418 -0.084910 1.000000 1.000000 1.000000
v 0.071028 0.135418 0.084292 1.000000 1.000000 1.000000
v -0.963937 0.262034 -0.084910 1.000000 1.000000 1.000000
v -0.782635 0.262034 -0.084910 1.000000 1.000000 1.000000
v -0.963937 0.262034 0.084292 1.000000 1.000000 1.000000
v -0.782635 0.262034 0.084292 1.000000 1.000000 1.000000
v -0.711936 0.262034 -0.084910 1.000000 1.000000 1.000000
v -0.530635 0.262034 -0.084910 1.000000 1.000000 1.000000
v -0.711936 0.262034 0.084292 1.000000 1.000000 1.000000
v -0.530635 0.262034 0.084292 1.000000 1.000000 1.000000
v 0.181239 0.262034 0.084292 1.000000 1.000000 1.000000
v -0.405811 0.262034 0.084292 1.000000 1.000000 1.000000
v 0.181239 0.262034 -0.084910 1.000000 1.000000 1.000000
v -0.405811 0.262034 -0.084910 1.000000 1.000000 1.000000
v 0.181239 0.219013 -0.084910 1.000000 1.000000 1.000000
v 0.181239 0.219013 0.084292 1.000000 1.000000 1.000000
v 0.181239 0.262034 -0.084910 1.000000 1.000000 1.000000
v 0.181239 0.262034 0.084292 1.000000 1.000000 1.000000
v -0.405811 0.262034 -0.084910 1.000000 1.000000 1.000000
v -0.405811 0.262034 0.084292 1.000000 1.000000 1.000000
v -0.405811 0.219013 -0.084910 1.000000 1.000000 1.000000
v -0.405811 0.219013 0.084292 1.000000 1.000000 1.000000
v -0.465599 0.174870 -0.115091 1.000000 1.000000 1.000000
v -0.465599 0.174870 0.114473 1.000000 1.000000 1.000000
v -0.465599 0.106177 -0.115091 1.000000 1.000000 1.000000
v -0.465599 0.106177 0.114473 1.000000 1.000000 1.000000
v -0.465599 0.174870 -0.084910 1.000000 1.000000 1.000000
v -0.465599 0.135418 0.084292 1.000000 1.000000 1.000000
v -0.465599 0.135418 -0.084910 1.000000 1.000000 1.000000
v -0.465599 0.174870 0.084292 1.000000 1.000000 1.000000
v -0.711936 0.262034 -0.084910 1.000000 1.000000 1.000000
v -0.711936 0.262034 0.084292 1.000000 1.000000 1.000000
v -0.711936 0.219013 -0.084910 1.000000 1.000000 1.000000
v -0.711936 0.219013 0.084292 1.000000 1.000000 1.000000
v 0.835630 0.196612 0.124489 1.000000 1.000000 1.000000
v 0.835630 0.196612 -0.124489 1.000000 1.000000 1.000000
v 0.785630 0.070044 -0.124489 1.000000 1.000000 1.000000
v 0.785630 0.070044 0.124489 1.000000 1.000000 1.000000
v 0.785630 -0.056523 -0.124489 1.000000 1.000000 1.000000
v 0.785630 -0.056523 0.124489 1.000000 1.000000 1.000000
v 0.979533 -0.290426 0.124489 1.000000 1.000000 1.000000
v 0.979533 -0.290426 -0.124489 1.000000 1.000000 1.000000
v -0.963937 0.262034 -0.084910 1.000000 1.000000 1.000000
v -0.963937 0.262034 0.084292 1.000000 1.000000 1.000000
v -0.963937 0.219013 -0.084910 1.000000 1.000000 1.000000
v -0.963937 0.219013 0.084292 1.000000 1.000000 1.000000

vn -1.000000 0.000000 0.000000
vn -1.000000 0.000000 0.000000
vn -1.000000 0.000000 0.000000
vn -1.000000 0.000000 0.000000
vn -1.000000 0.000000 0.000000
vn -1.000000 0.000000 0.000000
vn -1.000000 0.000000 0.000000
vn -1.000000 0.000000 0.000000
vn 1.000000 -0.000000 0.000000
vn 1.000000 -0.000000 0.000000
vn 1.000000 -0.000000 0.000000
vn 1.000000 -0.000000 0.000000
vn -1.000000 0.000000 0.000000
vn -1.000000 0.000000 0.000000
vn -1.000000 0.000000 0.000000
vn -1.000000 0.000000 0.000000
vn 0.976920 -0.213604 -0.000000
vn 0.976920 -0.213604 -0.000000
vn 0.976920 -0.213604 -0.000000
vn 0.976920 -0.213604 -0.000000
vn 0.935777 -0.352591 -0.000000
vn 0.935777 -0.352591 -0.000000
vn 0.880478 -0.474088 -0.000000
vn 0.880478 -0.474088 -0.000000
vn 0.974383 -0.224896 -0.000000
vn 0.974383 -0.224896 -0.000000
vn -1.000000 0.000000 0.000000
vn -1.000000 0.000000 0.000000
vn -1.000000 0.000000 0.000000
vn -1.000000 0.000000 0.000000
vn 0.554677 -0.832066 -0.000000
vn 0.554677 -0.832066 -0.000000
vn 0.554677 -0.832066 -0.000000
vn 0.554677 -0.832066 -0.000000
vn -0.000000 -1.000000 -0.000000
vn -0.000000 -1.000000 -0.000000
vn -0.000000 -1.000000 -0.000000
vn -0.000000 -1.000000 -0.000000
vn 0.385091 0.922879 0.000000
vn 0.385091 0.922879 0.000000
vn 0.529999 0.847998 0.000000
vn 0.529999 0.847998 0.000000
vn 0.115698 0.993284 0.000000
vn 0.115698 0.993284 0.000000
vn 0.122201 0.992505 0.000000
vn 0.122201 0.992505 0.000000
vn 0.242512 0.970148 0.000000
vn 0.242512 0.970148 0.000000
vn -0.000000 -1.000000 -0.000000
vn -0.000000 -1.000000 -0.000000
vn -0.000000 -1.000000 -0.000000
vn -0.000000 -1.000000 -0.000000
vn -0.000000 -1.000000 -0.000000
vn -0.000000 -1.000000 -0.000000
vn -0.000000 -1.000000 -0.000000
vn -0.000000 -1.000000 -0.000000
vn 0.000000 1.000000 0.000000
vn 0.000000 1.000000 0.000000
vn 0.000000 1.000000 0.000000
vn 0.000000 1.000000 0.000000
vn 0.000000 0.000000 -1.000000
vn 0.000000 0.000000 -1.000000
vn 0.000000 0.000000 -1.000000
vn 0.000000 0.000000 -1.000000
vn 0.000000 0.000000 -1.000000
vn 0.000000 0.000000 -1.000000
vn 0.000000 0.000000 -1.000000
vn -0.000000 -0.000000 1.000000
vn -0.000000 -0.000000 1.000000
vn -0.000000 -0.000000 1.000000
vn -0.000000 -0.000000 1.000000
vn -0.000000 -0.000000 1.000000
vn -0.000000 -0.000000 1.000000
vn -0.000000 -0.000000 1.000000
vn -0.000000 -0.328292 -0.944576
vn -0.000000 -0.328292 -0.944576
vn -0.000000 -0.328292 -0.944576
vn -0.000000 -0.328292 -0.944576
vn -0.000000 -0.328292 -0.944576
vn -0.000000 -0.328292 -0.944576
vn -0.000000 -0.328292 -0.944576
vn -0.000000 -0.328292 -0.944576
vn -0.000000 -0.328292 0.944576
vn -0.000000 -0.328292 0.944576
vn -0.000000 -0.328292 0.944576
vn -0.000000 -0.328292 0.944576
vn -0.000000 -0.328292 0.944576
vn -0.000000 -0.328292 0.944576
vn -0.000000 -0.328292 0.944576
vn -0.000000 -0.328292 0.944576
vn 0.000000 0.000000 -1.000000
vn 0.000000 0.000000 -1.000000
vn 0.000000 0.000000 -1.000000
vn 0.000000 0.000000 -1.000000
vn 0.000000 0.000000 -1.000000
vn 0.000000 0.000000 -1.000000
vn 0.000000 0.000000 -1.000000
vn 0.000000 0.000000 -1.000000
vn 0.000000 0.000000 -1.000000
vn 0.000000 0.000000 -1.000000
vn 0.000000 0.000000 -1.000000
vn 0.000000 0.000000 -1.000000
vn -0.000000 -0.000000 1.000000
vn -0.000000 -0.000000 1.000000
vn -0.000000 -0.000000 1.000000
vn -0.000000 -0.000000 1.000000
vn -0.000000 -0.000000 1.000000
vn -0.000000 -0.000000 1.000000
vn -0.000000 -0.000000 1.000000
vn -0.000000 -0.000000 1.000000
vn -0.000000 -0.000000 1.000000
vn -0.000000 -0.000000 1.000000
vn -0.000000 -0.000000 1.000000
vn -0.000000 -0.000000 1.000000
vn -0.000000 -0.000000 1.000000
vn -0.000000 -0.000000 1.000000
vn 0.000000 0.000000 -1.000000
vn 0.000000 0.000000 -1.000000
vn 0.000000 0.000000 -1.000000
vn 0.000000 0.000000 -1.000000
vn 0.000000 0.000000 -1.000000
vn 0.000000 0.000000 -1.000000
vn 0.000000 0.000000 -1.000000
vn 0.000000 0.000000 -1.000000
vn 0.000000 0.000000 -1.000000
vn -0.000000 -0.000000 1.000000
vn -0.000000 -0.000000 1.000000
vn -0.000000 -0.000000 1.000000
vn -0.000000 -0.000000 1.000000
vn -0.000000 -0.000000 1.000000
vn -0.000000 -0.000000 1.000000
vn -0.000000 -0.000000 1.000000
vn -0.000000 -0.000000 1.000000
vn -0.000000 -0.000000 1.000000
vn 0.000000 0.000000 -1.000000
vn 0.000000 0.000000 -1.000000
vn 0.000000 0.000000 -1.000000
vn 0.000000 0.000000 -1.000000
vn 0.000000 0.000000 -1.000000
vn 0.000000 0.000000 -1.000000
vn 0.000000 0.000000 -1.000000
vn 0.000000 0.000000 -1.000000
vn 0.000000 0.000000 -1.000000
vn -0.000000 -0.000000 1.000000
vn -0.000000 -0.000000 1.000000
vn -0.000000 -0.000000 1.000000
vn -0.000000 -0.000000 1.000000
vn -0.000000 -0.000000 1.000000
vn -0.000000 -0.000000 1.000000
vn -0.000000 -0.000000 1.000000
vn -0.000000 -0.000000 1.000000
vn -0.000000 -0.000000 1.000000
vn 0.000000 0.000000 -1.000000
vn 0.000000 0.000000 -1.000000
vn 0.000000 0.000000 -1.000000
vn 0.000000 0.000000 -1.000000
vn 0.000000 0.000000 -1.000000
vn 0.000000 0.000000 -1.000000
vn 0.000000 0.000000 -1.000000
vn 0.000000 0.000000 -1.000000
vn 0.000000 0.000000 -1.000000
vn 0.000000 0.000000 -1.000000
vn 0.000000 0.000000 -1.000000
vn 0.000000 0.000000 -1.000000
vn 0.000000 0.000000 -1.000000
vn 0.000000 0.000000 -1.000000
vn 0.000000 0.000000 -1.000000
vn 0.000000 0.000000 -1.000000
vn 0.000000 0.000000 -1.000000
vn 0.000000 0.000000 -1.000000
vn 0.000000 0.000000 -1.000000
vn 0.000000 0.000000 -1.000000
vn -0.000000 -0.000000 1.000000
vn -0.000000 -0.000000 1.000000
vn -0.000000 -0.000000 1.000000
vn -0.000000 -0.000000 1.000000
vn -0.000000 -0.000000 1.000000
vn -0.000000 -0.000000 1.000000
vn -0.000000 -0.000000 1.000000
vn -0.000000 -0.000000 1.000000
vn -0.000000 -0.000000 1.000000
vn -0.000000 -0.000000 1.000000
vn -0.000000 -0.000000 1.000000
vn -0.000000 -0.000000 1.000000
vn -0.000000 -0.000000 1.000000
vn -0.000000 -0.000000 1.000000
vn -0.000000 -0.000000 1.000000
vn -0.000000 -0.000000 1.000000
vn -0.000000 -0.000000 1.000000
vn -0.000000 -0.000000 1.000000
vn -0.000000 -0.000000 1.000000
vn -0.000000 -0.000000 1.000000
vn -0.000000 -1.000000 -0.000000
vn 0.292005 -0.956417 -0.000000
vn 0.292005 -0.956417 -0.000000
vn -0.000000 -1.000000 -0.000000
vn 0.292005 -0.956417 -0.000000
vn 0.292005 -0.956417 -0.000000
vn -0.000000 -1.000000 -0.000000
vn -0.000000 -1.000000 -0.000000
vn 0.000000 1.000000 0.000000
vn 0.000000 1.000000 0.000000
vn 0.000000 1.000000 0.000000
vn 0.000000 1.000000 0.000000
vn 0.000000 1.000000 0.000000
vn 0.000000 1.000000 0.000000
vn 0.000000 1.000000 0.000000
vn 0.000000 1.000000 0.000000
vn 0.000000 1.000000 0.000000
vn 0.000000 1.000000 0.000000
vn 0.000000 1.000000 0.000000
vn 0.000000 1.000000 0.000000
vn 0.000000 1.000000 0.000000
vn 0.000000 1.000000 0.000000
vn 0.000000 1.000000 0.000000
vn 0.000000 1.000000 0.000000
vn 0.000000 1.000000 0.000000
vn 0.000000 1.000000 0.000000
vn -0.000000 -1.000000 -0.000000
vn -0.000000 -1.000000 -0.000000
vn -0.000000 -1.000000 -0.000000
vn -0.000000 -1.000000 -0.000000
vn -0.000000 -1.000000 -0.000000
vn -0.000000 -1.000000 -0.000000
vn -0.000000 -1.000000 -0.000000
vn -0.000000 -1.000000 -0.000000
vn -0.363792 0.931480 0.000000
vn -0.363792 0.931480 0.000000
vn -0.185104 0.982719 0.000000
vn -0.185104 0.982719 0.000000
vn 0.000000 1.000000 0.000000
vn 0.000000 1.000000 0.000000
vn -0.000000 -1.000000 -0.000000
vn -0.000000 -1.000000 -0.000000
vn -0.000000 -1.000000 -0.000000
vn -0.000000 -1.000000 -0.000000
vn -0.000000 -1.000000 -0.000000
vn -0.000000 -1.000000 -0.000000
vn -0.000000 -1.000000 -0.000000
vn -0.000000 -1.000000 -0.000000
vn -0.000000 -1.000000 -0.000000
vn -0.000000 -1.000000 -0.000000
vn 0.000000 1.000000 0.000000
vn 0.000000 1.000000 0.000000
vn 0.000000 1.000000 0.000000
vn 0.000000 1.000000 0.000000
vn 0.000000 1.000000 0.000000
vn 0.000000 1.000000 0.000000
vn -1.000000 0.000000 0.000000
vn -1.000000 0.000000 0.000000
vn -1.000000 0.000000 0.000000
vn -1.000000 0.000000 0.000000
vn -1.000000 0.000000 0.000000
vn -1.000000 0.000000 0.000000
vn -1.000000 0.000000 0.000000
vn -1.000000 0.000000 0.000000
vn -0.000000 -1.000000 -0.000000
vn -0.000000 -1.000000 -0.000000
vn -0.000000 -1.000000 -0.000000
vn -0.000000 -1.000000 -0.000000
vn -0.000000 -1.000000 -0.000000
vn -0.000000 -1.000000 -0.000000
vn -0.000000 -1.000000 -0.000000
vn -0.000000 -1.000000 -0.000000
vn -0.000000 -1.000000 -0.000000
vn -0.000000 -1.000000 -0.000000
vn -0.000000 -1.000000 -0.000000
vn -0.000000 -1.000000 -0.000000
vn -1.000000 0.000000 0.000000
vn -1.000000 0.000000 0.000000
vn -1.000000 0.000000 0.000000
vn -1.000000 0.000000 0.000000
vn 1.000000 -0.000000 0.000000
vn 1.000000 -0.000000 0.000000
vn 1.000000 -0.000000 0.000000
vn 1.000000 -0.000000 0.000000
vn 1.000000 -0.000000 0.000000
vn 1.000000 -0.000000 0.000000
vn 1.000000 -0.000000 0.000000
vn 1.000000 -0.000000 0.000000
vn 1.000000 -0.000000 0.000000
vn 1.000000 -0.000000 0.000000
vn 1.000000 -0.000000 0.000000
vn 1.000000 -0.000000 0.000000
vn 1.000000 -0.000000 0.000000
vn 1.000000 -0.000000 0.000000
vn 1.000000 -0.000000 0.000000
vn 1.000000 -0.000000 0.000000
vn -0.930068 0.367387 0.000000
vn -0.930068 0.367387 0.000000
vn -0.982361 0.186993 0.000000
vn -0.982361 0.186993 0.000000
vn -0.940713 -0.339205 -0.000000
vn -0.940713 -0.339205 -0.000000
vn -0.769883 -0.638186 -0.000000
vn -0.769883 -0.638186 -0.000000
vn 1.000000 -0.000000 0.000000
vn 1.000000 -0.000000 0.000000
vn 1.000000 -0.000000 0.000000
vn 1.000000 -0.000000 0.000000

vt 0.000000 0.000000 0.0
vt 0.000000 0.000000 0.0
vt 0.000000 0.000000 0.0
vt 0.000000 0.000000 0.0
vt 0.000000 0.000000 0.0
vt 0.000000 0.000000 0.0
vt 0.000000 0.000000 0.0
vt 0.000000 0.000000 0.0
vt 0.000000 0.000000 0.0
vt 0.000000 0.000000 0.0
vt 0.000000 0.000000 0.0
vt 0.000000 0.000000 0.0
vt 0.000000 0.000000 0.0
vt 0.000000 0.000000 0.0
vt 0.000000 0.000000 0.0
vt 0.000000 0.000000 0.0
vt 0.000000 0.000000 0.0
vt 0.000000 0.000000 0.0
vt 0.000000 0.000000 0.0
vt 0.000000 0.000000 0.0
vt 0.000000 0.000000 0.0
vt 0.000000 0.000000 0.0
vt 0.000000 0.000000 0.0
vt 0.000000 0.000000 0.0
vt 0.000000 0.000000 0.0
vt 0.000000 0.000000 0.0
vt 0.000000 0.000000 0.0
vt 0.000000 0.000000 0.0
vt 0.000000 0.000000 0.0
vt 0.000000 0.000000 0.0
vt 0.000000 0.000000 0.0
vt 0.000000 0.000000 0.0
vt 0.000000 0.000000 0.0
vt 0.000000 0.000000 0.0
vt 0.000000 0.000000 0.0
vt 0.000000 0.000000 0.0
vt 0.000000 0.000000 0.0
vt 0.000000 0.000000 0.0
vt 0.000000 0.000000 0.0
vt 0.000000 0.000000 0.0
vt 0.000000 0.000000 0.0
vt 0.000000 0.000000 0.0
vt 0.000000 0.000000 0.0
vt 0.000000 0.000000 0.0
vt 0.000000 0.000000 0.0
vt 0.000000 0.000000 0.0
vt 0.000000 0.000000 0.0
vt 0.000000 0.000000 0.0
vt 0.000000 0.000000 0.0
vt 0.000000 0.000000 0.0
vt 0.000000 0.000000 0.0
vt 0.000000 0.000000 0.0
vt 0.000000 0.000000 0.0
vt 0.000000 0.000000 0.0
vt 0.000000 0.000000 0.0
vt 0.000000 0.000000 0.0
vt 0.000000 0.000000 0.0
vt 0.000000 0.000000 0.0
vt 0.000000 0.000000 0.0
vt 0.000000 0.000000 0.0
vt 0.000000 0.000000 0.0
vt 0.000000 0.000000 0.0
vt 0.000000 0.000000 0.0
vt 0.000000 0.000000 0.0
vt 0.000000 0.000000 0.0
vt 0.000000 0.000000 0.0
vt 0.000000 0.000000 0.0
vt 0.000000 0.000000 0.0
vt 0.000000 0.000000 0.0
vt 0.000000 0.000000 0.0
vt 0.000000 0.000000 0.0
vt 0.000000 0.000000 0.0
vt 0.000000 0.000000 0.0
vt 0.000000 0.000000 0.0
vt 0.000000 0.000000 0.0
vt 0.000000 0.000000 0.0
vt 0.000000 0.000000 0.0
vt 0.000000 0.000000 0.0
vt 0.000000 0.000000 0.0
vt 0.000000 0.000000 0.0
vt 0.000000 0.000000 0.0
vt 0.000000 0.000000 0.0
vt 0.000000 0.000000 0.0
vt 0.000000 0.000000 0.0
vt 0.000000 0.000000 0.0
vt 0.000000 0.000000 0.0
vt 0.000000 0.000000 0.0
vt 0.000000 0.000000 0.0
vt 0.000000 0.000000 0.0
vt 0.000000 0.000000 0.0
vt 0.000000 0.000000 0.0
vt 0.000000 0.000000 0.0
vt 0.000000 0.000000 0.0
vt 0.000000 0.000000 0.0
vt 0.000000 0.000000 0.0
vt 0.000000 0.000000 0.0
vt 0.000000 0.000000 0.0
vt 0.000000 0.000000 0.0
vt 0.000000 0.000000 0.0
vt 0.000000 0.000000 0.0
vt 0.000000 0.000000 0.0
vt 0.000000 0.000000 0.0
vt 0.000000 0.000000 0.0
vt 0.000000 0.000000 0.0
vt 0.000000 0.000000 0.0
vt 0.000000 0.000000 0.0
vt 0.000000 0.000000 0.0
vt 0.000000 0.000000 0.0
vt 0.000000 0.000000 0.0
vt 0.000000 0.000000 0.0
vt 0.000000 0.000000 0.0
vt 0.000000 0.000000 0.0
vt 0.000000 0.000000 0.0
vt 0.000000 0.000000 0.0
vt 0.000000 0.000000 0.0
vt 0.000000 0.000000 0.0
vt 0.000000 0.000000 0.0
vt 0.000000 0.000000 0.0
vt 0.000000 0.000000 0.0
vt 0.000000 0.000000 0.0
vt 0.000000 0.000000 0.0
vt 0.000000 0.000000 0.0
vt 0.000000 0.000000 0.0
vt 0.000000 0.000000 0.0
vt 0.000000 0.000000 0.0
vt 0.000000 0.000000 0.0
vt 0.000000 0.000000 0.0
vt 0.000000 0.000000 0.0
vt 0.000000 0.000000 0.0
vt 0.000000 0.000000 0.0
vt 0.000000 0.000000 0.0
vt 0.000000 0.000000 0.0
vt 0.000000 0.000000 0.0
vt 0.000000 0.000000 0.0
vt 0.000000 0.000000 0.0
vt 0.000000 0.000000 0.0
vt 0.000000 0.000000 0.0
vt 0.000000 0.000000 0.0
vt 0.000000 0.000000 0.0
vt 0.000000 0.000000 0.0
vt 0.000000 0.000000 0.0
vt 0.000000 0.000000 0.0
vt 0.000000 0.000000 0.0
vt 0.000000 0.000000 0.0
vt 0.000000 0.000000 0.0
vt 0.000000 0.000000 0.0
vt 0.000000 0.000000 0.0
vt 0.000000 0.000000 0.0
vt 0.000000 0.000000 0.0
vt 0.000000 0.000000 0.0
vt 0.000000 0.000000 0.0
vt 0.000000 0.000000 0.0
vt 0.000000 0.000000 0.0
vt 0.000000 0.000000 0.0
vt 0.000000 0.000000 0.0
vt 0.000000 0.000000 0.0
vt 0.000000 0.000000 0.0
vt 0.000000 0.000000 0.0
vt 0.000000 0.000000 0.0
vt 0.000000 0.000000 0.0
vt 0.000000 0.000000 0.0
vt 0.000000 0.000000 0.0
vt 0.000000 0.000000 0.0
vt 0.000000 0.000000 0.0
vt 0.000000 0.000000 0.0
vt 0.000000 0.000000 0.0
vt 0.000000 0.000000 0.0
vt 0.000000 0.000000 0.0
vt 0.000000 0.000000 0.0
vt 0.000000 0.000000 0.0
vt 0.000000 0.000000 0.0
vt 0.000000 0.000000 0.0
vt 0.000000 0.000000 0.0
vt 0.000000 0.000000 0.0
vt 0.000000 0.000000 0.0
vt 0.000000 0.000000 0.0
vt 0.000000 0.000000 0.0
vt 0.000000 0.000000 0.0
vt 0.000000 0.000000 0.0
vt 0.000000 0.000000 0.0
vt 0.000000 0.000000 0.0
vt 0.000000 0.000000 0.0
vt 0.000000 0.000000 0.0
vt 0.000000 0.000000 0.0
vt 0.000000 0.000000 0.0
vt 0.000000 0.000000 0.0
vt 0.000000 0.000000 0.0
vt 0.000000 0.000000 0.0
vt 0.000000 0.000000 0.0
vt 0.000000 0.000000 0.0
vt 0.000000 0.000000 0.0
vt 0.000000 0.000000 0.0
vt 0.000000 0.000000 0.0
vt 0.000000 0.000000 0.0
vt 0.000000 0.000000 0.0
vt 0.000000 0.000000 0.0
vt 0.000000 0.000000 0.0
vt 0.000000 0.000000 0.0
vt 0.000000 0.000000 0.0
vt 0.000000 0.000000 0.0
vt 0.000000 0.000000 0.0
vt 0.000000 0.000000 0.0
vt 0.000000 0.000000 0.0
vt 0.000000 0.000000 0.0
vt 0.000000 0.000000 0.0
vt 0.000000 0.000000 0.0
vt 0.000000 0.000000 0.0
vt 0.000000 0.000000 0.0
vt 0.000000 0.000000 0.0
vt 0.000000 0.000000 0.0
vt 0.000000 0.000000 0.0
vt 0.000000 0.000000 0.0
vt 0.000000 0.000000 0.0
vt 0.000000 0.000000 0.0
vt 0.000000 0.000000 0.0
vt 0.000000 0.000000 0.0
vt 0.000000 0.000000 0.0
vt 0.000000 0.000000 0.0
vt 0.000000 0.000000 0.0
vt 0.000000 0.000000 0.0
vt 0.000000 0.000000 0.0
vt 0.000000 0.000000 0.0
vt 0.000000 0.000000 0.0
vt 0.000000 0.000000 0.0
vt 0.000000 0.000000 0.0
vt 0.000000 0.000000 0.0
vt 0.000000 0.000000 0.0
vt 0.000000 0.000000 0.0
vt 0.000000 0.000000 0.0
vt 0.000000 0.000000 0.0
vt 0.000000 0.000000 0.0
vt 0.000000 0.000000 0.0
vt 0.000000 0.000000 0.0
vt 0.000000 0.000000 0.0
vt 0.000000 0.000000 0.0
vt 0.000000 0.000000 0.0
vt 0.000000 0.000000 0.0
vt 0.000000 0.000000 0.0
vt 0.000000 0.000000 0.0
vt 0.000000 0.000000 0.0
vt 0.000000 0.000000 0.0
vt 0.000000 0.000000 0.0
vt 0.000000 0.000000 0.0
vt 0.000000 0.000000 0.0
vt 0.000000 0.000000 0.0
vt 0.000000 0.000000 0.0
vt 0.000000 0.000000 0.0
vt 0.000000 0.000000 0.0
vt 0.000000 0.000000 0.0
vt 0.000000 0.000000 0.0
vt 0.000000 0.000000 0.0
vt 0.000000 0.000000 0.0
vt 0.000000 0.000000 0.0
vt 0.000000 0.000000 0.0
vt 0.000000 0.000000 0.0
vt 0.000000 0.000000 0.0
vt 0.000000 0.000000 0.0
vt 0.000000 0.000000 0.0
vt 0.000000 0.000000 0.0
vt 0.000000 0.000000 0.0
vt 0.000000 0.000000 0.0
vt 0.000000 0.000000 0.0
vt 0.000000 0.000000 0.0
vt 0.000000 0.000000 0.0
vt 0.000000 0.000000 0.0
vt 0.000000 0.000000 0.0
vt 0.000000 0.000000 0.0
vt 0.000000 0.000000 0.0
vt 0.000000 0.000000 0.0
vt 0.000000 0.000000 0.0
vt 0.000000 0.000000 0.0
vt 0.000000 0.000000 0.0
vt 0.000000 0.000000 0.0
vt 0.000000 0.000000 0.0
vt 0.000000 0.000000 0.0
vt 0.000000 0.000000 0.0
vt 0.000000 0.000000 0.0
vt 0.000000 0.000000 0.0
vt 0.000000 0.000000 0.0
vt 0.000000 0.000000 0.0
vt 0.000000 0.000000 0.0
vt 0.000000 0.000000 0.0
vt 0.000000 0.000000 0.0
vt 0.000000 0.000000 0.0
vt 0.000000 0.000000 0.0
vt 0.000000 0.000000 0.0
vt 0.000000 0.000000 0.0
vt 0.000000 0.000000 0.0
vt 0.000000 0.000000 0.0
vt 0.000000 0.000000 0.0
vt 0.000000 0.000000 0.0
vt 0.000000 0.000000 0.0
vt 0.000000 0.000000 0.0
vt 0.000000 0.000000 0.0
vt 0.000000 0.000000 0.0
vt 0.000000 0.000000 0.0
vt 0.000000 0.000000 0.0
vt 0.000000 0.000000 0.0
vt 0.000000 0.000000 0.0
vt 0.000000 0.000000 0.0

f 1/1/1 2/2/2 3/3/3
f 2/2/2 4/4/4 3/3/3
f 5/5/5 6/6/6 7/7/7
f 6/6/6 8/8/8 7/7/7
f 9/9/9 10/10/10 11/11/11
f 10/10/10 9/9/9 12/12/12
f 13/13/13 14/14/14 15/15/15
f 15/15/15 16/16/16 13/13/13
f 17/17/17 18/18/18 19/19/19
f 18/18/18 17/17/17 20/20/20
f 21/21/21 22/22/22 23/23/23
f 23/23/23 22/22/22 24/24/24
f 21/21/21 25/25/25 22/22/22
f 26/26/26 25/25/25 21/21/21
f 27/27/27 28/28/28 29/29/29
f 29/29/29 28/28/28 30/30/30
f 31/31/31 32/32/32 33/33/33
f 32/32/32 31/31/31 34/34/34
f 35/35/35 36/36/36 37/37/37
f 37/37/37 38/38/38 35/35/35
f 39/39/39 40/40/40 41/41/41
f 41/41/41 40/40/40 42/42/42
f 40/40/40 39/39/39 43/43/43
f 43/43/43 44/44/44 40/40/40
f 44/44/44 43/43/43 45/45/45
f 45/45/45 46/46/46 44/44/44
f 45/45/45 47/47/47 46/46/46
f 48/48/48 47/47/47 45/45/45
f 49/49/49 50/50/50 51/51/51
f 50/50/50 49/49/49 52/52/52
f 52/52/52 49/49/49 53/53/53
f 51/51/51 54/54/54 49/49/49
f 54/54/54 51/51/51 55/55/55
f 55/55/55 56/56/56 54/54/54
f 57/57/57 58/58/58 59/59/59
f 60/60/60 59/59/59 58/58/58
f 61/61/61 62/62/62 63/63/63
f 63/63/63 62/62/62 64/64/64
f 62/62/62 61/61/61 65/65/65
f 65/65/65 61/61/61 66/66/66
f 65/65/65 66/66/66 67/67/67
f 68/68/68 69/69/69 70/70/70
f 70/70/70 69/69/69 71/71/71
f 70/70/70 71/71/71 72/72/72
f 69/69/69 68/68/68 73/73/73
f 73/73/73 68/68/68 74/74/74
f 75/75/75 76/76/76 77/77/77
f 76/76/76 75/75/75 78/78/78
f 78/78/78 79/79/79 76/76/76
f 80/80/80 76/76/76 79/79/79
f 79/79/79 81/81/81 80/80/80
f 82/82/82 80/80/80 81/81/81
f 83/83/83 84/84/84 85/85/85
f 86/86/86 84/84/84 83/83/83
f 87/87/87 85/85/85 84/84/84
f 85/85/85 87/87/87 88/88/88
f 89/89/89 88/88/88 87/87/87
f 88/88/88 89/89/89 90/90/90
f 91/91/91 92/92/92 93/93/93
f 93/93/93 94/94/94 91/91/91
f 95/95/95 93/93/93 92/92/92
f 94/94/94 93/93/93 96/96/96
f 97/97/97 95/95/95 92/92/92
f 98/98/98 94/94/94 96/96/96
f 99/99/99 97/97/97 92/92/92
f 94/94/94 98/98/98 100/100/100
f 99/99/99 100/100/100 98/98/98
f 100/100/100 99/99/99 101/101/101
f 99/99/99 98/98/98 102/102/102
f 97/97/97 99/99/99 102/102/102
f 103/103/103 104/104/104 105/105/105
f 106/106/106 103/103/103 105/105/105
f 105/105/105 107/107/107 106/106/106
f 108/108/108 106/106/106 107/107/107
f 106/106/106 108/108/108 109/109/109
f 108/108/108 110/110/110 109/109/109
f 109/109/109 110/110/110 111/111/111
f 111/111/111 110/110/110 112/112/112
f 110/110/110 113/113/113 112/112/112
f 113/113/113 104/104/104 103/103/103
f 112/112/112 113/113/113 114/114/114
f 113/113/113 103/103/103 114/114/114
f 104/104/104 113/113/113 115/115/115
f 115/115/115 113/113/113 116/116/116
f 117/117/117 118/118/118 119/119/119
f 120/120/120 119/119/119 118/118/118
f 119/119/119 120/120/120 121/121/121
f 121/121/121 120/120/120 122/122/122
f 122/122/122 120/120/120 123/123/123
f 122/122/122 123/123/123 124/124/124
f 124/124/124 125/125/125 122/122/122
f 126/126/126 127/127/127 128/128/128
f 129/129/129 127/127/127 126/126/126
f 127/127/127 129/129/129 130/130/130
f 126/126/126 128/128/128 131/131/131
f 126/126/126 131/131/131 132/132/132
f 131/131/131 133/133/133 132/132/132
f 133/133/133 131/131/131 134/134/134
f 135/135/135 136/136/136 137/137/137
f 136/136/136 138/138/138 137/137/137
f 138/138/138 136/136/136 139/139/139
f 137/137/137 138/138/138 140/140/140
f 135/135/135 137/137/137 141/141/141
f 135/135/135 141/141/141 142/142/142
f 142/142/142 143/143/143 135/135/135
f 144/144/144 145/145/145 146/146/146
f 146/146/146 145/145/145 147/147/147
f 145/145/145 144/144/144 148/148/148
f 148/148/148 149/149/149 145/145/145
f 149/149/149 148/148/148 150/150/150
f 150/150/150 148/148/148 151/151/151
f 149/149/149 150/150/150 152/152/152
f 153/153/153 154/154/154 155/155/155
f 156/156/156 155/155/155 154/154/154
f 157/157/157 155/155/155 156/156/156
f 154/154/154 153/153/153 158/158/158
f 156/156/156 159/159/159 157/157/157
f 157/157/157 159/159/159 160/160/160
f 160/160/160 159/159/159 161/161/161
f 159/159/159 162/162/162 161/161/161
f 162/162/162 159/159/159 163/163/163
f 154/154/154 164/164/164 156/156/156
f 164/164/164 162/162/162 163/163/163
f 164/164/164 154/154/154 165/165/165
f 164/164/164 166/166/166 162/162/162
f 165/165/165 166/166/166 164/164/164
f 167/167/167 166/166/166 165/165/165
f 166/166/166 167/167/167 168/168/168
f 166/166/166 168/168/168 169/169/169
f 170/170/170 166/166/166 169/169/169
f 168/168/168 167/167/167 171/171/171
f 166/166/166 170/170/170 172/172/172
f 172/172/172 170/170/170 171/171/171
f 171/171/171 167/167/167 158/158/158
f 171/171/171 153/153/153 172/172/172
f 153/153/153 171/171/171 158/158/158
f 173/173/173 174/174/174 175/175/175
f 174/174/174 176/176/176 175/175/175
f 176/176/176 177/177/177 175/175/175
f 174/174/174 178/178/178 176/176/176
f 179/179/179 177/177/177 176/176/176
f 178/178/178 174/174/174 180/180/180
f 177/177/177 179/179/179 181/181/181
f 178/178/178 180/180/180 182/182/182
f 183/183/183 174/174/174 173/173/173
f 173/173/173 182/182/182 183/183/183
f 182/182/182 173/173/173 181/181/181
f 182/182/182 184/184/184 183/183/183
f 184/184/184 182/182/182 180/180/180
f 182/182/182 181/181/181 185/185/185
f 179/179/179 185/185/185 181/181/181
f 185/185/185 186/186/186 182/182/182
f 185/185/185 179/179/179 187/187/187
f 186/186/186 185/185/185 188/188/188
f 179/179/179 189/189/189 187/187/187
f 190/190/190 186/186/186 188/188/188
f 190/190/190 187/187/187 189/189/189
f 186/186/186 190/190/190 191/191/191
f 190/190/190 189/189/189 192/192/192
f 192/192/192 191/191/191 190/190/190
f 193/193/193 194/194/194 195/195/195
f 193/193/193 195/195/195 196/196/196
f 194/194/194 197/197/197 195/195/195
f 198/198/198 197/197/197 194/194/194
f 198/198/198 199/199/199 197/197/197
f 200/200/200 197/197/197 199/199/199
f 201/201/201 202/202/202 203/203/203
f 201/201/201 203/203/203 204/204/204
f 205/205/205 206/206/206 207/207/207
f 205/205/205 207/207/207 208/208/208
f 209/209/209 210/210/210 211/211/211
f 209/209/209 211/211/211 212/212/212
f 213/213/213 214/214/214 215/215/215
f 215/215/215 214/214/214 216/216/216
f 217/217/217 214/214/214 213/213/213
f 217/217/217 213/213/213 218/218/218
f 219/219/219 220/220/220 221/221/221
f 222/222/222 221/221/221 220/220/220
f 223/223/223 224/224/224 225/225/225
f 224/224/224 223/223/223 226/226/226
f 227/227/227 228/228/228 229/229/229
f 229/229/229 228/228/228 230/230/230
f 229/229/229 230/230/230 231/231/231
f 232/232/232 229/229/229 231/231/231
f 233/233/233 234/234/234 235/235/235
f 234/234/234 233/233/233 236/236/236
f 236/236/236 233/233/233 237/237/237
f 236/236/236 237/237/237 238/238/238
f 239/239/239 240/240/240 241/241/241
f 242/242/242 241/241/241 240/240/240
f 243/243/243 244/244/244 245/245/245
f 246/246/246 243/243/243 245/245/245
f 244/244/244 243/243/243 247/247/247
f 244/244/244 247/247/247 248/248/248
f 249/249/249 250/250/250 251/251/251
f 251/251/251 252/252/252 249/249/249
f 253/253/253 254/254/254 255/255/255
f 255/255/255 256/256/256 253/253/253
f 257/257/257 258/258/258 259/259/259
f 258/258/258 260/260/260 259/259/259
f 261/261/261 262/262/262 263/263/263
f 262/262/262 264/264/264 263/263/263
f 265/265/265 266/266/266 267/267/267
f 268/268/268 267/267/267 266/266/266
f 269/269/269 270/270/270 271/271/271
f 271/271/271 270/270/270 272/272/272
f 273/273/273 274/274/274 275/275/275
f 275/275/275 274/274/274 276/276/276
f 277/277/277 278/278/278 279/279/279
f 279/279/279 278/278/278 280/280/280
f 281/281/281 282/282/282 283/283/283
f 282/282/282 281/281/281 284/284/284
f 285/285/285 286/286/286 287/287/287
f 287/287/287 286/286/286 288/288/288
f 289/289/289 290/290/290 291/291/291
f 291/291/291 292/292/292 289/289/289
f 292/292/292 291/291/291 293/293/293
f 293/293/293 294/294/294 292/292/292
f 293/293/293 295/295/295 294/294/294
f 293/293/293 296/296/296 295/295/295
f 297/297/297 298/298/298 299/299/299
f 299/299/299 298/298/298 300/300/300
